<?xml version="1.0" encoding="UTF-8"?>
<svg width="199px" height="199px" viewBox="0 0 199 199" version="1.1" xmlns="http://www.w3.org/2000/svg" xmlns:xlink="http://www.w3.org/1999/xlink">
    <title>Artwork</title>
    <defs>
        <linearGradient x1="70.2779743%" y1="-19.8244312%" x2="46.8370664%" y2="27.1617587%" id="linearGradient-1">
            <stop stop-color="#BFECF6" offset="0%"></stop>
            <stop stop-color="#8AD4E9" offset="100%"></stop>
        </linearGradient>
        <circle id="path-2" cx="99.5" cy="99.5" r="99.5"></circle>
        <linearGradient x1="50%" y1="100%" x2="50%" y2="0%" id="linearGradient-4">
            <stop stop-color="#52C142" offset="0%"></stop>
            <stop stop-color="#AAF2A2" offset="100%"></stop>
        </linearGradient>
        <linearGradient x1="95.2170617%" y1="43.5041182%" x2="35.9373072%" y2="52.1442269%" id="linearGradient-5">
            <stop stop-color="#FFFFFF" offset="0%"></stop>
            <stop stop-color="#CEF1FF" offset="100%"></stop>
        </linearGradient>
        <polygon id="path-6" points="16.7984496 0.852713178 59.2325581 0.852713178 59.2325581 33.7054264 0.372093023 33.7054264"></polygon>
        <linearGradient x1="142.739242%" y1="-16.0613859%" x2="11.8891274%" y2="30.4052134%" id="linearGradient-8">
            <stop stop-color="#D4A9E8" offset="0%"></stop>
            <stop stop-color="#A89BDE" offset="100%"></stop>
        </linearGradient>
    </defs>
    <g id="Empty-States" stroke="none" stroke-width="1" fill="none" fill-rule="evenodd">
        <g id="4.4_No-Purchases" transform="translate(-88.000000, -168.000000)">
            <g id="Artwork" transform="translate(88.000000, 168.000000)">
                <mask id="mask-3" fill="white">
                    <use xlink:href="#path-2"></use>
                </mask>
                <use id="base" fill="url(#linearGradient-1)" xlink:href="#path-2"></use>
                <path d="M128.83655,37 C142.243598,37 153.112158,47.8685599 153.112158,61.2756079 C153.112158,68.8138138 149.676249,75.5495201 144.285083,80.0020741 L144.284664,171.61928 L-13.5067873,171.61928 L-13.5067873,72.3099751 C-11.2624176,73.1186253 -9.04715757,73.9059199 -6.86100729,74.671859 L-5.22778733,75.242 L-5.22387176,75.0256581 C-5.14785496,71.8635304 -4.46717876,68.8512017 -3.29304242,66.0998713 C-7.76747256,63.3292353 -10.7481955,58.3746969 -10.7481955,52.7239733 C-10.7481955,44.0398626 -3.70833288,37 4.97577778,37 C13.2127769,37 19.9704815,43.3336131 20.6445032,51.3964511 C24.8057558,51.6671645 28.6817995,52.9867101 32.0101573,55.0934423 C35.7604386,52.719276 40.2073715,51.3446774 44.975359,51.3446774 C58.2483366,51.3446774 69.0333419,61.9969529 69.2477147,75.2188437 L69.2509669,75.6202853 C74.1808658,75.6202853 78.767535,77.0898263 82.5968192,79.6147528 C86.4813986,71.3841845 94.8561209,65.6893548 104.560942,65.6893548 C104.695013,65.6893548 104.828829,65.6904417 104.962384,65.692607 L104.944383,65.5966993 C104.692452,64.1944428 104.560942,62.7503832 104.560942,61.2756079 C104.560942,47.8685599 115.429502,37 128.83655,37 Z" id="bushes" fill="url(#linearGradient-4)" mask="url(#mask-3)"></path>
                <path d="M28.1071591,84.3117456 L30.2693181,85.87448 C31.1121822,86.4836732 31.611391,87.4604338 31.611391,88.5004031 L31.6109992,95.9620382 L36.5809992,95.9620382 L36.5813773,88.9143829 C36.5813773,87.6144212 37.2053882,86.3934704 38.2589683,85.6319789 L39.6111274,84.6546847 C41.0271622,83.6312234 42.9399105,83.6312234 44.3559453,84.6546847 L45.7081044,85.6319789 C46.7616844,86.3934704 47.3856954,87.6144212 47.3856954,88.9143829 L47.3849992,95.9620382 L52.3549992,95.9620382 L52.3556817,88.9143829 C52.3556817,87.6144212 52.9796927,86.3934704 54.0332728,85.6319789 L55.3854318,84.6546847 C56.8014667,83.6312234 58.7142149,83.6312234 60.1302497,84.6546847 L61.4824088,85.6319789 C62.5359889,86.3934704 63.1599998,87.6144212 63.1599998,88.9143829 L63.1599998,129.143182 L52.3556817,129.143182 L52.3549992,105.658038 L47.3849992,105.658038 L47.3856954,129.143182 L36.5813773,129.143182 L36.5809992,105.658038 L31.6109992,105.658038 L31.611391,129.143182 L20.8070728,129.143182 L20.8069992,105.658038 L14.1299992,105.658038 L14.1303668,129.143182 L3.32604871,129.143182 L3.32599924,105.658038 L-1.64400076,105.658038 L-1.64393763,129.143182 L-12.4482557,129.143182 L-12.4490008,105.658038 L-17.4190008,105.658038 L-17.4182421,129.143182 L-28.2225602,129.143182 L-28.2230008,105.658038 L-34.8550008,105.658038 L-34.8540577,129.143182 L-45.6583758,129.143182 L-45.6590008,105.658038 L-50.6290008,105.658038 L-50.6283622,129.143182 L-61.4326803,129.143182 L-61.4330008,105.658038 L-66.4030008,105.658038 L-66.4026666,129.143182 L-77.2069847,129.143182 L-77.2070008,105.658038 L-82.0520008,105.658038 L-82.0516523,129.143182 L-92.8559704,129.143182 L-92.8560008,105.658038 L-98.7420008,105.658038 L-98.741976,129.143182 L-109.546294,129.143182 L-109.547001,105.658038 L-115.433001,105.658038 L-115.4323,129.143182 L-126.236618,129.143182 L-126.237001,105.658038 L-133.200001,105.658099 L-133.200001,95.9629084 L-126.237001,95.9620382 L-126.236618,88.5004031 C-126.236618,87.4604338 -125.737409,86.4836732 -124.894545,85.87448 L-122.732386,84.3117456 C-121.599558,83.4929765 -120.069359,83.4929765 -118.936532,84.3117456 L-116.774372,85.87448 C-115.931508,86.4836732 -115.4323,87.4604338 -115.4323,88.5004031 L-115.433001,95.9620382 L-109.547001,95.9620382 L-109.546294,88.9143829 C-109.546294,87.6144212 -108.922283,86.3934704 -107.868703,85.6319789 L-106.516544,84.6546847 C-105.100509,83.6312234 -103.187761,83.6312234 -101.771726,84.6546847 L-100.419567,85.6319789 C-99.3659869,86.3934704 -98.741976,87.6144212 -98.741976,88.9143829 L-98.7420008,95.9620382 L-92.8560008,95.9620382 L-92.8559704,88.9143829 C-92.8559704,87.6144212 -92.2319594,86.3934704 -91.1783793,85.6319789 L-89.8262203,84.6546847 C-88.4101855,83.6312234 -86.4974372,83.6312234 -85.0814024,84.6546847 L-83.7292433,85.6319789 C-82.6756632,86.3934704 -82.0516523,87.6144212 -82.0516523,88.9143829 L-82.0520008,95.9620382 L-77.2070008,95.9620382 L-77.2069847,88.5004031 C-77.2069847,87.4604338 -76.7077759,86.4836732 -75.8649119,85.87448 L-73.7027528,84.3117456 C-72.569925,83.4929765 -71.0397264,83.4929765 -69.9068985,84.3117456 L-67.7447394,85.87448 C-66.9018754,86.4836732 -66.4026666,87.4604338 -66.4026666,88.5004031 L-66.4030008,95.9620382 L-61.4330008,95.9620382 L-61.4326803,88.9143829 C-61.4326803,87.6144212 -60.8086693,86.3934704 -59.7550892,85.6319789 L-58.4029302,84.6546847 C-56.9868953,83.6312234 -55.0741471,83.6312234 -53.6581123,84.6546847 L-52.3059532,85.6319789 C-51.2523731,86.3934704 -50.6283622,87.6144212 -50.6283622,88.9143829 L-50.6290008,95.9620382 L-45.6590008,95.9620382 L-45.6583758,88.9143829 C-45.6583758,87.6144212 -45.0343649,86.3934704 -43.9807848,85.6319789 L-42.6286257,84.6546847 C-41.2125909,83.6312234 -39.2998426,83.6312234 -37.8838078,84.6546847 L-36.5316488,85.6319789 C-35.4780687,86.3934704 -34.8540577,87.6144212 -34.8540577,88.9143829 L-34.8550008,95.9620382 L-28.2230008,95.9620382 L-28.2225602,88.5004031 C-28.2225602,87.4604338 -27.7233514,86.4836732 -26.8804873,85.87448 L-24.7183283,84.3117456 C-23.5855004,83.4929765 -22.0553018,83.4929765 -20.922474,84.3117456 L-18.7603149,85.87448 C-17.9174508,86.4836732 -17.4182421,87.4604338 -17.4182421,88.5004031 L-17.4190008,95.9620382 L-12.4490008,95.9620382 L-12.4482557,88.9143829 C-12.4482557,87.6144212 -11.8242448,86.3934704 -10.7706647,85.6319789 L-9.41850563,84.6546847 C-8.0024708,83.6312234 -6.08972256,83.6312234 -4.67368773,84.6546847 L-3.32152868,85.6319789 C-2.26794858,86.3934704 -1.64393763,87.6144212 -1.64393763,88.9143829 L-1.64400076,95.9620382 L3.32599924,95.9620382 L3.32604871,88.9143829 C3.32604871,87.6144212 3.95005966,86.3934704 5.00363976,85.6319789 L6.35579881,84.6546847 C7.77183364,83.6312234 9.68458188,83.6312234 11.1006167,84.6546847 L12.4527758,85.6319789 C13.5063559,86.3934704 14.1303668,87.6144212 14.1303668,88.9143829 L14.1299992,95.9620382 L20.8069992,95.9620382 L20.8070728,88.5004031 C20.8070728,87.4604338 21.3062816,86.4836732 22.1491457,85.87448 L24.3113047,84.3117456 C25.4441326,83.4929765 26.9743312,83.4929765 28.1071591,84.3117456 Z" id="fence" fill="url(#linearGradient-5)" mask="url(#mask-3)"></path>
                <rect id="road" fill="#7B8A9C" mask="url(#mask-3)" x="2" y="116" width="218" height="91"></rect>
                <g id="truck" mask="url(#mask-3)">
                    <g transform="translate(53.000000, 50.000000)">
                        <rect id="door" fill="#FFFFFF" fill-rule="evenodd" x="9" y="59" width="64" height="18"></rect>
                        <path d="M75.8139535,26.5348837 L75.8139535,107.403101 L68.8527132,107.403101 L68.8527132,107.403101 C68.8527132,96.592876 60.0892945,87.8294574 49.2790698,87.8294574 C38.468845,87.8294574 29.7054264,96.592876 29.7054264,107.403101 L6.50779614,107.403101 L0,100.665432 L0,68.6693787 L22.744186,26.5348837 L75.8139535,26.5348837 Z M70.2325581,32.8527132 L27.7984496,32.8527132 L11.372093,65.7054264 L70.2325581,65.7054264 L70.2325581,32.8527132 Z" id="Combined-Shape" fill="#FFFFFF" fill-rule="evenodd"></path>
                        <path d="M0,84 C3.58985087,84 6.5,81.0898509 6.5,77.5 C6.5,73.9101491 3.58985087,71 0,71 C0,75.7055998 0,80.587799 0,84 Z" id="Oval-2" fill="#E3E3E3" fill-rule="evenodd"></path>
                        <g id="Rectangle-4-Copy" stroke-width="1" fill="none" fill-rule="evenodd" transform="translate(11.000000, 32.000000)">
                            <mask id="mask-7" fill="white">
                                <use xlink:href="#path-6"></use>
                            </mask>
                            <use id="Mask" fill="#1B3554" opacity="0.295799366" xlink:href="#path-6"></use>
                            <polygon fill="#FFFFFF" opacity="0.295799366" mask="url(#mask-7)" transform="translate(54.430233, 17.279070) scale(1, -1) translate(-54.430233, -17.279070) " points="41.4263566 0.852713178 83.8604651 0.852713178 83.8604651 33.7054264 25 33.7054264"></polygon>
                            <polygon id="Rectangle-4-Copy-2" fill="#FFFFFF" opacity="0.156702899" mask="url(#mask-7)" transform="translate(54.922436, 17.143026) scale(1, -1) rotate(19.000000) translate(-54.922436, -17.143026) " points="52.6612524 -7.686666 60.039924 -7.686666 60.039924 41.9727174 49.8049489 41.9727174"></polygon>
                        </g>
                        <rect id="Rectangle-6" fill="#9DA8C6" fill-rule="evenodd" x="54.3333333" y="70.7596899" width="11.372093" height="3.79069767" rx="1.89534884"></rect>
                        <g id="Group-5" stroke-width="1" fill="none" fill-rule="evenodd" transform="translate(32.000000, 91.000000)">
                            <circle id="Oval-Copy-2" fill="#1B3554" cx="17.2333601" cy="17.3830527" r="16.7749265"></circle>
                            <circle id="Oval-Copy-3" fill="#7B8A9C" cx="17.2333601" cy="17.3830527" r="7.62496659"></circle>
                        </g>
                        <polygon id="Rectangle-29-Copy" fill="#FFFFFF" fill-rule="evenodd" points="75.8139535 0 163 0 163 107.403101 75.8139535 107.403101"></polygon>
                        <polygon id="Rectangle-29" fill="url(#linearGradient-8)" fill-rule="evenodd" points="75.8139535 0 163 0 163 83.3953488 75.8139535 83.3953488"></polygon>
                        <text id="DELIVERY" fill="none" opacity="0.436537591" font-family="SquadaOne-Regular, Squada One" font-size="39" font-weight="normal">
                            <tspan x="96" y="53" fill="#FFFFFF">DELIVERY</tspan>
                        </text>
                    </g>
                </g>
            </g>
        </g>
    </g>
</svg>