<?xml version="1.0" encoding="UTF-8"?>
<svg width="156px" height="265px" viewBox="0 0 156 265" version="1.1" xmlns="http://www.w3.org/2000/svg" xmlns:xlink="http://www.w3.org/1999/xlink">
    <title>Artwork 4</title>
    <defs>
        <linearGradient x1="73.9979778%" y1="-2.59335023%" x2="50%" y2="38.2048104%" id="linearGradient-1">
            <stop stop-color="#B03838" offset="0%"></stop>
            <stop stop-color="#7D3535" offset="100%"></stop>
        </linearGradient>
        <linearGradient x1="73.9979778%" y1="0.319523273%" x2="50%" y2="38.858085%" id="linearGradient-2">
            <stop stop-color="#B03838" offset="0%"></stop>
            <stop stop-color="#7D3535" offset="100%"></stop>
        </linearGradient>
        <linearGradient x1="-7.42224011%" y1="68.9534068%" x2="21.1907761%" y2="68.9534068%" id="linearGradient-3">
            <stop stop-color="#F8966F" offset="0%"></stop>
            <stop stop-color="#D05950" offset="100%"></stop>
        </linearGradient>
        <linearGradient x1="100%" y1="59.5144451%" x2="71.372447%" y2="59.5144451%" id="linearGradient-4">
            <stop stop-color="#FEA684" offset="0%"></stop>
            <stop stop-color="#E0756D" offset="100%"></stop>
        </linearGradient>
        <linearGradient x1="149.701537%" y1="-28.9143584%" x2="50%" y2="50%" id="linearGradient-5">
            <stop stop-color="#FFFFFF" offset="0%"></stop>
            <stop stop-color="#FFAF54" offset="100%"></stop>
        </linearGradient>
        <linearGradient x1="50%" y1="13.0708554%" x2="27.1714294%" y2="67.7413175%" id="linearGradient-6">
            <stop stop-color="#C8D5E5" offset="0%"></stop>
            <stop stop-color="#E9E9E9" stop-opacity="0.645663496" offset="100%"></stop>
        </linearGradient>
        <path d="M8.1,0 L17.2461538,0 L17.2461538,0 L17.2461538,9.11875 C17.2461538,13.5922565 13.6196603,17.21875 9.14615385,17.21875 L0,17.21875 L0,17.21875 L0,8.1 C-5.47846538e-16,3.62649353 3.62649353,-2.73094387e-15 8.1,0 Z" id="path-7"></path>
    </defs>
    <g id="Empty-States" stroke="none" stroke-width="1" fill="none" fill-rule="evenodd">
        <g id="9.1_Empty-Wallet" transform="translate(-113.000000, -84.000000)">
            <g id="Artwork" transform="translate(113.000000, 84.000000)">
                <g id="wallet" transform="translate(0.000000, 136.000000)">
                    <path d="M19.3773403,11.2396334 L91.5896297,0.0607041022 C103.750265,-0.385695455 111.883076,9.08054983 111.883076,22.167869 L111.883076,84.0850202 C111.883076,97.1723394 103.478911,107.412292 93.1118484,106.956594 L21.0545556,103.789224 C10.6874929,103.333526 2.28332808,93.3168177 2.28332808,81.4162792 L2.28332808,33.245112 C2.28332808,21.3445735 8.07136322,13.4429028 19.3773403,11.2396334 Z" id="Rectangle-54-Copy" fill="url(#linearGradient-1)"></path>
                    <path d="M22.1450401,17.2823408 L88.8737167,7.23040566 C99.8083881,6.82900949 105.324889,12.6346297 105.324889,24.402562 L105.324889,80.0775888 C105.324889,91.8455211 97.7679832,101.053142 88.4460671,100.643385 L23.6531684,100.501624 C14.3312522,100.091867 6.77434604,91.0849842 6.77434604,80.3841883 L6.77434604,37.069356 C6.77434604,26.3685601 11.9788654,19.2634895 22.1450401,17.2823408 Z" id="Rectangle-54-Copy-2" fill="url(#linearGradient-2)" style="mix-blend-mode: multiply;" opacity="0.269474638"></path>
                    <path d="M111.576892,30.3055948 L142.710967,51.1424424 C146.704621,53.8152427 149.101796,58.3040818 149.101796,63.1096135 L149.101796,76.1678322 L149.101796,76.1678322 L113.022486,52.0363229 L111.576892,30.3055948 Z" id="Rectangle-56" fill="#7D3535"></path>
                    <path d="M14.3251256,12.7350108 C8.80510594,15.8197512 7.16693271,18.9562547 9.41060594,22.1445213 C12.449309,26.4625278 22.254874,27.2388192 32.1243594,27.2538096 L33.0353751,27.2531121 C33.1871762,27.2526624 33.3389436,27.2520528 33.490653,27.2512935 L34.4000167,27.2450203 C35.005534,27.2397476 35.6093408,27.2324019 36.209875,27.223631 L37.1080265,27.2094869 C37.8170658,27.1975672 38.5203846,27.1840937 39.2153644,27.1701525 L114.927513,24.5218009 C127.958335,24.0661034 138.521904,34.3060559 138.521904,47.393375 L137.6237,106.252889 C137.6237,119.340208 125.263724,128.678063 112.232903,128.222365 L24.3554995,125.957093 C11.3246777,125.501395 0.76110936,115.484687 0.76110936,103.584148 L0.76110936,50.0621161 C0.76110936,49.3790252 0.795913783,48.702141 0.863991458,48.0329156 C-0.0114294389,27.5244757 4.47566525,15.7585674 14.3251256,12.7350108 Z" id="Combined-Shape" fill="url(#linearGradient-3)"></path>
                    <path d="M118.040534,66.0961702 C125.206585,63.8027815 130.358299,61.3009662 133.495678,58.5907242 C136.633056,55.8804822 138.293367,52.4976911 138.476609,48.4423508 L138.476609,66.0961702 L118.040534,66.0961702 Z" id="Path-3" fill="#565656" style="mix-blend-mode: multiply;" opacity="0.200000003"></path>
                    <path d="M144.11148,52.2953549 C147.133626,54.2337234 149.090825,58.8441237 149.090825,61.3910528 C149.090825,61.3974361 149.090776,61.4038104 149.090677,61.4101757 L149.101796,61.4066618 L149.101796,61.4066618 C149.394081,66.2320894 149.538262,71.2411091 149.534337,76.4337208 C149.526434,85.2931627 142.753259,92.6794588 133.927643,93.4529456 L122.850754,94.4254479 C115.338402,95.0849995 108.713766,89.5297074 108.054214,82.0173559 C108.019349,81.6202359 108.001891,81.2217796 108.001891,80.8231321 C108.001891,72.4645284 114.394451,65.4942217 122.721864,64.7727948 C128.913636,64.2363869 134.174036,63.6954431 138.503062,63.1499634 L138.451124,63.1170683 C149.090825,60.5374959 145.830582,53.6772765 144.11148,52.2953549 Z" id="Combined-Shape" fill="url(#linearGradient-4)"></path>
                    <ellipse id="Oval-31" fill="url(#linearGradient-5)" cx="123.604633" cy="79.9210342" rx="7.99164828" ry="8.02629739"></ellipse>
                    <path d="M3.21802286,33.6321751 C6.18482987,42.067261 20.8644994,43.6231848 26.3304161,44.067261 C31.7963329,44.5113372 127.171024,45.82347 136.634455,38.067261" id="Path-4" stroke="#DA6A6A" stroke-width="3" stroke-linecap="round" stroke-dasharray="9"></path>
                    <path d="M2.22312862,102.630049 C5.18993563,111.065135 19.8521528,110.621211 25.3180695,111.065288 C30.7839862,111.509364 126.176129,114.821344 135.639561,107.065135" id="Path-4-Copy" stroke="#DA6A6A" stroke-width="3" stroke-linecap="round" stroke-dasharray="9" transform="translate(68.931345, 107.387959) rotate(1.000000) translate(-68.931345, -107.387959) "></path>
                </g>
                <g id="fly" transform="translate(35.000000, 0.000000)">
                    <path d="M2.6736242,153.297783 C-11.3222035,116.994077 40.3069352,82.0536829 54.7514721,97.3510402 C64.9868692,108.190746 51.8674672,123.82309 33.6619116,122.067002 C13.1701537,120.090389 1.05773734,101.764687 5.09818108,82.0536829 C13.1129311,42.9543206 74.7333044,41.0852428 77.3311323,39.2832241" id="path" stroke="url(#linearGradient-6)" stroke-width="5" stroke-linecap="round" stroke-linejoin="round" stroke-dasharray="6,15"></path>
                    <g id="bee" transform="translate(62.000000, 0.000000)">
                        <path d="M16.3668023,30.4814208 C23.0232126,23.2768132 26.3514177,17.8393132 26.3514177,14.1689208 C26.3514177,8.66333217 21.8811532,4.20017077 16.3668023,4.20017077 C10.8524515,4.20017077 6.38218696,8.66333217 6.38218696,14.1689208 C6.38218696,17.8393132 9.71039209,23.2768132 16.3668023,30.4814208 Z" id="Oval" fill="#CED8E5" opacity="0.400000006" transform="translate(16.366802, 17.340796) rotate(-45.000000) translate(-16.366802, -17.340796) "></path>
                        <path d="M41.782187,54.9501708 C48.4385972,47.7455632 51.7668023,42.3080632 51.7668023,38.6376708 C51.7668023,33.1320822 47.2965378,28.6689208 41.782187,28.6689208 C36.2678361,28.6689208 31.7975716,33.1320822 31.7975716,38.6376708 C31.7975716,42.3080632 35.1257767,47.7455632 41.782187,54.9501708 Z" id="Oval-Copy" fill="#CED8E5" opacity="0.400000006" transform="translate(41.782187, 41.809546) scale(-1, -1) rotate(-45.000000) translate(-41.782187, -41.809546) "></path>
                        <g id="Rectangle-4" transform="translate(20.876923, 20.031250)">
                            <mask id="mask-8" fill="white">
                                <use xlink:href="#path-7"></use>
                            </mask>
                            <use id="Mask" fill="#A8B7C5" xlink:href="#path-7"></use>
                            <rect fill="#DDE5F2" mask="url(#mask-8)" transform="translate(4.992308, 10.875000) rotate(-45.000000) translate(-4.992308, -10.875000) " x="3.63076923" y="0.90625" width="2.72307692" height="19.9375"></rect>
                            <polygon id="Rectangle-4-Copy" fill="#DDE5F2" mask="url(#mask-8)" points="2.42673773 0.257532354 4.35224389 -1.6679738 18.4501853 12.4299676 16.5246792 14.3554738"></polygon>
                        </g>
                        <line x1="47.3832451" y1="15.7171522" x2="54.0076923" y2="14.140625" id="Path-7-Copy" stroke="#8696C5" stroke-width="0.9"></line>
                        <line x1="44.6601682" y1="12.9984022" x2="47.2089224" y2="6.44121675" id="Path-7" stroke="#8696C5" stroke-width="0.9"></line>
                        <ellipse id="Oval-4" fill="#8B9AA8" cx="40.8461538" cy="18.21875" rx="7.26153846" ry="7.25"></ellipse>
                    </g>
                </g>
            </g>
        </g>
    </g>
</svg>