<?xml version="1.0" encoding="UTF-8"?>
<svg width="396px" height="530px" viewBox="0 0 396 530" version="1.1" xmlns="http://www.w3.org/2000/svg" xmlns:xlink="http://www.w3.org/1999/xlink">
    <title>Artwork 2</title>
    <defs>
        <filter x="-42.6%" y="-29.7%" width="185.1%" height="159.3%" filterUnits="objectBoundingBox" id="filter-1">
            <feOffset dx="14" dy="22" in="SourceAlpha" result="shadowOffsetOuter1"></feOffset>
            <feColorMatrix values="0 0 0 0 0   0 0 0 0 0   0 0 0 0 0  0 0 0 0.0447237319 0" type="matrix" in="shadowOffsetOuter1" result="shadowMatrixOuter1"></feColorMatrix>
            <feMerge>
                <feMergeNode in="shadowMatrixOuter1"></feMergeNode>
                <feMergeNode in="SourceGraphic"></feMergeNode>
            </feMerge>
        </filter>
        <filter x="-29.9%" y="-29.5%" width="159.7%" height="158.9%" filterUnits="objectBoundingBox" id="filter-2">
            <feOffset dx="4" dy="11" in="SourceAlpha" result="shadowOffsetOuter1"></feOffset>
            <feColorMatrix values="0 0 0 0 0   0 0 0 0 0   0 0 0 0 0  0 0 0 0.0447237319 0" type="matrix" in="shadowOffsetOuter1" result="shadowMatrixOuter1"></feColorMatrix>
            <feMerge>
                <feMergeNode in="shadowMatrixOuter1"></feMergeNode>
                <feMergeNode in="SourceGraphic"></feMergeNode>
            </feMerge>
        </filter>
        <linearGradient x1="14.3833786%" y1="0%" x2="78.88%" y2="84.0952224%" id="linearGradient-3">
            <stop stop-color="#FFE4A0" offset="0%"></stop>
            <stop stop-color="#FFD855" offset="100%"></stop>
        </linearGradient>
        <linearGradient x1="53.8618227%" y1="60.7976279%" x2="31.4467785%" y2="50%" id="linearGradient-4">
            <stop stop-color="#FBDBBC" offset="0%"></stop>
            <stop stop-color="#DFA993" offset="100%"></stop>
        </linearGradient>
        <path d="M78.8936085,142.294211 L101.128224,142.294211 C110.947621,142.294211 118.907816,150.254405 118.907816,160.073803 L118.907816,201.168844 C118.907816,210.988241 110.947621,218.948436 101.128224,218.948436 L78.8936085,218.948436 C69.074211,218.948436 61.1140166,210.988241 61.1140166,201.168844 L61.1140166,160.073803 C61.1140166,150.254405 69.074211,142.294211 78.8936085,142.294211 Z" id="path-5"></path>
        <filter x="-114.2%" y="-73.1%" width="321.5%" height="267.0%" filterUnits="objectBoundingBox" id="filter-6">
            <feOffset dx="-2" dy="8" in="SourceAlpha" result="shadowOffsetOuter1"></feOffset>
            <feGaussianBlur stdDeviation="20" in="shadowOffsetOuter1" result="shadowBlurOuter1"></feGaussianBlur>
            <feColorMatrix values="0 0 0 0 0   0 0 0 0 0   0 0 0 0 0  0 0 0 1 0" type="matrix" in="shadowBlurOuter1"></feColorMatrix>
        </filter>
        <polygon id="path-7" points="-1.13686838e-13 0 105.672936 0 105.672936 180.550003 -1.13686838e-13 180.550003"></polygon>
        <filter x="-9.7%" y="-26.0%" width="119.4%" height="151.9%" filterUnits="objectBoundingBox" id="filter-9">
            <feOffset dx="0" dy="3" in="SourceAlpha" result="shadowOffsetOuter1"></feOffset>
            <feGaussianBlur stdDeviation="2" in="shadowOffsetOuter1" result="shadowBlurOuter1"></feGaussianBlur>
            <feColorMatrix values="0 0 0 0 0.105882353   0 0 0 0 0.207843137   0 0 0 0 0.329411765  0 0 0 0.0354393116 0" type="matrix" in="shadowBlurOuter1" result="shadowMatrixOuter1"></feColorMatrix>
            <feMerge>
                <feMergeNode in="shadowMatrixOuter1"></feMergeNode>
                <feMergeNode in="SourceGraphic"></feMergeNode>
            </feMerge>
        </filter>
        <filter x="-9.7%" y="-26.0%" width="119.4%" height="151.9%" filterUnits="objectBoundingBox" id="filter-10">
            <feOffset dx="0" dy="3" in="SourceAlpha" result="shadowOffsetOuter1"></feOffset>
            <feGaussianBlur stdDeviation="2" in="shadowOffsetOuter1" result="shadowBlurOuter1"></feGaussianBlur>
            <feColorMatrix values="0 0 0 0 0.105882353   0 0 0 0 0.207843137   0 0 0 0 0.329411765  0 0 0 0.0354393116 0" type="matrix" in="shadowBlurOuter1" result="shadowMatrixOuter1"></feColorMatrix>
            <feMerge>
                <feMergeNode in="shadowMatrixOuter1"></feMergeNode>
                <feMergeNode in="SourceGraphic"></feMergeNode>
            </feMerge>
        </filter>
        <filter x="-54.7%" y="-148.0%" width="209.4%" height="396.1%" filterUnits="objectBoundingBox" id="filter-11">
            <feOffset dx="0" dy="16" in="SourceAlpha" result="shadowOffsetOuter1"></feOffset>
            <feGaussianBlur stdDeviation="11.5" in="shadowOffsetOuter1" result="shadowBlurOuter1"></feGaussianBlur>
            <feColorMatrix values="0 0 0 0 0.105882353   0 0 0 0 0.207843137   0 0 0 0 0.329411765  0 0 0 0.176941803 0" type="matrix" in="shadowBlurOuter1" result="shadowMatrixOuter1"></feColorMatrix>
            <feMerge>
                <feMergeNode in="shadowMatrixOuter1"></feMergeNode>
                <feMergeNode in="SourceGraphic"></feMergeNode>
            </feMerge>
        </filter>
        <linearGradient x1="35.0789279%" y1="10.0623696%" x2="45.788098%" y2="82.6430675%" id="linearGradient-12">
            <stop stop-color="#8CCFFF" offset="0%"></stop>
            <stop stop-color="#4D73E5" offset="100%"></stop>
        </linearGradient>
    </defs>
    <g id="Empty-States" stroke="none" stroke-width="1" fill="none" fill-rule="evenodd">
        <g id="9.3_Empty-Wallet" transform="translate(-1.000000, -141.000000)">
            <g id="Artwork" transform="translate(56.000000, 157.000000)">
                <circle id="base" fill="#FFFFFF" cx="131.5" cy="291.5" r="124.5"></circle>
                <g id="note" filter="url(#filter-1)" transform="translate(144.543355, 104.492675) scale(-1, 1) rotate(8.000000) translate(-144.543355, -104.492675) translate(94.043355, 31.992675)">
                    <path d="M51.8468212,7.48269904 C48.8279224,26.6444256 54.1004496,42.584102 67.5263963,55.3490781 C87.1570862,74.0133327 96.9158411,93.8350991 96.8807881,114.080128 C83.6565155,122.407344 68.5340304,130.288157 51.5197338,137.725603 C53.1825527,122.163458 46.2506334,105.383891 29.9630352,87.4685148 C13.6543539,69.5299481 5.14389851,50.4496697 4.62801734,30.157317 L4.62801734,30.157317 Z" id="Path-15" stroke="#81C12F" stroke-width="8" fill="#A3E54E"></path>
                    <ellipse id="Oval" fill="#81C12F" cx="31.6722656" cy="39.7160156" rx="4.52460938" ry="5.53007813"></ellipse>
                    <ellipse id="Oval-Copy" fill="#81C12F" transform="translate(70.885547, 104.066016) rotate(-13.000000) translate(-70.885547, -104.066016) " cx="70.8855469" cy="104.066016" rx="4.52460938" ry="5.53007813"></ellipse>
                    <g id="Group-2" transform="translate(26.142187, 47.257031)">
                        <ellipse id="Oval-13" fill="#81C12F" transform="translate(23.527969, 24.734531) rotate(-35.000000) translate(-23.527969, -24.734531) " cx="23.5279688" cy="24.7345312" rx="13.8754688" ry="19.9082812"></ellipse>
                        <text id="$" transform="translate(23.352045, 24.039285) scale(-1, 1) rotate(35.000000) translate(-23.352045, -24.039285) " font-family="SquadaOne-Regular, Squada One" font-size="27.72" font-weight="normal" letter-spacing="-0.26400001" fill="#FFFFFF">
                            <tspan x="17.3192328" y="33.5392848">$</tspan>
                        </text>
                    </g>
                </g>
                <g id="coin" filter="url(#filter-2)" transform="translate(32.000000, 0.000000)">
                    <g id="Group-5">
                        <path d="M32.9201881,65.4010453 C35.1129073,65.4010453 40.7044517,66.7250406 42.6881345,65.8947959 C51.0605087,62.3906475 53.6474609,50.3054725 53.6474609,38.128318 C53.6474609,27.0793011 52.3787966,16.4260764 45.199208,12.1403308 C42.591392,10.5836349 35.9702919,10.8555907 32.9201881,10.8555907 C21.4728315,10.8555907 12.1929154,23.0660066 12.1929154,38.128318 C12.1929154,53.1906294 21.4728315,65.4010453 32.9201881,65.4010453 Z" id="Oval-14-Copy" fill="#FFAC55" transform="translate(32.920188, 38.502883) rotate(-31.000000) translate(-32.920188, -38.502883) "></path>
                        <ellipse id="Oval-14" stroke="url(#linearGradient-3)" stroke-width="6" fill="#FFCE51" transform="translate(39.272727, 34.909091) rotate(-31.000000) translate(-39.272727, -34.909091) " cx="39.2727273" cy="34.9090909" rx="17.7272727" ry="24.2727273"></ellipse>
                        <text id="5" transform="translate(39.818182, 34.715061) rotate(-28.000000) translate(-39.818182, -34.715061) " font-family="SquadaOne-Regular, Squada One" font-size="30.2000008" font-weight="normal" letter-spacing="-0.2876191" fill="#FCA72C">
                            <tspan x="32.9706912" y="44.7150611">5</tspan>
                        </text>
                    </g>
                </g>
                <g id="hand" transform="translate(170.638554, 327.020080) scale(-1, 1) translate(-170.638554, -327.020080) translate(0.638554, 141.020080)">
                    <polygon id="palm" fill="url(#linearGradient-4)" points="143.761415 222.096814 250.522822 222.096814 250.522822 105.24814 136.269876 110.194155 80.8893839 175.983592 122.55323 235.652089"></polygon>
                    <g id="fingers" transform="translate(240.629823, 77.956233)" fill="#EBB198">
                        <path d="M19.4500606,3 L33.9193753,3 C39.6907844,3 44.3694359,7.6786515 44.3694359,13.4500606 C44.3694359,19.2214697 39.6907844,23.9001212 33.9193753,23.9001212 L19.4500606,23.9001212 C13.6786515,23.9001212 9,19.2214697 9,13.4500606 C9,7.6786515 13.6786515,3 19.4500606,3 Z" id="Rectangle" transform="translate(26.684718, 13.450061) rotate(-9.000000) translate(-26.684718, -13.450061) "></path>
                        <path d="M12.4500606,28 L33.3501818,28 C39.1215909,28 43.8002424,32.6786515 43.8002424,38.4500606 C43.8002424,44.2214697 39.1215909,48.9001212 33.3501818,48.9001212 L12.4500606,48.9001212 C6.6786515,48.9001212 2,44.2214697 2,38.4500606 C2,32.6786515 6.6786515,28 12.4500606,28 Z" id="Rectangle-Copy" transform="translate(22.900121, 38.450061) rotate(-9.000000) translate(-22.900121, -38.450061) "></path>
                        <path d="M14.4500606,52 L33.7424802,52 C39.5138893,52 44.1925408,56.6786515 44.1925408,62.4500606 C44.1925408,68.2214697 39.5138893,72.9001212 33.7424802,72.9001212 L14.4500606,72.9001212 C8.6786515,72.9001212 4,68.2214697 4,62.4500606 C4,56.6786515 8.6786515,52 14.4500606,52 Z" id="Rectangle-Copy-2" transform="translate(24.096270, 62.450061) rotate(-9.000000) translate(-24.096270, -62.450061) "></path>
                        <path d="M18.4500606,76 L33.7232261,76 C39.4946352,76 44.1732867,80.6786515 44.1732867,86.4500606 C44.1732867,92.2214697 39.4946352,96.9001212 33.7232261,96.9001212 L18.4500606,96.9001212 C12.6786515,96.9001212 8,92.2214697 8,86.4500606 C8,80.6786515 12.6786515,76 18.4500606,76 Z" id="Rectangle-Copy-3" transform="translate(26.086643, 86.450061) rotate(-9.000000) translate(-26.086643, -86.450061) "></path>
                    </g>
                    <g id="phone" transform="translate(209.558635, 116.999924) scale(-1, 1) translate(-209.558635, -116.999924) translate(150.058635, -0.000076)">
                        <g id="Rectangle-2-Copy-2" fill="black" fill-opacity="1">
                            <use filter="url(#filter-6)" xlink:href="#path-5"></use>
                        </g>
                        <rect id="Rectangle-2" fill="#45484F" x="-1.13686838e-13" y="0" width="118.907816" height="233.94871" rx="17.7795918"></rect>
                        <g id="Group-3-+-Group-3-Copy-Mask" transform="translate(7.000000, 29.000000)">
                            <mask id="mask-8" fill="white">
                                <use xlink:href="#path-7" transform="translate(52.836468, 90.275002) scale(-1, 1) translate(-52.836468, -90.275002) "></use>
                            </mask>
                            <use id="Mask" fill="#DEE5ED" transform="translate(52.836468, 90.275002) scale(-1, 1) translate(-52.836468, -90.275002) " xlink:href="#path-7"></use>
                            <g id="Group-2-Copy" filter="url(#filter-9)" mask="url(#mask-8)">
                                <g transform="translate(13.420080, 80.979996)">
                                    <path d="M9,0 L129.608648,0 C134.57921,-9.13077564e-16 138.608648,4.02943725 138.608648,9 L138.608648,42.1259479 C138.608648,47.0965107 134.57921,51.1259479 129.608648,51.1259479 L9,51.1259479 C4.02943725,51.1259479 6.08718376e-16,47.0965107 0,42.1259479 L0,9 C-6.08718376e-16,4.02943725 4.02943725,9.13077564e-16 9,0 Z" id="Rectangle-18" fill="#FFFFFF"></path>
                                    <path d="M50.9209009,10.583397 L123.197038,10.583397 C124.677009,10.583397 125.876762,11.7831505 125.876762,13.2631214 C125.876762,14.7430924 124.677009,15.9428459 123.197038,15.9428459 L50.9209009,15.9428459 C49.44093,15.9428459 48.2411765,14.7430924 48.2411765,13.2631214 C48.2411765,11.7831505 49.44093,10.583397 50.9209009,10.583397 Z" id="Rectangle" fill="#1B3554" opacity="0.300000012"></path>
                                    <path d="M50.9209009,20.3526865 L102.739511,20.3526865 C104.219482,20.3526865 105.419236,21.55244 105.419236,23.032411 C105.419236,24.5123819 104.219482,25.7121354 102.739511,25.7121354 L50.9209009,25.7121354 C49.44093,25.7121354 48.2411765,24.5123819 48.2411765,23.032411 C48.2411765,21.55244 49.44093,20.3526865 50.9209009,20.3526865 Z" id="Rectangle-Copy" fill="#1B3554" opacity="0.300000012"></path>
                                    <path d="M50.9209009,35.0066208 L67.7628371,35.0066208 C69.2428081,35.0066208 70.4425616,36.2063743 70.4425616,37.6863453 C70.4425616,39.1663162 69.2428081,40.3660697 67.7628371,40.3660697 L50.9209009,40.3660697 C49.44093,40.3660697 48.2411765,39.1663162 48.2411765,37.6863453 C48.2411765,36.2063743 49.44093,35.0066208 50.9209009,35.0066208 Z" id="Rectangle-Copy-2" fill="#1B3554" opacity="0.149999991"></path>
                                    <g id="Group" stroke-width="1" fill="none" transform="translate(12.264706, 10.583397)">
                                        <path d="M17.9294118,0.55 C19.6000731,0.55 21.1125731,1.22716932 22.2074078,2.32200397 C23.3022424,3.41683863 23.9794118,4.92933863 23.9794118,6.6 L23.9794118,6.6 L23.9794118,12.9385791 C23.9794118,14.6092404 23.3022424,16.1217404 22.2074078,17.2165751 C21.1125731,18.3114098 19.6000731,18.9885791 17.9294118,18.9885791 L17.9294118,18.9885791 L6.6,18.9885791 C4.92933863,18.9885791 3.41683863,18.3114098 2.32200397,17.2165751 C1.22716932,16.1217404 0.55,14.6092404 0.55,12.9385791 L0.55,12.9385791 L0.55,6.6 C0.55,4.92933863 1.22716932,3.41683863 2.32200397,2.32200397 C3.41683863,1.22716932 4.92933863,0.55 6.6,0.55 L6.6,0.55 L17.9294118,0.55 Z" id="Rectangle-2" stroke="#1B3554" stroke-width="1.1" opacity="0.150000006"></path>
                                        <g id="Group-5" transform="translate(8.000000, 3.000000)">
                                            <path d="M2.57266614,4.19918364 L6.58088285,4.19918364 C8.77828084,4.19918364 9.87697983,5.71837238 9.87697983,7.47493435 C9.87697983,9.2586247 8.75115247,10.7032104 6.55375448,10.7032104 L4.99387319,10.7032104 L4.99387319,13.45674 L2.57266614,13.45674 L2.57266614,4.19918364 Z" id="P-Copy" fill="#009CCE" opacity="0.5"></path>
                                            <path d="M0.755672679,0.565196717 L4.76388938,0.565196717 C6.96128737,0.565196717 8.05998637,2.08438545 8.05998637,3.84094742 C8.05998637,5.62463777 6.934159,7.06922349 4.73676101,7.06922349 L3.17687972,7.06922349 L3.17687972,9.82275307 L0.755672679,9.82275307 L0.755672679,0.565196717 Z" id="P" fill="#1369CF" opacity="0.800000012"></path>
                                        </g>
                                    </g>
                                </g>
                            </g>
                            <g id="Group-2-Copy-2" filter="url(#filter-10)" mask="url(#mask-8)">
                                <g transform="translate(13.420080, 143.979996)">
                                    <path d="M9,0 L129.608648,0 C134.57921,-9.13077564e-16 138.608648,4.02943725 138.608648,9 L138.608648,42.1259479 C138.608648,47.0965107 134.57921,51.1259479 129.608648,51.1259479 L9,51.1259479 C4.02943725,51.1259479 6.08718376e-16,47.0965107 0,42.1259479 L0,9 C-6.08718376e-16,4.02943725 4.02943725,9.13077564e-16 9,0 Z" id="Rectangle-18" fill="#FFFFFF"></path>
                                    <path d="M50.9209009,10.583397 L123.197038,10.583397 C124.677009,10.583397 125.876762,11.7831505 125.876762,13.2631214 C125.876762,14.7430924 124.677009,15.9428459 123.197038,15.9428459 L50.9209009,15.9428459 C49.44093,15.9428459 48.2411765,14.7430924 48.2411765,13.2631214 C48.2411765,11.7831505 49.44093,10.583397 50.9209009,10.583397 Z" id="Rectangle" fill="#1B3554" opacity="0.300000012"></path>
                                    <path d="M50.9209009,20.3526865 L102.739511,20.3526865 C104.219482,20.3526865 105.419236,21.55244 105.419236,23.032411 C105.419236,24.5123819 104.219482,25.7121354 102.739511,25.7121354 L50.9209009,25.7121354 C49.44093,25.7121354 48.2411765,24.5123819 48.2411765,23.032411 C48.2411765,21.55244 49.44093,20.3526865 50.9209009,20.3526865 Z" id="Rectangle-Copy" fill="#1B3554" opacity="0.300000012"></path>
                                    <path d="M50.9209009,35.0066208 L67.7628371,35.0066208 C69.2428081,35.0066208 70.4425616,36.2063743 70.4425616,37.6863453 C70.4425616,39.1663162 69.2428081,40.3660697 67.7628371,40.3660697 L50.9209009,40.3660697 C49.44093,40.3660697 48.2411765,39.1663162 48.2411765,37.6863453 C48.2411765,36.2063743 49.44093,35.0066208 50.9209009,35.0066208 Z" id="Rectangle-Copy-2" fill="#1B3554" opacity="0.149999991"></path>
                                    <g id="Group" stroke-width="1" fill="none" transform="translate(12.264706, 10.583397)">
                                        <path d="M17.9294118,0.55 C19.6000731,0.55 21.1125731,1.22716932 22.2074078,2.32200397 C23.3022424,3.41683863 23.9794118,4.92933863 23.9794118,6.6 L23.9794118,6.6 L23.9794118,12.9385791 C23.9794118,14.6092404 23.3022424,16.1217404 22.2074078,17.2165751 C21.1125731,18.3114098 19.6000731,18.9885791 17.9294118,18.9885791 L17.9294118,18.9885791 L6.6,18.9885791 C4.92933863,18.9885791 3.41683863,18.3114098 2.32200397,17.2165751 C1.22716932,16.1217404 0.55,14.6092404 0.55,12.9385791 L0.55,12.9385791 L0.55,6.6 C0.55,4.92933863 1.22716932,3.41683863 2.32200397,2.32200397 C3.41683863,1.22716932 4.92933863,0.55 6.6,0.55 L6.6,0.55 L17.9294118,0.55 Z" id="Rectangle-2" stroke="#1B3554" stroke-width="1.1" opacity="0.150000006"></path>
                                        <g id="visa" opacity="0.800000012" transform="translate(3.000000, 7.000000)" fill-rule="nonzero">
                                            <polygon id="Shape" fill="#3C58BF" points="6.23333333 5.03928571 7.0968254 0.182142857 8.44603175 0.182142857 7.60952381 5.03928571"></polygon>
                                            <polygon id="Shape" fill="#293688" points="6.23333333 5.03928571 7.33968254 0.182142857 8.44603175 0.182142857 7.60952381 5.03928571"></polygon>
                                            <path d="M12.4936508,0.236111111 C12.2238095,0.128174603 11.7920635,0.0202380952 11.252381,0.0202380952 C9.9031746,0.0202380952 8.93174603,0.69484127 8.93174603,1.66626984 C8.93174603,2.39484127 9.60634921,2.77261905 10.1460317,3.01547619 C10.6857143,3.25833333 10.847619,3.4202381 10.847619,3.63611111 C10.847619,3.95992063 10.415873,4.1218254 10.0380952,4.1218254 C9.4984127,4.1218254 9.2015873,4.04087302 8.74285714,3.85198413 L8.55396825,3.77103175 L8.36507937,4.87738095 C8.68888889,5.01230159 9.28253968,5.14722222 9.9031746,5.14722222 C11.3333333,5.14722222 12.2777778,4.47261905 12.2777778,3.44722222 C12.2777778,2.88055556 11.9269841,2.44880952 11.1174603,2.09801587 C10.631746,1.85515873 10.3349206,1.7202381 10.3349206,1.47738095 C10.3349206,1.26150794 10.5777778,1.04563492 11.1174603,1.04563492 C11.5761905,1.04563492 11.9,1.1265873 12.1428571,1.23452381 L12.2777778,1.28849206 L12.4936508,0.236111111 L12.4936508,0.236111111 Z" id="Shape" fill="#3C58BF"></path>
                                            <path d="M12.4936508,0.236111111 C12.2238095,0.128174603 11.7920635,0.0202380952 11.252381,0.0202380952 C9.9031746,0.0202380952 9.17460317,0.69484127 9.17460317,1.66626984 C9.17460317,2.39484127 9.60634921,2.77261905 10.1460317,3.01547619 C10.6857143,3.25833333 10.847619,3.4202381 10.847619,3.63611111 C10.847619,3.95992063 10.415873,4.1218254 10.0380952,4.1218254 C9.4984127,4.1218254 9.2015873,4.04087302 8.74285714,3.85198413 L8.55396825,3.77103175 L8.36507937,4.87738095 C8.68888889,5.01230159 9.28253968,5.14722222 9.9031746,5.14722222 C11.3333333,5.14722222 12.2777778,4.47261905 12.2777778,3.44722222 C12.2777778,2.88055556 11.9269841,2.44880952 11.1174603,2.09801587 C10.631746,1.85515873 10.3349206,1.7202381 10.3349206,1.47738095 C10.3349206,1.26150794 10.5777778,1.04563492 11.1174603,1.04563492 C11.5761905,1.04563492 11.9,1.1265873 12.1428571,1.23452381 L12.2777778,1.28849206 L12.4936508,0.236111111 L12.4936508,0.236111111 Z" id="Shape" fill="#293688"></path>
                                            <path d="M14.8142857,0.182142857 C14.4904762,0.182142857 14.247619,0.209126984 14.1126984,0.532936508 L12.0888889,5.03928571 L13.5460317,5.03928571 L13.815873,4.2297619 L15.5428571,4.2297619 L15.7047619,5.03928571 L17,5.03928571 L15.8666667,0.182142857 L14.8142857,0.182142857 Z M14.1936508,3.4202381 C14.2746032,3.17738095 14.7333333,1.99007937 14.7333333,1.99007937 C14.7333333,1.99007937 14.8412698,1.69325397 14.9222222,1.50436508 L15.0031746,1.96309524 C15.0031746,1.96309524 15.2730159,3.17738095 15.3269841,3.44722222 L14.1936508,3.44722222 L14.1936508,3.4202381 Z" id="Shape" fill="#3C58BF"></path>
                                            <path d="M15.1380952,0.182142857 C14.8142857,0.182142857 14.5714286,0.209126984 14.4365079,0.532936508 L12.0888889,5.03928571 L13.5460317,5.03928571 L13.815873,4.2297619 L15.5428571,4.2297619 L15.7047619,5.03928571 L17,5.03928571 L15.8666667,0.182142857 L15.1380952,0.182142857 Z M14.1936508,3.4202381 C14.3015873,3.15039683 14.7333333,1.99007937 14.7333333,1.99007937 C14.7333333,1.99007937 14.8412698,1.69325397 14.9222222,1.50436508 L15.0031746,1.96309524 C15.0031746,1.96309524 15.2730159,3.17738095 15.3269841,3.44722222 L14.1936508,3.44722222 L14.1936508,3.4202381 Z" id="Shape" fill="#293688"></path>
                                            <path d="M3.75079365,3.58214286 L3.61587302,2.88055556 C3.37301587,2.07103175 2.59047619,1.18055556 1.72698413,0.748809524 L2.94126984,5.06626984 L4.3984127,5.06626984 L6.58412698,0.209126984 L5.12698413,0.209126984 L3.75079365,3.58214286 Z" id="Shape" fill="#3C58BF"></path>
                                            <path d="M3.75079365,3.58214286 L3.61587302,2.88055556 C3.37301587,2.07103175 2.59047619,1.18055556 1.72698413,0.748809524 L2.94126984,5.06626984 L4.3984127,5.06626984 L6.58412698,0.209126984 L5.3968254,0.209126984 L3.75079365,3.58214286 Z" id="Shape" fill="#293688"></path>
                                            <path d="M0,0.182142857 L0.242857143,0.236111111 C1.96984127,0.640873016 3.15714286,1.66626984 3.61587302,2.88055556 L3.13015873,0.586904762 C3.04920635,0.263095238 2.80634921,0.182142857 2.50952381,0.182142857 L0,0.182142857 L0,0.182142857 Z" id="Shape" fill="#FFBC00"></path>
                                            <path d="M0,0.182142857 L0,0.182142857 C1.72698413,0.586904762 3.15714286,1.63928571 3.61587302,2.85357143 L3.15714286,0.937698413 C3.07619048,0.613888889 2.80634921,0.425 2.50952381,0.425 L0,0.182142857 Z" id="Shape" fill="#F7981D"></path>
                                            <path d="M0,0.182142857 L0,0.182142857 C1.72698413,0.586904762 3.15714286,1.63928571 3.61587302,2.85357143 L3.29206349,1.80119048 C3.21111111,1.47738095 3.1031746,1.15357143 2.72539683,1.01865079 L0,0.182142857 Z" id="Shape" fill="#ED7C00"></path>
                                            <g id="Group" transform="translate(1.753968, 0.708333)" fill="#051244">
                                                <path d="M3.34603175,2.71190476 L2.42857143,1.79444444 L1.9968254,2.81984127 L1.88888889,2.1452381 C1.64603175,1.33571429 0.863492063,0.445238095 0,0.0134920635 L1.21428571,4.33095238 L2.67142857,4.33095238 L3.34603175,2.71190476 Z" id="Shape"></path>
                                                <polygon id="Shape" points="5.85555556 4.33095238 4.6952381 3.14365079 4.47936508 4.33095238"></polygon>
                                                <path d="M8.95873016,2.65793651 L8.95873016,2.65793651 C9.06666667,2.76587302 9.12063492,2.8468254 9.09365079,2.9547619 C9.09365079,3.27857143 8.66190476,3.44047619 8.28412698,3.44047619 C7.74444444,3.44047619 7.44761905,3.35952381 6.98888889,3.17063492 L6.8,3.08968254 L6.61111111,4.19603175 C6.93492063,4.33095238 7.52857143,4.46587302 8.14920635,4.46587302 C9.01269841,4.46587302 9.71428571,4.22301587 10.1190476,3.79126984 L8.95873016,2.65793651 Z" id="Shape"></path>
                                                <path d="M10.5238095,4.33095238 L11.7920635,4.33095238 L12.0619048,3.52142857 L13.7888889,3.52142857 L13.9507937,4.33095238 L15.2460317,4.33095238 L14.7873016,2.36111111 L13.168254,0.796031746 L13.2492063,1.22777778 C13.2492063,1.22777778 13.5190476,2.44206349 13.5730159,2.71190476 L12.4396825,2.71190476 C12.547619,2.44206349 12.9793651,1.28174603 12.9793651,1.28174603 C12.9793651,1.28174603 13.0873016,0.984920635 13.168254,0.796031746" id="Shape"></path>
                                            </g>
                                        </g>
                                    </g>
                                </g>
                            </g>
                        </g>
                    </g>
                    <g id="Group-2" filter="url(#filter-11)" transform="translate(270.638554, 68.479920) scale(-1, 1) translate(-270.638554, -68.479920) translate(201.638554, 42.979920)">
                        <path d="M9,0 L128.611463,0 C133.582026,1.67459087e-14 137.611463,4.02943725 137.611463,9 L137.611463,41.7581354 C137.611463,46.7286981 133.582026,50.7581354 128.611463,50.7581354 L9,50.7581354 C4.02943725,50.7581354 -6.49670898e-15,46.7286981 0,41.7581354 L0,9 C-6.08718376e-16,4.02943725 4.02943725,9.13077564e-16 9,0 Z" id="Rectangle-18" fill="#FFFFFF"></path>
                        <path d="M50.5545635,10.5072574 L122.310728,10.5072574 C123.780052,10.5072574 124.971174,11.6983796 124.971174,13.1677033 C124.971174,14.637027 123.780052,15.8281492 122.310728,15.8281492 L50.5545635,15.8281492 C49.0852398,15.8281492 47.8941176,14.637027 47.8941176,13.1677033 C47.8941176,11.6983796 49.0852398,10.5072574 50.5545635,10.5072574 Z" id="Rectangle" fill="#1B3554" opacity="0.300000012"></path>
                        <path d="M50.5545635,20.2062643 L102.000378,20.2062643 C103.469702,20.2062643 104.660824,21.3973865 104.660824,22.8667102 C104.660824,24.3360339 103.469702,25.527156 102.000378,25.527156 L50.5545635,25.527156 C49.0852398,25.527156 47.8941176,24.3360339 47.8941176,22.8667102 C47.8941176,21.3973865 49.0852398,20.2062643 50.5545635,20.2062643 Z" id="Rectangle-Copy" fill="#1B3554" opacity="0.300000012"></path>
                        <path d="M50.5545635,34.7547746 L67.2753347,34.7547746 C68.7446584,34.7547746 69.9357806,35.9458968 69.9357806,37.4152205 C69.9357806,38.8845442 68.7446584,40.0756663 67.2753347,40.0756663 L50.5545635,40.0756663 C49.0852398,40.0756663 47.8941176,38.8845442 47.8941176,37.4152205 C47.8941176,35.9458968 49.0852398,34.7547746 50.5545635,34.7547746 Z" id="Rectangle-Copy-2" fill="#1B3554" opacity="0.149999991"></path>
                        <g id="Group" transform="translate(12.176471, 10.507257)">
                            <path d="M17.7529412,0.55 C19.4236025,0.55 20.9361025,1.22716932 22.0309372,2.32200397 C23.1257719,3.41683863 23.8029412,4.92933863 23.8029412,6.6 L23.8029412,6.6 L23.8029412,12.7980138 C23.8029412,14.4686751 23.1257719,15.9811751 22.0309372,17.0760098 C20.9361025,18.1708444 19.4236025,18.8480138 17.7529412,18.8480138 L17.7529412,18.8480138 L6.6,18.8480138 C4.92933863,18.8480138 3.41683863,18.1708444 2.32200397,17.0760098 C1.22716932,15.9811751 0.55,14.4686751 0.55,12.7980138 L0.55,12.7980138 L0.55,6.6 C0.55,4.92933863 1.22716932,3.41683863 2.32200397,2.32200397 C3.41683863,1.22716932 4.92933863,0.55 6.6,0.55 L6.6,0.55 L17.7529412,0.55 Z" id="Rectangle-2" stroke="#1B3554" stroke-width="1.1" opacity="0.150000006"></path>
                            <ellipse id="Oval" fill="#FFCF63" cx="14.9069519" cy="9.69900688" rx="4.87058824" ry="4.84950344"></ellipse>
                            <ellipse id="Oval-Copy" fill="#FF3939" style="mix-blend-mode: hard-light;" cx="9.5197861" cy="9.69900688" rx="4.87058824" ry="4.84950344"></ellipse>
                        </g>
                    </g>
                    <path d="M75.7234386,175.7084 C109.818712,126.43667 130.57524,99.313542 137.993023,94.3390162 C149.01743,91.9664165 185.974165,71.3487973 187.48958,72.8772275 C189.004994,74.4056576 192.906024,92.9209473 181.096948,102.188217 C173.224231,108.366398 163.989451,113.788821 153.392608,118.455488 C150.865058,141.248063 141.40379,157.884772 125.008804,168.365613 C108.613818,178.846454 92.185363,181.29405 75.7234386,175.7084 Z" id="thumb" fill="#E7B9A5"></path>
                    <path d="M10.7699727,227.786908 C48.6150466,200.188285 70.8789327,181.276232 77.5616311,171.050749 C79.2443918,171.76476 120.633747,224.309387 139.874902,238.99037 C93.5485542,270.884748 62.9810214,302.334143 21.6385542,351.855611 C-19.703913,401.37708 11.5686536,343.762679 10.7699727,337.274966 C10.2375187,332.949824 10.2375187,296.453805 10.7699727,227.786908 Z" id="cloth" fill="url(#linearGradient-12)"></path>
                </g>
            </g>
        </g>
    </g>
</svg>