<?xml version="1.0" encoding="UTF-8"?>
<svg width="188px" height="248px" viewBox="0 0 188 248" version="1.1" xmlns="http://www.w3.org/2000/svg" xmlns:xlink="http://www.w3.org/1999/xlink">
    <title>Artwork</title>
    <defs>
        <filter x="-55.8%" y="-83.2%" width="211.6%" height="266.3%" filterUnits="objectBoundingBox" id="filter-1">
            <feOffset dx="14" dy="-7" in="SourceAlpha" result="shadowOffsetOuter1"></feOffset>
            <feGaussianBlur stdDeviation="6" in="shadowOffsetOuter1" result="shadowBlurOuter1"></feGaussianBlur>
            <feColorMatrix values="0 0 0 0 0.426409824   0 0 0 0 0.528529534   0 0 0 0 0.605362457  0 0 0 0.191264719 0" type="matrix" in="shadowBlurOuter1" result="shadowMatrixOuter1"></feColorMatrix>
            <feMerge>
                <feMergeNode in="shadowMatrixOuter1"></feMergeNode>
                <feMergeNode in="SourceGraphic"></feMergeNode>
            </feMerge>
        </filter>
    </defs>
    <g id="Empty-States" stroke="none" stroke-width="1" fill="none" fill-rule="evenodd">
        <g id="9.4_Empty-Wallet" transform="translate(-90.000000, -165.000000)">
            <g id="Artwork" transform="translate(97.000000, 165.000000)">
                <path d="M145.591105,133.861427 L160.591105,133.861427 L160.503666,154.366454 C160.48369,159.050934 156.669976,162.832261 151.985496,162.812285 C149.527119,162.801802 147.194222,161.725226 145.591105,159.861427 L145.591105,159.861427 L145.591105,159.861427 L145.591105,133.861427 Z" id="hand" fill="#FFC083" transform="translate(153.091105, 148.464270) rotate(-24.000000) translate(-153.091105, -148.464270) "></path>
                <path d="M23.7210737,131.061415 L38.7210737,131.061415 L39.3360387,167.341992 C39.423919,172.526593 35.2922103,176.800784 30.107609,176.888665 C27.7583174,176.928486 25.479481,176.085994 23.7210737,174.527546 L23.7210737,174.527546 L23.7210737,174.527546 L23.7210737,131.061415 Z" id="hand" fill="#FFC083" transform="translate(31.529244, 153.975715) scale(-1, 1) rotate(-24.000000) translate(-31.529244, -153.975715) "></path>
                <g id="face">
                    <path d="M49.9973583,9.0952381 C70.0230435,32.8832524 77.9450222,49.0420958 73.7632945,57.5717682 C68.152918,69.0155247 31.8417987,69.0155247 26.2314222,57.5717682 C22.0496945,49.0420958 29.9716732,32.8832524 49.9973583,9.0952381 Z" id="Triangle" fill="#FFCB8F" transform="translate(49.997358, 37.624912) rotate(-27.000000) translate(-49.997358, -37.624912) "></path>
                    <path d="M49.9973583,22.8962741 C60.3357543,35.176998 64.4255296,43.5191106 62.2666842,47.9226119 C59.3702893,53.8305288 40.6244274,53.8305288 37.7280324,47.9226119 C35.5691871,43.5191106 39.6589624,35.176998 49.9973583,22.8962741 Z" id="Triangle-Copy-2" fill="#FBA581" transform="translate(49.997358, 37.624912) rotate(-27.000000) translate(-49.997358, -37.624912) "></path>
                    <path d="M130.600048,9.0952381 C150.625734,32.8832524 158.547712,49.0420958 154.365985,57.5717682 C148.755608,69.0155247 112.444489,69.0155247 106.834112,57.5717682 C102.652385,49.0420958 110.574363,32.8832524 130.600048,9.0952381 Z" id="Triangle-Copy" fill="#FFCB8F" transform="translate(130.600048, 37.624912) scale(-1, 1) rotate(-27.000000) translate(-130.600048, -37.624912) "></path>
                    <path d="M130.997142,22.8962741 C141.335538,35.176998 145.425314,43.5191106 143.266468,47.9226119 C140.370073,53.8305288 121.624211,53.8305288 118.727816,47.9226119 C116.568971,43.5191106 120.658746,35.176998 130.997142,22.8962741 Z" id="Triangle-Copy-2" fill="#FBA581" transform="translate(130.997142, 37.624912) scale(-1, 1) rotate(-27.000000) translate(-130.997142, -37.624912) "></path>
                    <path d="M90.95,175.210884 C112.503092,175.210884 112.462534,166.870251 124.661868,160.486139 C143.825065,150.457725 161.8,132.919415 161.8,109.023017 C161.8,84.4429733 149.269862,61.0389276 130.245452,47.0421424 C123.929496,42.3953188 116.897749,38.7853525 109.371075,36.5134399 C103.497157,34.7404089 96.3218065,35.7823129 89.95,35.7823129 C82.4136359,35.7823129 76.1521009,35.1226301 69.3390934,37.566388 C61.9469029,40.217893 55.0827411,44.168423 48.9684778,49.1154087 C31.4595265,63.2817157 20.1,85.6193004 20.1,109.023017 C20.1,131.03831 35.3563749,147.657122 52.7428753,157.978805 C66.242491,165.992997 69.3969076,175.210884 90.95,175.210884 Z" id="Oval" fill="#FFC083"></path>
                    <path d="M89.5754458,26.6499939 C83.9370553,30.0183794 78.6119088,34.8966543 73.6000061,41.2848186 C77.5405479,39.2797743 80.3380827,36.9644536 86.4146814,38.8234769 C90.4657472,40.0628257 91.5193354,36.004998 89.5754458,26.6499939 Z" id="Path-3" fill="#FFC083" transform="translate(82.060462, 33.967406) scale(-1, 1) rotate(71.000000) translate(-82.060462, -33.967406) "></path>
                    <path d="M100.575446,26.6499939 C94.9370553,30.0183794 89.6119088,34.8966543 84.6000061,41.2848186 C88.5405479,39.2797743 91.3380827,36.9644536 97.4146814,38.8234769 C101.465747,40.0628257 102.519335,36.004998 100.575446,26.6499939 Z" id="Path-3-Copy-6" fill="#FFC083" transform="translate(93.060462, 33.967406) scale(-1, 1) rotate(52.000000) translate(-93.060462, -33.967406) "></path>
                    <g id="Group-9" transform="translate(0.000000, 62.000000)" fill="#FFC083">
                        <g id="Group-8" transform="translate(12.000000, 0.000000)">
                            <path d="M24.5771907,0.650930001 C18.9388003,4.01931553 13.6136537,8.89759041 8.60175104,15.2857547 C12.5422929,13.2807104 15.3398276,10.9653897 21.4164263,12.824413 C25.4674922,14.0637618 26.5210803,10.0059341 24.5771907,0.650930001 Z" id="Path-3"></path>
                            <path d="M20.6771907,9.7461681 C15.0388003,13.1145536 9.71365369,17.9928285 4.70175104,24.3809928 C8.64229285,22.3759485 11.4398276,20.0606278 17.5164263,21.9196511 C21.5674922,23.1589999 22.6210803,19.1011722 20.6771907,9.7461681 Z" id="Path-3-Copy"></path>
                            <path d="M24.814982,18.0761417 C13.3802826,19.4784405 5.67279235,25.0703769 1.69251133,34.851951 C7.37079451,30.0509549 10.9210773,28.5086769 20.0779498,31.3100531 C26.1825314,33.1776372 27.7615422,28.7663334 24.814982,18.0761417 Z" id="Path-3-Copy-2" transform="translate(13.973177, 26.464046) rotate(-14.000000) translate(-13.973177, -26.464046) "></path>
                        </g>
                        <g id="Group-7" transform="translate(21.000000, 51.000000) rotate(-26.000000) translate(-21.000000, -51.000000) translate(7.000000, 32.000000)">
                            <path d="M24.5771907,0.650930001 C18.9388003,4.01931553 13.6136537,8.89759041 8.60175104,15.2857547 C12.5422929,13.2807104 15.3398276,10.9653897 21.4164263,12.824413 C25.4674922,14.0637618 26.5210803,10.0059341 24.5771907,0.650930001 Z" id="Path-3-Copy-5"></path>
                            <path d="M20.6771907,9.7461681 C15.0388003,13.1145536 9.71365369,17.9928285 4.70175104,24.3809928 C8.64229285,22.3759485 11.4398276,20.0606278 17.5164263,21.9196511 C21.5674922,23.1589999 22.6210803,19.1011722 20.6771907,9.7461681 Z" id="Path-3-Copy-4"></path>
                            <path d="M24.814982,18.0761417 C13.3802826,19.4784405 5.67279235,25.0703769 1.69251133,34.851951 C7.37079451,30.0509549 10.9210773,28.5086769 20.0779498,31.3100531 C26.1825314,33.1776372 27.7615422,28.7663334 24.814982,18.0761417 Z" id="Path-3-Copy-3" transform="translate(13.973177, 26.464046) rotate(-14.000000) translate(-13.973177, -26.464046) "></path>
                        </g>
                        <g id="Group-7-Copy" transform="translate(32.000000, 80.004291) rotate(-53.000000) translate(-32.000000, -80.004291) translate(18.000000, 61.004291)">
                            <path d="M24.5771907,0.650930001 C18.9388003,4.01931553 13.6136537,8.89759041 8.60175104,15.2857547 C12.5422929,13.2807104 15.3398276,10.9653897 21.4164263,12.824413 C25.4674922,14.0637618 26.5210803,10.0059341 24.5771907,0.650930001 Z" id="Path-3-Copy-5"></path>
                            <path d="M20.6771907,9.7461681 C15.0388003,13.1145536 9.71365369,17.9928285 4.70175104,24.3809928 C8.64229285,22.3759485 11.4398276,20.0606278 17.5164263,21.9196511 C21.5674922,23.1589999 22.6210803,19.1011722 20.6771907,9.7461681 Z" id="Path-3-Copy-4"></path>
                            <path d="M24.814982,18.0761417 C13.3802826,19.4784405 5.67279235,25.0703769 1.69251133,34.851951 C7.37079451,30.0509549 10.9210773,28.5086769 20.0779498,31.3100531 C26.1825314,33.1776372 27.7615422,28.7663334 24.814982,18.0761417 Z" id="Path-3-Copy-3" transform="translate(13.973177, 26.464046) rotate(-14.000000) translate(-13.973177, -26.464046) "></path>
                        </g>
                        <g id="Group-7-Copy-2" transform="translate(53.999479, 99.005397) rotate(-82.000000) translate(-53.999479, -99.005397) translate(39.999479, 80.005397)">
                            <path d="M24.5771907,0.650930001 C18.9388003,4.01931553 13.6136537,8.89759041 8.60175104,15.2857547 C12.5422929,13.2807104 15.3398276,10.9653897 21.4164263,12.824413 C25.4674922,14.0637618 26.5210803,10.0059341 24.5771907,0.650930001 Z" id="Path-3-Copy-5"></path>
                            <path d="M20.6771907,9.7461681 C15.0388003,13.1145536 9.71365369,17.9928285 4.70175104,24.3809928 C8.64229285,22.3759485 11.4398276,20.0606278 17.5164263,21.9196511 C21.5674922,23.1589999 22.6210803,19.1011722 20.6771907,9.7461681 Z" id="Path-3-Copy-4"></path>
                            <path d="M24.814982,18.0761417 C13.3802826,19.4784405 5.67279235,25.0703769 1.69251133,34.851951 C7.37079451,30.0509549 10.9210773,28.5086769 20.0779498,31.3100531 C26.1825314,33.1776372 27.7615422,28.7663334 24.814982,18.0761417 Z" id="Path-3-Copy-3" transform="translate(13.973177, 26.464046) rotate(-14.000000) translate(-13.973177, -26.464046) "></path>
                        </g>
                    </g>
                    <g id="Group-9-Copy" transform="translate(143.500000, 120.000000) scale(-1, 1) translate(-143.500000, -120.000000) translate(106.000000, 62.000000)" fill="#FFC083">
                        <g id="Group-8" transform="translate(12.000000, 0.000000)">
                            <path d="M24.5771907,0.650930001 C18.9388003,4.01931553 13.6136537,8.89759041 8.60175104,15.2857547 C12.5422929,13.2807104 15.3398276,10.9653897 21.4164263,12.824413 C25.4674922,14.0637618 26.5210803,10.0059341 24.5771907,0.650930001 Z" id="Path-3"></path>
                            <path d="M20.6771907,9.7461681 C15.0388003,13.1145536 9.71365369,17.9928285 4.70175104,24.3809928 C8.64229285,22.3759485 11.4398276,20.0606278 17.5164263,21.9196511 C21.5674922,23.1589999 22.6210803,19.1011722 20.6771907,9.7461681 Z" id="Path-3-Copy"></path>
                            <path d="M24.814982,18.0761417 C13.3802826,19.4784405 5.67279235,25.0703769 1.69251133,34.851951 C7.37079451,30.0509549 10.9210773,28.5086769 20.0779498,31.3100531 C26.1825314,33.1776372 27.7615422,28.7663334 24.814982,18.0761417 Z" id="Path-3-Copy-2" transform="translate(13.973177, 26.464046) rotate(-14.000000) translate(-13.973177, -26.464046) "></path>
                        </g>
                        <g id="Group-7" transform="translate(21.000000, 51.000000) rotate(-26.000000) translate(-21.000000, -51.000000) translate(7.000000, 32.000000)">
                            <path d="M24.5771907,0.650930001 C18.9388003,4.01931553 13.6136537,8.89759041 8.60175104,15.2857547 C12.5422929,13.2807104 15.3398276,10.9653897 21.4164263,12.824413 C25.4674922,14.0637618 26.5210803,10.0059341 24.5771907,0.650930001 Z" id="Path-3-Copy-5"></path>
                            <path d="M20.6771907,9.7461681 C15.0388003,13.1145536 9.71365369,17.9928285 4.70175104,24.3809928 C8.64229285,22.3759485 11.4398276,20.0606278 17.5164263,21.9196511 C21.5674922,23.1589999 22.6210803,19.1011722 20.6771907,9.7461681 Z" id="Path-3-Copy-4"></path>
                            <path d="M24.814982,18.0761417 C13.3802826,19.4784405 5.67279235,25.0703769 1.69251133,34.851951 C7.37079451,30.0509549 10.9210773,28.5086769 20.0779498,31.3100531 C26.1825314,33.1776372 27.7615422,28.7663334 24.814982,18.0761417 Z" id="Path-3-Copy-3" transform="translate(13.973177, 26.464046) rotate(-14.000000) translate(-13.973177, -26.464046) "></path>
                        </g>
                        <g id="Group-7-Copy" transform="translate(32.000000, 80.004291) rotate(-53.000000) translate(-32.000000, -80.004291) translate(18.000000, 61.004291)">
                            <path d="M24.5771907,0.650930001 C18.9388003,4.01931553 13.6136537,8.89759041 8.60175104,15.2857547 C12.5422929,13.2807104 15.3398276,10.9653897 21.4164263,12.824413 C25.4674922,14.0637618 26.5210803,10.0059341 24.5771907,0.650930001 Z" id="Path-3-Copy-5"></path>
                            <path d="M20.6771907,9.7461681 C15.0388003,13.1145536 9.71365369,17.9928285 4.70175104,24.3809928 C8.64229285,22.3759485 11.4398276,20.0606278 17.5164263,21.9196511 C21.5674922,23.1589999 22.6210803,19.1011722 20.6771907,9.7461681 Z" id="Path-3-Copy-4"></path>
                            <path d="M24.814982,18.0761417 C13.3802826,19.4784405 5.67279235,25.0703769 1.69251133,34.851951 C7.37079451,30.0509549 10.9210773,28.5086769 20.0779498,31.3100531 C26.1825314,33.1776372 27.7615422,28.7663334 24.814982,18.0761417 Z" id="Path-3-Copy-3" transform="translate(13.973177, 26.464046) rotate(-14.000000) translate(-13.973177, -26.464046) "></path>
                        </g>
                        <g id="Group-7-Copy-2" transform="translate(53.999479, 99.005397) rotate(-82.000000) translate(-53.999479, -99.005397) translate(39.999479, 80.005397)">
                            <path d="M24.5771907,0.650930001 C18.9388003,4.01931553 13.6136537,8.89759041 8.60175104,15.2857547 C12.5422929,13.2807104 15.3398276,10.9653897 21.4164263,12.824413 C25.4674922,14.0637618 26.5210803,10.0059341 24.5771907,0.650930001 Z" id="Path-3-Copy-5"></path>
                            <path d="M20.6771907,9.7461681 C15.0388003,13.1145536 9.71365369,17.9928285 4.70175104,24.3809928 C8.64229285,22.3759485 11.4398276,20.0606278 17.5164263,21.9196511 C21.5674922,23.1589999 22.6210803,19.1011722 20.6771907,9.7461681 Z" id="Path-3-Copy-4"></path>
                            <path d="M24.814982,18.0761417 C13.3802826,19.4784405 5.67279235,25.0703769 1.69251133,34.851951 C7.37079451,30.0509549 10.9210773,28.5086769 20.0779498,31.3100531 C26.1825314,33.1776372 27.7615422,28.7663334 24.814982,18.0761417 Z" id="Path-3-Copy-3" transform="translate(13.973177, 26.464046) rotate(-14.000000) translate(-13.973177, -26.464046) "></path>
                        </g>
                    </g>
                    <g id="Group-12" transform="translate(46.000000, 64.000000)">
                        <g id="Group-10" transform="translate(7.000000, 15.000000)">
                            <ellipse id="Oval-30" stroke="#E5AB74" stroke-width="3" fill="#FFFFFF" cx="15.85" cy="15.3027211" rx="13.45" ry="13.4421769"></ellipse>
                            <path d="M11.3,18.4735253 C12.3817972,13.4215742 20.1019738,13.3377446 21.5049999,18.4735253" id="Path-18" stroke="#767676" stroke-width="2.6" stroke-linecap="round"></path>
                        </g>
                        <g id="Group-11" transform="translate(52.000000, 15.000000)">
                            <ellipse id="Oval-30-Copy" stroke="#E5AB74" stroke-width="3" fill="#FFFFFF" cx="15.05" cy="15.3027211" rx="13.45" ry="13.4421769"></ellipse>
                            <path d="M10.5,18.4735253 C11.5817972,13.4215742 19.3019738,13.3377446 20.7049999,18.4735253" id="Path-18-Copy" stroke="#767676" stroke-width="2.6" stroke-linecap="round"></path>
                        </g>
                        <g id="Group-5" transform="translate(35.200000, 45.244898)">
                            <path d="M4.5,8 C6.98528137,8 9,5.53756612 9,2.5 C9,-0.537566124 6.98528137,1.31017879 4.5,1.31017879 C2.01471863,1.31017879 0.719097434,2.2932829 0.719097434,5.33084902 C0.719097434,8.36841515 2.01471863,8 4.5,8 Z" id="Oval-2" fill="#FFFFFF"></path>
                            <path d="M14.5809026,8 C17.0661839,8 19.0809026,5.53756612 19.0809026,2.5 C19.0809026,-0.537566124 17.0661839,1.31017879 14.5809026,1.31017879 C12.0956212,1.31017879 10.8,2.2932829 10.8,5.33084902 C10.8,8.36841515 12.0956212,8 14.5809026,8 Z" id="Oval-2-Copy" fill="#FFFFFF" transform="translate(14.940451, 4.383798) scale(-1, 1) translate(-14.940451, -4.383798) "></path>
                            <path d="M10.1092721,5.6611962 C12.4126934,8.94448947 19.4352365,7.92685559 19.124768,1.1927888" id="Path-19-Copy" stroke="#E08063" stroke-width="2.34" stroke-linecap="round" transform="translate(14.622008, 4.330850) scale(-1, 1) translate(-14.622008, -4.330850) "></path>
                            <path d="M0.749272107,5.6611962 C3.05269345,8.94448947 10.0752365,7.92685559 9.76476797,1.1927888" id="Path-19" stroke="#E08063" stroke-width="2.34" stroke-linecap="round"></path>
                            <line x1="6.24" y1="0.779591837" x2="13.2912" y2="0.779591837" id="Line-2" stroke="#78625B" stroke-width="2.34" stroke-linecap="round"></line>
                        </g>
                        <g id="Group-6" transform="translate(0.100000, 51.741497)" stroke="#FFFFFF" stroke-linecap="round" stroke-width="2.29999995">
                            <path d="M23.9670176,0.279391433 C21.1827758,0.279391433 13.508433,0.279391433 0.943989292,0.279391433" id="Path-2"></path>
                            <path d="M23.9669893,6.77599007 C22.2832404,6.77599007 17.6422404,6.77599007 10.0439893,6.77599007" id="Path-2-Copy" transform="translate(17.005489, 7.425650) rotate(-12.000000) translate(-17.005489, -7.425650) "></path>
                        </g>
                        <g id="Group-6-Copy-2" transform="translate(20.030776, 5.228859) rotate(96.000000) translate(-20.030776, -5.228859) translate(15.530776, 0.228859)" stroke="#FFFFFF" stroke-linecap="round" stroke-width="2.29999995">
                            <path d="M6.51608526,0.22700554 C5.3828945,0.22700554 3.25645005,0.22700554 0.136751892,0.22700554" id="Path-2"></path>
                            <path d="M8.02719854,8.06163962 C7.24144904,8.06163962 5.07564903,8.06163962 1.52979851,8.06163962" id="Path-2-Copy" transform="translate(4.778499, 8.436640) rotate(-15.000000) translate(-4.778499, -8.436640) "></path>
                        </g>
                        <g id="Group-6-Copy-3" transform="translate(68.032984, 5.228859) scale(-1, 1) rotate(96.000000) translate(-68.032984, -5.228859) translate(63.532984, 0.228859)" stroke="#FFFFFF" stroke-linecap="round" stroke-width="2.29999995">
                            <path d="M6.51608526,0.22700554 C5.3828945,0.22700554 3.25645005,0.22700554 0.136751892,0.22700554" id="Path-2"></path>
                            <path d="M8.02719854,8.06163962 C7.24144904,8.06163962 5.07564903,8.06163962 1.52979851,8.06163962" id="Path-2-Copy" transform="translate(4.778499, 8.436640) rotate(-15.000000) translate(-4.778499, -8.436640) "></path>
                        </g>
                        <g id="Group-6-Copy" transform="translate(79.100000, 56.741497) scale(-1, 1) translate(-79.100000, -56.741497) translate(67.100000, 51.741497)" stroke="#FFFFFF" stroke-linecap="round" stroke-width="2.29999995">
                            <path d="M23.9670176,0.279391433 C21.1827758,0.279391433 13.508433,0.279391433 0.943989292,0.279391433" id="Path-2"></path>
                            <path d="M23.9669893,6.77599007 C22.2832404,6.77599007 17.6422404,6.77599007 10.0439893,6.77599007" id="Path-2-Copy" transform="translate(17.005489, 7.425650) rotate(-12.000000) translate(-17.005489, -7.425650) "></path>
                        </g>
                    </g>
                </g>
                <g id="cards" transform="translate(30.000000, 132.000000)">
                    <g id="Group-2" transform="translate(32.415459, 0.000000)">
                        <path d="M10,0 L79.5845411,0 C85.1073886,7.01966046e-15 89.5845411,4.4771525 89.5845411,10 L89.5845411,50.115942 C89.5845411,55.6387895 85.1073886,60.115942 79.5845411,60.115942 L10,60.115942 C4.4771525,60.115942 3.80527087e-15,55.6387895 0,50.115942 L0,10 C-2.45271059e-15,4.4771525 4.4771525,-7.61826213e-16 10,0 Z" id="Rectangle-30" fill="#AEEFFF"></path>
                        <polygon id="Rectangle-30-Copy" fill="#78B9C9" points="0 12.9661836 89.5845411 12.9661836 89.5845411 24.7536232 0 24.7536232"></polygon>
                        <g id="Group" transform="translate(8.840580, 36.541063)" fill="#78B9C9">
                            <circle id="Oval" opacity="0.600000024" cx="7.36714976" cy="7.36714976" r="7.36714976"></circle>
                            <circle id="Oval-Copy-2" opacity="0.502038043" cx="14.4396135" cy="7.36714976" r="7.36714976"></circle>
                        </g>
                        <path d="M66.5990338,46.5603865 L78.3864734,46.5603865 C79.6884781,46.5603865 80.7439614,47.6158698 80.7439614,48.9178744 C80.7439614,50.219879 79.6884781,51.2753623 78.3864734,51.2753623 L66.5990338,51.2753623 C65.2970292,51.2753623 64.2415459,50.219879 64.2415459,48.9178744 C64.2415459,47.6158698 65.2970292,46.5603865 66.5990338,46.5603865 Z" id="Rectangle-31" fill="#78B9C9" opacity="0.502038043"></path>
                    </g>
                    <g id="Group-2-Copy" filter="url(#filter-1)" transform="translate(0.000000, 18.270531)">
                        <path d="M10,0 L79.5845411,0 C85.1073886,-2.79088747e-15 89.5845411,4.4771525 89.5845411,10 L89.5845411,50.115942 C89.5845411,55.6387895 85.1073886,60.115942 79.5845411,60.115942 L10,60.115942 C4.4771525,60.115942 6.76353751e-16,55.6387895 0,50.115942 L0,10 C-6.76353751e-16,4.4771525 4.4771525,-7.61826213e-16 10,0 Z" id="Rectangle-30" fill="#B8FFAE"></path>
                        <polygon id="Rectangle-30-Copy" fill="#78C98A" points="0 12.9661836 89.5845411 12.9661836 89.5845411 24.7536232 0 24.7536232"></polygon>
                        <g id="Group" transform="translate(8.840580, 36.541063)" fill="#78C98A">
                            <circle id="Oval" opacity="0.600000024" cx="7.36714976" cy="7.36714976" r="7.36714976"></circle>
                            <circle id="Oval-Copy-2" opacity="0.502038043" cx="14.4396135" cy="7.36714976" r="7.36714976"></circle>
                        </g>
                        <path d="M66.5990338,46.5603865 L78.3864734,46.5603865 C79.6884781,46.5603865 80.7439614,47.6158698 80.7439614,48.9178744 C80.7439614,50.219879 79.6884781,51.2753623 78.3864734,51.2753623 L66.5990338,51.2753623 C65.2970292,51.2753623 64.2415459,50.219879 64.2415459,48.9178744 C64.2415459,47.6158698 65.2970292,46.5603865 66.5990338,46.5603865 Z" id="Rectangle-31" fill="#78C98A" opacity="0.502038043"></path>
                    </g>
                </g>
                <path d="M144.111111,154 L163,154 L163,154 L163,161.222222 C163,169.506493 156.284271,176.222222 148,176.222222 L144.111111,176.222222 C137.974614,176.222222 133,171.247608 133,165.111111 C133,158.974614 137.974614,154 144.111111,154 Z" id="paw" fill="#FFC083"></path>
                <path d="M29.1111111,167 L48,167 L48,167 L48,174.222222 C48,182.506493 41.2842712,189.222222 33,189.222222 L29.1111111,189.222222 C22.9746139,189.222222 18,184.247608 18,178.111111 C18,171.974614 22.9746139,167 29.1111111,167 Z" id="paw" fill="#FFC083" transform="translate(33.000000, 178.111111) scale(-1, 1) translate(-33.000000, -178.111111) "></path>
            </g>
        </g>
    </g>
</svg>