<?xml version="1.0" encoding="UTF-8"?>
<svg width="453px" height="537px" viewBox="0 0 453 537" version="1.1" xmlns="http://www.w3.org/2000/svg" xmlns:xlink="http://www.w3.org/1999/xlink">
    <title>Artwork</title>
    <defs>
        <linearGradient x1="68.9780238%" y1="20.0600547%" x2="50%" y2="65.6531611%" id="linearGradient-1">
            <stop stop-color="#DF94AD" offset="0%"></stop>
            <stop stop-color="#BC5B74" offset="100%"></stop>
        </linearGradient>
        <path d="M6.33202729,0.657425927 L24.0057951,8.60926938 C31.8141313,12.2043938 40.6786069,12.2037701 48.4901132,8.60755921 L66.159067,0.6585936 C68.2297339,-0.256946614 70.5464919,0.630687824 71.3203739,2.64118061 C71.5195302,3.161689 71.6012258,3.72697572 71.5603242,4.29891281 L69.0193729,31.8297243 C68.703404,36.2480023 65.2006331,39.8297243 61.1957151,39.8297243 L11.2496472,39.8297243 C7.24472914,39.8297243 3.745474,36.2480023 3.43384206,31.8297243 L0.927700812,4.29797316 C0.77188484,2.08883416 2.43894375,0.297935585 4.6511811,0.297935585 C5.22373454,0.297935585 5.79702219,0.420544773 6.33202729,0.657425927 Z" id="path-2"></path>
    </defs>
    <g id="Empty-States" stroke="none" stroke-width="1" fill="none" fill-rule="evenodd">
        <g id="8.2_No-Events" transform="translate(61.000000, 107.000000)">
            <g id="Artwork" transform="translate(-61.000000, -106.834921)">
                <g id="sky" transform="translate(0.000000, 106.834921)">
                    <polygon fill-opacity="0.369384766" fill="#C1E9FD" points="61 0 436 0 436 430 61 430"></polygon>
                    <path d="M387.5,191 C410.419817,191 429,209.132468 429,231.5 C429,232.580023 428.956681,233.650171 428.871646,234.708881 C443.114872,241.123375 453,255.185107 453,271.5 C453,293.867532 434.419817,312 411.5,312 C398.939453,312 387.682216,306.554325 380.072081,297.950288 C372.811447,307.423883 359.597161,312 344.5,312 C325.214962,312 309.002283,304.532976 304.345064,288.928139 C303.569816,288.975746 302.787864,289 302,289 C282.117749,289 266,273.553824 266,254.5 C266,235.446176 282.117749,220 302,220 L302.144289,220.000271 L302.144289,220.000271 C303.702106,203.734225 317.817462,191 335,191 C344.733657,191 353.483037,195.086485 359.523139,201.586726 C366.900613,195.010927 376.72034,191 387.5,191 Z" id="cloud" fill="#FFFFFF"></path>
                    <path d="M280.673797,78 C292.685252,78 302.42246,87.5025766 302.42246,99.2245989 C302.42246,99.7903139 302.399781,100.35086 302.355262,100.905417 C309.819401,104.267641 315,111.636985 315,120.187166 C315,131.909188 305.262792,141.411765 293.251337,141.411765 C286.668962,141.411765 280.769573,138.558018 276.781378,134.049139 C272.975973,139.013613 266.050873,141.411765 258.139037,141.411765 C248.032004,141.411765 239.535223,137.498227 237.094959,129.319571 C236.689108,129.345574 236.279258,129.358289 235.86631,129.358289 C225.446735,129.358289 217,121.263501 217,111.278075 C217,101.292648 225.446735,93.197861 235.86631,93.197861 L235.940385,93.1979974 L235.940385,93.1979974 C236.758231,84.6736342 244.155619,78 253.160428,78 C258.261429,78 262.846618,80.1415303 266.012015,83.5480041 C269.878264,80.1020369 275.024491,78 280.673797,78 Z" id="cloud" fill="#FFFFFF"></path>
                    <path d="M104.606952,268 C124.340056,268 140.336898,283.611376 140.336898,302.868984 C140.336898,303.798919 140.299596,304.720352 140.226372,305.631935 C152.489235,311.154293 161,323.260941 161,337.307487 C161,356.565095 145.003158,372.176471 125.270053,372.176471 C114.455921,372.176471 104.763885,367.487973 98.2118449,360.080255 C91.9608145,368.236551 80.5837414,372.176471 67.5855615,372.176471 C50.9819144,372.176471 37.0234371,365.74768 33.0136999,352.312579 C32.3461381,352.353451 31.6729397,352.374332 30.9946524,352.374332 C13.8767786,352.374332 0,339.075752 0,322.671123 C0,306.266494 13.8767786,292.967914 30.9946524,292.967914 C31.0360289,292.967914 31.0773865,292.967992 31.1187251,292.968147 C32.4606713,278.963178 44.6132414,268 59.4064171,268 C67.7868157,268 75.3197721,271.518382 80.5200791,277.114944 C86.8715763,271.453288 95.3260272,268 104.606952,268 Z" id="cloud" fill="#FFFFFF"></path>
                </g>
                <g id="ballon" transform="translate(90.000000, 0.000000)">
                    <g id="Group" transform="translate(142.342308, 397.723383)">
                        <g id="Group-2-Copy" transform="translate(12.850341, 15.570436) rotate(6.000000) translate(-12.850341, -15.570436) translate(7.850341, 9.070436)" fill="#9FB2C3">
                            <polygon id="Rectangle-4-Copy" transform="translate(4.735068, 6.648711) rotate(-63.000000) translate(-4.735068, -6.648711) " points="-1.25785553 4.49150181 10.7279919 6.15289335 10.6439888 8.80592038 -1.25785553 8.80592038"></polygon>
                        </g>
                        <rect id="Rectangle-8" fill="#FAC1B7" x="4" y="11" width="4" height="6"></rect>
                        <path d="M4.80601331,15.513809 C6.8408209,15.0722947 9.23994925,15.6096849 12.0033984,17.1259795 C10.9302839,26.0021547 11.1812355,32.8892824 12.7562532,37.7873625 C7.24849096,40.061988 3.54617925,39.3207936 1.64931809,35.5637792 C1.90623211,24.3163165 2.03468911,18.6925852 2.03468911,18.6925852 C2.03468911,18.6925852 1.75380193,16.1760804 4.80601331,15.513809 Z" id="Rectangle" fill="#ACBBCA"></path>
                        <path d="M20.1506726,7.03112375 L22.4289284,7.48313599 C23.8333299,7.76177312 24.8451,8.99400247 24.8451,10.4257784 L24.8451,11.2906137 C24.8451,12.6595181 23.7353838,13.7692344 22.3664794,13.7692344 C22.1260228,13.7692344 21.8868459,13.7342445 21.6564659,13.6653645 L19.3368015,12.971821 C18.0422177,12.5847607 17.1661464,11.3800142 17.1969461,10.0291574 L17.2115454,9.38884079 C17.2425248,8.03009849 18.3691169,6.95373402 19.7278592,6.98471347 C19.8698723,6.98795139 20.0113384,7.00347947 20.1506726,7.03112375 Z" id="Rectangle-3" fill="#FFFFFF"></path>
                        <path d="M24.1463771,10.6799451 C24.2844482,10.6799451 24.3963771,10.7918739 24.3963771,10.9299451 L24.3963771,11.8984375 C24.3963771,12.0365087 24.2844482,12.1484375 24.1463771,12.1484375 C24.0083059,12.1484375 23.8963771,12.0365087 23.8963771,11.8984375 L23.8963771,10.9299451 C23.8963771,10.7918739 24.0083059,10.6799451 24.1463771,10.6799451 Z" id="Rectangle-5" fill="#E8EDF0"></path>
                        <path d="M24.0298764,9.87894918 C24.1773356,9.87894918 24.296875,9.99848853 24.296875,10.1459478 C24.296875,10.2934071 24.1773356,10.4129464 24.0298764,10.4129464 C23.8824171,10.4129464 23.7628777,10.2934071 23.7628777,10.1459478 C23.7628777,9.99848853 23.8824171,9.87894918 24.0298764,9.87894918 Z" id="Rectangle-5-Copy" fill="#E8EDF0"></path>
                        <g id="Group-4" transform="translate(20.354399, 10.514050) rotate(23.000000) translate(-20.354399, -10.514050) translate(12.854399, 6.514050)">
                            <path d="M8.64705882,5.68434189e-14 C9.49172962,5.68434189e-14 10.1764706,1.1982967 10.1764706,2.67647059 C10.1764706,4.15464448 9.49172962,5.35294118 8.64705882,5.35294118 L8.64705882,5.35294118 L2.52941176,6.88235294 L2.52941176,1.52941176 L8.21456841,0.108513545 C8.35170714,0.0378926787 8.49685432,5.68434189e-14 8.64705882,5.68434189e-14 Z" id="Combined-Shape" fill="#4C4C4C"></path>
                            <ellipse id="Oval-27" fill="#838383" cx="2.52941176" cy="4.20588235" rx="1.52941176" ry="2.67647059"></ellipse>
                            <path d="M12.4705882,0.764705882 C13.315259,0.764705882 14,1.96300258 14,3.44117647 C14,4.91935036 13.315259,6.11764706 12.4705882,6.11764706 L12.4705882,6.11764706 L6.35294118,7.64705882 L6.35294118,2.29411765 L12.0380978,0.873219427 C12.1752366,0.802598561 12.3203837,0.764705882 12.4705882,0.764705882 Z" id="Combined-Shape" fill="#565656"></path>
                            <ellipse id="Oval-27-Copy" fill="#838383" cx="6.35294118" cy="4.97058824" rx="1.52941176" ry="2.67647059"></ellipse>
                            <ellipse id="Oval-27-Copy-5" fill="#000000" opacity="0.229110054" cx="2.00069147" cy="4.30013829" rx="1.152388" ry="2.01667901"></ellipse>
                            <ellipse id="Oval-27-Copy-4" fill="#000000" opacity="0.229110054" cx="5.88166148" cy="4.8763323" rx="1.152388" ry="2.01667901"></ellipse>
                        </g>
                        <g id="Group-2" transform="translate(16.232090, 17.338512) rotate(4.000000) translate(-16.232090, -17.338512) translate(7.232090, 8.838512)">
                            <path d="M2.39095455,7.58585406 L13.0882614,12.8032792 L11.9812588,15.0729707 C11.5346885,15.9885756 10.4712714,16.4222211 9.51177429,16.0799893 L0.325033798,12.8032792 L2.39095455,7.58585406 Z" id="Rectangle-4" fill="#ACBBCA"></path>
                            <path d="M16.839433,0.522153871 C18.0062388,1.01891532 18.1122465,2.02829053 17.1574561,3.55027951 C15.8376165,5.65417738 15.6121746,6.33301048 16.4811304,5.5867788 L14.9177982,3.54824406 C15.3938164,3.60891519 15.5037101,3.49379066 15.2474791,3.20287049 C15.0572739,2.98691483 15.1230276,2.63671717 15.1374835,1.62985967 C15.1374835,1.62985967 15.1374835,1.62985967 15.1374835,1.62985967 C15.1471801,0.954484657 15.7025404,0.414845712 16.3779154,0.424542353 C16.5366314,0.426821104 16.693386,0.459974783 16.8394331,0.522153568 Z" id="Path-2" fill="#FAC1B7"></path>
                            <polygon id="Rectangle-4-Copy" fill="#ACBBCA" transform="translate(12.763756, 8.674221) rotate(-63.000000) translate(-12.763756, -8.674221) " points="6.77083215 6.51701218 18.7566796 8.17840372 18.6726765 10.8314307 6.77083215 10.8314307"></polygon>
                        </g>
                        <ellipse id="Oval-2" fill="#FAC1B7" cx="8.5" cy="8" rx="3.5" ry="6"></ellipse>
                        <path d="M6.54601438,0.074386527 C8.71528714,0.0450720303 10.4975943,1.77985096 10.5269088,3.94912373 C10.5329449,4.39579891 10.4627463,4.84023123 10.3193361,5.26330177 C9.24484427,8.43305242 8.55085203,10.2362733 8.23735938,10.6729645 C6.29860086,13.1890693 4.88412518,13.5424224 3.26575224,12.2768979 C2.47257283,11.6566527 0.573959049,9.69171247 0.573959049,7.80963547 C0.573959049,7.17724205 0.582455805,6.5532738 0.599449316,5.93773074 C0.68873038,2.70492679 3.31227306,0.118085734 6.54601438,0.074386527 Z" id="Rectangle-41" fill="#FF6D6D"></path>
                        <rect id="Rectangle-9" fill="#FF6D6D" x="9" y="6" width="1" height="3"></rect>
                    </g>
                    <g id="Group-2" transform="translate(119.634615, 347.574806)">
                        <line x1="13.1384615" y1="2.69653179" x2="13.1384615" y2="84.2742204" id="Line" stroke="#88776D" stroke-width="2" stroke-linecap="square"></line>
                        <line x1="58.5923077" y1="2.69653179" x2="58.5923077" y2="84.2742204" id="Line-Copy-3" stroke="#88776D" stroke-width="2" stroke-linecap="square"></line>
                        <line x1="27.4923077" y1="0.898843931" x2="27.4923077" y2="37.5646259" id="Line-Copy" stroke="#88776D" stroke-width="2" stroke-linecap="square"></line>
                        <line x1="41.8461538" y1="0.898843931" x2="41.8461538" y2="37.5646259" id="Line-Copy-2" stroke="#88776D" stroke-width="2" stroke-linecap="square"></line>
                        <g id="Rectangle-10" transform="translate(0.000000, 72.000000)">
                            <mask id="mask-3" fill="white">
                                <use xlink:href="#path-2"></use>
                            </mask>
                            <use id="Mask" fill="url(#linearGradient-1)" xlink:href="#path-2"></use>
                            <rect fill="#8F3C53" mask="url(#mask-3)" x="0" y="15" width="73" height="6"></rect>
                        </g>
                        <path d="M16,103.666667 C18.209139,103.666667 20,101.875806 20,99.6666667 C20,98.1939073 18.6666667,95.9716851 16,93 C13.3333333,95.9716851 12,98.1939073 12,99.6666667 C12,101.875806 13.790861,103.666667 16,103.666667 Z" id="Oval-3" fill="#FFB379"></path>
                        <path d="M29,103.666667 C31.209139,103.666667 33,101.875806 33,99.6666667 C33,98.1939073 31.6666667,95.9716851 29,93 C26.3333333,95.9716851 25,98.1939073 25,99.6666667 C25,101.875806 26.790861,103.666667 29,103.666667 Z" id="Oval-3-Copy" fill="#FFB379"></path>
                        <path d="M43,103.666667 C45.209139,103.666667 47,101.875806 47,99.6666667 C47,98.1939073 45.6666667,95.9716851 43,93 C40.3333333,95.9716851 39,98.1939073 39,99.6666667 C39,101.875806 40.790861,103.666667 43,103.666667 Z" id="Oval-3-Copy-2" fill="#FFB379"></path>
                        <path d="M57,103.666667 C59.209139,103.666667 61,101.875806 61,99.6666667 C61,98.1939073 59.6666667,95.9716851 57,93 C54.3333333,95.9716851 53,98.1939073 53,99.6666667 C53,101.875806 54.790861,103.666667 57,103.666667 Z" id="Oval-3-Copy-3" fill="#FFB379"></path>
                        <path d="M15.2398844,35.3757225 L56.2398844,35.3757225 C57.8967386,35.3757225 59.2398844,36.7188683 59.2398844,38.3757225 C59.2398844,40.0325768 57.8967386,41.3757225 56.2398844,41.3757225 L15.2398844,41.3757225 C13.5830301,41.3757225 12.2398844,40.0325768 12.2398844,38.3757225 C12.2398844,36.7188683 13.5830301,35.3757225 15.2398844,35.3757225 Z" id="Rectangle-2" fill="#756660"></path>
                    </g>
                    <g id="Group">
                        <path d="M154.601156,2.43029683 C241.970688,2.43029683 311,49.8873544 311,137.256886 C311,171.725386 295.072794,204.738363 272.465594,232.079544 L272.829703,232.076682 C271.724545,233.235381 270.628545,234.389266 269.541705,235.538337 C265.841207,239.831817 261.978046,243.974961 257.991994,247.951324 C216.392772,293.377796 190.032063,330.7996 178.906556,360.213516 C171.554674,357.816598 164.202791,356.61814 156.850909,356.61814 C149.499026,356.61814 141.438905,357.816598 132.670545,360.213516 C116.528064,329.163733 89.3130097,291.3503 51.0253831,246.773215 C22.0363127,217.015974 0,178.161339 0,137.256886 C0,49.8873544 67.2316241,2.43029683 154.601156,2.43029683 Z" id="Combined-Shape" fill="#E27689"></path>
                        <path d="M104.958708,5.26893234 C144.617091,-1.62225316 70.4297809,48.4432184 70.4297809,116.610625 C70.4297809,184.778031 120.070463,265.032696 132.708383,329.609488 C121.045735,329.609488 124.579175,329.609488 123.484986,329.609488 C108.198818,274.1809 26.9653179,183.588072 26.9653179,116.610625 C26.9653179,49.6331775 65.300325,12.1601178 104.958708,5.26893234 Z" id="Rectangle-42-Copy" fill="#FFFFFF"></path>
                        <path d="M254.166801,5.26893234 C293.825184,-1.62225316 219.637873,48.4432184 219.637873,116.610625 C219.637873,184.778031 269.278556,265.032696 281.916476,329.609488 C270.253827,329.609488 273.787268,329.609488 272.693078,329.609488 C257.406911,274.1809 176.17341,183.588072 176.17341,116.610625 C176.17341,49.6331775 214.508418,12.1601178 254.166801,5.26893234 Z" id="Rectangle-42-Copy-3" fill="#FFFFFF" transform="translate(229.044943, 167.122108) scale(-1, 1) translate(-229.044943, -167.122108) "></path>
                        <path d="M147.743847,9.62104828 C184.23839,-24.4747303 245.833815,37.6291311 245.833815,108.418361 C245.833815,179.20759 191.805941,264.812586 179.478836,329.609488 C160.762167,329.609488 153.513845,329.609488 130.433852,329.609488 C118.127107,259.512797 66.9638728,177.971864 66.9638728,108.418361 C66.9638728,38.8648579 112.651322,-23.3797326 147.743847,9.62104828 Z" id="Rectangle-42-Copy-2" fill="#E27689"></path>
                        <path d="M151.00578,0.632608971 C180.843785,0.632608971 212.127168,48.4432184 212.127168,116.610625 C212.127168,184.778031 179.869391,249.10206 167.780347,329.609488 C156.117698,329.609488 157.601156,329.609488 143.219653,329.609488 C133.500772,255.392663 100.67052,181.790384 100.67052,114.812937 C100.67052,47.8354897 121.167776,0.632608971 151.00578,0.632608971 Z" id="Rectangle-42" fill="#FFFFFF"></path>
                        <path d="M162.654064,235.881628 C219.789708,235.881628 270.790555,212.845561 304.240319,176.78578 C294.999061,204.137195 277.134686,229.315127 256.068803,249.847687 C213.735997,296.113238 188.016465,332.902746 178.906556,360.213516 C171.554674,357.920114 164.202791,356.773413 156.850909,356.773413 C149.499026,356.773413 141.438905,357.920114 132.670545,360.213516 C118.183171,331.638912 91.8985745,294.763821 53.8167555,249.588243 C26.4220113,222.424401 4.64061215,187.174877 0.653734843,149.532888 C31.0413545,200.835577 92.1811053,235.881628 162.654064,235.881628 Z" id="Combined-Shape" fill="#B1EBFF" opacity="0.25854846" style="mix-blend-mode: multiply;"></path>
                    </g>
                </g>
            </g>
        </g>
    </g>
</svg>