<?xml version="1.0" encoding="UTF-8"?>
<svg width="239px" height="239px" viewBox="0 0 239 239" version="1.1" xmlns="http://www.w3.org/2000/svg" xmlns:xlink="http://www.w3.org/1999/xlink">
    <title>Artwork</title>
    <defs>
        <linearGradient x1="68.79585%" y1="78.4430799%" x2="-6.69810925%" y2="-11.5765359%" id="linearGradient-1">
            <stop stop-color="#FFF4D3" offset="0%"></stop>
            <stop stop-color="#FFE5A8" offset="100%"></stop>
        </linearGradient>
        <circle id="path-2" cx="119.5" cy="119.5" r="119.5"></circle>
        <linearGradient x1="62.1908073%" y1="-39.0254939%" x2="28.4922806%" y2="57.8319426%" id="linearGradient-4">
            <stop stop-color="#E5C0FF" offset="0%"></stop>
            <stop stop-color="#FF8CBE" offset="100%"></stop>
        </linearGradient>
        <path d="M36.1953841,1.30802997 C56.3538057,1.30802997 72.0484794,17.7626326 71.2504191,38.0604136 C67.3128781,55.8440838 65.136609,69.3755361 64.7216119,78.6547704 C64.039888,93.8979501 62.0862361,108.38319 58.8835964,124.891654 C55.6809566,141.400117 52.5967833,162.298891 36.1953841,162.298891 C19.7939849,162.298891 5.8510681,145.844288 5.05300779,125.546507 L3.18045969,39.8068424 C4.36901066,16.8494258 16.0369625,1.30802997 36.1953841,1.30802997 Z" id="path-5"></path>
        <filter x="-3.7%" y="-1.6%" width="114.7%" height="106.2%" filterUnits="objectBoundingBox" id="filter-6">
            <feOffset dx="5" dy="5" in="SourceAlpha" result="shadowOffsetOuter1"></feOffset>
            <feColorMatrix values="0 0 0 0 0.774739583   0 0 0 0 0.290658923   0 0 0 0 0  0 0 0 0.169921875 0" type="matrix" in="shadowOffsetOuter1"></feColorMatrix>
        </filter>
        <path d="M30.4962754,12.1579024 C3.76717774,34.2517003 -5.37490572,59.3770907 3.07002502,87.5340735" id="path-7"></path>
        <filter x="-28.2%" y="-11.4%" width="161.3%" height="137.3%" filterUnits="objectBoundingBox" id="filter-8">
            <feMorphology radius="3.6" operator="dilate" in="SourceAlpha" result="shadowSpreadOuter1"></feMorphology>
            <feOffset dx="0" dy="10" in="shadowSpreadOuter1" result="shadowOffsetOuter1"></feOffset>
            <feMorphology radius="3.6" operator="erode" in="SourceAlpha" result="shadowInner"></feMorphology>
            <feOffset dx="0" dy="10" in="shadowInner" result="shadowInner"></feOffset>
            <feComposite in="shadowOffsetOuter1" in2="shadowInner" operator="out" result="shadowOffsetOuter1"></feComposite>
            <feColorMatrix values="0 0 0 0 0.952301233   0 0 0 0 0.343285356   0 0 0 0 0.687408288  0 0 0 0.151409647 0" type="matrix" in="shadowOffsetOuter1"></feColorMatrix>
        </filter>
        <path d="M54.6825498,12.345781 C33.739644,34.3143265 27.4906565,59.3770907 35.9355872,87.5340735" id="path-9"></path>
        <filter x="-38.4%" y="-11.4%" width="183.5%" height="137.3%" filterUnits="objectBoundingBox" id="filter-10">
            <feMorphology radius="3.6" operator="dilate" in="SourceAlpha" result="shadowSpreadOuter1"></feMorphology>
            <feOffset dx="0" dy="10" in="shadowSpreadOuter1" result="shadowOffsetOuter1"></feOffset>
            <feMorphology radius="3.6" operator="erode" in="SourceAlpha" result="shadowInner"></feMorphology>
            <feOffset dx="0" dy="10" in="shadowInner" result="shadowInner"></feOffset>
            <feComposite in="shadowOffsetOuter1" in2="shadowInner" operator="out" result="shadowOffsetOuter1"></feComposite>
            <feColorMatrix values="0 0 0 0 0.952301233   0 0 0 0 0.343285356   0 0 0 0 0.687408288  0 0 0 0.151409647 0" type="matrix" in="shadowOffsetOuter1"></feColorMatrix>
        </filter>
        <linearGradient x1="62.4954691%" y1="-39.0254939%" x2="27.9547789%" y2="57.8319426%" id="linearGradient-11">
            <stop stop-color="#E5C0FF" offset="0%"></stop>
            <stop stop-color="#FF8CBE" offset="100%"></stop>
        </linearGradient>
        <path d="M34.1227308,0 C54.2811524,0 69.9758262,16.4546026 69.1777659,36.7523836 C65.1730289,54.6372135 62.9681958,68.1066878 62.5632665,77.1608065 C61.8664408,92.7416596 61.2544221,102.199431 59.2856708,123.694304 C57.3169196,145.189177 50.52413,160.990861 34.1227308,160.990861 C17.7213316,160.990861 3.77841484,144.536258 2.98035452,124.238477 L0.26212155,36.8779228 C2.54811524,15.1281457 13.9643092,0 34.1227308,0 Z" id="path-12"></path>
        <filter x="-10.9%" y="-1.6%" width="114.5%" height="106.2%" filterUnits="objectBoundingBox" id="filter-13">
            <feOffset dx="-5" dy="5" in="SourceAlpha" result="shadowOffsetOuter1"></feOffset>
            <feColorMatrix values="0 0 0 0 0.774739583   0 0 0 0 0.290658923   0 0 0 0 0  0 0 0 0.169921875 0" type="matrix" in="shadowOffsetOuter1"></feColorMatrix>
        </filter>
        <path d="M32.5963306,10.9995921 C4.46719614,31.4635868 -5.37490572,55.7740756 3.07002502,83.9310584" id="path-14"></path>
        <filter x="-26.5%" y="-11.8%" width="157.4%" height="138.5%" filterUnits="objectBoundingBox" id="filter-15">
            <feMorphology radius="3.6" operator="dilate" in="SourceAlpha" result="shadowSpreadOuter1"></feMorphology>
            <feOffset dx="0" dy="10" in="shadowSpreadOuter1" result="shadowOffsetOuter1"></feOffset>
            <feMorphology radius="3.6" operator="erode" in="SourceAlpha" result="shadowInner"></feMorphology>
            <feOffset dx="0" dy="10" in="shadowInner" result="shadowInner"></feOffset>
            <feComposite in="shadowOffsetOuter1" in2="shadowInner" operator="out" result="shadowOffsetOuter1"></feComposite>
            <feColorMatrix values="0 0 0 0 0.952301233   0 0 0 0 0.343285356   0 0 0 0 0.687408288  0 0 0 0.151409647 0" type="matrix" in="shadowOffsetOuter1"></feColorMatrix>
        </filter>
        <path d="M54.7596088,10.9995921 C34.4259273,31.4635868 28.481552,55.7740756 36.9264827,83.9310584" id="path-16"></path>
        <filter x="-39.9%" y="-11.8%" width="186.7%" height="138.5%" filterUnits="objectBoundingBox" id="filter-17">
            <feMorphology radius="3.6" operator="dilate" in="SourceAlpha" result="shadowSpreadOuter1"></feMorphology>
            <feOffset dx="0" dy="10" in="shadowSpreadOuter1" result="shadowOffsetOuter1"></feOffset>
            <feMorphology radius="3.6" operator="erode" in="SourceAlpha" result="shadowInner"></feMorphology>
            <feOffset dx="0" dy="10" in="shadowInner" result="shadowInner"></feOffset>
            <feComposite in="shadowOffsetOuter1" in2="shadowInner" operator="out" result="shadowOffsetOuter1"></feComposite>
            <feColorMatrix values="0 0 0 0 0.952301233   0 0 0 0 0.343285356   0 0 0 0 0.687408288  0 0 0 0.151409647 0" type="matrix" in="shadowOffsetOuter1"></feColorMatrix>
        </filter>
        <path d="M43.0996721,59.537168 L28.7660809,73.1914828 C27.8063577,74.1057242 26.2872091,74.068854 25.3729676,73.1091307 C24.6853047,72.3872579 24.5155423,71.3154197 24.9464775,70.4163784 L33.5031793,52.5649078 C34.0565403,51.4104552 33.6063465,50.0249012 32.4800978,49.4161867 L15.0647495,40.0035468 C13.8986834,39.3733119 13.4643064,37.9171222 14.0945413,36.751056 C14.5685836,35.8739789 15.5355028,35.3813089 16.5237082,35.5133337 L36.1456319,38.1348329 C37.4145796,38.304365 38.5932022,37.4480455 38.824094,36.1888162 L42.394408,16.71717 C42.6334628,15.4134219 43.8841516,14.5503175 45.1878997,14.7893723 C46.1685368,14.9691815 46.9358882,15.7365329 47.1156975,16.71717 L50.6860114,36.1888162 C50.9169033,37.4480455 52.0955259,38.304365 53.3644736,38.1348329 L72.9863973,35.5133337 C74.3002074,35.337808 75.5075526,36.2605698 75.6830783,37.5743799 C75.8151031,38.5625853 75.3224332,39.5295045 74.445356,40.0035468 L57.0300077,49.4161867 C55.903759,50.0249012 55.4535652,51.4104552 56.0069262,52.5649078 L64.563628,70.4163784 C65.1365525,71.6116457 64.632044,73.0450483 63.4367768,73.6179728 C62.5377355,74.0489081 61.4658973,73.8791456 60.7440246,73.1914828 L46.4104334,59.537168 C45.4834816,58.6541449 44.0266239,58.6541449 43.0996721,59.537168 Z" id="path-18"></path>
        <filter x="-0.4%" y="-0.1%" width="109.5%" height="104.6%" filterUnits="objectBoundingBox" id="filter-19">
            <feMorphology radius="1.2" operator="dilate" in="SourceAlpha" result="shadowSpreadOuter1"></feMorphology>
            <feOffset dx="6" dy="2" in="shadowSpreadOuter1" result="shadowOffsetOuter1"></feOffset>
            <feComposite in="shadowOffsetOuter1" in2="SourceAlpha" operator="out" result="shadowOffsetOuter1"></feComposite>
            <feColorMatrix values="0 0 0 0 0.593776573   0 0 0 0 0.194227867   0 0 0 0 0  0 0 0 0.10583673 0" type="matrix" in="shadowOffsetOuter1"></feColorMatrix>
        </filter>
        <path d="M19.1463558,2.08673852 L15.7335906,6.11824103 L1.95418425,14.3837285 C2.26066368,27.7293753 10.2486583,33.9376679 25.9181683,33.0086065 C27.6873384,26.8036625 29.3546057,21.3451909 30.9199703,16.6331918 L34.0450377,12.4091911 L19.1463558,2.08673852 Z" id="path-20"></path>
        <filter x="-6.2%" y="-6.4%" width="124.9%" height="125.8%" filterUnits="objectBoundingBox" id="filter-21">
            <feOffset dx="4" dy="4" in="SourceAlpha" result="shadowOffsetOuter1"></feOffset>
            <feColorMatrix values="0 0 0 0 0.795785502   0 0 0 0 0.31328648   0 0 0 0 0  0 0 0 0.117470562 0" type="matrix" in="shadowOffsetOuter1"></feColorMatrix>
        </filter>
        <path d="M33.4680396,-14.635078 C51.248883,19.851288 71.3276043,34.182833 93.7042035,28.3595572 C127.269102,19.6246434 144.019292,13.8476891 174.497193,28.3595572 C204.975094,42.8714253 211.1342,99.5491044 242.996784,89.9704774 C264.238506,83.584726 277.729646,48.7162076 283.470205,-14.635078 L33.4680396,-14.635078 Z" id="path-22"></path>
        <filter x="-1.0%" y="-2.4%" width="102.8%" height="109.5%" filterUnits="objectBoundingBox" id="filter-23">
            <feOffset dx="2" dy="5" in="SourceAlpha" result="shadowOffsetOuter1"></feOffset>
            <feColorMatrix values="0 0 0 0 0.903034651   0 0 0 0 0.621327122   0 0 0 0 0.246905722  0 0 0 0.219627491 0" type="matrix" in="shadowOffsetOuter1"></feColorMatrix>
        </filter>
    </defs>
    <g id="Empty-States" stroke="none" stroke-width="1" fill="none" fill-rule="evenodd">
        <g id="8.3_No-Events" transform="translate(-68.000000, -214.000000)">
            <g id="Artwork" transform="translate(68.000000, 214.000000)">
                <mask id="mask-3" fill="white">
                    <use xlink:href="#path-2"></use>
                </mask>
                <use id="Mask" fill="url(#linearGradient-1)" xlink:href="#path-2"></use>
                <circle id="Oval" fill="#FFDEA9" mask="url(#mask-3)" cx="29.4246231" cy="117.09799" r="5.40452261"></circle>
                <circle id="Oval-Copy" fill="#FFDEA9" mask="url(#mask-3)" cx="121.301508" cy="42.0351759" r="3.60301508"></circle>
                <circle id="Oval-Copy-6" fill="#FFDEA9" mask="url(#mask-3)" cx="21.6180905" cy="195.763819" r="9.6080402"></circle>
                <circle id="Oval-Copy-2" fill="#FFDEA9" mask="url(#mask-3)" cx="213.778894" cy="90.0753769" r="8.40703518"></circle>
                <circle id="Oval-Copy-5" fill="#FFDEA9" mask="url(#mask-3)" cx="30.6256281" cy="35.4296482" r="13.8115578"></circle>
                <circle id="Oval-Copy-3" fill="#FFDEA9" mask="url(#mask-3)" cx="219.183417" cy="143.520101" r="3.00251256"></circle>
                <circle id="Oval-Copy-4" fill="#FFDEA9" mask="url(#mask-3)" cx="117.698492" cy="106.889447" r="2.40201005"></circle>
                <g id="Group-2" mask="url(#mask-3)">
                    <g transform="translate(32.427136, 91.276382)">
                        <g id="Group" transform="translate(56.066673, 118.128317) rotate(-14.000000) translate(-56.066673, -118.128317) translate(18.835518, 35.859473)">
                            <g id="Rectangle" transform="translate(37.230007, 81.803460) rotate(2.000000) translate(-37.230007, -81.803460) ">
                                <use fill="black" fill-opacity="1" filter="url(#filter-6)" xlink:href="#path-5"></use>
                                <use fill="url(#linearGradient-4)" fill-rule="evenodd" xlink:href="#path-5"></use>
                            </g>
                            <g id="Group-3" transform="translate(36.475427, 65.549641) rotate(5.000000) translate(-36.475427, -65.549641) translate(8.852311, 21.712958)">
                                <g id="Path-41" stroke-linecap="round">
                                    <use fill="black" fill-opacity="1" filter="url(#filter-8)" xlink:href="#path-7"></use>
                                    <use stroke="#E45599" stroke-width="7.2" xlink:href="#path-7"></use>
                                </g>
                                <rect id="Rectangle-2" fill="#E45599" x="28.1098496" y="1.04639373" width="6.00502513" height="10.8090452" rx="3.00251256"></rect>
                                <g id="Path-41-Copy" stroke-linecap="round" transform="translate(43.489008, 49.939927) scale(-1, 1) translate(-43.489008, -49.939927) ">
                                    <use fill="black" fill-opacity="1" filter="url(#filter-10)" xlink:href="#path-9"></use>
                                    <use stroke="#E45599" stroke-width="7.2" xlink:href="#path-9"></use>
                                </g>
                            </g>
                        </g>
                        <g id="Group-Copy" transform="translate(125.672494, 86.882055) scale(-1, 1) rotate(-10.000000) translate(-125.672494, -86.882055) translate(90.843348, 5.814216)">
                            <g id="Rectangle">
                                <use fill="black" fill-opacity="1" filter="url(#filter-13)" xlink:href="#path-12"></use>
                                <use fill="url(#linearGradient-11)" fill-rule="evenodd" xlink:href="#path-12"></use>
                            </g>
                            <g id="Group-6" transform="translate(34.829146, 63.653266) rotate(2.000000) translate(-34.829146, -63.653266) translate(7.206030, 21.618090)">
                                <path d="M33.2644324,1.2076419 C34.9226743,1.2076419 36.266945,2.55191256 36.266945,4.21015446 L36.266945,9.01417456 C36.266945,10.6724165 34.9226743,12.0166871 33.2644324,12.0166871 C31.6061905,12.0166871 30.2619198,10.6724165 30.2619198,9.01417456 L30.2619198,4.21015446 C30.2619198,2.55191256 31.6061905,1.2076419 33.2644324,1.2076419 Z" id="Rectangle-2" fill="#E45599" transform="translate(33.264432, 6.612165) rotate(9.000000) translate(-33.264432, -6.612165) "></path>
                                <g id="Path-41" stroke-linecap="round">
                                    <use fill="black" fill-opacity="1" filter="url(#filter-15)" xlink:href="#path-14"></use>
                                    <use stroke="#E45599" stroke-width="7.2" xlink:href="#path-14"></use>
                                </g>
                                <g id="Path-41-Copy" stroke-linecap="round" transform="translate(43.984456, 47.465325) scale(-1, 1) translate(-43.984456, -47.465325) ">
                                    <use fill="black" fill-opacity="1" filter="url(#filter-17)" xlink:href="#path-16"></use>
                                    <use stroke="#E45599" stroke-width="7.2" xlink:href="#path-16"></use>
                                </g>
                            </g>
                        </g>
                    </g>
                </g>
                <g id="Group-4" mask="url(#mask-3)">
                    <g transform="translate(33.628141, 32.427136)">
                        <g id="Star-3" fill="none" transform="translate(44.754918, 43.865297) rotate(22.000000) translate(-44.754918, -43.865297) ">
                            <use fill="black" fill-opacity="1" filter="url(#filter-19)" xlink:href="#path-18"></use>
                            <use stroke="#FFA99C" stroke-width="2.4" fill="#FFB4A3" fill-rule="evenodd" xlink:href="#path-18"></use>
                        </g>
                        <path d="M40.9923534,54.8182645 L32.0219757,66.1436392 C31.7295298,66.512861 31.1931422,66.5751002 30.8239204,66.2826544 C30.4762185,66.0072536 30.3976676,65.5113026 30.6432482,65.1419351 L38.6423205,53.1108657 C40.1100621,50.903297 39.5103138,47.9238693 37.3027451,46.4561277 C36.9945749,46.2512352 36.6637438,46.0826683 36.3168444,45.9537862 L22.7737738,40.9221833 C22.3322523,40.7581466 22.1073064,40.2672446 22.2713431,39.825723 C22.425819,39.4099354 22.8732229,39.1819717 23.3004009,39.3013919 L37.2144771,43.1911569 C39.7675568,43.9048859 42.4158285,42.4137975 43.1295575,39.8607178 C43.229192,39.5043153 43.2872762,39.1375862 43.3026526,38.7678384 L43.9029523,24.3327621 C43.9225228,23.86216 44.3198863,23.4965267 44.7904883,23.5160973 C45.2336616,23.5345272 45.5887233,23.8895889 45.6071532,24.3327621 L46.2074529,38.7678384 C46.3176013,41.4165159 48.5540716,43.4744003 51.202749,43.3642519 C51.5724967,43.3488755 51.9392259,43.2907914 52.2956284,43.1911569 L66.2097046,39.3013919 C66.6633214,39.1745806 67.1338514,39.4395088 67.2606628,39.8931256 C67.380083,40.3203035 67.1521193,40.7677074 66.7363317,40.9221833 L53.1932611,45.9537862 C50.7082568,46.8770299 49.4421998,49.6399607 50.3654435,52.124965 C50.4943256,52.4718643 50.6628925,52.8026955 50.867785,53.1108657 L58.8668573,65.1419351 C59.1276373,65.5341634 59.0210774,66.0635314 58.6288491,66.3243114 C58.2594816,66.569892 57.7635306,66.4913411 57.4881298,66.1436392 L48.5177521,54.8182645 C46.8717866,52.740183 43.8528501,52.3898838 41.7747686,54.0358493 C41.4846745,54.2656213 41.2221254,54.5281704 40.9923534,54.8182645 Z" id="Star-3-Copy" fill="#FFFFFF" fill-rule="evenodd" opacity="0.368942482" transform="translate(44.754918, 43.865297) rotate(22.000000) translate(-44.754918, -43.865297) "></path>
                        <path d="M43.7927292,49.3266752 L32.0219757,65.1272154 C31.9379466,65.2400124 31.7783876,65.2633333 31.6655907,65.1793042 C31.5546951,65.0966916 31.5299854,64.9406808 31.6099247,64.8278429 L42.9997686,48.7505556 C43.3828844,48.2097701 43.2550678,47.4608002 42.7142824,47.0776845 C42.6193762,47.0104488 42.5151992,46.957368 42.40502,46.9201074 L23.7404503,40.6080911 C23.6072076,40.5630308 23.5357216,40.4184878 23.5807819,40.2852451 C23.6250826,40.1542484 23.7658219,40.0825381 23.8978398,40.123696 L42.707904,45.9879263 C43.3406108,46.1851792 44.013426,45.832174 44.2106788,45.1994672 C44.2452961,45.0884291 44.2635865,44.972948 44.2649761,44.8566472 L44.5003912,25.1550662 C44.5020718,25.0144206 44.61745,24.9017671 44.7580957,24.9034477 C44.8963706,24.9050999 45.008062,25.0167913 45.0097143,25.1550662 L45.2451293,44.8566472 C45.2530479,45.5193416 45.7966871,46.0501423 46.4593815,46.0422237 C46.5756824,46.040834 46.6911634,46.0225436 46.8022015,45.9879263 L65.6122657,40.123696 C65.746547,40.0818325 65.8893407,40.1567519 65.9312043,40.2910332 C65.9723622,40.423051 65.9006519,40.5637904 65.7696552,40.6080911 L47.1050855,46.9201074 C46.4772727,47.1324223 46.140445,47.8134803 46.3527598,48.4412932 C46.3900204,48.5514724 46.4431012,48.6556494 46.5103369,48.7505556 L57.9001808,64.8278429 C57.9814906,64.9426154 57.9543637,65.1015716 57.8395912,65.1828815 C57.7267532,65.2628207 57.5707424,65.238111 57.4881298,65.1272154 L45.7173763,49.3266752 C45.321448,48.7951985 44.5696378,48.6853149 44.0381612,49.0812431 C43.9448887,49.1507273 43.8622134,49.2334026 43.7927292,49.3266752 Z" id="Star-3-Copy-2" fill="#FFFFFF" fill-rule="evenodd" opacity="0.469599185" style="mix-blend-mode: overlay;" transform="translate(44.754918, 43.865297) rotate(22.000000) translate(-44.754918, -43.865297) "></path>
                    </g>
                </g>
                <g id="Group-5" mask="url(#mask-3)">
                    <g transform="translate(162.135678, 54.645729) rotate(-11.000000) translate(-162.135678, -54.645729) translate(144.120603, 37.231156)">
                        <g id="Path-2" stroke="none" transform="translate(17.999611, 17.593023) rotate(6.000000) translate(-17.999611, -17.593023) ">
                            <use fill="black" fill-opacity="1" filter="url(#filter-21)" xlink:href="#path-20"></use>
                            <use fill="#FFFFFF" fill-rule="evenodd" xlink:href="#path-20"></use>
                        </g>
                        <line x1="8.00847473" y1="18.0438791" x2="18.5400721" y2="11.4232704" id="Path-3" stroke="#979797" stroke-width="1.2" opacity="0.195935236" stroke-linecap="round"></line>
                        <line x1="19.2881308" y1="27.3693459" x2="24.5450973" y2="17.4282955" id="Path-3-Copy-2" stroke="#979797" stroke-width="1.2" opacity="0.195935236" stroke-linecap="round"></line>
                        <line x1="12.6105528" y1="23.419598" x2="21.8062792" y2="14.4862571" id="Path-3-Copy" stroke="#979797" stroke-width="1.2" opacity="0.195935236" stroke-linecap="round"></line>
                    </g>
                </g>
                <g id="Path-4" mask="url(#mask-3)">
                    <use fill="black" fill-opacity="1" filter="url(#filter-23)" xlink:href="#path-22"></use>
                    <use fill="#97ECFF" fill-rule="evenodd" xlink:href="#path-22"></use>
                </g>
                <path d="M35.8700497,-23.0421132 C53.6508931,11.4442528 73.7296144,25.7757979 96.1062135,19.952522 C129.671112,11.2176082 146.421302,5.44065391 176.899203,19.952522 C207.377104,34.4643901 213.536211,91.1420692 245.398794,81.5634422 C266.640516,75.1776908 280.131656,40.3091724 285.872215,-23.0421132 L35.8700497,-23.0421132 Z" id="Path-4-Copy" fill="#B3F5FF" mask="url(#mask-3)"></path>
            </g>
        </g>
    </g>
</svg>