<?xml version="1.0" encoding="UTF-8"?>
<svg width="330px" height="303px" viewBox="0 0 330 303" version="1.1" xmlns="http://www.w3.org/2000/svg" xmlns:xlink="http://www.w3.org/1999/xlink">
    <title>Artwork</title>
    <defs>
        <filter x="-44.8%" y="-41.5%" width="189.5%" height="182.9%" filterUnits="objectBoundingBox" id="filter-1">
            <feOffset dx="0" dy="12" in="SourceAlpha" result="shadowOffsetOuter1"></feOffset>
            <feGaussianBlur stdDeviation="9" in="shadowOffsetOuter1" result="shadowBlurOuter1"></feGaussianBlur>
            <feColorMatrix values="0 0 0 0 0.90825123   0 0 0 0 0.939796895   0 0 0 0 0.955569728  0 0 0 1 0" type="matrix" in="shadowBlurOuter1" result="shadowMatrixOuter1"></feColorMatrix>
            <feMerge>
                <feMergeNode in="shadowMatrixOuter1"></feMergeNode>
                <feMergeNode in="SourceGraphic"></feMergeNode>
            </feMerge>
        </filter>
        <linearGradient x1="86.3479427%" y1="13.6743393%" x2="50%" y2="65.6533209%" id="linearGradient-2">
            <stop stop-color="#BD647B" offset="0%"></stop>
            <stop stop-color="#883462" offset="100%"></stop>
        </linearGradient>
        <filter x="-47.8%" y="-51.2%" width="195.7%" height="200.8%" filterUnits="objectBoundingBox" id="filter-3">
            <feOffset dx="-10" dy="13" in="SourceAlpha" result="shadowOffsetOuter1"></feOffset>
            <feGaussianBlur stdDeviation="9.5" in="shadowOffsetOuter1" result="shadowBlurOuter1"></feGaussianBlur>
            <feColorMatrix values="0 0 0 0 0.893873072   0 0 0 0 0.944180763   0 0 0 0 0.969334609  0 0 0 1 0" type="matrix" in="shadowBlurOuter1" result="shadowMatrixOuter1"></feColorMatrix>
            <feMerge>
                <feMergeNode in="shadowMatrixOuter1"></feMergeNode>
                <feMergeNode in="SourceGraphic"></feMergeNode>
            </feMerge>
        </filter>
    </defs>
    <g id="Empty-States" stroke="none" stroke-width="1" fill="none" fill-rule="evenodd">
        <g id="8.1_No-Events" transform="translate(-20.000000, -81.000000)">
            <g id="Artwork" transform="translate(75.498410, 129.995903)">
                <polygon id="shadow" fill="#C5CCE3" points="28.5015903 101.004097 129.50159 101.004097 143.455683 175.496948 105.161146 187.568755 61.8436988 189.681919 21.2688032 200.288996"></polygon>
                <g id="passport" filter="url(#filter-1)" transform="translate(151.498533, 78.257119) rotate(8.000000) translate(-151.498533, -78.257119) translate(86.728221, 8.333796)">
                    <rect id="Rectangle-48-Copy" fill="url(#linearGradient-2)" transform="translate(48.599591, 55.759674) rotate(-11.000000) translate(-48.599591, -55.759674) " x="13.5995911" y="5.75967401" width="70" height="100" rx="4"></rect>
                    <path d="M88.7219271,42.3193202 L102.272639,47.7940002 C101.302632,48.9239735 100.716508,50.3930847 100.716508,51.9990925 C100.716508,55.566432 103.608408,58.4583321 107.175747,58.4583321 C110.615297,58.4583321 113.426931,55.7699101 113.623956,52.3797613 L127.663649,58.0527971 C129.199857,58.6734657 129.942049,60.42196 129.321381,61.9581685 L98.9782467,137.060061 C98.3575781,138.596269 96.6090838,139.338461 95.0728753,138.717792 L56.1311534,122.984316 C54.5949449,122.363647 53.8527531,120.615153 54.4734216,119.078944 L84.8165557,43.977052 C85.4372242,42.4408435 87.1857185,41.6986517 88.7219271,42.3193202 Z" id="Combined-Shape" fill="#FFFFFF"></path>
                    <path d="M54.6251236,115.344089 L102.625124,115.344089 L102.617644,128.438687 C102.614983,130.094871 101.272115,131.436973 99.61593,131.438687 L57.61593,131.438687 C55.9590758,131.4404 54.61593,130.097254 54.61593,128.4404 C54.61593,128.439829 54.6159302,128.439258 54.6176437,128.438687 L54.6251236,115.344089 L54.6251236,115.344089 Z" id="Rectangle-Copy-2" fill="#FFD88C" transform="translate(78.620527, 123.392245) rotate(22.000000) translate(-78.620527, -123.392245) "></path>
                    <path d="M107.994721,92.9102874 L107.994721,89.7852874 L95.4947205,81.6602874 L95.4947205,72.8477874 C95.4947205,71.466303 94.336908,70.4102874 92.9947205,70.4102874 C91.6526111,70.4102874 90.4947205,71.4663811 90.4947205,72.8477874 L90.4947205,81.6602874 L77.9947205,89.7852874 L77.9947205,92.9102874 L90.4947205,89.1602874 L90.4947205,98.0354436 L86.7447205,100.472865 L86.7447205,102.910287 L92.9947205,101.660287 L99.2447205,102.910287 L99.2447205,100.472865 L95.4947205,98.0354436 L95.4947205,89.1602874 L107.994721,92.9102874 Z" id="Shape" fill="#FFD88C" fill-rule="nonzero" transform="translate(92.994721, 86.660287) rotate(21.000000) translate(-92.994721, -86.660287) "></path>
                    <rect id="Rectangle-48" fill="#9E516E" transform="translate(43.897401, 56.018556) rotate(-11.000000) translate(-43.897401, -56.018556) " x="8.89740119" y="6.01855635" width="70" height="100" rx="4"></rect>
                    <path d="M41.9247437,25.0594607 C36.8488075,25.0594607 32.0769898,27.0356382 28.4885118,30.6247078 C24.8994421,34.2137775 22.9238563,38.9850036 22.9244478,44.0603481 C22.9244478,49.1356925 24.9006255,53.8731934 28.4885118,57.4622631 C32.0769898,61.0507411 36.8482159,62.9931934 41.9235603,62.9931934 C41.924152,62.9931934 41.9247437,62.9931934 41.9247437,62.9931934 L41.9265187,62.9931934 C52.402626,62.9931934 60.9250394,54.5021386 60.9244478,44.0260312 C60.9250394,38.9506867 58.9482702,34.1960274 55.3597922,30.6069577 C51.7719059,27.0190714 47.0000881,25.0594607 41.9247437,25.0594607 Z M55.3497339,32.3517923 C54.8379394,33.0848713 53.4587568,34.7030885 50.6435914,35.9414536 C49.0496327,31.2844198 46.4036849,28.0941356 44.8067678,26.4776934 C48.4703879,27.069955 51.8476397,28.7857978 54.523171,31.4607374 C54.8113142,31.7488806 55.0840741,32.0476739 55.3497339,32.3517923 Z M42.841832,61.8536371 C42.7335564,61.8589622 42.6246892,61.8583705 42.5158219,61.8619205 L42.5158219,50.5781837 C45.4374879,50.6361674 47.7414505,51.1106867 49.5200103,51.7360817 C47.4473906,57.7592814 43.5163357,61.2814923 42.841832,61.8536371 Z M34.3277021,51.7354901 C36.138212,51.0964866 38.4380329,50.6343924 41.3324821,50.5775921 L41.3324821,61.8625122 C41.2236148,61.8589622 41.1141559,61.8589622 41.0058803,61.8530455 C40.3296016,61.2797173 36.3997301,57.7569147 34.3277021,51.7354901 Z M41.0058803,26.2664673 C41.1141559,26.2611423 41.2236148,26.2605506 41.3324821,26.2570006 L41.3324821,37.541329 C38.4108161,37.4833454 36.1068535,37.0088261 34.3282937,36.383431 C36.4003218,30.3625981 40.3284183,26.8403871 41.0058803,26.2664673 Z M49.5206019,36.3840227 C47.710092,37.0230262 45.4102711,37.4851204 42.5158219,37.5419207 L42.5158219,26.2570006 C42.6246892,26.2605506 42.7341481,26.2605506 42.8424237,26.2664673 C43.5192941,26.8397954 47.4485739,30.3631897 49.5206019,36.3840227 Z M42.5158219,38.7246688 C45.5362968,38.6690519 47.95741,38.1939409 49.8791539,37.5253539 C50.3939067,39.3121971 50.7329336,41.2972496 50.7861839,43.4674948 L42.5158219,43.4674948 L42.5158219,38.7246688 Z M41.3324821,38.7246688 L41.3324821,43.4680865 L33.0615285,43.4680865 C33.1147788,41.2972496 33.4538056,39.3127887 33.9685584,37.5259456 C35.890894,38.1939409 38.3120072,38.6690519 41.3324821,38.7246688 Z M31.8781887,43.4680865 L24.1219879,43.4680865 C24.2420969,39.7482578 25.4958454,36.2272302 27.7222992,33.3014225 C28.4465032,34.2599277 29.991945,35.8710449 32.8408356,37.0916599 C32.2911743,38.9974287 31.931439,41.1268487 31.8781887,43.4680865 Z M31.8781887,44.6514263 C31.931439,46.9926641 32.2905826,49.1220841 32.8408356,51.0278529 C29.991945,52.2484679 28.4459115,53.859585 27.7222992,54.8180903 C25.4964371,51.8922826 24.2420969,48.371255 24.1219879,44.6514263 L31.8781887,44.6514263 Z M33.0615285,44.6514263 L41.3324821,44.6514263 L41.3324821,49.3948439 C38.3120072,49.4504609 35.890894,49.9255718 33.9691501,50.5941588 C33.4543973,48.806724 33.1147788,46.8222632 33.0615285,44.6514263 Z M42.5158219,49.3948439 L42.5158219,44.6514263 L50.7867755,44.6514263 C50.7335252,46.8222632 50.3944984,48.806724 49.8797456,50.5935672 C47.95741,49.9255718 45.5362968,49.4504609 42.5158219,49.3948439 Z M51.9701153,44.6514263 L59.7263161,44.6514263 C59.6014738,48.4588221 58.2796832,51.9674247 56.1206797,54.8109903 C55.3935174,53.8513017 53.8486673,52.2455095 51.0068767,51.0278529 C51.5571298,49.1220841 51.9168651,46.9926641 51.9701153,44.6514263 Z M51.9701153,43.4680865 C51.9168651,41.1268487 51.5577214,38.9974287 51.0074684,37.0916599 C53.856359,35.8710449 55.4023925,34.2599277 56.1260048,33.3014225 C58.351867,36.2272302 59.6062072,39.7482578 59.7269078,43.4686781 L51.9701153,43.4686781 L51.9701153,43.4680865 Z M39.0409446,26.4776934 C37.4440275,28.0941356 34.7986713,31.2850114 33.2041209,35.9426369 C32.3183911,35.5550931 31.5935954,35.1397409 31.0161256,34.7468721 C29.6251097,33.8019752 28.8559388,32.8600367 28.5009368,32.3494256 C28.766005,32.0464906 29.0381731,31.748289 29.3257247,31.4613291 C32.0006643,28.7857978 35.3779162,27.0705467 39.0409446,26.4776934 Z M28.4985702,55.7677205 C29.0103646,55.0352331 30.3895472,53.4164243 33.2047126,52.1780592 C34.799263,56.835093 37.4446191,60.0253771 39.0415362,61.642411 C35.3785078,61.0501494 32.0006643,59.3343067 29.325133,56.659367 C29.0369898,56.3712238 28.7642299,56.0718388 28.4985702,55.7677205 Z M41.9265187,62.4015235 L41.9265187,62.4015235 L41.9265187,62.4683822 L41.9265187,62.4015235 Z M44.8091345,61.6400443 C46.4060515,60.0230105 49.0502244,56.8327263 50.6441831,52.1774675 C51.5299129,52.5650113 52.2547086,52.9803636 52.8321784,53.3732324 C54.216686,54.3133959 54.9852652,55.2517843 55.3420421,55.7629871 C52.6742025,58.8177789 48.984549,60.9572572 44.8091345,61.6400443 Z" id="Shape" stroke="#FFFFFF" stroke-width="0.5" fill="#FFFFFF" fill-rule="nonzero" transform="translate(41.924448, 44.026327) rotate(-11.000000) translate(-41.924448, -44.026327) "></path>
                </g>
                <g id="map" filter="url(#filter-3)" transform="translate(75.618260, 125.291865) rotate(-9.000000) translate(-75.618260, -125.291865) translate(9.201355, 61.245511)">
                    <path d="M45.1010574,-1.67278413 L87.5549446,11.9871449 L128.598024,-1.47036094 C129.385211,-1.72848485 130.2025,-1.64310157 130.887524,-1.29639054 C131.680512,-0.895035532 132.296257,-0.143487436 132.482884,0.830772535 L132.482884,0.830772535 L132.532773,110.818375 C132.532773,111.466722 132.324496,112.078379 131.962202,112.578453 C131.599907,113.078527 131.083594,113.467017 130.467522,113.669031 L130.467522,113.669031 L87.9644671,127.606067 L45.5096164,113.944874 L4.46752227,127.403637 C3.68033516,127.661761 2.8630456,127.576377 2.17802184,127.229666 C1.38503376,126.828311 0.769288903,126.076763 0.582661728,125.102503 L0.582661728,125.102503 L0.532772908,15.1149011 C0.532772908,14.4665535 0.741049523,13.8548964 1.10334416,13.3548227 C1.4656388,12.8547489 1.98195146,12.4662585 2.59802355,12.2642444 L2.59802355,12.2642444 L45.1010574,-1.67278413 Z" id="Combined-Shape" stroke="#FFFFFF" stroke-width="4" fill="#ADE1F1"></path>
                    <g id="Group-3" transform="translate(2.415339, 0.000000)">
                        <path d="M0.805851175,14.1646822 L42.6915655,0.43007686 C43.2163569,0.257994254 43.7812849,0.543921232 43.9533675,1.06871264 C43.9863458,1.16928478 44.0031486,1.27445474 44.0031486,1.38029576 L44.0031486,110.818375 C44.0031486,111.250606 43.7254464,111.633918 43.3147317,111.768594 L1.42901741,125.503199 C0.904226007,125.675282 0.339298,125.389355 0.167215394,124.864563 C0.134237118,124.763991 0.117434295,124.658821 0.117434295,124.55298 L0.117434295,15.1149011 C0.117434295,14.6826694 0.395136448,14.2993583 0.805851175,14.1646822 Z" id="Rectangle-47" fill="#ADE1F1"></path>
                        <path d="M0.688416912,80.5871946 L42.5758575,66.8520232 C43.1006489,66.6799406 43.6655769,66.9658676 43.8376595,67.490659 C43.8703613,67.5903881 43.8871595,67.6946435 43.8874371,67.7995969 L44.0012268,110.816359 C44.0023727,111.249563 43.7244543,111.634243 43.3128134,111.769223 L1.42537286,125.504394 C0.900581452,125.676477 0.335653444,125.39055 0.163570839,124.865758 C0.130869017,124.766029 0.114070865,124.661774 0.113793238,124.55682 L3.53043926e-06,81.5400587 C-0.00114240071,81.1068539 0.276776087,80.7221744 0.688416912,80.5871946 Z" id="Rectangle-47-Copy-6" fill="#ADF1AF"></path>
                        <path d="M84.9201369,14.1646822 L126.805851,0.43007686 C127.330643,0.257994254 127.895571,0.543921232 128.067653,1.06871264 C128.100631,1.16928478 128.117434,1.27445474 128.117434,1.38029576 L128.117434,110.818375 C128.117434,111.250606 127.839732,111.633918 127.429017,111.768594 L85.5433031,125.503199 C85.0185117,125.675282 84.4535837,125.389355 84.2815011,124.864563 C84.2485228,124.763991 84.23172,124.658821 84.23172,124.55298 L84.23172,15.1149011 C84.23172,14.6826694 84.5094222,14.2993583 84.9201369,14.1646822 Z" id="Rectangle-47-Copy-2" fill="#ADE1F1"></path>
                        <path d="M84.1738384,82.7144285 L98.33093,92.6629271 L127.180268,83.9313129 C127.708872,83.7713243 128.267087,84.0701461 128.427075,84.59875 C128.45679,84.6969286 128.471223,84.7990947 128.469866,84.9016626 L128.126885,110.828475 C128.121232,111.255802 127.844645,111.632307 127.438555,111.765466 L85.5414563,125.503805 C85.0166648,125.675887 84.4517368,125.38996 84.2796542,124.865169 C84.2468159,124.765023 84.2300152,124.660317 84.229874,124.554925 L84.1738384,82.7144285 L84.1738384,82.7144285 Z" id="Rectangle-47-Copy-8" fill="#ADF1AF"></path>
                        <path d="M42.862994,14.1646822 L84.7487083,0.43007686 C85.2734997,0.257994254 85.8384277,0.543921232 86.0105103,1.06871264 C86.0434886,1.16928478 86.0602914,1.27445474 86.0602914,1.38029576 L86.0602914,110.818375 C86.0602914,111.250606 85.7825893,111.633918 85.3718746,111.768594 L43.4861603,125.503199 C42.9613689,125.675282 42.3964409,125.389355 42.2243583,124.864563 C42.19138,124.763991 42.1745772,124.658821 42.1745772,124.55298 L42.1745772,15.1149011 C42.1745772,14.6826694 42.4522793,14.2993583 42.862994,14.1646822 Z" id="Rectangle-47-Copy" fill="#9AD6E9" transform="translate(64.117434, 62.966638) scale(-1, 1) translate(-64.117434, -62.966638) "></path>
                        <path d="M55.4297426,77.7688238 L56.1481202,54.3298257 L56.1481202,54.3298257 L84.6785669,44.9745018 C85.2033583,44.8024192 85.7682863,45.0883461 85.9403689,45.6131375 C85.973034,45.7127546 85.9898314,45.8168885 85.9901455,45.9217239 L86.1846177,110.816091 C86.1859163,111.249425 85.9079692,111.634286 85.4962053,111.769306 L43.6085366,125.504552 C43.0837452,125.676635 42.5188172,125.390708 42.3467346,124.865917 C42.3140695,124.7663 42.2972722,124.662166 42.296958,124.55733 L42.1767506,84.4447243 L42.1767506,84.4447243 L54.8462933,78.6475168 C55.1919914,78.4893356 55.4180964,78.1488143 55.4297426,77.7688238 Z" id="Rectangle-47-Copy-7" fill="#9AE99C" transform="translate(64.180686, 85.239527) scale(-1, 1) translate(-64.180686, -85.239527) "></path>
                    </g>
                    <polyline id="Path-2" stroke="#FFFFFF" stroke-width="6" stroke-linejoin="round" points="4.26325641e-14 80.2587445 42.9615335 67.7219697 42.5632861 42.852105 52.3013643 46.2690946 75.6632891 52.7881344 75.6195085 78.8804782 87.0776404 82.7483512 100.416909 92.5259275 132.833811 83.1043768"></polyline>
                    <polyline id="Path-3" stroke="#FFFFFF" stroke-width="3" stroke-linejoin="round" points="41.4270761 50.1257058 26.2678294 44.1426082 25.869123 23.1594397 36.4230312 19.1223441 36.7336158 2.18589281"></polyline>
                    <polyline id="Path-4" stroke="#FFFFFF" stroke-width="3" stroke-linejoin="round" points="20.5384731 76.5336431 32.6550729 89.1448141 44.966005 85.7486291 87.7723771 100.535893 87.4271304 128.092707"></polyline>
                    <polyline id="Path-5" stroke="#FFFFFF" stroke-width="3" stroke-linejoin="round" points="77.1173755 52.8607555 77.8058627 25.965338 87.842175 29.9334501 98.4442175 50.5667918 122.185709 43.8754864 132.683133 25.0540149"></polyline>
                </g>
            </g>
        </g>
    </g>
</svg>