<?xml version="1.0" encoding="UTF-8"?>
<svg width="267px" height="267px" viewBox="0 0 267 267" version="1.1" xmlns="http://www.w3.org/2000/svg" xmlns:xlink="http://www.w3.org/1999/xlink">
    <title>Artwork 2</title>
    <defs>
        <circle id="path-1" cx="133.5" cy="133.5" r="133.5"></circle>
        <linearGradient x1="50%" y1="35.6730229%" x2="50%" y2="100%" id="linearGradient-3">
            <stop stop-color="#FFFFFF" offset="0%"></stop>
            <stop stop-color="#FFFFFF" stop-opacity="0.158486187" offset="100%"></stop>
        </linearGradient>
        <linearGradient x1="50%" y1="35.6730229%" x2="50%" y2="100%" id="linearGradient-4">
            <stop stop-color="#FFFFFF" offset="0%"></stop>
            <stop stop-color="#FFFFFF" stop-opacity="0.158486187" offset="100%"></stop>
        </linearGradient>
        <linearGradient x1="132.052575%" y1="46.0833328%" x2="16.56832%" y2="56.3884178%" id="linearGradient-5">
            <stop stop-color="#A8C3FF" offset="0%"></stop>
            <stop stop-color="#6F90FF" offset="100%"></stop>
        </linearGradient>
        <linearGradient x1="72.404952%" y1="0.529818112%" x2="50%" y2="85.1716961%" id="linearGradient-6">
            <stop stop-color="#BDC8D4" offset="0%"></stop>
            <stop stop-color="#8897A9" offset="100%"></stop>
        </linearGradient>
        <linearGradient x1="72.404952%" y1="-6.30031694%" x2="50%" y2="90.0277008%" id="linearGradient-7">
            <stop stop-color="#BDC8D4" offset="0%"></stop>
            <stop stop-color="#8897A9" offset="100%"></stop>
        </linearGradient>
        <linearGradient x1="72.404952%" y1="3.53744425%" x2="50%" y2="83.0333714%" id="linearGradient-8">
            <stop stop-color="#BDC8D4" offset="0%"></stop>
            <stop stop-color="#8897A9" offset="100%"></stop>
        </linearGradient>
        <linearGradient x1="73.5218174%" y1="40.2947991%" x2="38.7729325%" y2="15.8696173%" id="linearGradient-9">
            <stop stop-color="#A8C3FF" offset="0%"></stop>
            <stop stop-color="#6F90FF" offset="100%"></stop>
        </linearGradient>
        <linearGradient x1="111.05884%" y1="18.2999852%" x2="50%" y2="100%" id="linearGradient-10">
            <stop stop-color="#FFDFC9" offset="0%"></stop>
            <stop stop-color="#FFBB99" offset="100%"></stop>
        </linearGradient>
        <linearGradient x1="132.052575%" y1="46.0833328%" x2="10.1318555%" y2="-13.7636707%" id="linearGradient-11">
            <stop stop-color="#A8C3FF" offset="0%"></stop>
            <stop stop-color="#6F90FF" offset="100%"></stop>
        </linearGradient>
        <linearGradient x1="119.205423%" y1="18.2999852%" x2="50%" y2="100%" id="linearGradient-12">
            <stop stop-color="#FFDFC9" offset="0%"></stop>
            <stop stop-color="#FFBB99" offset="100%"></stop>
        </linearGradient>
        <linearGradient x1="13.9630159%" y1="16.5434697%" x2="63.958394%" y2="85.1626007%" id="linearGradient-13">
            <stop stop-color="#CB9577" offset="0%"></stop>
            <stop stop-color="#966060" offset="100%"></stop>
        </linearGradient>
    </defs>
    <g id="Empty-States" stroke="none" stroke-width="1" fill="none" fill-rule="evenodd">
        <g id="3.3_No-Friends" transform="translate(-54.000000, -220.000000)">
            <g id="Artwork" transform="translate(54.000000, 220.000000)">
                <mask id="mask-2" fill="white">
                    <use xlink:href="#path-1"></use>
                </mask>
                <use id="clip" fill-opacity="0.432659647" fill="#DDE5E9" xlink:href="#path-1"></use>
                <path d="M253.964646,0 C274.569331,0 291.272727,16.3009052 291.272727,36.4090909 C291.272727,37.3799128 291.233792,38.34186 291.157364,39.2935267 C303.962103,45.0607617 312.848485,57.7019678 312.848485,72.3686869 C312.848485,92.4768725 296.145088,108.777778 275.540404,108.777778 C264.248842,108.777778 254.128892,103.882381 247.287465,96.1477285 C240.759089,104.664136 228.879878,108.777778 215.308081,108.777778 C197.971062,108.777778 183.396051,102.065026 179.209225,88.0364928 C178.512768,88.0791898 177.809548,88.1010101 177.10101,88.1010101 C159.227067,88.1010101 144.737374,74.2150538 144.737374,57.0858586 C144.737374,39.9566634 159.227067,26.0707071 177.10101,26.0707071 L177.230245,26.0709491 L177.230245,26.0709491 C178.631501,11.4476559 191.32094,0 206.767677,0 C215.51837,0 223.384162,3.67390595 228.814168,9.51783001 C235.445554,3.60596726 244.273593,0 253.964646,0 Z" id="cloud" fill="url(#linearGradient-3)" mask="url(#mask-2)"></path>
                <path d="M59.0400799,11.6868687 C69.8382566,11.6868687 78.5919084,20.2295891 78.5919084,30.7675687 C78.5919084,31.2764628 78.5714943,31.7807038 78.5314218,32.2795543 C85.2416946,35.3012282 89.8989899,41.9261872 89.8989899,49.6127046 C89.8989899,60.1506842 81.1453381,68.6934046 70.3471615,68.6934046 C64.4291921,68.6934046 59.1253197,66.1274985 55.5399608,62.0734903 C52.1196697,66.5375406 45.8941367,68.6934046 38.7815589,68.6934046 C29.6952226,68.6934046 22.056555,65.1750071 19.8629884,57.8221209 C19.498235,57.8460231 19.1298112,57.8574515 18.7586021,57.8574515 C9.39150904,57.8574515 1.7979798,50.5803193 1.7979798,41.6035218 C1.7979798,32.6267244 9.39150904,25.3495922 18.7586021,25.3495922 L18.826729,25.3497205 L18.826729,25.3497205 C19.5604144,17.6864123 26.2105977,11.6868687 34.3058391,11.6868687 C38.8914926,11.6868687 43.0134556,13.6120031 45.8591096,16.6742783 C49.3354622,13.576392 53.9616618,11.6868687 59.0400799,11.6868687 Z" id="cloud" fill="url(#linearGradient-4)" mask="url(#mask-2)"></path>
                <g id="mountains" mask="url(#mask-2)">
                    <g transform="translate(102.484848, 251.717172) scale(-1, 1) translate(-102.484848, -251.717172) translate(-124.959596, 121.363636)">
                        <path d="M86.5401012,14.3868095 C123.77352,14.0428262 166.09179,43.6681704 189.421625,50.8462663 C205.904195,55.9176034 238.141534,61.9473114 286.133643,68.93539 C195.560699,110.408358 127.089526,130.993896 80.7201255,130.692005 C34.3507246,130.390114 7.44401608,101.382169 0,43.6681704 C33.8354166,24.3676766 62.682117,14.607223 86.5401012,14.3868095 Z" id="Rectangle" fill="#CCD3DC"></path>
                        <path d="M47.1596113,75.8929056 C126.469002,198.741089 191.895938,260.16518 243.440419,260.16518 C294.9849,260.16518 365.38851,195.691555 454.651249,66.7443058 C415.789522,38.7712266 374.092031,17.9613879 329.558775,4.31478967 C280.466253,-10.728932 241.245759,26.3178316 159.994459,62.028159 C138.352721,71.5398045 100.741105,76.1613867 47.1596113,75.8929056 Z" id="Rectangle-Copy" fill="#DAE0E6"></path>
                    </g>
                </g>
                <g id="person" mask="url(#mask-2)">
                    <g transform="translate(27.868687, 76.414141)">
                        <path d="M41.8827117,100.031582 C57.0471893,107.078819 68.2402285,110.642046 75.4618292,110.721263 C90.4988715,110.007805 121.182981,72.0705112 125.780041,66.6111865 C125.774438,62.1584806 123.463795,59.0497166 118.848114,57.2848944 C93.0197191,79.7014472 77.7715907,89.7010356 73.1037291,87.2836598 C68.4358674,84.866284 61.3422111,79.0653848 51.8227604,69.8809622 C47.1867632,72.5295494 44.2445186,75.6682279 42.9960265,79.2969977 C41.7475344,82.9257675 41.3764294,89.8372956 41.8827117,100.031582 Z" id="Path-14" fill="url(#linearGradient-5)" transform="translate(83.721823, 84.003079) rotate(-22.000000) translate(-83.721823, -84.003079) "></path>
                        <g id="Group-2" stroke-width="1" fill="none" transform="translate(133.755428, 38.146171) rotate(-6.000000) translate(-133.755428, -38.146171) translate(83.421766, 20.874816)">
                            <path d="M0.9,6.40184006 L23.9071302,6.40184006 C24.4041865,6.40184006 24.8071302,6.80478378 24.8071302,7.30184006 L24.8071302,26.3078202 C24.8071302,26.8048765 24.4041865,27.2078202 23.9071302,27.2078202 L0.9,27.2078202 C0.402943725,27.2078202 2.3805747e-15,26.8048765 0,26.3078202 L0,7.30184006 C-1.7189414e-16,6.80478378 0.402943725,6.40184006 0.9,6.40184006 Z" id="Rectangle-24" fill="url(#linearGradient-6)"></path>
                            <path d="M25.0115129,5.01884514 L52.8195498,5.01884514 C53.316606,5.01884514 53.7195498,5.42178887 53.7195498,5.91884514 L53.7195498,28.7922092 C53.7195498,29.2892655 53.316606,29.6922092 52.8195498,29.6922092 L25.0115129,29.6922092 C24.5144566,29.6922092 24.1115129,29.2892655 24.1115129,28.7922092 L24.1115129,5.91884514 C24.1115129,5.42178887 24.5144566,5.01884514 25.0115129,5.01884514 Z" id="Rectangle-24-Copy-3" fill="#7C8A9B"></path>
                            <path d="M27.3075902,3.20092003 L55.9163305,3.20092003 C56.4133868,3.20092003 56.8163305,3.60386375 56.8163305,4.10092003 L56.8163305,29.5087403 C56.8163305,30.0057965 56.4133868,30.4087403 55.9163305,30.4087403 L27.3075902,30.4087403 C26.810534,30.4087403 26.4075902,30.0057965 26.4075902,29.5087403 L26.4075902,4.10092003 C26.4075902,3.60386375 26.810534,3.20092003 27.3075902,3.20092003 Z" id="Rectangle-24-Copy" fill="url(#linearGradient-7)"></path>
                            <path d="M56.4983333,2.22134193 L93.1093736,2.22134193 C93.6064299,2.22134193 94.0093736,2.62428565 94.0093736,3.12134193 L94.0093736,31.369251 C94.0093736,31.8663073 93.6064299,32.269251 93.1093736,32.269251 L56.4983333,32.269251 C56.001277,32.269251 55.5983333,31.8663073 55.5983333,31.369251 L55.5983333,3.12134193 C55.5983333,2.62428565 56.001277,2.22134193 56.4983333,2.22134193 Z" id="Rectangle-24-Copy-4" fill="#7C8A9B"></path>
                            <path d="M59.3167905,-3.65464798e-05 L96.1948364,-3.65464798e-05 C96.578882,0.000783028778 96.9200974,0.245207456 97.0432746,0.608966396 C98.8588016,5.8461385 99.7665652,11.2272363 99.7665652,16.7522597 C99.7665652,22.2800856 98.8578805,27.696339 97.0405112,33.00102 C96.917551,33.3636845 96.5777717,33.6077182 96.1948364,33.6096603 L59.3167905,33.6096603 C58.8197342,33.6096603 58.4167905,33.2067166 58.4167905,32.7096603 L58.4167905,0.899963454 C58.4167905,0.402907179 58.8197342,-3.65464798e-05 59.3167905,-3.65464798e-05 Z" id="Rectangle-24-Copy-2" fill="url(#linearGradient-8)"></path>
                        </g>
                        <g id="Group-5" stroke-width="1" fill="none" transform="translate(8.882411, 35.529644)">
                            <path d="M33.2842817,30.3922019 L49.1294226,41.5404158 C48.4373825,47.3330737 48.6892326,53.2775414 49.8849728,59.373819 C49.8849728,67.7390086 49.3706664,73.1100342 48.3420535,75.4868956 L33.5380351,75.4868956 C28.8646318,66.9644806 26.5279302,59.6836646 26.5279302,53.6444477 C28.5415611,48.4740657 30.7936783,40.7233171 33.2842817,30.3922019 Z" id="Rectangle-2" fill="#FAB795" transform="translate(38.206452, 52.939549) rotate(-10.000000) translate(-38.206452, -52.939549) "></path>
                            <path d="M37.6711057,49.0072193 C47.117982,48.3709009 56.0630544,53.3219636 60.5399066,61.6649948 C64.484879,69.0168509 66.8932445,75.225712 67.7650032,80.2915779 C70.4685289,96.0020026 68.7375833,97.5896317 68.7375833,116.685362 C68.7375833,129.415849 70.1739942,150.521674 73.0468161,180.002838 C65.2745453,182.906862 54.627846,184.358874 41.1067183,184.358874 C27.5855906,184.358874 14.0644629,181.118235 0.543335214,174.636956 C8.48099674,155.537597 13.1859826,140.674086 14.6582928,130.046423 C15.7965622,121.829986 19.5465223,116.124317 19.5929656,87.9036771 C19.6013073,82.8349486 20.1639258,75.1181417 21.280821,64.7532565 C22.2000502,56.2229845 29.1108453,49.5838174 37.6711057,49.0072193 Z" id="Rectangle-23" fill="url(#linearGradient-9)"></path>
                            <path d="M118.45035,19.8411096 C119.13254,14.6207336 120.478766,10.2702427 122.489029,6.78963695 C125.504424,1.56872836 135.155146,2.73778193 136.494539,7.67015042 C137.218556,10.3363739 134.831446,13.4938031 132.45859,17.720275 C131.025215,20.2733665 129.701974,25.2670385 127.668797,25.9565604 C124.451372,27.0477026 121.378556,25.0092191 118.45035,19.8411096 Z" id="Path-2" fill="url(#linearGradient-10)" transform="translate(127.538336, 14.812919) scale(-1, 1) rotate(-56.000000) translate(-127.538336, -14.812919) "></path>
                            <path d="M42.0560735,74.839998 C59.1775966,82.796713 71.8151488,86.8197907 79.9687302,86.9092311 C96.9463718,86.1036984 131.590407,43.2704227 136.780738,37.1065471 C136.774411,32.0791991 134.16557,28.5692349 128.954214,26.5766543 C99.7925463,51.886166 82.576577,63.1762472 77.3063064,60.4468979 C72.0360358,57.7175487 64.0269107,51.1680168 53.2789311,40.7983023 C48.0446372,43.7887019 44.7226824,47.3324413 43.3130667,51.4295205 C41.903451,55.5265996 41.4844533,63.3300921 42.0560735,74.839998 Z" id="Path-14" fill="url(#linearGradient-11)" transform="translate(89.294714, 56.742943) rotate(-16.000000) translate(-89.294714, -56.742943) "></path>
                        </g>
                        <g id="Group-3" stroke-width="1" fill="none">
                            <path d="M42.4276231,80.8050481 C44.6587229,83.2829355 50.7753018,80.5118678 60.7773596,72.4918449 L66.2898724,75.5997688 C67.5579828,67.4818298 69.7179045,61.9255186 72.7696374,58.9308352 C77.3472368,54.43881 79.9641251,45.404434 80.0190803,41.9923991 C80.2776177,25.9404411 66.9785417,12.8655407 50.892222,12.8655407 C34.8059024,12.8655407 21.7653637,25.9060794 21.7653637,41.9923991 C21.7653637,49.3995538 24.3608816,56.1619733 28.1199708,62.4743523 C32.5035609,69.8354124 37.3790943,75.1980889 42.4276231,80.8050481 Z" id="Oval-12" fill="url(#linearGradient-12)" transform="translate(50.894076, 47.273948) rotate(-48.000000) translate(-50.894076, -47.273948) "></path>
                            <path d="M31.0729434,4.04694385 L31.1313978,3.926983 C32.039506,2.1575826 33.9112751,0.975926002 36.0304528,1.04992932 C38.9534565,1.15200286 41.2402722,3.60431248 41.1381987,6.52731617 L40.8355028,15.1992294 C49.7266059,13.2244616 59.3657952,15.4051949 66.457552,22.0958053 C68.2347976,24.251607 69.5052687,25.1195696 71.303863,28.2620268 C68.7242414,32.2132811 61.5554889,40.7452127 53.9012824,45.5769938 C52.3026892,46.586119 50.7805818,46.2134331 49.2346177,45.7710777 L48.6282348,45.597338 C46.6689761,45.0448169 44.6509826,44.653627 42.3731155,47.0539825 C41.2820557,48.0011165 39.4736949,51.3498767 40.4029174,61.045117 C40.7170923,64.3231268 40.2273683,68.1511174 38.1824792,72.4500138 C34.0441182,70.657383 29.8641169,67.4170198 27.4782073,65.3867534 C20.4848451,59.0899018 17.2522893,50.174008 17.9286398,41.464988 L8.79966673,44.0834099 C5.98818256,44.88959 3.05548622,43.2639698 2.24930611,40.4524857 C1.70019909,38.5375219 2.27927033,36.5663246 3.59281517,35.2491556 C1.99100367,34.4815432 0.812045459,32.9234764 0.612544554,31.0253521 C0.392308895,28.9299497 1.42578531,26.9917383 3.10836624,25.957346 C1.71826904,24.6659713 1.07083591,22.6666188 1.59638959,20.7052257 C2.07056226,18.9355892 3.38710336,17.616614 4.99900437,17.0641156 C4.15216549,15.3807615 4.23436479,13.297591 5.39122726,11.6454202 C6.73856977,9.72121569 9.13382903,8.96684106 11.2658497,9.61348838 C11.070425,7.76194514 11.8608639,5.86290637 13.4943938,4.71909638 C15.8705747,3.05527663 19.138265,3.61436468 20.8283632,5.96099132 C20.8127496,3.50207915 22.5228673,1.286763 25.0234055,0.755257197 C27.6120674,0.205020104 30.1608422,1.64790406 31.0729434,4.04694385 Z" id="Combined-Shape" fill="url(#linearGradient-13)"></path>
                            <path d="M18.2378332,41.2957976 C29.3513657,35.3834691 36.8681527,26.7455858 40.7881941,15.3821474 C29.7866447,19.0718959 22.2698577,27.7097793 18.2378332,41.2957976 Z" id="Path-13" fill="#3E3E3E"></path>
                        </g>
                    </g>
                </g>
            </g>
        </g>
    </g>
</svg>