<?xml version="1.0" encoding="UTF-8"?>
<svg width="211px" height="211px" viewBox="0 0 211 211" version="1.1" xmlns="http://www.w3.org/2000/svg" xmlns:xlink="http://www.w3.org/1999/xlink">
    <title>Artwork</title>
    <defs>
        <circle id="path-1" cx="105.5" cy="105.5" r="105.5"></circle>
        <linearGradient x1="106.044625%" y1="0%" x2="21.0387441%" y2="94.4269664%" id="linearGradient-3">
            <stop stop-color="#FF9CC3" offset="0%"></stop>
            <stop stop-color="#FF6363" offset="100%"></stop>
        </linearGradient>
        <linearGradient x1="100%" y1="100%" x2="0%" y2="100%" id="linearGradient-4">
            <stop stop-color="#FFF184" offset="0%"></stop>
            <stop stop-color="#FFDF4C" offset="100%"></stop>
        </linearGradient>
        <path d="M21.5,0 L67.5,0 C69.709139,-4.05812251e-16 71.5,1.790861 71.5,4 L71.5,12 L71.5,12 L17.5,12 L17.5,4 C17.5,1.790861 19.290861,4.05812251e-16 21.5,0 Z" id="path-5"></path>
        <filter x="-3.7%" y="-16.7%" width="107.4%" height="166.7%" filterUnits="objectBoundingBox" id="filter-6">
            <feOffset dx="0" dy="4" in="SourceAlpha" result="shadowOffsetOuter1"></feOffset>
            <feColorMatrix values="0 0 0 0 0   0 0 0 0 0   0 0 0 0 0  0 0 0 0.0621603261 0" type="matrix" in="shadowOffsetOuter1"></feColorMatrix>
        </filter>
        <linearGradient x1="84.9906248%" y1="73.7897853%" x2="18.1210797%" y2="6.00290687%" id="linearGradient-7">
            <stop stop-color="#F0D6C2" offset="0%"></stop>
            <stop stop-color="#DCAC8F" offset="100%"></stop>
        </linearGradient>
        <path d="M21.5269192,0 L102.473081,0 C111.600646,-7.78065464e-15 119,7.39935377 119,16.5269192 L119,32.4268204 C119,32.8403644 118.9145,33.2494424 118.748869,33.6283686 L115.304872,41.50745 C113.847737,44.8410436 113.981628,48.6556953 115.668902,51.8789228 L118.657862,57.5887818 C118.882606,58.0181148 119,58.495502 119,58.9801017 L119,131 C119,140.388841 111.388841,148 102,148 L22,148 C12.6111593,148 5,140.388841 5,131 L5,58.9801017 C5,58.495502 5.11739388,58.0181148 5.34213829,57.5887818 L8.33109766,51.8789228 C10.0183715,48.6556953 10.1522626,44.8410436 8.69512757,41.50745 L5.25113082,33.6283686 C5.08549977,33.2494424 5,32.8403644 5,32.4268204 L5,16.5269192 C5,7.39935377 12.3993538,1.67670657e-15 21.5269192,0 Z" id="path-8"></path>
        <filter x="-3.5%" y="-2.7%" width="114.0%" height="106.8%" filterUnits="objectBoundingBox" id="filter-9">
            <feOffset dx="8" dy="2" in="SourceAlpha" result="shadowOffsetOuter1"></feOffset>
            <feColorMatrix values="0 0 0 0 0   0 0 0 0 0   0 0 0 0 0  0 0 0 0.215692935 0" type="matrix" in="shadowOffsetOuter1"></feColorMatrix>
        </filter>
        <linearGradient x1="59.3727825%" y1="28.6362758%" x2="22.8793828%" y2="59.9672543%" id="linearGradient-10">
            <stop stop-color="#FFF9E8" offset="0%"></stop>
            <stop stop-color="#FFEAB8" offset="100%"></stop>
        </linearGradient>
        <path d="M186.356602,97.4399351 L186.356602,97.4399351 L186.356602,97.4399351 C188.099821,93.1197708 187.673793,88.2267078 185.210172,84.2728231 L185.106602,84.1066017 L185.106602,84.1066017 L185.272823,84.2101724 C189.226708,86.6737933 194.119771,87.0998207 198.439935,85.3566017 L198.439935,85.3566017 L198.439935,85.3566017 C196.70057,89.6672147 197.166218,94.5544437 199.688315,98.4590309 L200.106602,99.1066017 L200.106602,99.1066017 L199.459031,98.6883151 C195.554444,96.166218 190.667215,95.7005701 186.356602,97.4399351 Z" id="path-11"></path>
        <filter x="-150.0%" y="-150.0%" width="400.0%" height="400.0%" filterUnits="objectBoundingBox" id="filter-12">
            <feOffset dx="0" dy="0" in="SourceAlpha" result="shadowOffsetOuter1"></feOffset>
            <feGaussianBlur stdDeviation="7.5" in="shadowOffsetOuter1" result="shadowBlurOuter1"></feGaussianBlur>
            <feColorMatrix values="0 0 0 0 1   0 0 0 0 1   0 0 0 0 1  0 0 0 0.5 0" type="matrix" in="shadowBlurOuter1"></feColorMatrix>
        </filter>
        <path d="M71.8210678,51.7377345 L71.8210678,51.7377345 L71.8210678,51.7377345 C74.2615744,45.6895045 73.665136,38.8392163 70.2160668,33.3037778 L70.0710678,33.0710678 L70.0710678,33.0710678 L70.3037778,33.2160668 C75.8392163,36.665136 82.6895045,37.2615744 88.7377345,34.8210678 L88.7377345,34.8210678 L88.7377345,34.8210678 C86.3026235,40.855926 86.9545306,47.6980466 90.4854665,53.1644686 L91.0710678,54.0710678 L91.0710678,54.0710678 L90.1644686,53.4854665 C84.6980466,49.9545306 77.855926,49.3026235 71.8210678,51.7377345 Z" id="path-13"></path>
        <filter x="-107.1%" y="-107.1%" width="314.3%" height="314.3%" filterUnits="objectBoundingBox" id="filter-14">
            <feOffset dx="0" dy="0" in="SourceAlpha" result="shadowOffsetOuter1"></feOffset>
            <feGaussianBlur stdDeviation="7.5" in="shadowOffsetOuter1" result="shadowBlurOuter1"></feGaussianBlur>
            <feColorMatrix values="0 0 0 0 1   0 0 0 0 1   0 0 0 0 1  0 0 0 0.5 0" type="matrix" in="shadowBlurOuter1"></feColorMatrix>
        </filter>
    </defs>
    <g id="Empty-States" stroke="none" stroke-width="1" fill="none" fill-rule="evenodd">
        <g id="3.4_No-Friends" transform="translate(-82.000000, -164.000000)">
            <g id="Artwork" transform="translate(82.000000, 164.000000)">
                <mask id="mask-2" fill="white">
                    <use xlink:href="#path-1"></use>
                </mask>
                <use id="base" fill="#D6EFFB" xlink:href="#path-1"></use>
                <g id="jam" mask="url(#mask-2)">
                    <g transform="translate(115.000000, 98.000000)">
                        <path d="M61,9 C64.3137085,9 67,11.6862915 67,15 C67,15.3720251 66.9661414,15.7361422 66.9013376,16.0894377 C77.055098,17.0466235 85,25.5954961 85,36 L85,101 C85,112.045695 76.045695,121 65,121 L24,121 C12.954305,121 4,112.045695 4,101 L4,36 C4,25.2601206 12.4653438,16.4974281 23.0875083,16.0204458 C23.0296805,15.6896996 23,15.348316 23,15 C23,11.6862915 25.6862915,9 29,9 L61,9 Z" id="Combined-Shape" fill="#FFFFFF" fill-rule="evenodd" opacity="0.882416214"></path>
                        <path d="M0,46 C16.7738781,39.105211 31.1561679,37.4856246 43.1468692,41.1412409 C55.1375705,44.7968571 67.7552808,44.7968571 81,41.1412409 L81,121 L0,121 L0,46 Z" id="Rectangle-4-Copy" fill="url(#linearGradient-3)" fill-rule="evenodd" opacity="0.873811141"></path>
                        <g id="Group-5" opacity="0.699999988" stroke-width="1" fill="none" fill-rule="evenodd" transform="translate(23.000000, 45.000000)">
                            <circle id="Oval-2" fill="#F26A6A" cx="53.5" cy="7.5" r="2.5"></circle>
                            <circle id="Oval-2-Copy" fill="#F26A6A" cx="5" cy="49" r="5"></circle>
                            <circle id="Oval-2-Copy-4" fill="#F26A6A" cx="35.5" cy="47.5" r="8.5"></circle>
                            <circle id="Oval-2-Copy-2" fill="#F26A6A" cx="4.5" cy="25.5" r="1.5"></circle>
                            <circle id="Oval-2-Copy-3" fill="#F26A6A" cx="14.5" cy="3.5" r="3.5"></circle>
                        </g>
                        <g id="Group-2" stroke-width="1" fill="none" fill-rule="evenodd" transform="translate(27.000000, 56.000000)">
                            <path d="M8.56057509,18.2561126 C12.1709977,16.93167 15.7186613,16.2694486 19.2035659,16.2694486 C22.666439,16.2694486 26.1293121,16.9233233 29.5921851,18.2310726 C30.6617664,18.6349702 31.3695652,19.6588592 31.3695652,20.8021603 C31.3695652,21.4826929 30.8178845,22.0343735 30.1373519,22.0343735 C29.9869691,22.0343735 29.8378564,22.0068457 29.6973679,21.9531989 C26.2112257,20.6206224 22.692635,19.9543342 19.1415957,19.9543342 C15.581272,19.9543342 12.0209482,20.6241111 8.46062443,21.9636649 C7.81914157,22.2050298 7.10345658,21.8806601 6.86210063,21.2391739 C6.80953726,21.0994687 6.7826087,20.9514266 6.7826087,20.8021603 C6.7826087,19.6645732 7.49258049,18.6478929 8.56057509,18.2561126 Z" id="Rectangle-3" fill="#C34A4A" transform="translate(19.076087, 19.156463) scale(1, -1) translate(-19.076087, -19.156463) "></path>
                            <path d="M5.13970644,0.000112790156 C5.13970644,0.000112790156 5.13970644,0.000112790156 5.13970644,0.000112790156 C5.13970644,0.000112790156 5.13970644,0.000112790156 5.13970644,0.000112790156 C7.92003325,0.000112790156 10.1739335,2.254013 10.173913,5.03433981 L10.173913,5.3371734 C10.173913,6.01671127 9.62303876,6.56758555 8.94350089,6.56758555 C8.70353377,6.56758555 8.46880393,6.49741522 8.26818884,6.3657421 C7.22377927,5.68002963 6.17240418,5.3371734 5.1140636,5.3371734 C4.04951341,5.3371734 2.98496322,5.68406472 1.92041302,6.37784735 C1.34566637,6.75244232 0.576077748,6.59016446 0.201499855,6.01540667 C0.0700068459,5.81364188 2.51537864e-16,5.57800414 0,5.3371734 L0,5.13979707 C2.21589366e-05,2.30122782 2.30113719,0.000112790156 5.13970644,0.000112790156 Z" id="Rectangle-3-Copy" fill="#C34A4A"></path>
                            <path d="M33.9657934,0.000112790156 C33.9657934,0.000112790156 33.9657934,0.000112790156 33.9657934,0.000112790156 C33.9657934,0.000112790156 33.9657934,0.000112790156 33.9657934,0.000112790156 C36.7461202,0.000112790156 39.0000204,2.254013 39,5.03433981 L39,5.3371734 C39,6.01671127 38.4491257,6.56758555 37.7695878,6.56758555 C37.5296207,6.56758555 37.2948909,6.49741522 37.0942758,6.3657421 C36.0498662,5.68002963 34.9984911,5.3371734 33.9401506,5.3371734 C32.8756004,5.3371734 31.8110502,5.68406472 30.7465,6.37784735 C30.1717533,6.75244232 29.4021647,6.59016446 29.0275868,6.01540667 C28.8960938,5.81364188 28.826087,5.57800414 28.826087,5.3371734 L28.826087,5.13979707 C28.8261091,2.30122782 31.1272241,0.000112790156 33.9657934,0.000112790156 Z" id="Rectangle-3-Copy-2" fill="#C34A4A"></path>
                        </g>
                        <g id="Rectangle-26" fill="none">
                            <use fill="black" fill-opacity="1" filter="url(#filter-6)" xlink:href="#path-5"></use>
                            <use fill="url(#linearGradient-4)" fill-rule="evenodd" xlink:href="#path-5"></use>
                        </g>
                    </g>
                </g>
                <g id="bread" mask="url(#mask-2)">
                    <g transform="translate(11.000000, 75.000000)">
                        <g id="Rectangle-3-Copy" fill="none">
                            <use fill="black" fill-opacity="1" filter="url(#filter-9)" xlink:href="#path-8"></use>
                            <use fill="url(#linearGradient-7)" fill-rule="evenodd" xlink:href="#path-8"></use>
                        </g>
                        <path d="M16.5269192,6 L92.4730808,6 C101.600646,6 109,13.3993538 109,22.5269192 L109,38.452153 C109,38.849322 108.921136,39.2425377 108.767983,39.60899 L105.385161,47.7031219 C104.037943,50.9266321 104.162454,54.5772183 105.726173,57.7014454 L108.68273,63.6084855 C108.891371,64.0253388 109,64.4850774 109,64.9512294 L109,137 C109,146.388841 101.388841,154 92,154 L17,154 C7.61115925,154 1.14980138e-15,146.388841 0,137 L0,64.9512294 C-6.8653123e-15,64.4850774 0.108629346,64.0253388 0.317270276,63.6084855 L3.27382679,57.7014454 C4.83754638,54.5772183 4.96205658,50.9266321 3.61483868,47.7031219 L0.232017303,39.60899 C0.0788640654,39.2425377 5.37770969e-15,38.849322 0,38.452153 L0,22.5269192 C-1.11780438e-15,13.3993538 7.39935377,6 16.5269192,6 Z" id="Rectangle-3" fill="url(#linearGradient-10)" fill-rule="evenodd"></path>
                        <circle id="Oval" fill="#FFEBB9" fill-rule="evenodd" cx="40.5" cy="62.5" r="4.5"></circle>
                        <circle id="Oval-Copy-5" fill="#FFEBB9" fill-rule="evenodd" cx="75.5" cy="80.5" r="7.5"></circle>
                        <circle id="Oval-Copy-3" fill="#FFEBB9" fill-rule="evenodd" cx="64.5" cy="45.5" r="2.5"></circle>
                        <circle id="Oval-Copy-6" fill="#FFF6E0" fill-rule="evenodd" cx="23.5" cy="88.5" r="2.5"></circle>
                        <circle id="Oval-Copy-2" fill="#FFEBB9" fill-rule="evenodd" cx="24.5" cy="32.5" r="11.5"></circle>
                        <circle id="Oval-Copy-4" fill="#FFF3D6" fill-rule="evenodd" cx="63.5" cy="125.5" r="11.5"></circle>
                        <g id="Group-2" stroke-width="1" fill="none" fill-rule="evenodd" transform="translate(31.000000, 51.000000)" opacity="0.757755888">
                            <path d="M10.0970886,21.5328507 C14.3555357,19.9706876 18.5399595,19.1896061 22.6503598,19.1896061 C26.7347835,19.1896061 30.8192072,19.9608464 34.9036308,21.503327 C36.165169,21.979733 37,23.1873854 37,24.5358813 C37,25.338576 36.3492874,25.9892887 35.5465927,25.9892887 C35.3692149,25.9892887 35.1933354,25.9568194 35.0276415,25.8935077 C30.9157891,24.3217568 26.7656642,23.5358813 22.5772668,23.5358813 C18.3779027,23.5358813 14.1785386,24.3258776 9.97917448,25.90587 C9.22255497,26.1905166 8.37842954,25.8079345 8.09375825,25.0513243 C8.0317614,24.8865467 8,24.711936 8,24.5358813 C8,23.194112 8.83740263,21.9949506 10.0970886,21.5328507 Z" id="Rectangle-3" fill="#B08D78" transform="translate(22.500000, 22.594803) scale(1, -1) translate(-22.500000, -22.594803) "></path>
                            <path d="M6.06221785,0.000133034543 C6.06221785,0.000133034543 6.06221785,0.000133034543 6.06221785,0.000133034543 C6.06221785,0.000133034543 6.06221785,0.000133034543 6.06221785,0.000133034543 C9.34157768,0.000133034543 12.0000241,2.65857944 12,5.93793927 L12,6.2951276 C12,7.0966338 11.3502508,7.74638296 10.5487446,7.74638296 C10.2657065,7.74638296 9.98884566,7.66361795 9.75222274,7.50831119 C8.52035503,6.69952213 7.2802716,6.2951276 6.03197245,6.2951276 C4.77634915,6.2951276 3.52072584,6.70428146 2.26510254,7.52258919 C1.58719623,7.96441915 0.679476318,7.77301449 0.237666495,7.09509505 C0.0825721772,6.85711607 3.47869205e-17,6.57918436 0,6.2951276 L0,6.06232475 C2.61361816e-05,2.71426871 2.71416182,0.000133034543 6.06221785,0.000133034543 Z" id="Rectangle-3-Copy" fill="#B08D78"></path>
                            <path d="M40.0622179,0.000133034543 C40.0622179,0.000133034543 40.0622179,0.000133034543 40.0622179,0.000133034543 C40.0622179,0.000133034543 40.0622179,0.000133034543 40.0622179,0.000133034543 C43.3415777,0.000133034543 46.0000241,2.65857944 46,5.93793927 L46,6.2951276 C46,7.0966338 45.3502508,7.74638296 44.5487446,7.74638296 C44.2657065,7.74638296 43.9888457,7.66361795 43.7522227,7.50831119 C42.520355,6.69952213 41.2802716,6.2951276 40.0319724,6.2951276 C38.7763491,6.2951276 37.5207258,6.70428146 36.2651025,7.52258919 C35.5871962,7.96441915 34.6794763,7.77301449 34.2376665,7.09509505 C34.0825722,6.85711607 34,6.57918436 34,6.2951276 L34,6.06232475 C34.0000261,2.71426871 36.7141618,0.000133034543 40.0622179,0.000133034543 Z" id="Rectangle-3-Copy-2" fill="#B08D78"></path>
                        </g>
                    </g>
                </g>
                <g id="Star" mask="url(#mask-2)" transform="translate(192.606602, 91.606602) rotate(45.000000) translate(-192.606602, -91.606602) ">
                    <use fill="black" fill-opacity="1" filter="url(#filter-12)" xlink:href="#path-11"></use>
                    <use fill="#FFFFFF" fill-rule="evenodd" xlink:href="#path-11"></use>
                </g>
                <g id="Star" mask="url(#mask-2)" transform="translate(80.571068, 43.571068) rotate(45.000000) translate(-80.571068, -43.571068) ">
                    <use fill="black" fill-opacity="1" filter="url(#filter-14)" xlink:href="#path-13"></use>
                    <use fill="#FFFFFF" fill-rule="evenodd" xlink:href="#path-13"></use>
                </g>
            </g>
        </g>
    </g>
</svg>