<?xml version="1.0" encoding="UTF-8"?>
<svg width="254px" height="254px" viewBox="0 0 254 254" version="1.1" xmlns="http://www.w3.org/2000/svg" xmlns:xlink="http://www.w3.org/1999/xlink">
    <title>Artwork 4</title>
    <defs>
        <circle id="path-1" cx="118" cy="102" r="102"></circle>
        <filter x="-21.6%" y="-15.2%" width="143.1%" height="143.1%" filterUnits="objectBoundingBox" id="filter-2">
            <feOffset dx="0" dy="13" in="SourceAlpha" result="shadowOffsetOuter1"></feOffset>
            <feGaussianBlur stdDeviation="12.5" in="shadowOffsetOuter1" result="shadowBlurOuter1"></feGaussianBlur>
            <feColorMatrix values="0 0 0 0 0.226735433   0 0 0 0 0.437054197   0 0 0 0 0.687818878  0 0 0 0.0769927536 0" type="matrix" in="shadowBlurOuter1"></feColorMatrix>
        </filter>
        <path d="M10.1740458,10.1964556 C15.7930161,10.1964556 20.3480916,5.63134693 20.3480916,0 C12.5500725,0 4.16942448,0 0,0 C0,5.63134693 4.55507546,10.1964556 10.1740458,10.1964556 Z" id="path-3"></path>
        <path d="M8.60880799,8.62777012 C13.3633214,8.62777012 17.217616,4.76498586 17.217616,0 C10.6192921,0 3.52797456,0 0,0 C0,4.76498586 3.85429462,8.62777012 8.60880799,8.62777012 Z" id="path-5"></path>
        <path d="M104.8,43.3612335 C104.8,27.0410645 93.454763,17.6803219 76.8111574,10.5615232 C69.5212076,7.44346778 61.2147836,0.86784141 52.4,0.86784141 C41.7821693,0.86784141 31.9019358,8.23939418 23.6473431,12.641202 C9.40340307,20.2368627 0,28.5032322 0,43.3612335 C0,66.8296859 104.8,66.8296859 104.8,43.3612335 Z" id="path-7"></path>
        <path d="M13.6,13.6299559 C21.1110726,13.6299559 27.2,7.52761681 27.2,0 C16.7761173,0 5.57341435,0 0,0 C0,7.52761681 6.0889274,13.6299559 13.6,13.6299559 Z" id="path-9"></path>
    </defs>
    <g id="Empty-States" stroke="none" stroke-width="1" fill="none" fill-rule="evenodd">
        <g id="3.1_No-Friends" transform="translate(-61.000000, -111.000000)">
            <g id="Artwork" transform="translate(70.000000, 123.000000)">
                <g id="base">
                    <use fill="black" fill-opacity="1" filter="url(#filter-2)" xlink:href="#path-1"></use>
                    <use fill="#FFFFFF" fill-rule="evenodd" xlink:href="#path-1"></use>
                </g>
                <g id="people" transform="translate(0.000000, 28.000000)">
                    <g id="3" transform="translate(0.000000, 35.277533)">
                        <path d="M78.4,126.164307 C78.4,113.955326 69.9127235,106.952633 57.4617818,101.627119 C52.0082317,99.2945282 45.7942656,94.3753573 39.2,94.3753573 C31.25689,94.3753573 23.8655703,99.889954 17.6903788,103.182909 C7.03460687,108.865159 0,115.049161 0,126.164307 C0,143.720859 78.4,143.720859 78.4,126.164307 Z" id="Oval-11" fill="#2A3D49"></path>
                        <path d="M38.3022901,73.3826546 C43.4738065,73.3826546 47.6661489,77.574997 47.6661489,82.7465135 C47.6661489,82.8162936 47.6653689,82.8860716 47.663809,82.9558343 L47.3926571,95.0826402 C47.2821713,100.02393 43.2448148,103.972021 38.3022901,103.972021 C33.3597654,103.972021 29.3224088,100.02393 29.211923,95.0826402 L28.9407711,82.9558343 C28.8251664,77.7856102 32.922745,73.5005992 38.0929692,73.3849945 C38.1627319,73.3834346 38.2325099,73.3826546 38.3022901,73.3826546 Z" id="Rectangle-Copy" fill="#C4A588"></path>
                        <path d="M38.3022901,13.6299559 C51.8675687,13.6299559 62.8643998,24.6267871 62.8643998,38.1920657 C62.8643998,38.3811074 62.8622174,38.5701427 62.857853,38.759134 L62.181612,68.042163 C61.8820142,81.0155425 51.2791285,91.3763998 38.3022901,91.3763998 C25.3254517,91.3763998 14.722566,81.0155425 14.4229682,68.042163 L13.7467272,38.759134 C13.433544,25.1974711 24.1735588,13.949686 37.7352218,13.6365028 C37.924213,13.6321384 38.1132484,13.6299559 38.3022901,13.6299559 Z" id="Rectangle" fill="#EBCFB6"></path>
                        <path d="M13.9664122,56.3780806 C15.589434,67.0400704 17.5185075,73.7805249 19.7536327,76.599444 C23.8980287,81.8263178 30.77018,87.6468031 38.1183545,87.6468031 C45.3697772,87.6468031 52.5699045,81.6895818 56.7743446,76.599444 C59.1095048,73.7723643 61.0641126,67.0319099 62.6381679,56.3780806 L62.0840606,85.6788807 C61.8389922,98.6379195 51.2636459,109.015166 38.3022901,109.015166 C25.3409343,109.015166 14.765588,98.6379195 14.5205196,85.6788807 L13.9664122,56.3780806 L13.9664122,56.3780806 Z" id="Rectangle-Copy-2" fill="#FF9575"></path>
                        <ellipse id="Oval-4" fill="#FF9575" cx="38.4" cy="94.6079295" rx="12" ry="12.0264317"></ellipse>
                        <ellipse id="Oval-3" fill="#EBCFB6" cx="13.4656489" cy="52.0900562" rx="5.0870229" ry="5.6980193"></ellipse>
                        <ellipse id="Oval-3-Copy" fill="#EBCFB6" cx="63.1389313" cy="52.0900562" rx="5.0870229" ry="5.6980193"></ellipse>
                        <g id="Group-2" transform="translate(24.537405, 47.187679)">
                            <path d="M3.62807542,7.97929891e-05 C3.62807542,7.97929891e-05 3.62807542,7.97929891e-05 3.62807542,7.97929891e-05 C3.62807542,7.97929891e-05 3.62807542,7.97929891e-05 3.62807542,7.97929891e-05 C5.59069038,7.97929891e-05 7.18170417,1.59109358 7.18167939,3.55370855 L7.18167939,3.77576406 C7.18167939,4.2559257 6.79243147,4.64517362 6.31226983,4.64517362 C6.14252223,4.64517362 5.97648768,4.59548205 5.83464411,4.50223694 C5.09799641,4.01792169 4.35643983,3.77576406 3.60997435,3.77576406 C2.85912585,3.77576406 2.10827735,4.02077379 1.35742885,4.51079325 C0.951485367,4.77574788 0.407620399,4.66142808 0.14268499,4.25547205 C0.0495773647,4.11280482 5.62299321e-17,3.94612535 0,3.77576406 L0,3.62819306 C-3.78492215e-05,1.62444143 1.62432379,7.97929891e-05 3.62807542,7.97929891e-05 Z" id="Rectangle-3-Copy" fill="#81685D"></path>
                            <g id="Oval-2-Copy" transform="translate(3.590840, 24.401722)">
                                <mask id="mask-4" fill="white">
                                    <use xlink:href="#path-3"></use>
                                </mask>
                                <use id="Mask" fill="#372C28" xlink:href="#path-3"></use>
                                <path d="M10.1740458,16.1943706 C15.7930161,16.1943706 20.3480916,11.629262 20.3480916,5.99791506 C12.5500725,5.99791506 4.16942448,5.99791506 0,5.99791506 C0,11.629262 4.55507546,16.1943706 10.1740458,16.1943706 Z" fill="#D96B70" mask="url(#mask-4)" transform="translate(10.174046, 11.096143) scale(1, -1) translate(-10.174046, -11.096143) "></path>
                                <path d="M10.1740458,1.79937452 C13.8098501,1.79937452 16.7572519,-1.15451933 16.7572519,-4.79833204 C11.7114748,-4.79833204 6.28870259,-4.79833204 3.59083969,-4.79833204 C3.59083969,-1.15451933 6.53824146,1.79937452 10.1740458,1.79937452 Z" id="Oval-2-Copy-2" fill="#FFFFFF" mask="url(#mask-4)" transform="translate(10.174046, -1.499479) scale(1, -1) translate(-10.174046, 1.499479) "></path>
                            </g>
                            <path d="M13.4656489,4.19854054 C14.3271783,4.19854054 15.060602,4.82546145 15.1946802,5.67649383 L16.2449859,12.3430819 C16.4868194,13.8780674 15.4385126,15.3184638 13.9035271,15.5602972 C13.7586839,15.5831169 13.6122786,15.5945791 13.4656489,15.5945791 C11.91173,15.5945791 10.6520298,14.334879 10.6520298,12.7809601 C10.6520298,12.6343304 10.6634921,12.487925 10.6863118,12.3430819 L11.7366175,5.67649383 C11.8706957,4.82546145 12.6041194,4.19854054 13.4656489,4.19854054 Z" id="Rectangle-4" fill="#A5725C" opacity="0.200000003"></path>
                            <path d="M23.976167,7.97929891e-05 C23.976167,7.97929891e-05 23.976167,7.97929891e-05 23.976167,7.97929891e-05 C23.976167,7.97929891e-05 23.976167,7.97929891e-05 23.976167,7.97929891e-05 C25.938782,7.97929891e-05 27.5297958,1.59109358 27.529771,3.55370855 L27.529771,3.77576406 C27.529771,4.2559257 27.1405231,4.64517362 26.6603614,4.64517362 C26.4906138,4.64517362 26.3245793,4.59548205 26.1827357,4.50223694 C25.446088,4.01792169 24.7045314,3.77576406 23.958066,3.77576406 C23.2072175,3.77576406 22.456369,4.02077379 21.7055205,4.51079325 C21.299577,4.77574788 20.755712,4.66142808 20.4907766,4.25547205 C20.397669,4.11280482 20.3480916,3.94612535 20.3480916,3.77576406 L20.3480916,3.62819306 C20.3480538,1.62444143 21.9724154,7.97929891e-05 23.976167,7.97929891e-05 Z" id="Rectangle-3-Copy-2" fill="#81685D"></path>
                        </g>
                        <path d="M33.1429165,21.8308686 C31.0243613,19.2545047 30.920611,14.7384867 35.2614717,11.0709872 C39.6023324,7.40348769 37.2583445,1.06591501 33.1429165,0.995312112 C29.0274885,0.924709216 44.2570057,-1.90967613 45.9170103,11.7789417 C47.5770148,25.4675595 35.2614717,24.4072324 33.1429165,21.8308686 Z" id="Path-2" fill="#FF9575"></path>
                        <path d="M39.3239388,64.5250936 C41.5314749,62.8427154 45.4009875,62.7603257 48.5434542,66.2074718 C51.6859209,69.6546179 57.1162177,67.79322 57.1767132,64.5250936 C57.2372087,61.2569672 59.6658284,73.3509675 47.9368493,74.6692033 C36.2078701,75.9874392 37.1164027,66.2074718 39.3239388,64.5250936 Z" id="Path-2-Copy" fill="#FF9575"></path>
                        <path d="M36.8687984,64.5250936 C34.6612623,62.8427154 30.7917496,62.7603257 27.6492829,66.2074718 C24.5068162,69.6546179 19.0765194,67.79322 19.0160239,64.5250936 C18.9555284,61.2569672 16.5269087,73.3509675 28.2558879,74.6692033 C39.984867,75.9874392 39.0763344,66.2074718 36.8687984,64.5250936 Z" id="Path-2-Copy-2" fill="#FF9575"></path>
                    </g>
                    <g id="2" transform="translate(156.000000, 43.944873)">
                        <rect id="Rectangle-20" fill="#FFDD8D" x="7.2" y="41.8436733" width="60.8" height="68.1497797"></rect>
                        <path d="M78.4,117.496967 C78.4,105.287986 69.9127235,98.2852929 57.4617818,92.9597793 C54.4560714,91.6741776 53.6193743,91.2063915 50.2153292,89.6059742 C47.443087,88.3026 53.8086859,99.1094835 39.2,99.1094835 C24.5913141,99.1094835 28.6994579,89.0638839 25.6394039,90.4113854 C21.329049,92.3094596 21.3017479,92.5897868 17.6903788,94.5155696 C7.03460687,100.19782 0,106.381821 0,117.496967 C0,135.053519 78.4,135.053519 78.4,117.496967 Z" id="Oval-11" fill="#8897F8"></path>
                        <ellipse id="Oval-6" fill="#6479FF" cx="38" cy="99.9714266" rx="17.2" ry="17.2378855"></ellipse>
                        <path d="M38.3022901,64.7153147 C43.4738065,64.7153147 47.6661489,68.9076571 47.6661489,74.0791736 C47.6661489,74.1489537 47.6653689,74.2187317 47.663809,74.2884944 L47.3926571,86.4153003 C47.2821713,91.3565899 43.2448148,95.3046815 38.3022901,95.3046815 C33.3597654,95.3046815 29.3224088,91.3565899 29.211923,86.4153003 L28.9407711,74.2884944 C28.8251664,69.1182703 32.922745,64.8332593 38.0929692,64.7176546 C38.1627319,64.7160947 38.2325099,64.7153147 38.3022901,64.7153147 Z" id="Rectangle-Copy" fill="#F2DDCA"></path>
                        <path d="M38.2559764,19.1695757 L38.3486037,19.1695757 C51.297246,19.1695757 61.7941946,29.6665243 61.7941946,42.6151666 C61.7941946,43.1444445 61.7762721,43.6735706 61.740458,44.2016354 L60.2087473,66.7861024 C60.0952081,68.4511188 59.4639428,70.0389991 58.402248,71.3266234 C52.1527606,78.9149144 45.4527746,82.7090599 38.3022901,82.7090599 C31.1518055,82.7090599 24.4518196,78.9149144 18.2023322,71.3266234 C17.1406373,70.0389991 16.5093721,68.4511188 16.3958328,66.7861024 L14.8641221,44.2016354 C13.9879396,31.2826711 23.7505432,20.0994949 36.6695076,19.2233123 C37.1975724,19.1874982 37.7266985,19.1695757 38.2559764,19.1695757 Z" id="Rectangle" fill="#FFEBD8"></path>
                        <path d="M38.0022523,49.1329762 C38.6163327,49.1329762 39.1369702,49.5845091 39.2238325,50.1924151 L40.0236534,55.789964 C40.1831716,56.906353 39.4074746,57.9406802 38.2910856,58.1001984 C38.195415,58.1138686 38.0988946,58.1207295 38.0022523,58.1207295 C36.8745243,58.1207295 35.9603201,57.2065254 35.9603201,56.0787974 C35.9603201,55.982155 35.9671811,55.8856346 35.9808512,55.789964 L36.7806721,50.1924151 C36.8675343,49.5845091 37.3881719,49.1329762 38.0022523,49.1329762 Z" id="Rectangle-4" fill="#A5725C" opacity="0.200000003"></path>
                        <path d="M48.5135716,39.3221807 C48.5135716,39.3221807 48.5135716,39.3221807 48.5135716,39.3221807 C48.5135716,39.3221807 48.5135716,39.3221807 48.5135716,39.3221807 C50.4761866,39.3221807 52.0672004,40.9131944 52.0671756,42.8758094 L52.0671756,43.0978649 C52.0671756,43.5780266 51.6779277,43.9672745 51.197766,43.9672745 C51.0280184,43.9672745 50.8619839,43.9175829 50.7201403,43.8243378 C49.9834926,43.3400225 49.241936,43.0978649 48.4954705,43.0978649 C47.744622,43.0978649 46.9937735,43.3428747 46.242925,43.8328941 C45.8369815,44.0978487 45.2931166,43.9835289 45.0281812,43.5775729 C44.9350735,43.4349057 44.8854962,43.2682262 44.8854962,43.0978649 L44.8854962,42.9502939 C44.8854583,40.9465423 46.50982,39.3221807 48.5135716,39.3221807 Z" id="Rectangle-3-Copy-2" fill="#81685D"></path>
                        <g id="Group-4" transform="translate(20.800000, 45.050722)" fill="#81685D">
                            <path d="M2.06085053,2.17487647 C4.01084852,0.761747248 5.72618167,0.0551826346 7.20684999,0.0551826346 C8.68751832,0.0551826346 10.1681866,0.841783524 11.648855,2.4149853 C11.648855,3.12386189 11.0741969,3.6985199 10.3653204,3.6985199 C10.1340721,3.6985199 9.90711915,3.63604569 9.70845174,3.51769451 C8.87209208,3.01948663 8.03068272,2.77038268 7.18422366,2.77038268 C6.44663762,2.77038268 5.66008585,3.05702059 4.82456835,3.63029639 C4.02076621,4.18185613 2.92203608,3.97733156 2.37050685,3.17350848 C2.16880642,2.87954136 2.06085053,2.53138697 2.06085053,2.17487647 L2.06085053,2.17487647 L2.06085053,2.17487647 Z" id="Rectangle-3-Copy"></path>
                            <path d="M0.238505875,0.370834997 C0.865722306,2.41362045 2.03168579,3.59654384 3.73639632,3.91960516 C4.74484479,3.21301468 4.35869483,0.880614606 2.9975052,1.55637506 C2.29553998,1.90486459 1.37587354,1.50968457 0.238505875,0.370834997 Z" id="Path-5"></path>
                        </g>
                        <g id="Group-4-Copy" transform="translate(48.400000, 47.055127) scale(-1, 1) translate(-48.400000, -47.055127) translate(42.400000, 45.050722)" fill="#81685D">
                            <path d="M2.06085053,2.17487647 C4.01084852,0.761747248 5.72618167,0.0551826346 7.20684999,0.0551826346 C8.68751832,0.0551826346 10.1681866,0.841783524 11.648855,2.4149853 C11.648855,3.12386189 11.0741969,3.6985199 10.3653204,3.6985199 C10.1340721,3.6985199 9.90711915,3.63604569 9.70845174,3.51769451 C8.87209208,3.01948663 8.03068272,2.77038268 7.18422366,2.77038268 C6.44663762,2.77038268 5.66008585,3.05702059 4.82456835,3.63029639 C4.02076621,4.18185613 2.92203608,3.97733156 2.37050685,3.17350848 C2.16880642,2.87954136 2.06085053,2.53138697 2.06085053,2.17487647 L2.06085053,2.17487647 L2.06085053,2.17487647 Z" id="Rectangle-3-Copy"></path>
                            <path d="M0.238505875,0.370834997 C0.865722306,2.41362045 2.03168579,3.59654384 3.73639632,3.91960516 C4.74484479,3.21301468 4.35869483,0.880614606 2.9975052,1.55637506 C2.29553998,1.90486459 1.37587354,1.50968457 0.238505875,0.370834997 Z" id="Path-5"></path>
                        </g>
                        <path d="M51.4346134,44.6049026 C63.14305,44.6049026 74.4798174,40.3843295 75.0321255,36.2393837 C75.5844335,32.0944379 57.2301285,11.8589399 45.5216918,11.8589399 C33.8132551,11.8589399 25.0583705,15.9732982 23.4680849,24.5431313 C21.8777993,33.1129643 39.7261767,44.6049026 51.4346134,44.6049026 Z" id="Oval-5" fill="#FFDD8D" transform="translate(49.206495, 28.231921) rotate(35.000000) translate(-49.206495, -28.231921) "></path>
                        <g id="Oval-2-Copy" transform="translate(29.668115, 62.868390)">
                            <mask id="mask-6" fill="white">
                                <use xlink:href="#path-5"></use>
                            </mask>
                            <use id="Mask" fill="#372C28" xlink:href="#path-5"></use>
                            <path d="M8.60880799,13.702929 C13.3633214,13.702929 17.217616,9.84014475 17.217616,5.07515889 C10.6192921,5.07515889 3.52797456,5.07515889 0,5.07515889 C0,9.84014475 3.85429462,13.702929 8.60880799,13.702929 Z" fill="#D96B70" mask="url(#mask-6)" transform="translate(8.608808, 9.389044) scale(1, -1) translate(-8.608808, -9.389044) "></path>
                            <path d="M8.60880799,1.52254767 C11.6852578,1.52254767 14.1792132,-0.976900969 14.1792132,-4.06012711 C9.90970949,-4.06012711 5.32120988,-4.06012711 3.03840282,-4.06012711 C3.03840282,-0.976900969 5.53235816,1.52254767 8.60880799,1.52254767 Z" id="Oval-2-Copy-2" fill="#FFFFFF" mask="url(#mask-6)" transform="translate(8.608808, -1.268790) scale(1, -1) translate(-8.608808, 1.268790) "></path>
                        </g>
                        <path d="M60.9256542,42.4576839 L60.9256542,72.9571567 C69.4994268,57.6373967 70.7541652,41.9837318 64.6898693,25.996162 C57.1480507,8.86998721 55.8933123,14.3571612 60.9256542,42.4576839 Z" id="Path-3" fill="#FFDD8D"></path>
                        <path d="M32.9581481,23.8617306 C21.4890971,34.0161209 15.6964794,41.4665743 15.5802951,46.2130907 C15.4641108,50.9596071 15.5222029,59.1304985 15.7545716,70.7257648 C8.99805494,60.2152552 6.09140191,49.6433284 7.03461246,39.0099844 C8.44942827,23.0599685 20.5742172,8.72736987 34.2167161,7.2922298 C43.3117153,6.33546976 42.8921926,11.8586367 32.9581481,23.8617306 Z" id="Path-4" fill="#FFDD8D"></path>
                    </g>
                    <g id="1" transform="translate(64.800000, 0.000000)">
                        <g id="Rectangle-6" transform="translate(0.000000, 121.000000)">
                            <mask id="mask-8" fill="white">
                                <use xlink:href="#path-7"></use>
                            </mask>
                            <use id="Mask" fill="#69DC8F" xlink:href="#path-7"></use>
                            <path d="M66.5347307,43.6402965 L74.0409185,45 L74.0409185,45 L82.5051614,43.5844661 C84.139321,43.3111742 85.6856159,44.4143755 85.9589077,46.0485351 C85.9862555,46.2120624 86,46.3775754 86,46.5433738 L86,63 C86,64.6568542 84.6568542,66 83,66 L66,66 C64.3431458,66 63,64.6568542 63,63 L63,46.5922557 C63,44.9354014 64.3431458,43.5922557 66,43.5922557 C66.1793211,43.5922557 66.3582812,43.6083337 66.5347307,43.6402965 Z" fill="#62D186" mask="url(#mask-8)"></path>
                        </g>
                        <path d="M51.2,93.8061674 C58.1129454,93.8061674 63.716995,99.4102169 63.716995,106.323162 C63.716995,106.41644 63.7159523,106.509715 63.7138672,106.602969 L63.3130571,124.528518 C63.1866853,130.180278 58.5688282,134.696035 52.9156559,134.696035 L49.4843441,134.696035 C43.8311718,134.696035 39.2133147,130.180278 39.0869429,124.528518 L38.6861328,106.602969 C38.5316,99.6917509 44.0089755,93.9638281 50.9201935,93.8092952 C51.0134478,93.8072101 51.1067224,93.8061674 51.2,93.8061674 Z" id="Rectangle-Copy" fill="#866E57"></path>
                        <path d="M17.6,36.0792952 L84.8,36.0792952 L83.1748257,91.4569291 C82.7432731,106.162038 70.6979715,117.859031 55.9865312,117.859031 L46.4134688,117.859031 C31.7020285,117.859031 19.6567269,106.162038 19.2251743,91.4569291 L17.6,36.0792952 L17.6,36.0792952 Z" id="Rectangle" fill="#93775E"></path>
                        <ellipse id="Oval-3" fill="#93775E" cx="18" cy="65.3436123" rx="6.8" ry="7.61674009"></ellipse>
                        <ellipse id="Oval-3-Copy" fill="#93775E" cx="84.4" cy="65.3436123" rx="6.8" ry="7.61674009"></ellipse>
                        <g id="Group-2" transform="translate(32.800000, 60.934027)">
                            <path d="M4.84977428,0 C4.84977428,0 4.84977428,0 4.84977428,0 C4.84977428,0 4.84977428,0 4.84977428,0 C7.4732552,-4.81925626e-16 9.60000669,2.12675149 9.6,4.75023241 L9.6,5.04708816 C9.6,5.68893688 9.07967881,6.20925807 8.43783008,6.20925807 C8.21092257,6.20925807 7.98897843,6.14283362 7.79937121,6.01818965 C6.81466867,5.37078865 5.82340426,5.04708816 4.82557796,5.04708816 C3.82189272,5.04708816 2.81820748,5.37460116 1.81452224,6.02962718 C1.2718835,6.38380122 0.544880329,6.23098598 0.190731977,5.68833047 C0.0662717834,5.49762223 2.30151579e-16,5.27481601 0,5.04708816 L0,4.84979817 C-2.38932825e-05,2.1713286 2.17130471,4.92026878e-16 4.84977428,0 Z" id="Rectangle-3-Copy" fill="#5A4840"></path>
                            <g id="Oval-2-Copy" transform="translate(4.800000, 27.259805)">
                                <mask id="mask-10" fill="white">
                                    <use xlink:href="#path-9"></use>
                                </mask>
                                <use id="Mask" fill="#372C28" xlink:href="#path-9"></use>
                                <path d="M13.6,21.6475771 C21.1110726,21.6475771 27.2,15.545238 27.2,8.01762115 C16.7761173,8.01762115 5.57341435,8.01762115 0,8.01762115 C0,15.545238 6.0889274,21.6475771 13.6,21.6475771 Z" fill="#D96B70" mask="url(#mask-10)" transform="translate(13.600000, 14.832599) scale(1, -1) translate(-13.600000, -14.832599) "></path>
                                <path d="M13.6,2.40528634 C18.4601058,2.40528634 22.4,-1.54328604 22.4,-6.41409692 C15.6551347,-6.41409692 8.40632693,-6.41409692 4.8,-6.41409692 C4.8,-1.54328604 8.7398942,2.40528634 13.6,2.40528634 Z" id="Oval-2-Copy-2" fill="#FFFFFF" mask="url(#mask-10)" transform="translate(13.600000, -2.004405) scale(1, -1) translate(-13.600000, 2.004405) "></path>
                            </g>
                            <path d="M18,5.61222814 C19.1516364,5.61222814 20.1320292,6.45025507 20.3112562,7.58785957 L21.7152363,16.4993192 C22.0385035,18.5511875 20.6371954,20.4766153 18.585327,20.7998825 C18.3917102,20.8303864 18.196005,20.8457083 18,20.8457083 C15.9228227,20.8457083 14.2389378,19.1618234 14.2389378,17.0846462 C14.2389378,16.8886411 14.2542598,16.692936 14.2847637,16.4993192 L15.6887438,7.58785957 C15.8679708,6.45025507 16.8483636,5.61222814 18,5.61222814 Z" id="Rectangle-4" fill="#482222" opacity="0.200000003"></path>
                            <path d="M32.0497743,0 C32.0497743,0 32.0497743,0 32.0497743,0 C32.0497743,0 32.0497743,0 32.0497743,0 C34.6732552,-4.81925626e-16 36.8000067,2.12675149 36.8,4.75023241 L36.8,5.04708816 C36.8,5.68893688 36.2796788,6.20925807 35.6378301,6.20925807 C35.4109226,6.20925807 35.1889784,6.14283362 34.9993712,6.01818965 C34.0146687,5.37078865 33.0234043,5.04708816 32.025578,5.04708816 C31.0218927,5.04708816 30.0182075,5.37460116 29.0145222,6.02962718 C28.4718835,6.38380122 27.7448803,6.23098598 27.390732,5.68833047 C27.2662718,5.49762223 27.2,5.27481601 27.2,5.04708816 L27.2,4.84979817 C27.1999761,2.1713286 29.3713047,4.92026878e-16 32.0497743,0 Z" id="Rectangle-3-Copy-2" fill="#5A4840"></path>
                        </g>
                        <ellipse id="Oval-2" fill="#272D35" cx="19.6" cy="38.8854626" rx="6.8" ry="6.81497797"></ellipse>
                        <ellipse id="Oval-2-Copy-18" fill="#272D35" cx="19.6" cy="30.0660793" rx="6.8" ry="6.81497797"></ellipse>
                        <ellipse id="Oval-2-Copy-10" fill="#272D35" cx="25.2" cy="20.4449339" rx="12.4" ry="12.4273128"></ellipse>
                        <ellipse id="Oval-2-Copy-11" fill="#272D35" cx="36.4" cy="14.030837" rx="12.4" ry="12.4273128"></ellipse>
                        <ellipse id="Oval-2-Copy-12" fill="#272D35" cx="38.8" cy="22.8502203" rx="12.4" ry="12.4273128"></ellipse>
                        <ellipse id="Oval-2-Copy-13" fill="#272D35" cx="50.8" cy="12.4273128" rx="12.4" ry="12.4273128"></ellipse>
                        <ellipse id="Oval-2-Copy-14" fill="#272D35" cx="59.6" cy="19.6431718" rx="12.4" ry="12.4273128"></ellipse>
                        <ellipse id="Oval-2-Copy-15" fill="#272D35" cx="67.6" cy="13.2290749" rx="12.4" ry="12.4273128"></ellipse>
                        <ellipse id="Oval-2-Copy-16" fill="#272D35" cx="77.2" cy="21.246696" rx="12.4" ry="12.4273128"></ellipse>
                        <polygon id="Rectangle-5" fill="#272D35" points="16 37.6828194 20 37.6828194 20 64.9427313 16.8 58.5286344"></polygon>
                        <polygon id="Rectangle-5-Copy" fill="#272D35" points="83.2 37.6828194 87.2 37.6828194 86.4 58.5286344 83.2 64.9427313"></polygon>
                        <ellipse id="Oval-2-Copy-3" fill="#272D35" cx="26.8" cy="33.2731278" rx="6.8" ry="6.81497797"></ellipse>
                        <ellipse id="Oval-2-Copy-4" fill="#272D35" cx="34" cy="36.4801762" rx="6.8" ry="6.81497797"></ellipse>
                        <ellipse id="Oval-2-Copy-5" fill="#272D35" cx="44.4" cy="34.876652" rx="6.8" ry="6.81497797"></ellipse>
                        <ellipse id="Oval-2-Copy-6" fill="#272D35" cx="54.8" cy="32.4713656" rx="6.8" ry="6.81497797"></ellipse>
                        <ellipse id="Oval-2-Copy-7" fill="#272D35" cx="63.6" cy="36.4801762" rx="6.8" ry="6.81497797"></ellipse>
                        <ellipse id="Oval-2-Copy-8" fill="#272D35" cx="72.4" cy="33.2731278" rx="6.8" ry="6.81497797"></ellipse>
                        <ellipse id="Oval-2-Copy-9" fill="#272D35" cx="82" cy="37.2819383" rx="6.8" ry="6.81497797"></ellipse>
                        <ellipse id="Oval-2-Copy-17" fill="#272D35" cx="83.6" cy="30.0660793" rx="6.8" ry="6.81497797"></ellipse>
                    </g>
                </g>
            </g>
        </g>
    </g>
</svg>