<?xml version="1.0" encoding="UTF-8"?>
<svg width="295px" height="290px" viewBox="0 0 295 290" version="1.1" xmlns="http://www.w3.org/2000/svg" xmlns:xlink="http://www.w3.org/1999/xlink">
    <title>Artwork 3</title>
    <defs>
        <path d="M122.765714,49.7945878 C122.765714,30.6766756 109.47558,19.7112342 89.9787843,11.37207 C81.4391289,7.71949082 71.7087465,0.0166142228 61.3828571,0.0166142228 C48.9448269,0.0166142228 37.3708391,8.65186175 27.7011733,13.8082652 C11.015415,22.7060392 0,32.3895006 0,49.7945878 C0,77.2862035 122.765714,77.2862035 122.765714,49.7945878 Z" id="path-1"></path>
        <path d="M59.9771429,116.887225 C68.0751647,116.887225 74.6399084,123.451968 74.6399084,131.54999 C74.6399084,131.659258 74.638687,131.768523 74.6362444,131.877764 L74.2116506,150.866998 C74.038642,158.60451 67.7165889,164.786784 59.9771429,164.786784 C52.2376968,164.786784 45.9156437,158.60451 45.7426351,150.866998 L45.3180413,131.877764 C45.1370171,123.781765 51.5533713,117.071913 59.6493696,116.890889 C59.7586103,116.888446 59.8678748,116.887225 59.9771429,116.887225 Z" id="path-3"></path>
        <filter x="-6.8%" y="-4.2%" width="113.6%" height="116.7%" filterUnits="objectBoundingBox" id="filter-4">
            <feOffset dx="0" dy="4" in="SourceAlpha" result="shadowOffsetOuter1"></feOffset>
            <feColorMatrix values="0 0 0 0 0   0 0 0 0 0   0 0 0 0 0  0 0 0 0.278900589 0" type="matrix" in="shadowOffsetOuter1"></feColorMatrix>
        </filter>
        <path d="M15.9314286,15.9665198 C24.7301136,15.9665198 31.8628571,8.81806541 31.8628571,0 C19.6520232,0 6.52885681,0 0,0 C0,8.81806541 7.13274353,15.9665198 15.9314286,15.9665198 Z" id="path-5"></path>
        <linearGradient x1="24.0318418%" y1="27.1307888%" x2="50%" y2="100%" id="linearGradient-7">
            <stop stop-color="#CEA2FF" offset="0%"></stop>
            <stop stop-color="#9F69FF" offset="100%"></stop>
        </linearGradient>
        <linearGradient x1="83.1634518%" y1="5.1001598%" x2="19.2042493%" y2="62.4051708%" id="linearGradient-8">
            <stop stop-color="#9EA0FF" offset="0%"></stop>
            <stop stop-color="#9F69FF" offset="100%"></stop>
        </linearGradient>
        <circle id="path-9" cx="27.6999969" cy="27.5" r="27.5"></circle>
        <path d="M33.9352381,14.0407804 C33.9352381,8.75615423 30.2615423,5.72505661 24.8721843,3.4199218 C22.5116291,2.41026576 19.8219299,0.281015314 16.967619,0.281015314 C13.5294644,0.281015314 10.3301507,2.66799431 7.65723489,4.09334159 C3.04491147,6.55288887 0,9.22961806 0,14.0407804 C0,21.6400888 33.9352381,21.6400888 33.9352381,14.0407804 Z" id="path-11"></path>
        <path d="M4.40380952,4.41350954 C6.83596636,4.41350954 8.80761905,2.43751401 8.80761905,0 C5.43226656,0 1.80472465,0 0,0 C0,2.43751401 1.97165268,4.41350954 4.40380952,4.41350954 Z" id="path-13"></path>
        <circle id="path-15" cx="27.5" cy="27.5" r="27.5"></circle>
        <path d="M4.07480911,4.08378446 C6.32526404,4.08378446 8.14961822,2.25541188 8.14961822,0 C5.02643204,0 1.66989703,0 0,0 C0,2.25541188 1.82435418,4.08378446 4.07480911,4.08378446 Z" id="path-17"></path>
        <circle id="path-19" cx="27.5" cy="27.5" r="27.5"></circle>
        <path d="M3.76635349,3.77464943 C5.84645309,3.77464943 7.53270699,2.08468131 7.53270699,0 C4.6459403,0 1.54348887,0 0,0 C0,2.08468131 1.6862539,3.77464943 3.76635349,3.77464943 Z" id="path-21"></path>
    </defs>
    <g id="Empty-States" stroke="none" stroke-width="1" fill="none" fill-rule="evenodd">
        <g id="3.2_No-Friends" transform="translate(-40.000000, -88.000000)">
            <g id="Artwork" transform="translate(40.000000, 88.000000)">
                <path d="M147.5,288 C219.57316,288 278,229.57316 278,157.5 C278,85.4268402 219.57316,27 147.5,27 C75.4268402,27 17,85.4268402 17,157.5 C17,229.57316 75.4268402,288 147.5,288 Z" id="circle" stroke="#1B3554" stroke-width="3" opacity="0.160778986" stroke-linecap="round" stroke-linejoin="round" stroke-dasharray="5,19"></path>
                <g id="main" transform="translate(86.000000, 69.000000)">
                    <g id="Rectangle-6" transform="translate(0.000000, 149.742857)">
                        <mask id="mask-2" fill="white">
                            <use xlink:href="#path-1"></use>
                        </mask>
                        <use id="Mask" fill="#333F4E" xlink:href="#path-1"></use>
                        <path d="M77.3347307,50.0117251 L86.7336474,51.7142857 L86.7336474,51.7142857 L97.2480185,49.9558946 C98.8821781,49.6826028 100.428473,50.7858041 100.701765,52.4199637 C100.729113,52.583491 100.742857,52.749004 100.742857,52.9148023 L100.742857,73.3142857 C100.742857,74.97114 99.3997114,76.3142857 97.7428571,76.3142857 L76.8,76.3142857 C75.1431458,76.3142857 73.8,74.97114 73.8,73.3142857 L73.8,52.9636843 C73.8,51.30683 75.1431458,49.9636843 76.8,49.9636843 C76.9793211,49.9636843 77.1582812,49.9797622 77.3347307,50.0117251 Z" fill="#485360" mask="url(#mask-2)"></path>
                    </g>
                    <g id="Rectangle-Copy">
                        <use fill="black" fill-opacity="1" filter="url(#filter-4)" xlink:href="#path-3"></use>
                        <use fill="#D8BAA1" fill-rule="evenodd" xlink:href="#path-3"></use>
                    </g>
                    <path d="M20.6171429,49.2643172 L99.3371429,49.2643172 L97.30054,118.661334 C96.8689874,133.366444 84.8236857,145.063436 70.1122455,145.063436 L49.8420402,145.063436 C35.1306,145.063436 23.0852983,133.366444 22.6537457,118.661334 L20.6171429,49.2643172 L20.6171429,49.2643172 Z" id="Rectangle" fill="#E5CFBC"></path>
                    <ellipse id="Oval-3" fill="#E5CFBC" cx="21.0857143" cy="83.5453744" rx="7.96571429" ry="8.92246696"></ellipse>
                    <ellipse id="Oval-3-Copy" fill="#E5CFBC" cx="98.8685714" cy="83.5453744" rx="7.96571429" ry="8.92246696"></ellipse>
                    <g id="Group-2" transform="translate(41.422857, 79.379736)">
                        <circle id="Oval" fill="#494A4B" cx="3.5" cy="3.77048458" r="3.5"></circle>
                        <circle id="Oval-Copy-2" fill="#494A4B" cx="34.3" cy="3.77048458" r="3.5"></circle>
                        <g id="Oval-2-Copy" transform="translate(2.622857, 30.933040)">
                            <mask id="mask-6" fill="white">
                                <use xlink:href="#path-5"></use>
                            </mask>
                            <use id="Mask" fill="#372C28" xlink:href="#path-5"></use>
                            <path d="M15.9314286,25.3585903 C24.7301136,25.3585903 31.8628571,18.2101359 31.8628571,9.39207048 C19.6520232,9.39207048 6.52885681,9.39207048 0,9.39207048 C0,18.2101359 7.13274353,25.3585903 15.9314286,25.3585903 Z" fill="#D96B70" mask="url(#mask-6)" transform="translate(15.931429, 17.375330) scale(1, -1) translate(-15.931429, -17.375330) "></path>
                            <path d="M15.9314286,2.81762115 C21.6246954,2.81762115 26.24,-1.80784936 26.24,-7.51365639 C18.3388721,-7.51365639 9.84741155,-7.51365639 5.62285714,-7.51365639 C5.62285714,-1.80784936 10.2381618,2.81762115 15.9314286,2.81762115 Z" id="Oval-2-Copy-2" fill="#FFFFFF" mask="url(#mask-6)" transform="translate(15.931429, -2.348018) scale(1, -1) translate(-15.931429, 2.348018) "></path>
                        </g>
                        <path d="M19.0857143,6.57444934 C20.434774,6.57444934 21.5832342,7.55613803 21.7931859,8.88876045 L23.4378483,19.3278988 C23.8165327,21.731516 22.1750003,23.9870172 19.7713831,24.3657016 C19.5445748,24.4014347 19.3153202,24.4193833 19.0857143,24.4193833 C16.6524495,24.4193833 14.6798986,22.4468324 14.6798986,20.0135676 C14.6798986,19.7839617 14.6978472,19.5547071 14.7335803,19.3278988 L16.3782427,8.88876045 C16.5881943,7.55613803 17.7366545,6.57444934 19.0857143,6.57444934 Z" id="Rectangle-4" fill="#A38080" opacity="0.307914402"></path>
                    </g>
                    <g id="Group-4" transform="translate(61.000000, 43.500000) scale(-1, 1) translate(-61.000000, -43.500000) translate(15.000000, 0.000000)">
                        <path d="M56.7946916,50.0385731 C70.2818979,43.0057907 78.7238811,45.7591979 82.1206413,58.2987946 C85.1900153,68.0779436 84.4802977,76.4805272 84.4101206,83.5684108 C92.3425543,66.8158255 93.1982957,41.359013 87.4794946,31.4166463 C86.0135164,28.8679838 60.3720967,23.5211556 56.7946916,24.6424053 C52.9771814,25.8389101 52.9771814,34.3042994 56.7946916,50.0385731 Z" id="Path-5" fill="url(#linearGradient-7)"></path>
                        <path d="M8.68543973,86.7051195 L11.7503143,50.3397132 C36.2011764,64.0897948 57.5447976,64.7987687 75.7811776,52.4666352 C103.135748,33.9684348 87.254527,7.94049779 73.6187732,0.784199734 C75.7811776,5.35843716 73.7287855,17.9183233 58.8912009,13.9551127 C46.6335923,10.6810297 38.5568549,2.54604064 20.9962449,11.9543982 C-1.87134004,24.2060463 -5.97494176,49.1229534 8.68543973,86.7051195 Z" id="Path-4" fill="url(#linearGradient-8)"></path>
                    </g>
                    <rect id="Rectangle-21" stroke="#454545" stroke-width="3" fill-opacity="0.2265625" fill="#FFFFFF" x="32" y="73" width="25" height="21" rx="4"></rect>
                    <polygon id="Rectangle-7" fill="#454545" points="22 71 32 80 32 87 22 78"></polygon>
                    <polygon id="Rectangle-7-Copy" fill="#454545" points="99 71 89 80 89 87 99 78"></polygon>
                    <rect id="Rectangle-2" fill="#454545" x="56" y="82" width="9" height="4"></rect>
                    <rect id="Rectangle-21-Copy" stroke="#454545" stroke-width="3" fill-opacity="0.2265625" fill="#FFFFFF" x="64" y="73" width="25" height="21" rx="4"></rect>
                </g>
                <g id="person" transform="translate(119.000000, 0.000000)">
                    <mask id="mask-10" fill="white">
                        <use xlink:href="#path-9"></use>
                    </mask>
                    <use id="Mask" fill="#BDE4C3" xlink:href="#path-9"></use>
                    <g id="Group" mask="url(#mask-10)">
                        <g transform="translate(11.000000, 7.000000)">
                            <g id="Rectangle-6" stroke-width="1" fill="none" transform="translate(0.000000, 39.180952)">
                                <mask id="mask-12" fill="white">
                                    <use xlink:href="#path-11"></use>
                                </mask>
                                <use id="Mask" fill="#E7E7E7" xlink:href="#path-11"></use>
                                <path d="M23.9347307,14.564106 L23.9751546,14.5714286 L23.9751546,14.5714286 L24.3527804,14.5082756 C25.98694,14.2349838 27.5332349,15.3381851 27.8065267,16.9723447 C27.8338745,17.135872 27.847619,17.301385 27.847619,17.4671833 L27.847619,18.3714286 C27.847619,20.0282828 26.5044733,21.3714286 24.847619,21.3714286 L23.4,21.3714286 C21.7431458,21.3714286 20.4,20.0282828 20.4,18.3714286 L20.4,17.5160652 C20.4,15.859211 21.7431458,14.5160652 23.4,14.5160652 C23.5793211,14.5160652 23.7582812,14.5321432 23.9347307,14.564106 Z" fill="#62D186" mask="url(#mask-12)"></path>
                            </g>
                            <path d="M16.5790476,30.3753304 C18.8175252,30.3753304 20.6321698,32.189975 20.6321698,34.4284526 C20.6321698,34.4586568 20.6318322,34.48886 20.631157,34.5190566 L20.5137896,39.7681133 C20.4659661,41.9069378 18.7184067,43.615859 16.5790476,43.615859 C14.4396885,43.615859 12.6921291,41.9069378 12.6443056,39.7681133 L12.5269382,34.5190566 C12.476899,32.2811384 14.2505254,30.4263824 16.4884436,30.3763432 C16.5186402,30.375668 16.5488435,30.3753304 16.5790476,30.3753304 Z" id="Rectangle-Copy" fill="#866E57"></path>
                            <path d="M5.69904762,11.6828194 L27.4590476,11.6828194 L26.978267,28.0653673 C26.8132029,33.6899075 22.2060094,38.1638767 16.5790476,38.1638767 C10.9520858,38.1638767 6.34489235,33.6899075 6.17982827,28.0653673 L5.69904762,11.6828194 L5.69904762,11.6828194 Z" id="Rectangle" fill="#93775E"></path>
                            <ellipse id="Oval-3" fill="#93775E" cx="5.82857143" cy="21.158884" rx="2.20190476" ry="2.46637298"></ellipse>
                            <ellipse id="Oval-3-Copy" fill="#93775E" cx="27.3295238" cy="21.158884" rx="2.20190476" ry="2.46637298"></ellipse>
                            <g id="Group-2" stroke-width="1" fill="none" transform="translate(10.620952, 19.730984)">
                                <path d="M1.5704031,3.45381899e-05 C1.5704031,3.45381899e-05 1.5704031,3.45381899e-05 1.5704031,3.45381899e-05 C1.5704031,3.45381899e-05 1.5704031,3.45381899e-05 1.5704031,3.45381899e-05 C2.41992539,3.45381899e-05 3.10859928,0.688708425 3.10857143,1.53823072 L3.10857143,1.63432975 C3.10857143,1.84218602 2.94007063,2.01068682 2.73221436,2.01068682 C2.65873397,2.01068682 2.58686083,1.98917671 2.52548925,1.94876757 C2.20664024,1.73914236 1.88566652,1.63432975 1.5625681,1.63432975 C1.23756284,1.63432975 0.912557572,1.74038316 0.587552308,1.95248999 C0.411836545,2.06715648 0.176433213,2.01767581 0.0617596017,1.84196469 C0.0214590181,1.78021325 7.45233811e-17,1.70806832 0,1.63432975 L0,1.57047131 C-3.36750693e-05,0.703143032 0.703074819,3.45381899e-05 1.5704031,3.45381899e-05 Z" id="Rectangle-3-Copy" fill="#5A4840"></path>
                                <g id="Oval-2-Copy" transform="translate(1.554286, 8.827019)">
                                    <mask id="mask-14" fill="white">
                                        <use xlink:href="#path-13"></use>
                                    </mask>
                                    <use id="Mask" fill="#372C28" xlink:href="#path-13"></use>
                                    <path d="M4.40380952,7.00969163 C6.83596636,7.00969163 8.80761905,5.0336961 8.80761905,2.59618209 C5.43226656,2.59618209 1.80472465,2.59618209 0,2.59618209 C0,5.0336961 1.97165268,7.00969163 4.40380952,7.00969163 Z" fill="#D96B70" mask="url(#mask-14)" transform="translate(4.403810, 4.802937) scale(1, -1) translate(-4.403810, -4.802937) "></path>
                                    <path d="M4.40380952,0.778854626 C5.97755807,0.778854626 7.25333333,-0.499730717 7.25333333,-2.07694567 C5.06928173,-2.07694567 2.72204872,-2.07694567 1.55428571,-2.07694567 C1.55428571,-0.499730717 2.83006098,0.778854626 4.40380952,0.778854626 Z" id="Oval-2-Copy-2" fill="#FFFFFF" mask="url(#mask-14)" transform="translate(4.403810, -0.649046) scale(1, -1) translate(-4.403810, 0.649046) "></path>
                                </g>
                                <path d="M5.82857143,1.81732746 C6.20148225,1.81732746 6.5189428,2.08868856 6.5769782,2.45705573 L7.03160033,5.34267122 C7.13627732,6.00708574 6.6825204,6.63055759 6.01810588,6.73523458 C5.95541091,6.74511203 5.89203972,6.75007342 5.82857143,6.75007342 C5.15596164,6.75007342 4.61070368,6.20481546 4.61070368,5.53220567 C4.61070368,5.46873738 4.61566508,5.4053662 4.62554253,5.34267122 L5.08016465,2.45705573 C5.13820006,2.08868856 5.45566061,1.81732746 5.82857143,1.81732746 Z" id="Rectangle-4" fill="#482222" opacity="0.200000003"></path>
                                <path d="M10.3780221,3.45381899e-05 C10.3780221,3.45381899e-05 10.3780221,3.45381899e-05 10.3780221,3.45381899e-05 C10.3780221,3.45381899e-05 10.3780221,3.45381899e-05 10.3780221,3.45381899e-05 C11.2275444,3.45381899e-05 11.9162183,0.688708425 11.9161905,1.53823072 L11.9161905,1.63432975 C11.9161905,1.84218602 11.7476897,2.01068682 11.5398334,2.01068682 C11.466353,2.01068682 11.3944799,1.98917671 11.3331083,1.94876757 C11.0142593,1.73914236 10.6932856,1.63432975 10.3701871,1.63432975 C10.0451819,1.63432975 9.72017662,1.74038316 9.39517136,1.95248999 C9.21945559,2.06715648 8.98405226,2.01767581 8.86937865,1.84196469 C8.82907807,1.78021325 8.80761905,1.70806832 8.80761905,1.63432975 L8.80761905,1.57047131 C8.80758537,0.703143032 9.51069387,3.45381899e-05 10.3780221,3.45381899e-05 Z" id="Rectangle-3-Copy-2" fill="#5A4840"></path>
                            </g>
                            <ellipse id="Oval-2" fill="#272D35" cx="6.34666667" cy="12.5914831" rx="2.20190476" ry="2.20675477"></ellipse>
                            <ellipse id="Oval-2-Copy-18" fill="#272D35" cx="6.34666667" cy="9.73568282" rx="2.20190476" ry="2.20675477"></ellipse>
                            <ellipse id="Oval-2-Copy-10" fill="#272D35" cx="8.16" cy="6.62026432" rx="4.0152381" ry="4.02408223"></ellipse>
                            <ellipse id="Oval-2-Copy-11" fill="#272D35" cx="11.7866667" cy="4.54331865" rx="4.0152381" ry="4.02408223"></ellipse>
                            <ellipse id="Oval-2-Copy-12" fill="#272D35" cx="12.5638095" cy="7.39911894" rx="4.0152381" ry="4.02408223"></ellipse>
                            <ellipse id="Oval-2-Copy-13" fill="#272D35" cx="16.4495238" cy="4.02408223" rx="4.0152381" ry="4.02408223"></ellipse>
                            <ellipse id="Oval-2-Copy-14" fill="#272D35" cx="19.2990476" cy="6.36064611" rx="4.0152381" ry="4.02408223"></ellipse>
                            <ellipse id="Oval-2-Copy-15" fill="#272D35" cx="21.8895238" cy="4.28370044" rx="4.0152381" ry="4.02408223"></ellipse>
                            <ellipse id="Oval-2-Copy-16" fill="#272D35" cx="24.9980952" cy="6.87988253" rx="4.0152381" ry="4.02408223"></ellipse>
                            <polygon id="Rectangle-5" fill="#272D35" points="5.18095238 12.2020558 6.47619048 12.2020558 6.47619048 21.0290749 5.44 18.9521292"></polygon>
                            <polygon id="Rectangle-5-Copy" fill="#272D35" points="26.9409524 12.2020558 28.2361905 12.2020558 27.9771429 18.9521292 26.9409524 21.0290749"></polygon>
                            <ellipse id="Oval-2-Copy-3" fill="#272D35" cx="8.67809524" cy="10.7741557" rx="2.20190476" ry="2.20675477"></ellipse>
                            <ellipse id="Oval-2-Copy-4" fill="#272D35" cx="11.0095238" cy="11.8126285" rx="2.20190476" ry="2.20675477"></ellipse>
                            <ellipse id="Oval-2-Copy-5" fill="#272D35" cx="14.3771429" cy="11.2933921" rx="2.20190476" ry="2.20675477"></ellipse>
                            <ellipse id="Oval-2-Copy-6" fill="#272D35" cx="17.7447619" cy="10.5145374" rx="2.20190476" ry="2.20675477"></ellipse>
                            <ellipse id="Oval-2-Copy-7" fill="#272D35" cx="20.5942857" cy="11.8126285" rx="2.20190476" ry="2.20675477"></ellipse>
                            <ellipse id="Oval-2-Copy-8" fill="#272D35" cx="23.4438095" cy="10.7741557" rx="2.20190476" ry="2.20675477"></ellipse>
                            <ellipse id="Oval-2-Copy-9" fill="#272D35" cx="26.552381" cy="12.0722467" rx="2.20190476" ry="2.20675477"></ellipse>
                            <ellipse id="Oval-2-Copy-17" fill="#272D35" cx="27.0704762" cy="9.73568282" rx="2.20190476" ry="2.20675477"></ellipse>
                        </g>
                    </g>
                </g>
                <g id="heart" transform="translate(231.000000, 60.000000)">
                    <circle id="Oval-Copy" stroke-opacity="0.136945199" stroke="#1B3554" fill="#FFFFFF" cx="27.5" cy="27.5" r="27.5"></circle>
                    <path d="M26.9183139,37.6945186 C7.56788495,27.1731815 21.5627044,14.0926233 26.9183139,22.9021353 C32.2747778,14.0926233 46.2704516,27.1731815 26.9183139,37.6945186 Z" id="Shape" fill="#A2A8BD" fill-rule="nonzero" transform="translate(26.918803, 28.847259) rotate(26.000000) translate(-26.918803, -28.847259) "></path>
                </g>
                <g id="person" transform="translate(240.000000, 176.000000)">
                    <mask id="mask-16" fill="white">
                        <use xlink:href="#path-15"></use>
                    </mask>
                    <use id="Mask" fill="#ADE0E5" xlink:href="#path-15"></use>
                    <g id="Group-Copy" mask="url(#mask-16)">
                        <g transform="translate(12.000000, 4.000000)">
                            <path d="M31.3999996,50.5300918 C31.3999996,45.6402702 28.0007588,42.8356203 23.0140297,40.7026978 C20.8298272,39.7684713 18.3410704,37.7982932 15.6999998,37.7982932 C12.5187033,37.7982932 9.55840432,40.0069454 7.08517713,41.3258076 C2.8174318,43.6016067 0,46.0783624 0,50.5300918 C0,57.56167 31.3999996,57.56167 31.3999996,50.5300918 Z" id="Oval-11" fill="#B38BFF"></path>
                            <path d="M15.3404578,29.3905016 C17.4117029,29.3905016 19.0907788,31.0695775 19.0907788,33.1408226 C19.0907788,33.1687703 19.0904664,33.1967171 19.0898417,33.2246577 L18.9812426,38.0815672 C18.9369919,40.0606041 17.3199894,41.641855 15.3404578,41.641855 C13.3609263,41.641855 11.7439238,40.0606041 11.6996731,38.0815672 L11.591074,33.2246577 C11.5447731,31.1539302 13.1858952,29.4377396 15.2566227,29.3914388 C15.2845634,29.390814 15.3125102,29.3905016 15.3404578,29.3905016 Z" id="Rectangle-Copy" fill="#C4A588"></path>
                            <path d="M15.3404578,5.45893637 C20.7734903,5.45893637 25.1778333,9.86327939 25.1778333,15.2963118 C25.1778333,15.372025 25.1769592,15.4477356 25.1752112,15.5234285 L24.9043698,27.2515803 C24.7843778,32.4475511 20.537814,36.5971801 15.3404578,36.5971801 C10.1431017,36.5971801 5.89653782,32.4475511 5.77654585,27.2515803 L5.50570444,15.5234285 C5.38027138,10.0918442 9.68175687,5.58699151 15.1133412,5.46155846 C15.1890341,5.45981046 15.2647447,5.45893637 15.3404578,5.45893637 Z" id="Rectangle" fill="#FFF0D2"></path>
                            <path d="M5.59369054,22.5799963 C6.24372731,26.850232 7.01634092,29.5498527 7.91153137,30.6788586 C9.57140425,32.7722748 12.3237709,35.1034386 15.2667897,35.1034386 C18.1710585,35.1034386 21.0547829,32.7175107 22.738704,30.6788586 C23.6739595,29.5465843 24.4567999,26.8469636 25.0872251,22.5799963 L24.8652995,34.3152656 C24.7671471,39.5054928 20.531613,43.661686 15.3404578,43.661686 C10.1493026,43.661686 5.91376858,39.5054928 5.8156162,34.3152656 L5.59369054,22.5799963 L5.59369054,22.5799963 Z" id="Rectangle-Copy-2" fill="#FF7575"></path>
                            <ellipse id="Oval-4" fill="#FF7575" cx="15.3795916" cy="37.8914407" rx="4.80612239" ry="4.81670856"></ellipse>
                            <ellipse id="Oval-3" fill="#FFF0D2" cx="5.39312971" cy="20.8625988" rx="2.03740456" ry="2.28211485"></ellipse>
                            <ellipse id="Oval-3-Copy" fill="#FFF0D2" cx="25.287786" cy="20.8625988" rx="2.03740456" ry="2.28211485"></ellipse>
                            <g id="Group-2" stroke-width="1" fill="none" transform="translate(9.827481, 18.899147)">
                                <path d="M1.45308121,3.19579059e-05 C1.45308121,3.19579059e-05 1.45308121,3.19579059e-05 1.45308121,3.19579059e-05 C1.45308121,3.19579059e-05 1.45308121,3.19579059e-05 1.45308121,3.19579059e-05 C2.23913727,3.19579059e-05 2.87636161,0.6372563 2.87633584,1.42331236 L2.87633584,1.51223202 C2.87633584,1.70455973 2.72042342,1.86047215 2.52809571,1.86047215 C2.4601049,1.86047215 2.39360127,1.84056902 2.33681465,1.80317878 C2.04178625,1.60921427 1.74479188,1.51223202 1.44583155,1.51223202 C1.14510682,1.51223202 0.844382095,1.61036238 0.543657369,1.8066231 C0.381069004,1.91272307 0.163252216,1.866939 0.0571456568,1.70435494 C0.0198558548,1.64721683 8.35572867e-18,1.58046172 0,1.51223202 L0,1.45314432 C-3.11592675e-05,0.650612525 0.650549408,3.19579059e-05 1.45308121,3.19579059e-05 Z" id="Rectangle-3-Copy" fill="#5B5552"></path>
                                <g id="Oval-2-Copy" transform="translate(1.438168, 9.773138)">
                                    <mask id="mask-18" fill="white">
                                        <use xlink:href="#path-17"></use>
                                    </mask>
                                    <use id="Mask" fill="#372C28" xlink:href="#path-17"></use>
                                    <path d="M4.07480911,6.48601061 C6.32526404,6.48601061 8.14961822,4.65763803 8.14961822,2.40222615 C5.02643204,2.40222615 1.66989703,2.40222615 0,2.40222615 C0,4.65763803 1.82435418,6.48601061 4.07480911,6.48601061 Z" fill="#D96B70" mask="url(#mask-18)" transform="translate(4.074809, 4.444118) scale(1, -1) translate(-4.074809, -4.444118) "></path>
                                    <path d="M4.07480911,0.720667846 C5.53098583,0.720667846 6.7114503,-0.462396766 6.7114503,-1.92178092 C4.69056512,-1.92178092 2.51868953,-1.92178092 1.43816792,-1.92178092 C1.43816792,-0.462396766 2.61863239,0.720667846 4.07480911,0.720667846 Z" id="Oval-2-Copy-2" fill="#FFFFFF" mask="url(#mask-18)" transform="translate(4.074809, -0.600557) scale(1, -1) translate(-4.074809, 0.600557) "></path>
                                </g>
                                <path d="M5.39312971,1.68155831 C5.73818105,1.68155831 6.03192471,1.93264653 6.0856244,2.27349367 L6.50628256,4.9435302 C6.60313932,5.55830754 6.18328174,6.13520097 5.56850439,6.23205774 C5.51049324,6.24119726 5.4518564,6.245788 5.39312971,6.245788 C4.77076935,6.245788 4.26624659,5.74126524 4.26624659,5.11890488 C4.26624659,5.06017819 4.27083733,5.00154135 4.27997685,4.9435302 L4.70063501,2.27349367 C4.7543347,1.93264653 5.04807836,1.68155831 5.39312971,1.68155831 Z" id="Rectangle-4" fill="#C08267" opacity="0.419270833"></path>
                                <path d="M9.60269943,3.19579059e-05 C9.60269943,3.19579059e-05 9.60269943,3.19579059e-05 9.60269943,3.19579059e-05 C9.60269943,3.19579059e-05 9.60269943,3.19579059e-05 9.60269943,3.19579059e-05 C10.3887555,3.19579059e-05 11.0259798,0.6372563 11.0259541,1.42331236 L11.0259541,1.51223202 C11.0259541,1.70455973 10.8700416,1.86047215 10.6777139,1.86047215 C10.6097231,1.86047215 10.5432195,1.84056902 10.4864329,1.80317878 C10.1914045,1.60921427 9.89441011,1.51223202 9.59544977,1.51223202 C9.29472504,1.51223202 8.99400032,1.61036238 8.69327559,1.8066231 C8.53068723,1.91272307 8.31287044,1.866939 8.20676388,1.70435494 C8.16947408,1.64721683 8.14961822,1.58046172 8.14961822,1.51223202 L8.14961822,1.45314432 C8.14958706,0.650612525 8.80016763,3.19579059e-05 9.60269943,3.19579059e-05 Z" id="Rectangle-3-Copy-2" fill="#5B5552"></path>
                            </g>
                            <path d="M13.2740761,8.74348551 C12.4255731,7.71162551 12.3840201,5.90291426 14.122579,4.43404329 C15.861138,2.96517233 14.922347,0.426909832 13.2740761,0.398632652 C11.6258052,0.370355472 17.7253822,-0.764844769 18.3902309,4.71758629 C19.0550797,10.2000173 14.122579,9.77534552 13.2740761,8.74348551 Z" id="Path-2" fill="#FF7575"></path>
                            <path d="M15.7496385,25.8429581 C16.6337793,25.1691485 18.1835586,25.1361505 19.4421485,26.5167677 C20.7007385,27.8973849 22.8756277,27.151876 22.8998568,25.8429581 C22.9240859,24.5340401 23.8967728,29.3778106 19.199197,29.9057775 C14.5016213,30.4337444 14.8654978,26.5167677 15.7496385,25.8429581 Z" id="Path-2-Copy" fill="#FF7575"></path>
                            <path d="M14.7663298,25.8429581 C13.8821891,25.1691485 12.3324098,25.1361505 11.0738198,26.5167677 C9.81522985,27.8973849 7.64034059,27.151876 7.61611152,25.8429581 C7.59188245,24.5340401 6.6191955,29.3778106 11.3167713,29.9057775 C16.014347,30.4337444 15.6504705,26.5167677 14.7663298,25.8429581 Z" id="Path-2-Copy-2" fill="#FF7575"></path>
                        </g>
                    </g>
                </g>
                <g id="mail" transform="translate(9.000000, 60.000000)">
                    <circle id="Oval-Copy-2" stroke-opacity="0.136945199" stroke="#1B3554" fill="#FFFFFF" cx="27.5" cy="27.5" r="27.5"></circle>
                    <path d="M34.9507705,20.1399994 L20.52342,20.1399994 C19.5315397,20.1399994 18.7200012,20.9488951 18.7200012,21.9375454 L18.7200012,32.7228215 C18.7200012,33.7114718 19.5315397,34.5203675 20.52342,34.5203675 L34.9507705,34.5203675 C35.9426508,34.5203675 36.7541893,33.7114718 36.7541893,32.7228215 L36.7541893,21.9375454 C36.7541893,20.9488951 35.9426508,20.1399994 34.9507705,20.1399994 Z M34.9507705,23.7350914 L27.7370952,28.2289564 L20.52342,23.7350914 L20.52342,21.9375454 L27.7370952,26.4314104 L34.9507705,21.9375454 L34.9507705,23.7350914 Z" id="Shape" fill="#A2A8BD" fill-rule="nonzero" transform="translate(27.737095, 27.330183) rotate(-20.000000) translate(-27.737095, -27.330183) "></path>
                </g>
                <g id="person" transform="translate(0.000000, 176.000000)">
                    <mask id="mask-20" fill="white">
                        <use xlink:href="#path-19"></use>
                    </mask>
                    <use id="Mask" fill="#FED5F1" xlink:href="#path-19"></use>
                    <g id="Group-Copy-2" mask="url(#mask-20)">
                        <g transform="translate(27.000000, 31.000000) scale(-1, 1) translate(-27.000000, -31.000000) translate(9.000000, 2.000000)">
                            <rect id="Rectangle-20" fill="#323232" x="4.15" y="18.590859" width="26.6" height="29.8155286"></rect>
                            <path d="M34.3,51.6891751 C34.3,46.3477458 30.5868165,43.2840676 25.1395296,40.9541554 C23.8245312,40.3917047 23.4584763,40.1870483 21.9692065,39.4868657 C20.7563506,38.9166395 23.5413001,43.644651 17.15,43.644651 C10.7586999,43.644651 12.5560128,39.2497012 11.2172392,39.8392331 C9.33145895,40.6696405 9.31951472,40.7922837 7.73954071,41.6348136 C3.07764051,44.120798 0,46.8262987 0,51.6891751 C0,59.3701667 34.3,59.3701667 34.3,51.6891751 Z" id="Oval-11" fill="#88F88E"></path>
                            <ellipse id="Oval-6" fill="#B4FF64" cx="17.625" cy="44.0217511" rx="7.525" ry="7.54157489"></ellipse>
                            <path d="M17.7572519,28.5972021 C20.0197904,28.5972021 21.8539402,30.4313519 21.8539402,32.6938904 C21.8539402,32.7244192 21.8535989,32.7549471 21.8529165,32.7854683 L21.7342875,38.0909458 C21.68595,40.2527601 19.9196065,41.9800501 17.7572519,41.9800501 C15.5948974,41.9800501 13.8285539,40.2527601 13.7802163,38.0909458 L13.6615874,32.7854683 C13.6110103,30.5234952 15.403701,28.6488029 17.665674,28.5982258 C17.6961952,28.5975434 17.7267231,28.5972021 17.7572519,28.5972021 Z" id="Rectangle-Copy" fill="#F2DDCA"></path>
                            <path d="M17.7369897,8.67094134 L17.7775141,8.67094134 C23.4425451,8.67094134 28.0349601,13.2633563 28.0349601,18.9283873 C28.0349601,19.1599464 28.0271191,19.3914391 28.0114504,19.6224675 L27.4476799,27.9350394 C27.3142252,29.9138928 26.4502124,31.7725094 25.0243263,33.1511033 C22.7333037,35.3633449 20.3109455,36.4694656 17.7572519,36.4694656 C15.2035583,36.4694656 12.7812002,35.3633449 10.4901775,33.1511033 C9.06429142,31.7725094 8.20027866,29.9138928 8.0668239,27.9350394 L7.50305344,19.6224675 C7.11972357,13.9704205 11.3908626,9.07778096 17.0429096,8.69445109 C17.2739379,8.67878242 17.5054306,8.67094134 17.7369897,8.67094134 Z" id="Rectangle" fill="#FFEBD8"></path>
                            <path d="M17.6259854,21.779929 C17.8946455,21.779929 18.1224245,21.9774747 18.1604267,22.2434336 L18.5103484,24.6923612 C18.5801376,25.1807814 18.2407701,25.6332995 17.75235,25.7030888 C17.7104941,25.7090695 17.6682664,25.7120711 17.6259854,25.7120711 C17.1326044,25.7120711 16.73264,25.3121068 16.73264,24.8187258 C16.73264,24.7764448 16.7356417,24.7342171 16.7416224,24.6923612 L17.091544,22.2434336 C17.1295463,21.9774747 17.3573252,21.779929 17.6259854,21.779929 Z" id="Rectangle-4" fill="#A5725C" opacity="0.200000003"></path>
                            <path d="M22.2246876,17.487706 C22.2246876,17.487706 22.2246876,17.487706 22.2246876,17.487706 C22.2246876,17.487706 22.2246876,17.487706 22.2246876,17.487706 C23.0833412,17.487706 23.7794175,18.1837823 23.7793893,19.0424359 L23.7793893,19.1395679 C23.7793893,19.3496583 23.6090773,19.5199703 23.3989869,19.5199703 C23.3247167,19.5199703 23.252071,19.498229 23.1900397,19.4573855 C22.8677635,19.2455071 22.5433397,19.1395679 22.2167684,19.1395679 C21.8882697,19.1395679 21.559771,19.2467612 21.2312724,19.4611479 C21.0536679,19.5770469 20.8157342,19.5270344 20.699828,19.3494346 C20.6590943,19.2870194 20.6374046,19.214099 20.6374046,19.1395679 L20.6374046,19.075023 C20.6373705,18.198372 21.3480366,17.487706 22.2246876,17.487706 Z" id="Rectangle-3-Copy-2" fill="#81685D"></path>
                            <g id="Group-4" stroke-width="1" fill="none" transform="translate(10.100000, 19.993943)">
                                <path d="M0.901622106,0.951508458 C1.75474623,0.333264421 2.50520448,0.0241424026 3.15299687,0.0241424026 C3.80078926,0.0241424026 4.44858165,0.368280292 5.09637405,1.05655607 C5.09637405,1.36668132 4.84496786,1.61808751 4.53484261,1.61808751 C4.43367349,1.61808751 4.33438353,1.59075538 4.24745687,1.53899684 C3.88154648,1.32102723 3.5134268,1.21204242 3.14309785,1.21204242 C2.82040118,1.21204242 2.47628163,1.33744867 2.11073921,1.58826115 C1.75906921,1.82954218 1.27838518,1.74006638 1.03709528,1.38840248 C0.948852319,1.25979427 0.901622106,1.10747926 0.901622106,0.951508458 L0.901622106,0.951508458 L0.901622106,0.951508458 Z" id="Rectangle-3-Copy" fill="#81685D"></path>
                                <path d="M0.10434632,0.162240311 C0.378753509,1.05595895 0.888862532,1.57348793 1.63467339,1.71482726 C2.07586959,1.40569392 1.90692899,0.38526889 1.31140852,0.680914088 C1.00429874,0.833378258 0.601944673,0.660486999 0.10434632,0.162240311 Z" id="Path-5" fill="#81685D"></path>
                            </g>
                            <g id="Group-4-Copy" stroke-width="1" fill="none" transform="translate(22.175000, 20.870870) scale(-1, 1) translate(-22.175000, -20.870870) translate(19.550000, 19.993943)">
                                <path d="M0.901622106,0.951508458 C1.75474623,0.333264421 2.50520448,0.0241424026 3.15299687,0.0241424026 C3.80078926,0.0241424026 4.44858165,0.368280292 5.09637405,1.05655607 C5.09637405,1.36668132 4.84496786,1.61808751 4.53484261,1.61808751 C4.43367349,1.61808751 4.33438353,1.59075538 4.24745687,1.53899684 C3.88154648,1.32102723 3.5134268,1.21204242 3.14309785,1.21204242 C2.82040118,1.21204242 2.47628163,1.33744867 2.11073921,1.58826115 C1.75906921,1.82954218 1.27838518,1.74006638 1.03709528,1.38840248 C0.948852319,1.25979427 0.901622106,1.10747926 0.901622106,0.951508458 L0.901622106,0.951508458 L0.901622106,0.951508458 Z" id="Rectangle-3-Copy" fill="#81685D"></path>
                                <path d="M0.10434632,0.162240311 C0.378753509,1.05595895 0.888862532,1.57348793 1.63467339,1.71482726 C2.07586959,1.40569392 1.90692899,0.38526889 1.31140852,0.680914088 C1.00429874,0.833378258 0.601944673,0.660486999 0.10434632,0.162240311 Z" id="Path-5" fill="#81685D"></path>
                            </g>
                            <path d="M23.5026433,19.7988969 C28.6250844,19.7988969 33.5849201,17.9523961 33.8265549,16.1389823 C34.0681897,14.3255685 26.0381812,5.47253817 20.9157402,5.47253817 C15.7932991,5.47253817 11.9630371,7.27256992 11.2672871,11.0218719 C10.5715372,14.7711739 18.3802023,19.7988969 23.5026433,19.7988969 Z" id="Oval-5" fill="#323232" transform="translate(22.527842, 12.635718) rotate(35.000000) translate(-22.527842, -12.635718) "></path>
                            <g id="Oval-2-Copy" stroke-width="1" fill="none" transform="translate(13.979800, 27.789173)">
                                <mask id="mask-22" fill="white">
                                    <use xlink:href="#path-21"></use>
                                </mask>
                                <use id="Mask" fill="#372C28" xlink:href="#path-21"></use>
                                <path d="M3.76635349,5.99503144 C5.84645309,5.99503144 7.53270699,4.30506333 7.53270699,2.22038202 C4.6459403,2.22038202 1.54348887,2.22038202 0,2.22038202 C0,4.30506333 1.6862539,5.99503144 3.76635349,5.99503144 Z" fill="#D96B70" mask="url(#mask-22)" transform="translate(3.766353, 4.107707) scale(1, -1) translate(-3.766353, -4.107707) "></path>
                                <path d="M3.76635349,0.666114605 C5.11230029,0.666114605 6.20340575,-0.427394174 6.20340575,-1.77630561 C4.3354979,-1.77630561 2.32802932,-1.77630561 1.32930123,-1.77630561 C1.32930123,-0.427394174 2.4204067,0.666114605 3.76635349,0.666114605 Z" id="Oval-2-Copy-2" fill="#FFFFFF" mask="url(#mask-22)" transform="translate(3.766353, -0.555096) scale(1, -1) translate(-3.766353, 0.555096) "></path>
                            </g>
                            <path d="M27.6549737,18.8594887 L27.6549737,32.203008 C31.4059992,25.500613 31.9549473,18.6521346 29.3018178,11.6575728 C26.0022722,4.16487136 25.4533241,6.56550998 27.6549737,18.8594887 Z" id="Path-3" fill="#323232"></path>
                            <path d="M15.4191898,10.7237591 C10.40148,15.1663049 7.86720974,18.4258782 7.8163791,20.5024791 C7.76554847,22.5790801 7.79096378,26.153845 7.89262505,31.2267741 C4.93664904,26.6284261 3.66498834,22.0032081 4.07764295,17.3511201 C4.69662487,10.3729882 10.00122,4.10247627 15.9698133,3.4746025 C19.9488754,3.05601998 19.7653343,5.47240551 15.4191898,10.7237591 Z" id="Path-4" fill="#323232"></path>
                        </g>
                    </g>
                </g>
            </g>
        </g>
    </g>
</svg>