<?xml version="1.0" encoding="UTF-8"?>
<svg width="229px" height="226px" viewBox="0 0 229 226" version="1.1" xmlns="http://www.w3.org/2000/svg" xmlns:xlink="http://www.w3.org/1999/xlink">
    <title>Artwork</title>
    <defs>
        <circle id="path-1" cx="99.5" cy="99.5" r="99.5"></circle>
        <linearGradient x1="50%" y1="100%" x2="50%" y2="0%" id="linearGradient-3">
            <stop stop-color="#52C142" offset="0%"></stop>
            <stop stop-color="#AAF2A2" offset="100%"></stop>
        </linearGradient>
        <linearGradient x1="50%" y1="32.9909626%" x2="26.098177%" y2="98.6452037%" id="linearGradient-4">
            <stop stop-color="#FFFFFF" offset="0%"></stop>
            <stop stop-color="#CEF1FF" offset="100%"></stop>
        </linearGradient>
    </defs>
    <g id="Empty-States" stroke="none" stroke-width="1" fill="none" fill-rule="evenodd">
        <g id="1.4_No-Messages" transform="translate(-88.000000, -146.000000)">
            <g id="Artwork" transform="translate(88.000000, 146.000000)">
                <g id="scenery" transform="translate(0.000000, 27.000000)">
                    <mask id="mask-2" fill="white">
                        <use xlink:href="#path-1"></use>
                    </mask>
                    <use id="Mask" fill="#70A0AD" xlink:href="#path-1"></use>
                    <path d="M218.809955,9.00452489 C240.691427,9.00452489 258.429864,26.7429626 258.429864,48.6244344 C258.429864,60.9273035 252.822289,71.9204533 244.02361,79.1874119 L244.022624,228.714932 L-13.5067873,228.714932 L-13.5067873,66.6334842 C-9.69169092,68.0080697 -5.92813128,69.3448468 -2.2161084,70.6438154 L0.00421266968,71.4185249 L0.00585272484,71.3482321 C0.0954737991,66.0845686 1.21157285,61.070926 3.16258851,56.4988655 C-4.13997011,51.975726 -9.00452489,43.8896623 -9.00452489,34.6674208 C-9.00452489,20.4941948 2.48514498,9.00452489 16.658371,9.00452489 C30.1018122,9.00452489 41.1309371,19.3414418 42.2310828,32.5006128 C49.0235997,32.9428687 55.3495008,35.0966003 60.7815329,38.5350418 C66.9021434,34.6595934 74.1596841,32.4162896 81.9411765,32.4162896 C103.603834,32.4162896 121.205903,49.8017324 121.555778,71.3810114 L121.561086,72.0361991 C129.607363,72.0361991 137.093423,74.4347682 143.343267,78.5559052 C149.682226,65.1228037 163.350683,55.8280543 179.190045,55.8280543 C179.408526,55.8280543 179.626595,55.8298227 179.844236,55.8333461 C179.414579,53.4956746 179.190045,51.0862759 179.190045,48.6244344 C179.190045,26.7429626 196.928483,9.00452489 218.809955,9.00452489 Z" id="Combined-Shape" fill="url(#linearGradient-3)" mask="url(#mask-2)"></path>
                    <g id="Group" mask="url(#mask-2)" fill="url(#linearGradient-4)">
                        <g transform="translate(-5.402715, 88.244344)" id="Combined-Shape">
                            <path d="M48.1104352,1.37175662 L64.9698211,13.5571422 C65.8126852,14.1663355 66.311894,15.1430961 66.311894,16.1830654 L66.3110137,48.4530607 L84.8030137,48.4530607 L84.803329,16.5970451 C84.803329,15.2970835 85.42734,14.0761327 86.4809201,13.3146412 L102.530306,1.71469578 C103.946341,0.691234397 105.859089,0.691234397 107.275124,1.71469578 L123.32451,13.3146412 C124.37809,14.0761327 125.002101,15.2970835 125.002101,16.5970451 L125.002014,48.4530607 L143.493014,48.4530607 L143.493536,16.5970451 C143.493536,15.2970835 144.117547,14.0761327 145.171127,13.3146412 L161.220513,1.71469578 C162.636548,0.691234397 164.549296,0.691234397 165.965331,1.71469578 L182.014717,13.3146412 C183.068297,14.0761327 183.692308,15.2970835 183.692308,16.5970451 L183.692014,48.4530607 L210.404392,48.4533462 L210.404392,84.5254742 L183.692014,84.5250607 L183.692308,171.904566 L143.493536,171.904566 L143.493014,84.5250607 L125.002014,84.5250607 L125.002101,171.904566 L84.803329,171.904566 L84.8030137,84.5250607 L66.3110137,84.5250607 L66.311894,171.904566 L26.1131222,171.904566 L26.1130137,84.5250607 L0.205013736,84.5254742 L0.205013736,48.4533462 L26.1130137,48.4530607 L26.1131222,16.1830654 C26.1131222,15.1430961 26.6123309,14.1663355 27.455195,13.5571422 L44.3145809,1.37175662 C45.4474088,0.552987518 46.9776074,0.552987518 48.1104352,1.37175662 Z"></path>
                        </g>
                    </g>
                    <path d="M91.8145963,216.783686 C88.5321989,212.531459 83.6917983,208.991249 77.2933944,206.163059 C54.1390554,199.385313 13.4749312,199.990295 -1.79617058,160.378663 C-15.7919983,124.074957 35.8371404,89.1345626 50.2816774,104.43192 C60.5170744,115.271625 47.3976725,130.903969 29.1921168,129.147881 C8.70035896,127.171269 -3.41205744,108.845567 0.628386297,89.1345626 C8.64313633,50.0352003 70.2635096,24.1661225 72.8613375,22.3641037" id="Path-6" stroke="#5C738E" stroke-width="3" stroke-dasharray="7,7" mask="url(#mask-2)" transform="translate(43.818109, 119.573895) rotate(-94.000000) translate(-43.818109, -119.573895) "></path>
                </g>
                <g id="rocket" transform="translate(124.000000, 0.000000)">
                    <polygon id="Path-8-Copy" fill="#C4D5DF" transform="translate(36.386104, 68.142713) scale(-1, 1) rotate(-90.000000) translate(-36.386104, -68.142713) " points="17.5404134 87.2966316 17.5404134 67.9330455 55.231795 48.9887949"></polygon>
                    <polygon id="Path-8" fill="#D5DFE5" points="17.2628193 87.1137136 18.0026647 69.7914438 53.8191578 51.1128969"></polygon>
                    <polygon id="Triangle" fill="#FFFFFF" transform="translate(52.503259, 52.503259) rotate(45.000000) translate(-52.503259, -52.503259) " points="52.5032593 16.0032593 89.0032593 89.0032593 64.6825063 89.0032593 52.5032593 51.4297299 40.3298573 89.0032593 16.0032593 89.0032593"></polygon>
                </g>
            </g>
        </g>
    </g>
</svg>