<?xml version="1.0" encoding="UTF-8"?>
<svg width="225px" height="225px" viewBox="0 0 225 225" version="1.1" xmlns="http://www.w3.org/2000/svg" xmlns:xlink="http://www.w3.org/1999/xlink">
    <title>Artwork 2</title>
    <defs>
        <circle id="path-1" cx="112.5" cy="112.5" r="112.5"></circle>
        <path d="M9.99697139,10.0189912 C15.5181462,10.0189912 19.9939428,5.53333602 19.9939428,0 C12.3316445,0 4.09685763,0 0,0 C0,5.53333602 4.47579655,10.0189912 9.99697139,10.0189912 Z" id="path-3"></path>
    </defs>
    <g id="Empty-States" stroke="none" stroke-width="1" fill="none" fill-rule="evenodd">
        <g id="1.2_No-Messages" transform="translate(-76.000000, -109.000000)">
            <g id="Artwork" transform="translate(76.000000, 109.000000)">
                <mask id="mask-2" fill="white">
                    <use xlink:href="#path-1"></use>
                </mask>
                <use id="Oval-24" fill="#F5F9FB" xlink:href="#path-1"></use>
                <rect id="Rectangle-12" fill="#C8DBEF" mask="url(#mask-2)" x="26" y="61" width="171" height="242" rx="49"></rect>
                <rect id="Rectangle-10" fill="#EFD0BD" mask="url(#mask-2)" x="95" y="123" width="33" height="45"></rect>
                <g id="Group-3" mask="url(#mask-2)">
                    <g transform="translate(44.000000, 133.000000)">
                        <path d="M84.0681124,0.182138987 L97.0120114,2.8272724 C120.285889,7.58397739 137,28.0596221 137,51.8146139 L137,167 C137,194.614237 114.614237,217 87,217 L50,217 C22.3857625,217 1.04871961e-14,194.614237 0,167 L0,51.8146139 C1.84071346e-14,28.0596221 16.7141107,7.58397739 39.9879886,2.8272724 L51.1903631,0.538589207 C52.4889439,9.35374878 59.3435635,16.0784672 67.6045752,16.0784672 C75.9765842,16.0784672 82.904154,9.17182413 84.0681124,0.182138987 Z" id="Combined-Shape" fill="#6973BA"></path>
                        <rect id="Rectangle-2" fill="#FFDFCB" x="0" y="60" width="23" height="78"></rect>
                        <rect id="Rectangle-2-Copy" fill="#FFDFCB" x="114" y="60" width="23" height="78"></rect>
                    </g>
                </g>
                <rect id="Rectangle-7" fill="#262626" mask="url(#mask-2)" x="86" y="163" width="51" height="97" rx="10"></rect>
                <rect id="Rectangle-9" fill="#484848" mask="url(#mask-2)" x="94" y="171" width="17" height="7" rx="3.5"></rect>
                <path d="M142.150448,196.248894 C147.017557,196.552233 150.897579,200.43149 151.201877,205.298539 L154.581807,259.35833 C155.018873,266.348928 149.706186,272.37024 142.715588,272.807306 C142.452117,272.823779 142.188195,272.832022 141.924209,272.832022 C134.954869,272.832022 129.305102,267.182255 129.305102,260.212914 C129.305102,259.929267 129.314666,259.6457 129.333776,259.362698 L133.056555,204.233921 C133.374639,199.523566 137.438508,195.955226 142.150448,196.248894 Z" id="Rectangle-2-Copy-2" fill="#FFDFCB" mask="url(#mask-2)" transform="translate(141.956027, 234.532008) rotate(-38.000000) translate(-141.956027, -234.532008) "></path>
                <path d="M111.5,126.917182 C139.942665,126.917182 168.946988,108.048969 164,79 C159.053012,49.9510315 140.942665,40 112.5,40 C84.0573354,40 65.5410224,47.779667 61,79 C56.4589776,110.220333 83.0573354,126.917182 111.5,126.917182 Z" id="Oval-2" fill="#945E6E" mask="url(#mask-2)"></path>
                <ellipse id="Oval-2-Copy-2" fill="#945E6E" mask="url(#mask-2)" transform="translate(111.500000, 58.000000) rotate(34.000000) translate(-111.500000, -58.000000) " cx="111.5" cy="58" rx="45.5" ry="39"></ellipse>
                <path d="M111.5,41 C130.553824,41 145.085124,56.4461761 143.956568,75.5 L142.831199,94.5 C141.702643,113.553824 127.675187,131 111.5,131 C95.3248127,131 81.2973569,113.553824 80.1688005,94.5 L79.0434321,75.5 C77.9148757,56.4461761 92.4461761,41 111.5,41 Z" id="Rectangle-3" fill="#FFDFCB" mask="url(#mask-2)"></path>
                <rect id="Rectangle-8" fill="#FFDFCB" mask="url(#mask-2)" x="74" y="75" width="14" height="14" rx="7"></rect>
                <rect id="Rectangle-8-Copy" fill="#FFDFCB" mask="url(#mask-2)" x="135" y="75" width="14" height="14" rx="7"></rect>
                <g id="Group-7" mask="url(#mask-2)">
                    <g transform="translate(91.000000, 75.000000)">
                        <circle id="Oval" fill="#494A4B" cx="7.3578022" cy="9.55018638" r="4"></circle>
                        <rect id="Rectangle-11" fill="#525252" x="0" y="0" width="11" height="2" rx="1"></rect>
                        <circle id="Oval-Copy-2" fill="#494A4B" cx="33.4193407" cy="9.55018638" r="4"></circle>
                        <g id="Oval-2-Copy" stroke-width="1" fill="none" transform="translate(10.577143, 27.495425)">
                            <mask id="mask-4" fill="white">
                                <use xlink:href="#path-3"></use>
                            </mask>
                            <use id="Mask" fill="#372C28" xlink:href="#path-3"></use>
                            <path d="M9.99697139,15.9125154 C15.5181462,15.9125154 19.9939428,11.4268602 19.9939428,5.89352421 C12.3316445,5.89352421 4.09685763,5.89352421 0,5.89352421 C0,11.4268602 4.47579655,15.9125154 9.99697139,15.9125154 Z" fill="#D96B70" mask="url(#mask-4)" transform="translate(9.996971, 10.903020) scale(1, -1) translate(-9.996971, -10.903020) "></path>
                            <path d="M9.99697139,1.76805726 C13.5694963,1.76805726 16.4655999,-1.13442547 16.4655999,-4.71481937 C11.5076422,-4.71481937 6.17925072,-4.71481937 3.52834284,-4.71481937 C3.52834284,-1.13442547 6.42444649,1.76805726 9.99697139,1.76805726 Z" id="Oval-2-Copy-2" fill="#FFFFFF" mask="url(#mask-4)" transform="translate(9.996971, -1.473381) scale(1, -1) translate(-9.996971, 1.473381) "></path>
                        </g>
                        <path d="M20.5072527,5.8843104 C21.6415872,5.8843104 22.6001843,6.72516212 22.7479998,7.84982442 L24.3002466,19.6601799 C24.5755699,21.7549926 23.1005824,23.6763674 21.0057697,23.9516908 C20.8404856,23.9734142 20.6739583,23.9843108 20.5072527,23.9843108 C18.3944245,23.9843108 16.6816389,22.2715251 16.6816389,20.1586969 C16.6816389,19.9919914 16.6925354,19.825464 16.7142589,19.6601799 L18.2665057,7.84982442 C18.4143212,6.72516212 19.3729183,5.8843104 20.5072527,5.8843104 Z" id="Rectangle-4" fill="#CAA3A3" opacity="0.307914402"></path>
                    </g>
                </g>
                <path d="M80.3217219,52.8141535 C87.6046574,72.2022506 103.783395,80.5412418 128.857935,77.8311271 C124.189669,72.7007354 121.422427,70.0084749 117.962389,56.6400908 C127.664628,65.7054725 130.566704,69.3061613 147.199084,70.0084749 C147.086068,56.6400908 141.364281,38.3456907 117.962389,34.4289398 C102.361128,31.8177725 89.8142392,37.9461771 80.3217219,52.8141535 Z" id="Path-2" fill="#945E6E" mask="url(#mask-2)"></path>
            </g>
        </g>
    </g>
</svg>