<?xml version="1.0" encoding="UTF-8"?>
<svg width="554px" height="642px" viewBox="0 0 554 642" version="1.1" xmlns="http://www.w3.org/2000/svg" xmlns:xlink="http://www.w3.org/1999/xlink">
    <title>Artowork</title>
    <defs>
        <linearGradient x1="0%" y1="50%" x2="82.9410549%" y2="50%" id="linearGradient-1">
            <stop stop-color="#C9D0D8" offset="0%"></stop>
            <stop stop-color="#99A3B0" offset="100%"></stop>
        </linearGradient>
        <path d="M38,0 C58.9868205,-3.85521638e-15 76,17.0131795 76,38 L76,131 L76,131 L0,112 L0,38 C-2.57014425e-15,17.0131795 17.0131795,3.85521638e-15 38,0 Z" id="path-2"></path>
        <path d="M8.1,0 L17.2461538,0 L17.2461538,0 L17.2461538,9.11875 C17.2461538,13.5922565 13.6196603,17.21875 9.14615385,17.21875 L0,17.21875 L0,17.21875 L0,8.1 C-5.47846538e-16,3.62649353 3.62649353,-2.73094387e-15 8.1,0 Z" id="path-4"></path>
        <linearGradient x1="50%" y1="35.6730229%" x2="50%" y2="100%" id="linearGradient-6">
            <stop stop-color="#FFFFFF" offset="0%"></stop>
            <stop stop-color="#FFFFFF" stop-opacity="0.158486187" offset="100%"></stop>
        </linearGradient>
    </defs>
    <g id="Empty-States" stroke="none" stroke-width="1" fill="none" fill-rule="evenodd" opacity="0.900000036">
        <g id="1.3_No-Messages" transform="translate(138.000000, -132.000000)">
            <g id="Artowork" transform="translate(-138.000000, 132.000000)">
                <rect id="pole-2" fill="#C4CDD7" x="363" y="316" width="19" height="326"></rect>
                <rect id="pole-1" fill="#DEE3EB" x="351" y="316" width="13" height="326"></rect>
                <path d="M293,205 L392,205 C422.375661,205 447,229.624339 447,260 L447,310.805178 C447,313.231347 445.258265,315.3074 442.869023,315.729079 L331.424268,335.398043 L331.424268,335.398043 L255,317 L255,243 C255,222.01318 272.01318,205 293,205 Z" id="outside" fill="#B6BFC9"></path>
                <g id="inside" transform="translate(255.000000, 205.000000)">
                    <mask id="mask-3" fill="white">
                        <use xlink:href="#path-2"></use>
                    </mask>
                    <use id="Mask" fill="url(#linearGradient-1)" xlink:href="#path-2"></use>
                    <polygon id="Path-4" fill="#8996A3" mask="url(#mask-3)" points="-5.18947873 112.141673 95.6673779 100.861768 164.683573 111.141673 76.0570505 130.989096"></polygon>
                </g>
                <path d="M254.525348,316.298971 L224.47079,361.487397 C215.506445,374.965707 219.165737,393.159074 232.644047,402.123419 C235.072412,403.73851 237.728235,404.98212 240.523744,405.813148 C263.041782,412.507144 287.272997,403.505639 299.959391,383.733764 L330.725108,335.785081 L330.725108,335.785081 L254.525348,316.298971 Z" id="lid" fill="#CCD3D8"></path>
                <path d="M286.763189,277.082179 C263.60885,270.304433 222.944726,270.909415 207.673624,231.297783 C193.677796,194.994077 245.306935,160.053683 259.751472,175.35104 C269.986869,186.190746 256.867467,201.82309 238.661912,200.067002 C218.170154,198.090389 206.057737,179.764687 210.098181,160.053683 C218.112931,120.954321 279.733304,95.0852428 282.331132,93.2832241" id="path" stroke="#5C738E" stroke-width="3" opacity="0.300000012" stroke-dasharray="6,7"></path>
                <circle id="joint" fill="#9DACB9" cx="373" cy="277" r="16"></circle>
                <path d="M411.43934,240.246952 L422.753048,251.56066 C425.291456,254.099068 425.291456,258.21464 422.753048,260.753048 C420.21464,263.291456 416.099068,263.291456 413.56066,260.753048 L406.248281,253.440146 L377.727922,281.961941 C375.384776,284.305087 371.585786,284.305087 369.242641,281.961941 C366.899495,279.618795 366.899495,275.819805 369.242641,273.476659 L401.346471,241.371129 C401.598972,240.972201 401.899133,240.594771 402.246952,240.246952 C404.78536,237.708544 408.900932,237.708544 411.43934,240.246952 Z" id="handle" fill="#FFFFFF"></path>
                <g id="bee" transform="translate(263.000000, 54.000000)">
                    <path d="M16.3668023,30.4814208 C23.0232126,23.2768132 26.3514177,17.8393132 26.3514177,14.1689208 C26.3514177,8.66333217 21.8811532,4.20017077 16.3668023,4.20017077 C10.8524515,4.20017077 6.38218696,8.66333217 6.38218696,14.1689208 C6.38218696,17.8393132 9.71039209,23.2768132 16.3668023,30.4814208 Z" id="Oval" fill="#CED8E5" opacity="0.400000006" transform="translate(16.366802, 17.340796) rotate(-45.000000) translate(-16.366802, -17.340796) "></path>
                    <path d="M41.782187,54.9501708 C48.4385972,47.7455632 51.7668023,42.3080632 51.7668023,38.6376708 C51.7668023,33.1320822 47.2965378,28.6689208 41.782187,28.6689208 C36.2678361,28.6689208 31.7975716,33.1320822 31.7975716,38.6376708 C31.7975716,42.3080632 35.1257767,47.7455632 41.782187,54.9501708 Z" id="Oval-Copy" fill="#CED8E5" opacity="0.400000006" transform="translate(41.782187, 41.809546) scale(-1, -1) rotate(-45.000000) translate(-41.782187, -41.809546) "></path>
                    <g id="Rectangle-4" transform="translate(20.876923, 20.031250)">
                        <mask id="mask-5" fill="white">
                            <use xlink:href="#path-4"></use>
                        </mask>
                        <use id="Mask" fill="#A8B7C5" xlink:href="#path-4"></use>
                        <rect fill="#DDE5F2" mask="url(#mask-5)" transform="translate(4.992308, 10.875000) rotate(-45.000000) translate(-4.992308, -10.875000) " x="3.63076923" y="0.90625" width="2.72307692" height="19.9375"></rect>
                        <polygon id="Rectangle-4-Copy" fill="#DDE5F2" mask="url(#mask-5)" points="2.42673773 0.257532354 4.35224389 -1.6679738 18.4501853 12.4299676 16.5246792 14.3554738"></polygon>
                    </g>
                    <line x1="47.3832451" y1="15.7171522" x2="54.0076923" y2="14.140625" id="Path-7-Copy" stroke="#8696C5" stroke-width="0.9"></line>
                    <line x1="44.6601682" y1="12.9984022" x2="47.2089224" y2="6.44121675" id="Path-7" stroke="#8696C5" stroke-width="0.9"></line>
                    <ellipse id="Oval-4" fill="#8B9AA8" cx="40.8461538" cy="18.21875" rx="7.26153846" ry="7.25"></ellipse>
                </g>
                <path d="M488.5,0 C511.419817,0 530,18.1324676 530,40.5 C530,41.5800226 529.956681,42.6501712 529.871646,43.7088815 C544.114872,50.123375 554,64.1851066 554,80.5 C554,102.867532 535.419817,121 512.5,121 C499.939453,121 488.682216,115.554325 481.072081,106.950288 C473.811447,116.423883 460.597161,121 445.5,121 C426.214962,121 410.002283,113.532976 405.345064,97.9281386 C404.569816,97.9757455 403.787864,98 403,98 C383.117749,98 367,82.5538239 367,63.5 C367,44.4461761 383.117749,29 403,29 L403.144289,29.0002712 L403.144289,29.0002712 C404.702106,12.7342249 418.817462,0 436,0 C445.733657,0 454.483037,4.08648511 460.523139,10.586726 C467.900613,4.01092695 477.72034,0 488.5,0 Z" id="cloud" fill="url(#linearGradient-6)"></path>
                <path d="M121.5,61 C144.419817,61 163,79.1324676 163,101.5 C163,102.580023 162.956681,103.650171 162.871646,104.708881 C177.114872,111.123375 187,125.185107 187,141.5 C187,163.867532 168.419817,182 145.5,182 C132.939453,182 121.682216,176.554325 114.072081,167.950288 C106.811447,177.423883 93.5971607,182 78.5,182 C59.2149625,182 43.0022828,174.532976 38.3450642,158.928139 C37.5698162,158.975746 36.7878637,159 36,159 C16.117749,159 0,143.553824 0,124.5 C0,105.446176 16.117749,90 36,90 L36.1442888,90.0002712 L36.1442888,90.0002712 C37.7021062,73.7342249 51.8174619,61 69,61 C78.7336566,61 87.4830368,65.0864851 93.5231386,71.586726 C100.900613,65.0109269 110.72034,61 121.5,61 Z" id="cloud" fill="url(#linearGradient-6)"></path>
            </g>
        </g>
    </g>
</svg>