<?xml version="1.0" encoding="UTF-8"?>
<svg width="257px" height="339px" viewBox="0 0 257 339" version="1.1" xmlns="http://www.w3.org/2000/svg" xmlns:xlink="http://www.w3.org/1999/xlink">
    <title>Artwork 2</title>
    <defs>
        <path d="M13.5,0 L156.021368,0 C163.477212,-1.36961635e-15 169.521368,6.04415588 169.521368,13.5 L169.521368,63.3042387 C169.521368,70.7600828 163.477212,76.8042387 156.021368,76.8042387 L13.5,76.8042387 C6.04415588,76.8042387 9.13077564e-16,70.7600828 0,63.3042387 L0,13.5 C8.63279275e-16,6.04415588 6.04415588,1.36961635e-15 13.5,0 Z" id="path-1"></path>
        <filter x="-23.9%" y="-37.1%" width="147.8%" height="205.5%" filterUnits="objectBoundingBox" id="filter-2">
            <feOffset dx="0" dy="12" in="SourceAlpha" result="shadowOffsetOuter1"></feOffset>
            <feGaussianBlur stdDeviation="11.5" in="shadowOffsetOuter1" result="shadowBlurOuter1"></feGaussianBlur>
            <feColorMatrix values="0 0 0 0 0.226735433   0 0 0 0 0.437054197   0 0 0 0 0.687818878  0 0 0 0.0769927536 0" type="matrix" in="shadowBlurOuter1"></feColorMatrix>
        </filter>
        <path d="M13.5,0 L156.021368,0 C163.477212,-1.36961635e-15 169.521368,6.04415588 169.521368,13.5 L169.521368,63.3042387 C169.521368,70.7600828 163.477212,76.8042387 156.021368,76.8042387 L13.5,76.8042387 C6.04415588,76.8042387 2.44778065e-15,70.7600828 0,63.3042387 L0,13.5 C8.63279275e-16,6.04415588 6.04415588,1.36961635e-15 13.5,0 Z" id="path-3"></path>
        <filter x="-23.9%" y="-37.1%" width="147.8%" height="205.5%" filterUnits="objectBoundingBox" id="filter-4">
            <feOffset dx="0" dy="12" in="SourceAlpha" result="shadowOffsetOuter1"></feOffset>
            <feGaussianBlur stdDeviation="11.5" in="shadowOffsetOuter1" result="shadowBlurOuter1"></feGaussianBlur>
            <feColorMatrix values="0 0 0 0 0.226735433   0 0 0 0 0.437054197   0 0 0 0 0.687818878  0 0 0 0.0769927536 0" type="matrix" in="shadowBlurOuter1"></feColorMatrix>
        </filter>
        <path d="M13.5,0 L156.021368,0 C163.477212,-3.14597319e-15 169.521368,6.04415588 169.521368,13.5 L169.521368,63.3042387 C169.521368,70.7600828 163.477212,76.8042387 156.021368,76.8042387 L13.5,76.8042387 C6.04415588,76.8042387 -8.63279275e-16,70.7600828 0,63.3042387 L0,13.5 C8.63279275e-16,6.04415588 6.04415588,-4.06740493e-16 13.5,0 Z" id="path-5"></path>
        <filter x="-23.9%" y="-37.1%" width="147.8%" height="205.5%" filterUnits="objectBoundingBox" id="filter-6">
            <feOffset dx="0" dy="12" in="SourceAlpha" result="shadowOffsetOuter1"></feOffset>
            <feGaussianBlur stdDeviation="11.5" in="shadowOffsetOuter1" result="shadowBlurOuter1"></feGaussianBlur>
            <feColorMatrix values="0 0 0 0 0.226735433   0 0 0 0 0.437054197   0 0 0 0 0.687818878  0 0 0 0.0769927536 0" type="matrix" in="shadowBlurOuter1"></feColorMatrix>
        </filter>
        <ellipse id="path-7" cx="20.7393162" cy="20.6717791" rx="20.7393162" ry="20.6717791"></ellipse>
        <filter x="-97.6%" y="-68.9%" width="295.3%" height="295.9%" filterUnits="objectBoundingBox" id="filter-8">
            <feOffset dx="0" dy="12" in="SourceAlpha" result="shadowOffsetOuter1"></feOffset>
            <feGaussianBlur stdDeviation="11.5" in="shadowOffsetOuter1" result="shadowBlurOuter1"></feGaussianBlur>
            <feColorMatrix values="0 0 0 0 1   0 0 0 0 0.386284722   0 0 0 0 0.386284722  0 0 0 0.328662817 0" type="matrix" in="shadowBlurOuter1"></feColorMatrix>
        </filter>
        <ellipse id="path-9" cx="20.7393162" cy="20.6717791" rx="20.7393162" ry="20.6717791"></ellipse>
        <filter x="-97.6%" y="-68.9%" width="295.3%" height="295.9%" filterUnits="objectBoundingBox" id="filter-10">
            <feOffset dx="0" dy="12" in="SourceAlpha" result="shadowOffsetOuter1"></feOffset>
            <feGaussianBlur stdDeviation="11.5" in="shadowOffsetOuter1" result="shadowBlurOuter1"></feGaussianBlur>
            <feColorMatrix values="0 0 0 0 0.917647059   0 0 0 0 0.388235294   0 0 0 0 1  0 0 0 0.331012228 0" type="matrix" in="shadowBlurOuter1"></feColorMatrix>
        </filter>
        <ellipse id="path-11" cx="20.7393162" cy="20.6717791" rx="20.7393162" ry="20.6717791"></ellipse>
        <filter x="-97.6%" y="-68.9%" width="295.3%" height="295.9%" filterUnits="objectBoundingBox" id="filter-12">
            <feOffset dx="0" dy="12" in="SourceAlpha" result="shadowOffsetOuter1"></feOffset>
            <feGaussianBlur stdDeviation="11.5" in="shadowOffsetOuter1" result="shadowBlurOuter1"></feGaussianBlur>
            <feColorMatrix values="0 0 0 0 0.388235294   0 0 0 0 0.70326087   0 0 0 0 1  0 0 0 0.330276268 0" type="matrix" in="shadowBlurOuter1"></feColorMatrix>
        </filter>
        <ellipse id="path-13" cx="20.7393162" cy="20.6717791" rx="20.7393162" ry="20.6717791"></ellipse>
        <filter x="-97.6%" y="-68.9%" width="295.3%" height="295.9%" filterUnits="objectBoundingBox" id="filter-14">
            <feOffset dx="0" dy="12" in="SourceAlpha" result="shadowOffsetOuter1"></feOffset>
            <feGaussianBlur stdDeviation="11.5" in="shadowOffsetOuter1" result="shadowBlurOuter1"></feGaussianBlur>
            <feColorMatrix values="0 0 0 0 0.458823529   0 0 0 0 1   0 0 0 0 0.388235294  0 0 0 0.331012228 0" type="matrix" in="shadowBlurOuter1"></feColorMatrix>
        </filter>
    </defs>
    <g id="Empty-States" stroke="none" stroke-width="1" fill="none" fill-rule="evenodd">
        <g id="2.3_No-Notifications" transform="translate(-59.000000, -195.000000)">
            <g id="Artwork" transform="translate(82.000000, 206.000000)">
                <g id="list" transform="translate(20.739316, 20.671779)">
                    <g id="Group-2">
                        <g id="Rectangle-18">
                            <use fill="black" fill-opacity="1" filter="url(#filter-2)" xlink:href="#path-1"></use>
                            <use fill="#FFFFFF" fill-rule="evenodd" xlink:href="#path-1"></use>
                        </g>
                        <path d="M17.9687849,18.2867235 L127.335244,18.2867235 C129.153151,18.2867235 130.626855,19.7604276 130.626855,21.5783337 C130.626855,23.3962399 129.153151,24.869944 127.335244,24.869944 L17.9687849,24.869944 C16.1508788,24.869944 14.6771747,23.3962399 14.6771747,21.5783337 C14.6771747,19.7604276 16.1508788,18.2867235 17.9687849,18.2867235 Z" id="Rectangle" fill="#1B3554" opacity="0.300000012"></path>
                        <rect id="Rectangle-Copy" fill="#1B3554" opacity="0.300000012" x="14.6771747" y="31.4531644" width="82.9260369" height="6.58322046" rx="3.29161023"></rect>
                        <path d="M17.9687849,51.9342947 L38.5383376,51.9342947 C40.3562437,51.9342947 41.8299478,53.4079988 41.8299478,55.225905 C41.8299478,57.0438111 40.3562437,58.5175152 38.5383376,58.5175152 L17.9687849,58.5175152 C16.1508788,58.5175152 14.6771747,57.0438111 14.6771747,55.225905 C14.6771747,53.4079988 16.1508788,51.9342947 17.9687849,51.9342947 Z" id="Rectangle-Copy-2" fill="#1B3554" opacity="0.149999991"></path>
                        <ellipse id="Oval-8" fill="#1B3554" opacity="0.300000012" cx="139.433159" cy="46.8140122" rx="15.4110334" ry="15.3608477"></ellipse>
                    </g>
                    <g id="Group-2-Copy" transform="translate(0.000000, 87.776273)">
                        <g id="Rectangle-18">
                            <use fill="black" fill-opacity="1" filter="url(#filter-4)" xlink:href="#path-3"></use>
                            <use fill="#FFFFFF" fill-rule="evenodd" xlink:href="#path-3"></use>
                        </g>
                        <path d="M17.9687849,18.2867235 L127.335244,18.2867235 C129.153151,18.2867235 130.626855,19.7604276 130.626855,21.5783337 C130.626855,23.3962399 129.153151,24.869944 127.335244,24.869944 L17.9687849,24.869944 C16.1508788,24.869944 14.6771747,23.3962399 14.6771747,21.5783337 C14.6771747,19.7604276 16.1508788,18.2867235 17.9687849,18.2867235 Z" id="Rectangle" fill="#1B3554" opacity="0.300000012"></path>
                        <rect id="Rectangle-Copy" fill="#1B3554" opacity="0.300000012" x="14.6771747" y="31.4531644" width="82.9260369" height="6.58322046" rx="3.29161023"></rect>
                        <path d="M17.9687849,51.9342947 L38.5383376,51.9342947 C40.3562437,51.9342947 41.8299478,53.4079988 41.8299478,55.225905 C41.8299478,57.0438111 40.3562437,58.5175152 38.5383376,58.5175152 L17.9687849,58.5175152 C16.1508788,58.5175152 14.6771747,57.0438111 14.6771747,55.225905 C14.6771747,53.4079988 16.1508788,51.9342947 17.9687849,51.9342947 Z" id="Rectangle-Copy-2" fill="#1B3554" opacity="0.149999991"></path>
                        <ellipse id="Oval-8" fill="#1B3554" opacity="0.300000012" cx="139.433159" cy="46.8140122" rx="15.4110334" ry="15.3608477"></ellipse>
                    </g>
                    <g id="Group-2-Copy-2" transform="translate(0.000000, 175.552546)">
                        <g id="Rectangle-18">
                            <use fill="black" fill-opacity="1" filter="url(#filter-6)" xlink:href="#path-5"></use>
                            <use fill="#FFFFFF" fill-rule="evenodd" xlink:href="#path-5"></use>
                        </g>
                        <path d="M17.9687849,18.2867235 L127.335244,18.2867235 C129.153151,18.2867235 130.626855,19.7604276 130.626855,21.5783337 C130.626855,23.3962399 129.153151,24.869944 127.335244,24.869944 L17.9687849,24.869944 C16.1508788,24.869944 14.6771747,23.3962399 14.6771747,21.5783337 C14.6771747,19.7604276 16.1508788,18.2867235 17.9687849,18.2867235 Z" id="Rectangle" fill="#1B3554" opacity="0.300000012"></path>
                        <rect id="Rectangle-Copy" fill="#1B3554" opacity="0.300000012" x="14.6771747" y="31.4531644" width="82.9260369" height="6.58322046" rx="3.29161023"></rect>
                        <path d="M17.9687849,51.9342947 L38.5383376,51.9342947 C40.3562437,51.9342947 41.8299478,53.4079988 41.8299478,55.225905 C41.8299478,57.0438111 40.3562437,58.5175152 38.5383376,58.5175152 L17.9687849,58.5175152 C16.1508788,58.5175152 14.6771747,57.0438111 14.6771747,55.225905 C14.6771747,53.4079988 16.1508788,51.9342947 17.9687849,51.9342947 Z" id="Rectangle-Copy-2" fill="#1B3554" opacity="0.149999991"></path>
                        <ellipse id="Oval-8" fill="#1B3554" opacity="0.300000012" cx="139.433159" cy="46.8140122" rx="15.4110334" ry="15.3608477"></ellipse>
                    </g>
                </g>
                <g id="heart" transform="translate(169.521368, 0.000000)">
                    <g id="Oval-9">
                        <use fill="black" fill-opacity="1" filter="url(#filter-8)" xlink:href="#path-7"></use>
                        <use fill="#FF6363" fill-rule="evenodd" xlink:href="#path-7"></use>
                    </g>
                    <path d="M20.7388267,30.4750718 C1.38839777,19.9537348 15.3832172,6.87317653 20.7388267,15.6826885 C26.0952906,6.87317653 40.0909645,19.9537348 20.7388267,30.4750718 Z" id="Shape" fill="#FFFFFF" fill-rule="nonzero"></path>
                </g>
                <g id="messages" transform="translate(0.000000, 251.656442)">
                    <g id="Oval-9">
                        <use fill="black" fill-opacity="1" filter="url(#filter-10)" xlink:href="#path-9"></use>
                        <use fill="#EA63FF" fill-rule="evenodd" xlink:href="#path-9"></use>
                    </g>
                    <path d="M27.9529915,13.4815951 L13.525641,13.4815951 C12.5337607,13.4815951 11.7222222,14.2904908 11.7222222,15.2791411 L11.7222222,26.0644172 C11.7222222,27.0530675 12.5337607,27.8619632 13.525641,27.8619632 L27.9529915,27.8619632 C28.9448718,27.8619632 29.7564103,27.0530675 29.7564103,26.0644172 L29.7564103,15.2791411 C29.7564103,14.2904908 28.9448718,13.4815951 27.9529915,13.4815951 Z M27.9529915,17.0766871 L20.7393162,21.5705521 L13.525641,17.0766871 L13.525641,15.2791411 L20.7393162,19.7730061 L27.9529915,15.2791411 L27.9529915,17.0766871 Z" id="Shape" fill="#FFFFFF" fill-rule="nonzero"></path>
                </g>
                <g id="music" transform="translate(0.000000, 81.788344)">
                    <g id="Oval-9">
                        <use fill="black" fill-opacity="1" filter="url(#filter-12)" xlink:href="#path-11"></use>
                        <use fill="#63CAFF" fill-rule="evenodd" xlink:href="#path-11"></use>
                    </g>
                    <path d="M26.9475586,10.1864222 C26.4986716,9.87441419 25.9241551,9.80079606 25.4106709,9.98932182 L16.9681931,13.08924 C16.3127267,13.3299087 15.8723261,13.959448 15.8723261,14.655653 L15.8723261,24.1279814 C15.3906173,23.7871595 14.7725064,23.6527466 14.0947196,23.749269 C13.3300152,23.8581512 12.5735647,24.252352 11.9647539,24.8592188 C11.3559045,25.4660855 10.9604158,26.2200727 10.8511778,26.9822482 C10.7350423,27.7926657 10.9511157,28.5182253 11.4596786,29.0250935 C11.8783788,29.4424302 12.4456877,29.6620873 13.0869327,29.6620873 C13.2244973,29.6620873 13.3655883,29.6519677 13.5091592,29.6315354 C14.2738637,29.5226531 15.0303142,29.1284524 15.6391637,28.5215856 C16.2479744,27.9147188 16.6435018,27.1607317 16.7527398,26.3985175 C16.7700225,26.2777003 16.7790902,26.1590461 16.7818027,26.0423618 C16.7821127,26.0353321 16.782849,17.82861 16.782849,17.82861 L26.754038,14.1673632 L26.754038,20.1323244 C26.272368,19.7915799 25.6542572,19.6571283 24.9764316,19.7536121 C24.2117272,19.8624557 23.4552767,20.2566951 22.8464272,20.8635618 C22.2375777,21.4704286 21.842089,22.2244158 21.7328511,22.98663 C21.6166768,23.7970474 21.8327889,24.522607 22.3413131,25.0294752 C22.7600133,25.4468119 23.3273222,25.6665462 23.9686059,25.6665462 C24.1061705,25.6665462 24.2472615,25.6564266 24.3908325,25.6359557 C25.1555369,25.5270735 25.9119874,25.1328727 26.5208369,24.5260059 C27.1296476,23.9191392 27.5251751,23.165152 27.634413,22.4029378 C27.651657,22.2822365 27.6644447,11.5556963 27.6644447,11.5556963 C27.6644447,11.0102809 27.3964068,10.4984302 26.9475586,10.1864222 Z" id="Shape" fill="#FFFFFF" fill-rule="nonzero"></path>
                </g>
                <g id="people" transform="translate(169.521368, 169.868098)">
                    <g id="Oval-9">
                        <use fill="black" fill-opacity="1" filter="url(#filter-14)" xlink:href="#path-13"></use>
                        <use fill="#75FF63" fill-rule="evenodd" xlink:href="#path-13"></use>
                    </g>
                    <path d="M27.7664729,22.9430684 L23.7600427,21.517165 L23.7600427,19.548223 C24.9875848,18.5449676 25.7945246,16.8757215 25.7945246,14.986186 L25.786815,14.8043193 C25.5204049,14.9016564 25.2231564,14.9870399 24.9379006,14.9870399 C23.520188,14.9870399 22.5402103,14.7599199 21.716138,13.6601813 C20.9845812,14.4277784 19.6919357,14.9870399 18.5132212,14.9870399 C17.9572722,14.9870399 17.0381147,14.6318448 16.4059263,14.3483718 C16.3853673,14.558415 16.3716613,14.7718736 16.3716613,14.9870399 C16.3716613,16.9833046 17.2736863,18.7311035 18.6202991,19.7095977 L18.6202991,21.517165 L14.6130124,22.9430684 C13.4231618,23.3665702 12.6239316,24.4979008 12.6239316,25.7581603 L12.6239316,27.7945552 L29.7564103,27.7945552 L29.7564103,25.7581603 C29.7564103,24.4979008 28.9563235,23.3665702 27.7664729,22.9430684 L27.7664729,22.9430684 Z M21.3589259,12.7158405 L21.7212778,12.022527 L22.110185,12.7004715 C22.8134733,13.9265776 23.5510265,14.1332055 24.9379006,14.1332055 C25.1597662,14.1332055 25.4630111,14.0230609 25.7054357,13.9223084 C25.2822635,11.3701975 23.3711355,9.43711656 21.0830929,9.43711656 C18.9295404,9.43711656 17.1134976,11.1499083 16.5532656,13.4774607 C17.212866,13.7882564 18.1294536,14.1332055 18.5132212,14.1332055 C19.6336853,14.1332055 20.9640222,13.4714839 21.3589259,12.7158405 L21.3589259,12.7158405 Z" id="Shape" fill="#FFFFFF" fill-rule="nonzero"></path>
                </g>
            </g>
        </g>
    </g>
</svg>