<?xml version="1.0" encoding="UTF-8"?>
<svg width="186px" height="219px" viewBox="0 0 186 219" version="1.1" xmlns="http://www.w3.org/2000/svg" xmlns:xlink="http://www.w3.org/1999/xlink">
    <title>Artwork 4</title>
    <defs>
        <path d="M85,1 C94.2169375,1 101.688742,8.47180418 101.688742,17.6887417 L101.688654,18.1534683 C121.134295,25.0264751 135.066225,43.5716796 135.066225,65.3708609 L135.066,101.662 L135.34654,101.662672 C135.388524,107.107458 137.191997,109.885409 140.756957,109.996528 L140.98206,110 L140.98206,110 C147.619389,110 153.000007,115.380618 153,122.017947 L153,127.639073 C153,134.067155 147.78901,139.278146 141.360927,139.278146 L28.6390728,139.278146 C22.2109904,139.278146 17,134.067155 17,127.639073 L17,122.16256 C17.0000174,115.547139 22.2816204,110.165303 28.858141,110.003736 L29.1625777,110 L29.1625777,110 C31.748267,110 33.6718703,108.300667 34.9333877,104.902 L34.9337748,65.3708609 C34.9337748,43.5716796 48.8657055,25.0264751 68.3113458,18.1534683 L68.3112583,17.6887417 C68.3112583,8.47180418 75.7830625,1 85,1 Z M84.5,169.5 C95.8218374,169.5 105,160.321837 105,149 C98.411917,149 72.3657096,149 64,149 C64,160.321837 73.1781626,169.5 84.5,169.5 Z" id="path-1"></path>
        <filter x="-32.4%" y="-18.4%" width="164.7%" height="152.2%" filterUnits="objectBoundingBox" id="filter-2">
            <feOffset dx="0" dy="13" in="SourceAlpha" result="shadowOffsetOuter1"></feOffset>
            <feGaussianBlur stdDeviation="12.5" in="shadowOffsetOuter1" result="shadowBlurOuter1"></feGaussianBlur>
            <feColorMatrix values="0 0 0 0 0.226735433   0 0 0 0 0.437054197   0 0 0 0 0.687818878  0 0 0 0.0769927536 0" type="matrix" in="shadowBlurOuter1"></feColorMatrix>
        </filter>
        <circle id="path-3" cx="17.6" cy="17.6" r="17.6"></circle>
        <filter x="-36.9%" y="-31.2%" width="173.9%" height="173.9%" filterUnits="objectBoundingBox" id="filter-4">
            <feOffset dx="0" dy="2" in="SourceAlpha" result="shadowOffsetOuter1"></feOffset>
            <feGaussianBlur stdDeviation="4" in="shadowOffsetOuter1" result="shadowBlurOuter1"></feGaussianBlur>
            <feColorMatrix values="0 0 0 0 0.250980392   0 0 0 0 1   0 0 0 0 0.835134271  0 0 0 0.405315897 0" type="matrix" in="shadowBlurOuter1"></feColorMatrix>
        </filter>
    </defs>
    <g id="Empty-States" stroke="none" stroke-width="1" fill="none" fill-rule="evenodd">
        <g id="2.1_No-Notifications" transform="translate(-95.000000, -150.000000)">
            <g id="Artwork" transform="translate(103.000000, 161.000000)">
                <g id="bell">
                    <use fill="black" fill-opacity="1" filter="url(#filter-2)" xlink:href="#path-1"></use>
                    <use fill="#FFFFFF" fill-rule="evenodd" xlink:href="#path-1"></use>
                </g>
                <g id="indicator" transform="translate(121.000000, 124.000000)">
                    <g id="Oval-2">
                        <use fill="black" fill-opacity="1" filter="url(#filter-4)" xlink:href="#path-3"></use>
                        <use fill="#6AF7B3" fill-rule="evenodd" xlink:href="#path-3"></use>
                    </g>
                    <text id="0" font-family="SFCompactText-Semibold, SF Compact Text" font-size="17.6" font-weight="500" letter-spacing="-0.16761905" fill="#FFFFFF">
                        <tspan x="12.5580283" y="23.4">0</tspan>
                    </text>
                </g>
                <g id="face" transform="translate(62.000000, 69.000000)" fill="#1B3554" opacity="0.200000003">
                    <path d="M10.0970886,21.5328507 C14.3555357,19.9706876 18.5399595,19.1896061 22.6503598,19.1896061 C26.7347835,19.1896061 30.8192072,19.9608464 34.9036308,21.503327 C36.165169,21.979733 37,23.1873854 37,24.5358813 C37,25.338576 36.3492874,25.9892887 35.5465927,25.9892887 C35.3692149,25.9892887 35.1933354,25.9568194 35.0276415,25.8935077 C30.9157891,24.3217568 26.7656642,23.5358813 22.5772668,23.5358813 C18.3779027,23.5358813 14.1785386,24.3258776 9.97917448,25.90587 C9.22255497,26.1905166 8.37842954,25.8079345 8.09375825,25.0513243 C8.0317614,24.8865467 8,24.711936 8,24.5358813 C8,23.194112 8.83740263,21.9949506 10.0970886,21.5328507 Z" id="Rectangle-3" transform="translate(22.500000, 22.594803) scale(1, -1) translate(-22.500000, -22.594803) "></path>
                    <path d="M6.06221785,0.000133034543 C6.06221785,0.000133034543 6.06221785,0.000133034543 6.06221785,0.000133034543 C6.06221785,0.000133034543 6.06221785,0.000133034543 6.06221785,0.000133034543 C9.34157768,0.000133034543 12.0000241,2.65857944 12,5.93793927 L12,6.2951276 C12,7.0966338 11.3502508,7.74638296 10.5487446,7.74638296 C10.2657065,7.74638296 9.98884566,7.66361795 9.75222274,7.50831119 C8.52035503,6.69952213 7.2802716,6.2951276 6.03197245,6.2951276 C4.77634915,6.2951276 3.52072584,6.70428146 2.26510254,7.52258919 C1.58719623,7.96441915 0.679476318,7.77301449 0.237666495,7.09509505 C0.0825721772,6.85711607 3.47869205e-17,6.57918436 0,6.2951276 L0,6.06232475 C2.61361816e-05,2.71426871 2.71416182,0.000133034543 6.06221785,0.000133034543 Z" id="Rectangle-3-Copy"></path>
                    <path d="M40.0622179,0.000133034543 C40.0622179,0.000133034543 40.0622179,0.000133034543 40.0622179,0.000133034543 C40.0622179,0.000133034543 40.0622179,0.000133034543 40.0622179,0.000133034543 C43.3415777,0.000133034543 46.0000241,2.65857944 46,5.93793927 L46,6.2951276 C46,7.0966338 45.3502508,7.74638296 44.5487446,7.74638296 C44.2657065,7.74638296 43.9888457,7.66361795 43.7522227,7.50831119 C42.520355,6.69952213 41.2802716,6.2951276 40.0319724,6.2951276 C38.7763491,6.2951276 37.5207258,6.70428146 36.2651025,7.52258919 C35.5871962,7.96441915 34.6794763,7.77301449 34.2376665,7.09509505 C34.0825722,6.85711607 34,6.57918436 34,6.2951276 L34,6.06232475 C34.0000261,2.71426871 36.7141618,0.000133034543 40.0622179,0.000133034543 Z" id="Rectangle-3-Copy-2"></path>
                </g>
                <path d="M16.5532105,38.4444247 C14.6123323,27.6754271 23.2010417,14.9397184 33.2571291,12.2919538" id="line" stroke="#1B3554" stroke-width="3" opacity="0.100000001" stroke-linecap="round" stroke-linejoin="round"></path>
                <path d="M0.634448522,34.1458105 C-1.87797997,20.205556 9.23993454,3.71943275 22.2573409,0.291953792" id="line" stroke="#1B3554" stroke-width="3" opacity="0.100000001" stroke-linecap="round" stroke-linejoin="round"></path>
            </g>
        </g>
    </g>
</svg>