<?xml version="1.0" encoding="UTF-8"?>
<svg width="178px" height="245px" viewBox="0 0 178 245" version="1.1" xmlns="http://www.w3.org/2000/svg" xmlns:xlink="http://www.w3.org/1999/xlink">
    <title>Artwork</title>
    <defs>
        <filter x="-21.5%" y="-222.4%" width="143.1%" height="544.9%" filterUnits="objectBoundingBox" id="filter-1">
            <feGaussianBlur stdDeviation="8.89787946" in="SourceGraphic"></feGaussianBlur>
        </filter>
        <path d="M0,46.7567932 C18.0766913,34.4081589 27.5531835,19.0230967 28.4294764,0.601606688 C33.1760673,-0.106830418 42.3448495,0.777112898 65.3494559,4.77947391 C67.4917868,5.15219846 67.6812148,8.55267466 65.9177399,14.9809025 C73.6737772,17.8268059 77.2276079,20.5376903 76.579232,23.1135557 C70.957823,45.4462681 63.520908,55.6283581 52.296897,60.4131021 C39.4219808,62.0485956 21.9896818,57.4964927 0,46.7567932 Z" id="path-2"></path>
        <filter x="-10.4%" y="-13.3%" width="120.9%" height="153.0%" filterUnits="objectBoundingBox" id="filter-3">
            <feOffset dx="0" dy="16" in="SourceAlpha" result="shadowOffsetOuter1"></feOffset>
            <feColorMatrix values="0 0 0 0 0.105882353   0 0 0 0 0.207843137   0 0 0 0 0.329411765  0 0 0 0.272192029 0" type="matrix" in="shadowOffsetOuter1"></feColorMatrix>
        </filter>
    </defs>
    <g id="Empty-States" stroke="none" stroke-width="1" fill="none" fill-rule="evenodd">
        <g id="2.4_No-Notifications" transform="translate(-98.000000, -198.000000)">
            <g id="Artwork" transform="translate(106.000000, 198.000000)">
                <g id="box" transform="translate(0.000000, 104.000000)">
                    <g id="Group-7">
                        <polygon id="Rectangle-19-Copy-2" fill="#1B3554" filter="url(#filter-1)" points="19 102 143 102 143 114 19 114"></polygon>
                        <polygon id="Rectangle-19-Copy" fill="#E0E5EC" points="20 0 144 0 144 79 20 79"></polygon>
                        <polygon id="Rectangle-3" fill="#CFD4DC" points="20 0 20 120 0 120 0 47.4365922"></polygon>
                        <polygon id="Rectangle-3-Copy" fill="#CFD4DC" transform="translate(153.500000, 59.500000) scale(-1, 1) translate(-153.500000, -59.500000) " points="163 0 163 119 144 119 144 47.4365922"></polygon>
                        <path d="M0,47 L163,47 L163,121 C163,123.761424 160.761424,126 158,126 L5,126 C2.23857625,126 3.38176876e-16,123.761424 0,121 L0,47 L0,47 Z" id="Rectangle-19" fill="#FFFFFF"></path>
                    </g>
                    <g id="Group-2" transform="translate(49.000000, 74.000000)" fill="#1B3554" opacity="0.200000003">
                        <path d="M2.44188146,1.12786189 C4.1779756,0.376042652 5.88993922,0.000133034543 7.57777231,0.000133034543 C9.22968121,0.000133034543 10.8815901,0.360211064 12.533499,1.08036712 C14.0314899,1.7334161 15,3.21218633 15,4.84633741 C15,5.62848367 14.3659452,6.26253849 13.5837989,6.26253849 C13.3738469,6.26253849 13.1665214,6.21585733 12.9768365,6.12586036 C11.1786154,5.27284506 9.36632512,4.84633741 7.53996556,4.84633741 C5.7046081,4.84633741 3.86925064,5.27705795 2.03389318,6.13849904 C1.32025258,6.47344429 0.470202899,6.16645906 0.135250921,5.45282162 C0.0461776652,5.26304513 2.56735631e-17,5.05597797 0,4.84633741 C-1.08601047e-15,3.23091611 0.959489652,1.76981245 2.44188146,1.12786189 Z" id="Rectangle-3-Copy"></path>
                        <path d="M53.4418815,1.12786189 C55.1779756,0.376042652 56.8899392,0.000133034543 58.5777723,0.000133034543 C60.2296812,0.000133034543 61.8815901,0.360211064 63.533499,1.08036712 C65.0314899,1.7334161 66,3.21218633 66,4.84633741 C66,5.62848367 65.3659452,6.26253849 64.5837989,6.26253849 C64.3738469,6.26253849 64.1665214,6.21585733 63.9768365,6.12586036 C62.1786154,5.27284506 60.3663251,4.84633741 58.5399656,4.84633741 C56.7046081,4.84633741 54.8692506,5.27705795 53.0338932,6.13849904 C52.3202526,6.47344429 51.4702029,6.16645906 51.1352509,5.45282162 C51.0461777,5.26304513 51,5.05597797 51,4.84633741 C51,3.23091611 51.9594897,1.76981245 53.4418815,1.12786189 Z" id="Rectangle-3-Copy-2"></path>
                        <path d="M33,28.0060637 C41.836556,28.0060637 49,22.8426197 49,14.0060637 C33,13.9539919 29.5583028,14.2616351 17,14.0060637 C17,22.8426197 24.163444,28.0060637 33,28.0060637 Z" id="Oval-10"></path>
                    </g>
                </g>
                <g id="pink" transform="translate(79.026396, 106.844160) rotate(6.000000) translate(-79.026396, -106.844160) translate(29.026396, 64.844160)">
                    <path d="M29.8214174,9.74103763 C32.3831666,25.4959066 21.2270123,41.5970124 7.31620882,53.0740437 C19.0040454,59.3937873 40.2230763,68.1994669 57.3781597,73.5413847 C58.194248,73.7955062 60.7561346,73.4816069 61.5525579,73.6206373 C66.3674478,74.4611647 69.0875772,70.9679381 70.9218938,69.9166152 C78.4803607,61.9806243 85.9167235,56.249449 89.6994707,45.1184365 C91.6389572,39.4113544 92.7360082,34.551536 92.7832371,32.4647451 C86.6618707,26.781415 72.0339197,26.9424554 29.8214174,9.74103763 Z" id="Path-10" fill="#FF96BC" transform="translate(50.049723, 41.745476) rotate(-14.000000) translate(-50.049723, -41.745476) "></path>
                    <path d="M69.4644816,59.6431659 C72.6087432,62.725876 69.6964396,70.9526346 63.5176372,70.8085542 C70.0819699,70.8968066 73.6227947,68.5098723 76.1730925,66.1150565 C78.7233903,63.7202408 90.696349,52.6036543 89.228581,22.4502267 C89.420703,47.9414024 83.1548675,60.3854919 69.4644816,59.6431659 Z" id="Path-11" fill="#F46DA0"></path>
                </g>
                <g id="yellow" transform="translate(81.500000, 41.500000) rotate(18.000000) translate(-81.500000, -41.500000) translate(43.000000, 11.000000)">
                    <path d="M65.9046528,5.03366651 C68.3758199,7.46559873 70.4823467,9.82380137 72.2242332,12.1082744 C75.8503787,16.8639411 76.9330396,23.4373013 76.680909,23.6033168 C75.3053958,24.5090245 67.4409483,19.2843079 65.9046528,15.0408013 C64.9836431,12.4968176 64.9836431,9.16110594 65.9046528,5.03366651 Z" id="Path-12" fill="#FFB883"></path>
                    <g id="Path-9">
                        <use fill="black" fill-opacity="1" filter="url(#filter-3)" xlink:href="#path-2"></use>
                        <use fill="#FFDF87" fill-rule="evenodd" xlink:href="#path-2"></use>
                    </g>
                </g>
            </g>
        </g>
    </g>
</svg>