<?xml version="1.0" encoding="UTF-8"?>
<svg width="279px" height="186px" viewBox="0 0 279 186" version="1.1" xmlns="http://www.w3.org/2000/svg" xmlns:xlink="http://www.w3.org/1999/xlink">
    <title>Artwork 4</title>
    <defs>
        <filter x="-6.5%" y="-9.6%" width="119.3%" height="119.1%" filterUnits="objectBoundingBox" id="filter-1">
            <feOffset dx="0" dy="3" in="SourceAlpha" result="shadowOffsetOuter1"></feOffset>
            <feGaussianBlur stdDeviation="2" in="shadowOffsetOuter1" result="shadowBlurOuter1"></feGaussianBlur>
            <feColorMatrix values="0 0 0 0 0.2652834   0 0 0 0 0.602988629   0 0 0 0 0.917862457  0 0 0 0.195369112 0" type="matrix" in="shadowBlurOuter1" result="shadowMatrixOuter1"></feColorMatrix>
            <feMerge>
                <feMergeNode in="shadowMatrixOuter1"></feMergeNode>
                <feMergeNode in="SourceGraphic"></feMergeNode>
            </feMerge>
        </filter>
        <filter x="-8.0%" y="-10.6%" width="115.9%" height="121.2%" filterUnits="objectBoundingBox" id="filter-2">
            <feOffset dx="0" dy="1" in="SourceAlpha" result="shadowOffsetOuter1"></feOffset>
            <feGaussianBlur stdDeviation="0.5" in="shadowOffsetOuter1" result="shadowBlurOuter1"></feGaussianBlur>
            <feColorMatrix values="0 0 0 0 0.270588235   0 0 0 0 0.368627451   0 0 0 0 0.494117647  0 0 0 0.05 0" type="matrix" in="shadowBlurOuter1" result="shadowMatrixOuter1"></feColorMatrix>
            <feMerge>
                <feMergeNode in="shadowMatrixOuter1"></feMergeNode>
                <feMergeNode in="SourceGraphic"></feMergeNode>
            </feMerge>
        </filter>
        <polygon id="path-3" points="0 0 88 0 88 66 0 66"></polygon>
        <path d="M3.96615345,3.97488947 C6.15659951,3.97488947 7.9323069,2.19527084 7.9323069,0 C4.89240115,0 1.62536886,0 0,0 C0,2.19527084 1.77570738,3.97488947 3.96615345,3.97488947 Z" id="path-5"></path>
        <path d="M3.35597599,3.36336801 C5.20943036,3.36336801 6.71195199,1.85753686 6.71195199,0 C4.13972405,0 1.37531212,0 0,0 C0,1.85753686 1.50252163,3.36336801 3.35597599,3.36336801 Z" id="path-7"></path>
        <path d="M40.8542373,16.9035317 C40.8542373,10.5414319 36.4315178,6.89232887 29.9433325,4.11720396 C27.1014877,2.90169083 23.8633902,0.338311058 20.4271186,0.338311058 C16.2879643,0.338311058 12.4363479,3.21196722 9.21845577,4.92792619 C3.6657334,7.88894647 0,11.1114295 0,16.9035317 C0,26.0522504 40.8542373,26.0522504 40.8542373,16.9035317 Z" id="path-9"></path>
        <path d="M5.30169492,5.31337266 C8.22974017,5.31337266 10.6033898,2.93449469 10.6033898,0 C6.53984235,0 2.17268695,0 0,0 C0,2.93449469 2.37364967,5.31337266 5.30169492,5.31337266 Z" id="path-11"></path>
        <filter x="-17.5%" y="-14.0%" width="135.0%" height="128.0%" filterUnits="objectBoundingBox" id="filter-13">
            <feOffset dx="0" dy="1" in="SourceAlpha" result="shadowOffsetOuter1"></feOffset>
            <feGaussianBlur stdDeviation="0.5" in="shadowOffsetOuter1" result="shadowBlurOuter1"></feGaussianBlur>
            <feColorMatrix values="0 0 0 0 0.270588235   0 0 0 0 0.368627451   0 0 0 0 0.494117647  0 0 0 0.05 0" type="matrix" in="shadowBlurOuter1" result="shadowMatrixOuter1"></feColorMatrix>
            <feMerge>
                <feMergeNode in="shadowMatrixOuter1"></feMergeNode>
                <feMergeNode in="SourceGraphic"></feMergeNode>
            </feMerge>
        </filter>
        <rect id="path-14" x="0" y="0" width="40" height="50"></rect>
        <path d="M30.8502165,12.2716138 C30.8502165,7.56010509 27.510493,4.85772983 22.6110766,2.80258675 C20.4651174,1.90242785 18.0199363,0.00409448768 15.4251082,0.00409448768 C12.2995131,0.00409448768 9.39104605,2.13220575 6.96112263,3.40297421 C2.76810134,5.59578373 0,7.98222179 0,12.2716138 C0,19.0467777 30.8502165,19.0467777 30.8502165,12.2716138 Z" id="path-16"></path>
        <path d="M15.0718615,28.8062407 C17.1059463,28.8062407 18.7548978,30.4551923 18.7548978,32.4892771 C18.7548978,32.5172632 18.7545788,32.5452483 18.7539409,32.5732271 L18.6504376,37.1129189 C18.6061013,39.0575291 17.0169771,40.6108348 15.0718615,40.6108348 C13.1267458,40.6108348 11.5376217,39.0575291 11.4932853,37.1129189 L11.389782,32.5732271 C11.3434177,30.5396708 12.9543551,28.853562 14.9879114,28.8071976 C15.0158902,28.8065597 15.0438754,28.8062407 15.0718615,28.8062407 Z" id="path-18"></path>
        <filter x="-6.8%" y="-4.2%" width="113.5%" height="116.9%" filterUnits="objectBoundingBox" id="filter-19">
            <feOffset dx="0" dy="1" in="SourceAlpha" result="shadowOffsetOuter1"></feOffset>
            <feColorMatrix values="0 0 0 0 0   0 0 0 0 0   0 0 0 0 0  0 0 0 0.278900589 0" type="matrix" in="shadowOffsetOuter1"></feColorMatrix>
        </filter>
        <path d="M4.0034632,3.93486469 C6.21451488,3.93486469 8.00692641,2.17316576 8.00692641,0 C4.93842415,0 1.64065877,0 0,0 C0,2.17316576 1.79241153,3.93486469 4.0034632,3.93486469 Z" id="path-20"></path>
        <linearGradient x1="22.999966%" y1="27.1307888%" x2="50%" y2="100%" id="linearGradient-22">
            <stop stop-color="#CEA2FF" offset="0%"></stop>
            <stop stop-color="#9F69FF" offset="100%"></stop>
        </linearGradient>
        <linearGradient x1="83.1634518%" y1="6.81612285%" x2="19.2042493%" y2="61.9310752%" id="linearGradient-23">
            <stop stop-color="#CEA2FF" offset="0%"></stop>
            <stop stop-color="#9F69FF" offset="100%"></stop>
        </linearGradient>
        <linearGradient x1="100%" y1="50%" x2="75.3111836%" y2="50%" id="linearGradient-24">
            <stop stop-color="#F4F7FE" offset="0%"></stop>
            <stop stop-color="#FFFFFF" offset="100%"></stop>
        </linearGradient>
        <filter x="-53.1%" y="-45.5%" width="205.1%" height="189.4%" filterUnits="objectBoundingBox" id="filter-25">
            <feOffset dx="0" dy="9" in="SourceAlpha" result="shadowOffsetOuter1"></feOffset>
            <feGaussianBlur stdDeviation="3" in="shadowOffsetOuter1" result="shadowBlurOuter1"></feGaussianBlur>
            <feColorMatrix values="0 0 0 0 0.172116074   0 0 0 0 0.224928361   0 0 0 0 0.401945153  0 0 0 0.048997962 0" type="matrix" in="shadowBlurOuter1" result="shadowMatrixOuter1"></feColorMatrix>
            <feMerge>
                <feMergeNode in="shadowMatrixOuter1"></feMergeNode>
                <feMergeNode in="SourceGraphic"></feMergeNode>
            </feMerge>
        </filter>
        <rect id="path-26" x="1.67764881" y="3.97903932e-13" width="54.7332924" height="70.9728238"></rect>
        <filter x="-59.9%" y="-51.0%" width="218.7%" height="200.5%" filterUnits="objectBoundingBox" id="filter-28">
            <feOffset dx="0" dy="5" in="SourceAlpha" result="shadowOffsetOuter1"></feOffset>
            <feGaussianBlur stdDeviation="6" in="shadowOffsetOuter1" result="shadowBlurOuter1"></feGaussianBlur>
            <feColorMatrix values="0 0 0 0 0.172116074   0 0 0 0 0.224928361   0 0 0 0 0.401945153  0 0 0 0.160920516 0" type="matrix" in="shadowBlurOuter1" result="shadowMatrixOuter1"></feColorMatrix>
            <feMerge>
                <feMergeNode in="shadowMatrixOuter1"></feMergeNode>
                <feMergeNode in="SourceGraphic"></feMergeNode>
            </feMerge>
        </filter>
        <rect id="path-29" x="1.67764881" y="0" width="54.7332924" height="70.9728238"></rect>
        <linearGradient x1="50%" y1="35.6730229%" x2="50%" y2="100%" id="linearGradient-31">
            <stop stop-color="#FFFFFF" offset="0%"></stop>
            <stop stop-color="#FFFFFF" stop-opacity="0.158486187" offset="100%"></stop>
        </linearGradient>
    </defs>
    <g id="Empty-States" stroke="none" stroke-width="1" fill="none" fill-rule="evenodd">
        <g id="5.1_No-Photos" transform="translate(-56.000000, -137.000000)">
            <g id="Artwork" filter="url(#filter-1)" transform="translate(68.000000, 149.000000)">
                <rect id="base" stroke="#91E2FF" stroke-width="2" fill="#88E0FF" x="-1" y="-1" width="241" height="164" rx="6"></rect>
                <g id="pages" transform="translate(3.000000, 3.000000)">
                    <path d="M6,0 L119,0 L119,0 L119,156 L6,156 C2.6862915,156 4.05812251e-16,153.313708 0,150 L0,6 C-4.05812251e-16,2.6862915 2.6862915,6.08718376e-16 6,0 Z" id="Rectangle-4-Copy" fill="#E7F5F9"></path>
                    <path d="M118.5,0.5 L118.5,155.5 L10,155.5 C8.48121694,155.5 7.10621694,154.884392 6.1109127,153.889087 C5.11560847,152.893783 4.5,151.518783 4.5,150 L4.5,150 L4.5,6 C4.5,4.48121694 5.11560847,3.10621694 6.1109127,2.1109127 C7.10621694,1.11560847 8.48121694,0.5 10,0.5 L10,0.5 L118.5,0.5 Z" id="Rectangle-4-Copy-2" stroke="#E2E8FA" fill="#FBFCFC"></path>
                    <rect id="Rectangle-8" fill="#D8E0F3" x="66" y="93" width="40" height="4" rx="2"></rect>
                    <rect id="Rectangle-8-Copy" fill="#D8E0F3" x="66" y="101" width="40" height="4" rx="2"></rect>
                    <rect id="Rectangle-8-Copy-2" fill="#D8E0F3" x="66" y="109" width="40" height="4" rx="2"></rect>
                    <rect id="Rectangle-8-Copy-3" fill="#D8E0F3" x="66" y="117" width="20" height="4" rx="2"></rect>
                    <rect id="Rectangle-8-Copy-5" fill="#D8E0F3" x="83" y="134" width="23" height="4" rx="2"></rect>
                    <rect id="Rectangle-8-Copy-4" fill="#D8E0F3" x="95" y="142" width="11" height="4" rx="2"></rect>
                    <g id="Group-5-Copy" filter="url(#filter-2)" transform="translate(16.000000, 12.000000)">
                        <mask id="mask-4" fill="white">
                            <use xlink:href="#path-3"></use>
                        </mask>
                        <path stroke="#FFFFFF" stroke-width="3" d="M89.5,-1.5 L89.5,67.5 L-1.5,67.5 L-1.5,-1.5 L89.5,-1.5 Z"></path>
                        <g mask="url(#mask-4)">
                            <g transform="translate(-1.000000, 5.000000)">
                                <g id="Group-Copy" transform="translate(0.000000, 13.752259)">
                                    <path d="M30.5627119,49.182696 C30.5627119,44.4232626 27.2541125,41.6933992 22.4003556,39.6173516 C20.2743954,38.7080364 17.8520018,36.7903935 15.2813559,36.7903935 C12.1848893,36.7903935 9.30352741,38.9401516 6.89624935,40.2238461 C2.74230437,42.4389605 0,44.849673 0,49.182696 C0,56.0267756 30.5627119,56.0267756 30.5627119,49.182696 Z" id="Oval-11" fill="#2A3D49"></path>
                                    <path d="M14.9314012,28.6067976 C16.9474161,28.6067976 18.5817191,30.2411005 18.5817191,32.2571154 C18.5817191,32.2843179 18.581415,32.3115194 18.5808069,32.3387151 L18.4751036,37.066114 C18.4320329,38.9923794 16.8581481,40.531466 14.9314012,40.531466 C13.0046543,40.531466 11.4307695,38.9923794 11.3876988,37.066114 L11.2819955,32.3387151 C11.2369293,30.323204 12.8342904,28.652776 14.8498016,28.6077097 C14.8769972,28.6071016 14.9041988,28.6067976 14.9314012,28.6067976 Z" id="Rectangle-Copy" fill="#C4A588"></path>
                                    <path d="M14.9314012,5.31337266 C20.2195607,5.31337266 24.506461,9.60027292 24.506461,14.8884324 C24.506461,14.9621266 24.5056102,15.0358184 24.5039088,15.1094929 L24.2402894,26.524911 C24.1234971,31.5823301 19.9901687,35.6213084 14.9314012,35.6213084 C9.8726337,35.6213084 5.73930537,31.5823301 5.62251301,26.524911 L5.35889365,15.1094929 C5.23680529,9.82274297 9.42359074,5.43801318 14.7103407,5.31592482 C14.7840153,5.31422344 14.857707,5.31337266 14.9314012,5.31337266 Z" id="Rectangle" fill="#EBCFB6"></path>
                                    <path d="M5.44453357,21.9778958 C6.07723698,26.1342647 6.82924868,28.7618995 7.70056868,29.8608002 C9.3161807,31.8983951 11.9951549,34.1673978 14.8596975,34.1673978 C17.6865233,34.1673978 20.4933526,31.8450912 22.1323716,29.8608002 C23.0426883,28.7587183 23.8046541,26.1310835 24.4182689,21.9778958 L24.2022609,33.4002416 C24.1067258,38.4520703 19.9841331,42.4974377 14.9314012,42.4974377 C9.8786693,42.4974377 5.75607666,38.4520703 5.66054154,33.4002416 L5.44453357,21.9778958 L5.44453357,21.9778958 Z" id="Rectangle-Copy-2" fill="#FF9575"></path>
                                    <ellipse id="Oval-4" fill="#FF9575" cx="14.9694915" cy="36.8810573" rx="4.6779661" ry="4.68826999"></ellipse>
                                    <ellipse id="Oval-3" fill="#EBCFB6" cx="5.24932074" cy="20.3062931" rx="1.98307672" ry="2.22126176"></ellipse>
                                    <ellipse id="Oval-3-Copy" fill="#EBCFB6" cx="24.6134817" cy="20.3062931" rx="1.98307672" ry="2.22126176"></ellipse>
                                    <g id="Group-2" transform="translate(9.565429, 18.395197)">
                                        <path d="M1.41433448,3.11057415e-05 C1.41433448,3.11057415e-05 1.41433448,3.11057415e-05 1.41433448,3.11057415e-05 C1.41433448,3.11057415e-05 1.41433448,3.11057415e-05 1.41433448,3.11057415e-05 C2.17943019,3.11057415e-05 2.79966281,0.620263723 2.79963773,1.38535943 L2.79963773,1.47190802 C2.79963773,1.65910728 2.64788275,1.81086226 2.46068349,1.81086226 C2.39450568,1.81086226 2.32977538,1.79148985 2.27450298,1.75509663 C1.98734158,1.56630422 1.69826663,1.47190802 1.40727814,1.47190802 C1.1145723,1.47190802 0.821866464,1.56742172 0.529160628,1.7584491 C0.370907717,1.8617199 0.15889906,1.81715667 0.0556218555,1.65890795 C0.0193263941,1.60329344 -1.78861132e-17,1.53831837 0,1.47190802 L0,1.41439592 C-3.0328399e-05,0.633263802 0.633202367,3.11057415e-05 1.41433448,3.11057415e-05 Z" id="Rectangle-3-Copy" fill="#81685D"></path>
                                        <g id="Oval-2-Copy" transform="translate(1.399819, 9.512536)">
                                            <mask id="mask-6" fill="white">
                                                <use xlink:href="#path-5"></use>
                                            </mask>
                                            <use id="Mask" fill="#372C28" xlink:href="#path-5"></use>
                                            <path d="M3.96615345,6.31305974 C6.15659951,6.31305974 7.9323069,4.53344111 7.9323069,2.33817028 C4.89240115,2.33817028 1.62536886,2.33817028 0,2.33817028 C0,4.53344111 1.77570738,6.31305974 3.96615345,6.31305974 Z" fill="#D96B70" mask="url(#mask-6)" transform="translate(3.966153, 4.325615) scale(1, -1) translate(-3.966153, -4.325615) "></path>
                                            <path d="M3.96615345,0.701451083 C5.3835009,0.701451083 6.53248803,-0.450066856 6.53248803,-1.87053622 C4.56549019,-1.87053622 2.45152813,-1.87053622 1.39981886,-1.87053622 C1.39981886,-0.450066856 2.54880599,0.701451083 3.96615345,0.701451083 Z" id="Oval-2-Copy-2" fill="#FFFFFF" mask="url(#mask-6)" transform="translate(3.966153, -0.584543) scale(1, -1) translate(-3.966153, 0.584543) "></path>
                                        </g>
                                        <path d="M5.24932074,1.63671919 C5.58517122,1.63671919 5.87108214,1.88111209 5.92334992,2.21287047 L6.33279113,4.8117099 C6.42706519,5.41009407 6.0184032,5.97160452 5.42001903,6.06587858 C5.36355475,6.07477439 5.30648147,6.07924272 5.24932074,6.07924272 C4.64355575,6.07924272 4.15248621,5.58817317 4.15248621,4.98240818 C4.15248621,4.92524745 4.15695453,4.86817417 4.16585035,4.8117099 L4.57529156,2.21287047 C4.62755934,1.88111209 4.91347026,1.63671919 5.24932074,1.63671919 Z" id="Rectangle-4" fill="#A5725C" opacity="0.200000003"></path>
                                        <path d="M9.34664138,3.11057415e-05 C9.34664138,3.11057415e-05 9.34664138,3.11057415e-05 9.34664138,3.11057415e-05 C9.34664138,3.11057415e-05 9.34664138,3.11057415e-05 9.34664138,3.11057415e-05 C10.1117371,3.11057415e-05 10.7319697,0.620263723 10.7319446,1.38535943 L10.7319446,1.47190802 C10.7319446,1.65910728 10.5801896,1.81086226 10.3929904,1.81086226 C10.3268126,1.81086226 10.2620823,1.79148985 10.2068099,1.75509663 C9.91964848,1.56630422 9.63057353,1.47190802 9.33958503,1.47190802 C9.0468792,1.47190802 8.75417336,1.56742172 8.46146752,1.7584491 C8.30321461,1.8617199 8.09120596,1.81715667 7.98792875,1.65890795 C7.95163329,1.60329344 7.9323069,1.53831837 7.9323069,1.47190802 L7.9323069,1.41439592 C7.93227657,0.633263802 8.56550926,3.11057415e-05 9.34664138,3.11057415e-05 Z" id="Rectangle-3-Copy-2" fill="#81685D"></path>
                                    </g>
                                    <path d="M12.92012,8.51033859 C12.0942425,7.50599336 12.0537975,5.74551178 13.7459974,4.31580857 C15.4381974,2.88610537 14.5244394,0.41552619 12.92012,0.388003027 C11.3158006,0.360479864 17.252731,-0.744450019 17.8998515,4.59179083 C18.5469719,9.92803169 13.7459974,9.51468382 12.92012,8.51033859 Z" id="Path-2" fill="#FF9575"></path>
                                    <path d="M15.329671,25.15385 C16.190236,24.4980077 17.6986901,24.4658897 18.9237194,25.8096924 C20.1487488,27.1534951 22.2656442,26.4278654 22.2892272,25.15385 C22.3128102,23.8798347 23.2595602,28.594445 18.6872463,29.1083335 C14.1149324,29.6222221 14.4691061,25.8096924 15.329671,25.15385 Z" id="Path-2-Copy" fill="#FF9575"></path>
                                    <path d="M14.3725824,25.15385 C13.5120175,24.4980077 12.0035634,24.4658897 10.778534,25.8096924 C9.55350463,27.1534951 7.43660926,26.4278654 7.41302627,25.15385 C7.38944327,23.8798347 6.44269323,28.594445 11.0150071,29.1083335 C15.587321,29.6222221 15.2331473,25.8096924 14.3725824,25.15385 Z" id="Path-2-Copy-2" fill="#FF9575"></path>
                                </g>
                                <g id="Group-Copy-2" transform="translate(60.813559, 16.877772)">
                                    <polygon id="Rectangle-20" fill="#FFDD8D" points="2.80677966 16.5652206 26.5084746 16.5652206 26.5084746 43.1320839 2.80677966 43.1320839"></polygon>
                                    <path d="M30.5627119,46.0571827 C30.5627119,41.2977493 27.2541125,38.5678859 22.4003556,36.4918382 C21.228638,35.9906715 20.902468,35.8083142 19.5754673,35.1844227 C18.4947627,34.6763277 20.9762674,38.8891805 15.2813559,38.8891805 C9.58644447,38.8891805 11.1879243,34.9730994 9.99502188,35.4983965 C8.31471403,36.2383238 8.30407123,36.3476038 6.89624935,37.0983327 C2.74230437,39.3134471 0,41.7241597 0,46.0571827 C0,52.9012623 30.5627119,52.9012623 30.5627119,46.0571827 Z" id="Oval-11" fill="#8897F8"></path>
                                    <ellipse id="Oval-6" fill="#6479FF" cx="14.8135593" cy="39.2251923" rx="6.70508475" ry="6.71985365"></ellipse>
                                    <path d="M14.9314012,25.4812842 C16.9474161,25.4812842 18.5817191,27.1155872 18.5817191,29.1316021 C18.5817191,29.1588045 18.581415,29.1860061 18.5808069,29.2132018 L18.4751036,33.9406007 C18.4320329,35.8668661 16.8581481,37.4059526 14.9314012,37.4059526 C13.0046543,37.4059526 11.4307695,35.8668661 11.3876988,33.9406007 L11.2819955,29.2132018 C11.2369293,27.1976906 12.8342904,25.5272626 14.8498016,25.4821964 C14.8769972,25.4815883 14.9041988,25.4812842 14.9314012,25.4812842 Z" id="Rectangle-Copy" fill="#F2DDCA"></path>
                                    <path d="M14.9133467,7.72616565 L14.9494557,7.72616565 C19.9972315,7.72616565 24.0892623,11.8181964 24.0892623,16.8659723 C24.0892623,17.0723009 24.0822756,17.2785704 24.0683141,17.4844262 L23.589077,24.5505885 C23.444629,26.6686988 22.4643272,28.6426054 20.863857,30.0375073 C18.9836668,31.6763658 17.0061816,32.4957951 14.9314012,32.4957951 C12.8566209,32.4957951 10.8791356,31.6763658 8.99894543,30.0375073 C7.39847528,28.6426054 6.41817343,26.6686988 6.27372548,24.5505885 L5.79448829,17.4844262 C5.4529256,12.4482198 9.25868632,8.08867649 14.2948928,7.7471138 C14.5007486,7.73315237 14.7070181,7.72616565 14.9133467,7.72616565 Z" id="Rectangle" fill="#FFEBD8"></path>
                                    <path d="M14.8144373,19.4068133 C15.0538246,19.4068133 15.256785,19.5828346 15.2906466,19.8198149 L15.6024411,22.0019102 C15.6646262,22.4371127 15.3622359,22.840325 14.9270334,22.9025101 C14.8897381,22.9078391 14.8521115,22.9105137 14.8144373,22.9105137 C14.3748146,22.9105137 14.0184299,22.5541291 14.0184299,22.1145063 C14.0184299,22.0768322 14.0211045,22.0392056 14.0264335,22.0019102 L14.3382281,19.8198149 C14.3720897,19.5828346 14.5750501,19.4068133 14.8144373,19.4068133 Z" id="Rectangle-4" fill="#A5725C" opacity="0.200000003"></path>
                                    <path d="M18.9120703,15.5822659 C18.9120703,15.5822659 18.9120703,15.5822659 18.9120703,15.5822659 C18.9120703,15.5822659 18.9120703,15.5822659 18.9120703,15.5822659 C19.677166,15.5822659 20.2973986,16.2024985 20.2973735,16.9675942 L20.2973735,17.0541428 C20.2973735,17.241342 20.1456185,17.393097 19.9584193,17.393097 C19.8922415,17.393097 19.8275112,17.3737246 19.7722388,17.3373314 C19.4850774,17.148539 19.1960024,17.0541428 18.9050139,17.0541428 C18.6123081,17.0541428 18.3196023,17.1496565 18.0268964,17.3406839 C17.8686435,17.4439547 17.6566349,17.3993914 17.5533577,17.2411427 C17.5170622,17.1855282 17.4977358,17.1205531 17.4977358,17.0541428 L17.4977358,16.9966307 C17.4977055,16.2154986 18.1309382,15.5822659 18.9120703,15.5822659 Z" id="Rectangle-3-Copy-2" fill="#81685D"></path>
                                    <g id="Group-4" transform="translate(8.108475, 17.815426)" fill="#81685D">
                                        <path d="M0.803382409,0.847833202 C1.56355112,0.296952317 2.23224031,0.0215118745 2.80945,0.0215118745 C3.38665968,0.0215118745 3.96386937,0.328152899 4.54107905,0.941434949 C4.54107905,1.21776931 4.31706579,1.44178257 4.04073143,1.44178257 C3.95058558,1.44178257 3.86211414,1.41742852 3.7846589,1.37130954 C3.45861768,1.17708964 3.1306079,1.07997969 2.80062956,1.07997969 C2.51309354,1.07997969 2.20646886,1.19172181 1.88075551,1.41520606 C1.56740308,1.63019739 1.13909382,1.55047077 0.92409458,1.23712376 C0.845466473,1.12252855 0.803382409,0.986809604 0.803382409,0.847833202 L0.803382409,0.847833202 L0.803382409,0.847833202 Z" id="Rectangle-3-Copy"></path>
                                        <path d="M0.0929768667,0.144562795 C0.337484967,0.940902887 0.792013104,1.40204251 1.45656128,1.52798167 C1.84968526,1.25253115 1.69915222,0.343290439 1.16851898,0.606722481 C0.894871517,0.742574332 0.536357481,0.588521103 0.0929768667,0.144562795 Z" id="Path-5"></path>
                                    </g>
                                    <g id="Group-4-Copy" transform="translate(18.867797, 18.596804) scale(-1, 1) translate(-18.867797, -18.596804) translate(16.528814, 17.815426)" fill="#81685D">
                                        <path d="M0.803382409,0.847833202 C1.56355112,0.296952317 2.23224031,0.0215118745 2.80945,0.0215118745 C3.38665968,0.0215118745 3.96386937,0.328152899 4.54107905,0.941434949 C4.54107905,1.21776931 4.31706579,1.44178257 4.04073143,1.44178257 C3.95058558,1.44178257 3.86211414,1.41742852 3.7846589,1.37130954 C3.45861768,1.17708964 3.1306079,1.07997969 2.80062956,1.07997969 C2.51309354,1.07997969 2.20646886,1.19172181 1.88075551,1.41520606 C1.56740308,1.63019739 1.13909382,1.55047077 0.92409458,1.23712376 C0.845466473,1.12252855 0.803382409,0.986809604 0.803382409,0.847833202 L0.803382409,0.847833202 L0.803382409,0.847833202 Z" id="Rectangle-3-Copy"></path>
                                        <path d="M0.0929768667,0.144562795 C0.337484967,0.940902887 0.792013104,1.40204251 1.45656128,1.52798167 C1.84968526,1.25253115 1.69915222,0.343290439 1.16851898,0.606722481 C0.894871517,0.742574332 0.536357481,0.588521103 0.0929768667,0.144562795 Z" id="Path-5"></path>
                                    </g>
                                    <path d="M20.0507815,17.6416321 C24.6150873,17.6416321 29.0345051,15.9963239 29.2498116,14.3804976 C29.4651182,12.7646712 22.3100501,4.87625678 17.7457443,4.87625678 C13.1814384,4.87625678 9.76851732,6.48015916 9.14857547,9.82094154 C8.52863363,13.1617239 15.4864756,17.6416321 20.0507815,17.6416321 Z" id="Oval-5" fill="#FFDD8D" transform="translate(19.182193, 11.258944) rotate(35.000000) translate(-19.182193, -11.258944) "></path>
                                    <g id="Oval-2-Copy" transform="translate(11.565536, 24.761297)">
                                        <mask id="mask-8" fill="white">
                                            <use xlink:href="#path-7"></use>
                                        </mask>
                                        <use id="Mask" fill="#372C28" xlink:href="#path-7"></use>
                                        <path d="M3.35597599,5.34181978 C5.20943036,5.34181978 6.71195199,3.83598863 6.71195199,1.97845177 C4.13972405,1.97845177 1.37531212,1.97845177 0,1.97845177 C0,3.83598863 1.50252163,5.34181978 3.35597599,5.34181978 Z" fill="#D96B70" mask="url(#mask-8)" transform="translate(3.355976, 3.660136) scale(1, -1) translate(-3.355976, -3.660136) "></path>
                                        <path d="M3.35597599,0.593535532 C4.55526999,0.593535532 5.52748987,-0.380825801 5.52748987,-1.58276142 C3.86310709,-1.58276142 2.07436996,-1.58276142 1.18446212,-1.58276142 C1.18446212,-0.380825801 2.156682,0.593535532 3.35597599,0.593535532 Z" id="Oval-2-Copy-2" fill="#FFFFFF" mask="url(#mask-8)" transform="translate(3.355976, -0.494613) scale(1, -1) translate(-3.355976, 0.494613) "></path>
                                    </g>
                                    <path d="M23.7506787,16.8045807 L23.7506787,28.6942057 C27.0929969,22.7220959 27.5821322,16.6198197 25.2180846,10.3873772 C22.2780537,3.71107182 21.7889184,5.85013964 23.7506787,16.8045807 Z" id="Path-3" fill="#FFDD8D"></path>
                                    <path d="M12.8480916,9.55531078 C8.37710564,13.5138019 6.11896655,16.4182159 6.07367436,18.2685528 C6.02838217,20.1188897 6.05102826,23.3041525 6.14161264,27.8243411 C3.50771633,23.7270237 2.37461431,19.6057641 2.74230655,15.4605623 C3.29384492,9.24275945 8.02045754,3.65547523 13.3387198,3.09601385 C16.884228,2.72303959 16.7206853,4.87613857 12.8480916,9.55531078 Z" id="Path-4" fill="#FFDD8D"></path>
                                </g>
                                <g id="Group" transform="translate(25.261017, 0.000000)">
                                    <g id="Rectangle-6" transform="translate(0.000000, 47.169492)">
                                        <mask id="mask-10" fill="white">
                                            <use xlink:href="#path-9"></use>
                                        </mask>
                                        <use id="Mask" fill="#69DC8F" xlink:href="#path-9"></use>
                                        <path d="M28.0940528,17.4030084 L28.8634089,17.5423729 L28.8634089,17.5423729 L30.0305851,17.3471779 C31.6647447,17.0738861 33.2110396,18.1770874 33.4843314,19.811247 C33.5116792,19.9747743 33.5254237,20.1402873 33.5254237,20.3060856 L33.5254237,22.7288136 C33.5254237,24.3856678 32.182278,25.7288136 30.5254237,25.7288136 L27.559322,25.7288136 C25.9024678,25.7288136 24.559322,24.3856678 24.559322,22.7288136 L24.559322,20.3549676 C24.559322,18.6981133 25.9024678,17.3549676 27.559322,17.3549676 C27.7386432,17.3549676 27.9176032,17.3710455 28.0940528,17.4030084 Z" fill="#62D186" mask="url(#mask-10)"></path>
                                    </g>
                                    <path d="M19.959322,36.5685059 C22.6541991,36.5685059 24.8388286,38.7531354 24.8388286,41.4480125 C24.8388286,41.4843749 24.8384221,41.5207362 24.8376092,41.5570896 L24.696312,47.8763677 C24.6387378,50.4512735 22.5348715,52.5086239 19.959322,52.5086239 C17.3837726,52.5086239 15.2799062,50.4512735 15.2223321,47.8763677 L15.0810348,41.5570896 C15.0207932,38.8628859 17.1560413,36.6299669 19.8502449,36.5697252 C19.8865983,36.5689124 19.9229596,36.5685059 19.959322,36.5685059 Z" id="Rectangle-Copy" fill="#866E57"></path>
                                    <path d="M6.86101695,14.06481 L33.0576271,14.06481 L32.4788209,33.7875683 C32.2801022,40.5588866 26.7335557,45.9450459 19.959322,45.9450459 C13.1850884,45.9450459 7.63854189,40.5588866 7.43982317,33.7875683 L6.86101695,14.06481 L6.86101695,14.06481 Z" id="Rectangle" fill="#93775E"></path>
                                    <ellipse id="Oval-3" fill="#93775E" cx="7.01694915" cy="25.4729336" rx="2.65084746" ry="2.96923766"></ellipse>
                                    <ellipse id="Oval-3-Copy" fill="#93775E" cx="32.9016949" cy="25.4729336" rx="2.65084746" ry="2.96923766"></ellipse>
                                    <g id="Group-2" transform="translate(12.786441, 23.753901)">
                                        <path d="M1.89058997,4.15801239e-05 C1.89058997,4.15801239e-05 1.89058997,4.15801239e-05 1.89058997,4.15801239e-05 C1.89058997,4.15801239e-05 1.89058997,4.15801239e-05 1.89058997,4.15801239e-05 C2.91331995,4.15801239e-05 3.74240641,0.829128038 3.74237288,1.85185801 L3.74237288,1.96755052 C3.74237288,2.21777058 3.53952945,2.42061401 3.28930939,2.42061401 C3.20085168,2.42061401 3.11432888,2.39471924 3.04042424,2.34610986 C2.65655998,2.09373697 2.27013774,1.96755052 1.88115751,1.96755052 C1.4898933,1.96755052 1.09862909,2.09522318 0.707364885,2.35056849 C0.49583277,2.48865854 0.212416065,2.42908366 0.0743546231,2.21753288 C0.0258352645,2.14318693 6.63832615e-17,2.05632804 0,1.96755052 L0,1.89067209 C-4.05410231e-05,0.846505694 0.846423573,4.15801239e-05 1.89058997,4.15801239e-05 Z" id="Rectangle-3-Copy" fill="#5A4840"></path>
                                        <g id="Oval-2-Copy" transform="translate(1.871186, 10.626745)">
                                            <mask id="mask-12" fill="white">
                                                <use xlink:href="#path-11"></use>
                                            </mask>
                                            <use id="Mask" fill="#372C28" xlink:href="#path-11"></use>
                                            <path d="M5.30169492,8.43888599 C8.22974017,8.43888599 10.6033898,6.06000802 10.6033898,3.12551333 C6.53984235,3.12551333 2.17268695,3.12551333 0,3.12551333 C0,6.06000802 2.37364967,8.43888599 5.30169492,8.43888599 Z" fill="#D96B70" mask="url(#mask-12)" transform="translate(5.301695, 5.782200) scale(1, -1) translate(-5.301695, -5.782200) "></path>
                                            <path d="M5.30169492,0.937653998 C7.19631243,0.937653998 8.73220339,-0.601619981 8.73220339,-2.50041066 C6.10284914,-2.50041066 3.2770427,-2.50041066 1.87118644,-2.50041066 C1.87118644,-0.601619981 3.4070774,0.937653998 5.30169492,0.937653998 Z" id="Oval-2-Copy-2" fill="#FFFFFF" mask="url(#mask-12)" transform="translate(5.301695, -0.781378) scale(1, -1) translate(-5.301695, 0.781378) "></path>
                                        </g>
                                        <path d="M7.01694915,2.18785933 C7.46589214,2.18785933 7.84807919,2.51454779 7.91794734,2.95802074 L8.46526162,6.43197956 C8.59128102,7.23186044 8.04500836,7.98245093 7.24512747,8.10847034 C7.16964972,8.12036169 7.09335789,8.12633465 7.01694915,8.12633465 C6.20720208,8.12633465 5.55077238,7.46990495 5.55077238,6.66015788 C5.55077238,6.58374914 5.55674534,6.50745731 5.56863669,6.43197956 L6.11595097,2.95802074 C6.18581911,2.51454779 6.56800616,2.18785933 7.01694915,2.18785933 Z" id="Rectangle-4" fill="#482222" opacity="0.200000003"></path>
                                        <path d="M12.4939798,4.15801239e-05 C12.4939798,4.15801239e-05 12.4939798,4.15801239e-05 12.4939798,4.15801239e-05 C12.4939798,4.15801239e-05 12.4939798,4.15801239e-05 12.4939798,4.15801239e-05 C13.5167098,4.15801239e-05 14.3457962,0.829128038 14.3457627,1.85185801 L14.3457627,1.96755052 C14.3457627,2.21777058 14.1429193,2.42061401 13.8926992,2.42061401 C13.8042415,2.42061401 13.7177187,2.39471924 13.6438141,2.34610986 C13.2599498,2.09373697 12.8735276,1.96755052 12.4845473,1.96755052 C12.0932831,1.96755052 11.7020189,2.09522318 11.3107547,2.35056849 C11.0992226,2.48865854 10.8158059,2.42908366 10.6777445,2.21753288 C10.6292251,2.14318693 10.6033898,2.05632804 10.6033898,1.96755052 L10.6033898,1.89067209 C10.6033493,0.846505694 11.4498134,4.15801239e-05 12.4939798,4.15801239e-05 Z" id="Rectangle-3-Copy-2" fill="#5A4840"></path>
                                    </g>
                                    <ellipse id="Oval-2" fill="#272D35" cx="7.64067797" cy="15.1587396" rx="2.65084746" ry="2.65668633"></ellipse>
                                    <ellipse id="Oval-2-Copy-18" fill="#272D35" cx="7.64067797" cy="11.720675" rx="2.65084746" ry="2.65668633"></ellipse>
                                    <ellipse id="Oval-2-Copy-10" fill="#272D35" cx="9.82372881" cy="7.97005899" rx="4.83389831" ry="4.84454566"></ellipse>
                                    <ellipse id="Oval-2-Copy-11" fill="#272D35" cx="14.1898305" cy="5.46964832" rx="4.83389831" ry="4.84454566"></ellipse>
                                    <ellipse id="Oval-2-Copy-12" fill="#272D35" cx="15.1254237" cy="8.90771298" rx="4.83389831" ry="4.84454566"></ellipse>
                                    <ellipse id="Oval-2-Copy-13" fill="#272D35" cx="19.8033898" cy="4.84454566" rx="4.83389831" ry="4.84454566"></ellipse>
                                    <ellipse id="Oval-2-Copy-14" fill="#272D35" cx="23.2338983" cy="7.65750765" rx="4.83389831" ry="4.84454566"></ellipse>
                                    <ellipse id="Oval-2-Copy-15" fill="#272D35" cx="26.3525424" cy="5.15709699" rx="4.83389831" ry="4.84454566"></ellipse>
                                    <ellipse id="Oval-2-Copy-16" fill="#272D35" cx="30.0949153" cy="8.28261032" rx="4.83389831" ry="4.84454566"></ellipse>
                                    <polygon id="Rectangle-5" fill="#272D35" points="6.23728814 14.6899126 7.79661017 14.6899126 7.79661017 25.316658 6.54915254 22.8162473"></polygon>
                                    <polygon id="Rectangle-5-Copy" fill="#272D35" points="32.4338983 14.6899126 33.9932203 14.6899126 33.6813559 22.8162473 32.4338983 25.316658"></polygon>
                                    <ellipse id="Oval-2-Copy-3" fill="#272D35" cx="10.4474576" cy="12.9708803" rx="2.65084746" ry="2.65668633"></ellipse>
                                    <ellipse id="Oval-2-Copy-4" fill="#272D35" cx="13.2542373" cy="14.2210856" rx="2.65084746" ry="2.65668633"></ellipse>
                                    <ellipse id="Oval-2-Copy-5" fill="#272D35" cx="17.3084746" cy="13.595983" rx="2.65084746" ry="2.65668633"></ellipse>
                                    <ellipse id="Oval-2-Copy-6" fill="#272D35" cx="21.3627119" cy="12.658329" rx="2.65084746" ry="2.65668633"></ellipse>
                                    <ellipse id="Oval-2-Copy-7" fill="#272D35" cx="24.7932203" cy="14.2210856" rx="2.65084746" ry="2.65668633"></ellipse>
                                    <ellipse id="Oval-2-Copy-8" fill="#272D35" cx="28.2237288" cy="12.9708803" rx="2.65084746" ry="2.65668633"></ellipse>
                                    <ellipse id="Oval-2-Copy-9" fill="#272D35" cx="31.9661017" cy="14.533637" rx="2.65084746" ry="2.65668633"></ellipse>
                                    <ellipse id="Oval-2-Copy-17" fill="#272D35" cx="32.5898305" cy="11.720675" rx="2.65084746" ry="2.65668633"></ellipse>
                                </g>
                            </g>
                        </g>
                    </g>
                    <g id="Group" filter="url(#filter-13)" transform="translate(16.000000, 93.000000)">
                        <mask id="mask-15" fill="white">
                            <use xlink:href="#path-14"></use>
                        </mask>
                        <rect stroke="#FFFFFF" stroke-width="3" x="-1.5" y="-1.5" width="43" height="53"></rect>
                        <g mask="url(#mask-15)">
                            <g transform="translate(4.545455, 3.571429)">
                                <g id="Rectangle-6" stroke="none" stroke-width="1" fill="none" fill-rule="evenodd" transform="translate(0.000000, 36.903338)">
                                    <mask id="mask-17" fill="white">
                                        <use xlink:href="#path-16"></use>
                                    </mask>
                                    <use id="Mask" fill="#333F4E" xlink:href="#path-16"></use>
                                    <path d="M19.4182125,12.3223732 L21.7955951,12.7447133 L21.7955951,12.7447133 L24.4529628,12.3088781 C24.8578072,12.2424796 25.2398251,12.5168441 25.3062237,12.9216885 C25.312742,12.9614318 25.3160173,13.0016394 25.3160173,13.0419137 L25.3160173,18.0644244 C25.3160173,18.4746777 24.9834413,18.8072537 24.5731881,18.8072537 L19.2882838,18.8072537 C18.8780305,18.8072537 18.5454545,18.4746777 18.5454545,18.0644244 L18.5454545,13.0537512 C18.5454545,12.643498 18.8780305,12.310922 19.2882838,12.310922 C19.3318454,12.310922 19.3753225,12.3147538 19.4182125,12.3223732 Z" fill="#485360" mask="url(#mask-17)"></path>
                                </g>
                                <g id="Rectangle-Copy" stroke="none" fill="none">
                                    <use fill="black" fill-opacity="1" filter="url(#filter-19)" xlink:href="#path-18"></use>
                                    <use fill="#D8BAA1" fill-rule="evenodd" xlink:href="#path-18"></use>
                                </g>
                                <path d="M5.18095238,12.1409314 L24.9627706,12.1409314 L24.4517899,29.2165854 C24.3428779,32.8561441 21.3610061,35.7501196 17.7198182,35.7501196 L12.4239048,35.7501196 C8.78271685,35.7501196 5.80084507,32.8561441 5.69193304,29.2165854 L5.18095238,12.1409314 L5.18095238,12.1409314 Z" id="Rectangle" stroke="none" fill="#E5CFBC" fill-rule="evenodd"></path>
                                <ellipse id="Oval-3" stroke="none" fill="#E5CFBC" fill-rule="evenodd" cx="5.2987013" cy="20.5893174" rx="2.0017316" ry="2.19889498"></ellipse>
                                <ellipse id="Oval-3-Copy" stroke="none" fill="#E5CFBC" fill-rule="evenodd" cx="24.8450216" cy="20.5893174" rx="2.0017316" ry="2.19889498"></ellipse>
                                <g id="Group-2" stroke="none" stroke-width="1" fill="none" fill-rule="evenodd" transform="translate(9.655411, 19.562718)">
                                    <ellipse id="Oval" fill="#494A4B" cx="1.63340724" cy="0.929216061" rx="1" ry="1"></ellipse>
                                    <ellipse id="Oval-Copy-2" fill="#494A4B" cx="9.37324464" cy="0.929216061" rx="1" ry="1"></ellipse>
                                    <g id="Oval-2-Copy" transform="translate(1.412987, 7.623285)">
                                        <mask id="mask-21" fill="white">
                                            <use xlink:href="#path-20"></use>
                                        </mask>
                                        <use id="Mask" fill="#372C28" xlink:href="#path-20"></use>
                                        <path d="M4.0034632,6.24949099 C6.21451488,6.24949099 8.00692641,4.48779205 8.00692641,2.31462629 C4.93842415,2.31462629 1.64065877,2.31462629 0,2.31462629 C0,4.48779205 1.79241153,6.24949099 4.0034632,6.24949099 Z" fill="#D96B70" mask="url(#mask-21)" transform="translate(4.003463, 4.282059) scale(1, -1) translate(-4.003463, -4.282059) "></path>
                                        <path d="M4.0034632,0.694387887 C5.4341437,0.694387887 6.59393939,-0.445534951 6.59393939,-1.85170103 C4.60843793,-1.85170103 2.47458975,-1.85170103 1.41298701,-1.85170103 C1.41298701,-0.445534951 2.57278271,0.694387887 4.0034632,0.694387887 Z" id="Oval-2-Copy-2" fill="#FFFFFF" mask="url(#mask-21)" transform="translate(4.003463, -0.578657) scale(1, -1) translate(-4.003463, 0.578657) "></path>
                                    </g>
                                    <path d="M5.54999472,1.6202384 C5.88925306,1.6202384 6.17831125,1.86656634 6.23212228,2.20152991 L6.63979029,4.73918705 C6.73648034,5.34106452 6.32694501,5.90736539 5.72506754,6.00405544 C5.66717372,6.01335593 5.60863083,6.01802836 5.54999472,6.01802836 C4.94040022,6.01802836 4.44622623,5.52385437 4.44622623,4.91425987 C4.44622623,4.85562376 4.45089866,4.79708087 4.46019915,4.73918705 L4.86786717,2.20152991 C4.92167819,1.86656634 5.21073638,1.6202384 5.54999472,1.6202384 Z" id="Rectangle-4" fill="#A38080" opacity="0.307914402"></path>
                                </g>
                                <g id="Group-4" stroke="none" stroke-width="1" fill="none" fill-rule="evenodd" transform="translate(15.328899, 10.720346) scale(-1, 1) translate(-15.328899, -10.720346) translate(3.769401, 0.000000)">
                                    <path d="M14.2721324,12.3317427 C17.6613786,10.5985506 19.7827935,11.2771133 20.636377,14.3674308 C21.4076905,16.7774505 21.2293431,18.848223 21.2117081,20.5949946 C23.2050765,16.4664082 23.4201186,10.1927109 21.9830216,7.74246696 C21.6146309,7.11436253 15.1711108,5.79666488 14.2721324,6.07299097 C13.3128172,6.36786328 13.3128172,8.45411386 14.2721324,12.3317427 Z" id="Path-5" fill="url(#linearGradient-22)"></path>
                                    <path d="M2.18259387,21.3680199 L2.95277668,12.4059571 C9.09711751,15.7945923 14.4606291,15.9693152 19.0433114,12.9301258 C25.917335,8.37134181 21.9264887,1.95689385 18.4999134,0.193261893 C19.0433114,1.32055861 18.5275588,4.41587638 14.7989714,3.43916402 C11.718715,2.63228349 9.68908402,0.627458303 5.27621823,2.94609845 C-0.470255442,5.96545259 -1.50146356,12.1060931 2.18259387,21.3680199 Z" id="Path-4" fill="url(#linearGradient-23)"></path>
                                </g>
                                <path d="M9.03182851,17.9904654 L13.3332861,17.9904654 C13.8802904,17.9904654 14.3237251,18.4339001 14.3237251,18.9809044 L14.3237251,22.1753658 C14.3237251,22.7223701 13.8802904,23.1658048 13.3332861,23.1658048 L9.03182851,23.1658048 C8.48482415,23.1658048 8.0413895,22.7223701 8.0413895,22.1753658 L8.0413895,18.9809044 C8.0413895,18.4339001 8.48482415,17.9904654 9.03182851,17.9904654 Z" id="Rectangle-21" stroke="#454545" stroke-width="0.742829251" fill-opacity="0.2265625" fill="#FFFFFF" fill-rule="evenodd"></path>
                                <polygon id="Rectangle-7" stroke="none" fill="#454545" fill-rule="evenodd" points="5.52845528 17.497576 8.0413895 19.7155785 8.0413895 21.4406917 5.52845528 19.2226891"></polygon>
                                <polygon id="Rectangle-7-Copy" stroke="none" fill="#454545" fill-rule="evenodd" points="24.8780488 17.497576 22.3651146 19.7155785 22.3651146 21.4406917 24.8780488 19.2226891"></polygon>
                                <rect id="Rectangle-2" stroke="none" fill="#454545" fill-rule="evenodd" x="14.0724316" y="20.208468" width="2.2616408" height="1"></rect>
                                <path d="M17.073218,17.9904654 L21.3746756,17.9904654 C21.9216799,17.9904654 22.3651146,18.4339001 22.3651146,18.9809044 L22.3651146,22.1753658 C22.3651146,22.7223701 21.9216799,23.1658048 21.3746756,23.1658048 L17.073218,23.1658048 C16.5262137,23.1658048 16.082779,22.7223701 16.082779,22.1753658 L16.082779,18.9809044 C16.082779,18.4339001 16.5262137,17.9904654 17.073218,17.9904654 Z" id="Rectangle-21-Copy" stroke="#454545" stroke-width="0.742829251" fill-opacity="0.2265625" fill="#FFFFFF" fill-rule="evenodd"></path>
                            </g>
                        </g>
                    </g>
                </g>
                <g id="pages" transform="translate(178.000000, 81.000000) scale(-1, 1) translate(-178.000000, -81.000000) translate(120.000000, 3.000000)">
                    <path d="M6,0 L116,0 L116,0 L116,156 L6,156 C2.6862915,156 4.05812251e-16,153.313708 0,150 L0,6 C-4.05812251e-16,2.6862915 2.6862915,6.08718376e-16 6,0 Z" id="Rectangle-4-Copy" fill="#E7F5F9"></path>
                    <path d="M115.5,0.5 L115.5,155.5 L10,155.5 C8.48121694,155.5 7.10621694,154.884392 6.1109127,153.889087 C5.11560847,152.893783 4.5,151.518783 4.5,150 L4.5,150 L4.5,6 C4.5,4.48121694 5.11560847,3.10621694 6.1109127,2.1109127 C7.10621694,1.11560847 8.48121694,0.5 10,0.5 L10,0.5 L115.5,0.5 Z" id="Rectangle-4-Copy-2" stroke="#E2E8FA" fill="url(#linearGradient-24)"></path>
                </g>
                <line x1="120" y1="6" x2="120" y2="156" id="Line" stroke="#EBF0F8" stroke-linecap="square"></line>
                <g id="photos" transform="translate(174.503727, 80.939065) rotate(7.000000) translate(-174.503727, -80.939065) translate(127.003727, 37.939065)">
                    <g id="Group-Copy" filter="url(#filter-25)" transform="translate(61.237645, 46.469718) rotate(7.000000) translate(-61.237645, -46.469718) translate(31.892467, 10.397496)">
                        <mask id="mask-27" fill="white">
                            <use xlink:href="#path-26"></use>
                        </mask>
                        <rect stroke="#FFFFFF" stroke-width="3.325" x="0.0151488086" y="-1.6625" width="58.0582924" height="74.2978238"></rect>
                        <g id="Group-5" mask="url(#mask-27)">
                            <g transform="translate(33.966125, 17.690380) rotate(24.000000) translate(-33.966125, -17.690380) translate(7.483892, 0.251491)">
                                <polygon id="Triangle-2" stroke="none" fill="#ACFF8F" fill-rule="evenodd" transform="translate(9.580279, 16.235482) rotate(220.000000) translate(-9.580279, -16.235482) " points="9.58027934 9.06881523 15.5447463 23.4021486 3.61581233 23.4021486"></polygon>
                                <polygon id="Triangle-2-Copy" stroke="none" fill="#FF8080" fill-rule="evenodd" transform="translate(26.702203, 25.560525) rotate(195.000000) translate(-26.702203, -25.560525) " points="26.7022028 18.3938586 32.6666699 32.7271919 20.7377358 32.7271919"></polygon>
                                <polygon id="Triangle-2-Copy-2" stroke="none" fill="#FFEE63" fill-rule="evenodd" transform="translate(46.053431, 26.550964) rotate(172.000000) translate(-46.053431, -26.550964) " points="46.0534309 19.3842978 52.0178979 33.7176311 40.0889639 33.7176311"></polygon>
                                <path d="M5.32144257,0.0563296175 C15.825089,16.3923176 31.0982873,22.3774273 51.1410375,18.0116587" id="Path-4" stroke="#FFFFFF" stroke-width="1.425" fill="none"></path>
                            </g>
                        </g>
                        <rect id="Rectangle-2" fill="#FFFFFF" x="0" y="52.5555556" width="58.3181732" height="19.2571833"></rect>
                        <rect id="Rectangle-3" fill="#E5E9F5" x="1.79232773" y="58.7595441" width="45.8071066" height="3.34444444" rx="1.67222222"></rect>
                        <rect id="Rectangle-3-Copy" fill="#E5E9F5" x="1.98356803" y="65.0408115" width="26.7208122" height="3.34444444" rx="1.67222222"></rect>
                    </g>
                    <g id="Group" filter="url(#filter-28)" transform="translate(34.516833, 39.779892) rotate(-7.000000) translate(-34.516833, -39.779892) translate(5.171655, 3.707670)">
                        <mask id="mask-30" fill="white">
                            <use xlink:href="#path-29"></use>
                        </mask>
                        <rect stroke="#FFFFFF" stroke-width="3.325" x="0.0151488086" y="-1.6625" width="58.0582924" height="74.2978238"></rect>
                        <path d="M68.1544828,-24.3575372 C77.7673338,-24.3575372 85.5600892,-16.7426707 85.5600892,-7.3492569 C85.5600892,-6.89557739 85.5419114,-6.44604663 85.5062286,-6.00132214 C91.4803037,-3.30747037 95.6259821,2.59770122 95.6259821,9.44904459 C95.6259821,18.8424584 87.8332267,26.4573248 78.2203757,26.4573248 C72.9524239,26.4573248 68.2310767,24.1704549 65.0392958,20.5572381 C61.993533,24.5356857 56.451468,26.4573248 50.1197582,26.4573248 C42.0315616,26.4573248 35.231891,23.3216341 33.2784211,16.7685688 C32.9533938,16.7881077 32.6253073,16.7983015 32.2947396,16.7983015 C23.9558809,16.7983015 17.1959003,10.3115634 17.1959003,2.30976645 C17.1959003,-5.69203049 23.9558809,-12.1787686 32.2947396,-12.1787686 L32.3558495,-12.1786524 L32.3558495,-12.1786524 C33.0085811,-19.0096649 38.9287501,-24.3575372 46.1353422,-24.3575372 C50.2177732,-24.3575372 53.8873832,-22.641373 56.4206767,-19.9115285 C59.5150204,-22.6731885 63.6334562,-24.3575372 68.1544828,-24.3575372 Z" id="cloud" fill="url(#linearGradient-31)" mask="url(#mask-30)"></path>
                        <path d="M63.5971915,40.0623117 L101.078341,63.1819868 L101.078341,63.1819868 L1.67764881,63.1819868 L39.1587981,40.0623117 C46.6496984,35.4416641 56.1062911,35.4416641 63.5971915,40.0623117 Z" id="Triangle" fill="#86E074" mask="url(#mask-30)" transform="translate(51.377995, 49.649167) rotate(-3.000000) translate(-51.377995, -49.649167) "></path>
                        <path d="M26.1549509,28.7268659 L61.6535937,58.3740977 L61.6535937,58.3740977 L-31.8753274,58.3740977 L3.62331542,28.7268659 C10.1460516,23.2793035 19.6322147,23.2793035 26.1549509,28.7268659 Z" id="Triangle-Copy" fill="#8EE57D" mask="url(#mask-30)"></path>
                        <rect id="Rectangle-2" fill="#FFFFFF" x="0" y="52.5555556" width="58.3181732" height="19.2571833"></rect>
                        <path d="M3.46454996,58.7595441 L45.9272121,58.7595441 C46.8507549,58.7595441 47.5994343,59.5082235 47.5994343,60.4317663 C47.5994343,61.3553092 46.8507549,62.1039885 45.9272121,62.1039885 L3.46454996,62.1039885 C2.54100712,62.1039885 1.79232773,61.3553092 1.79232773,60.4317663 C1.79232773,59.5082235 2.54100712,58.7595441 3.46454996,58.7595441 Z" id="Rectangle-3" fill="#E5E9F5"></path>
                        <rect id="Rectangle-3-Copy" fill="#E5E9F5" x="1.98356803" y="65.0408115" width="26.7208122" height="3.34444444" rx="1.67222222"></rect>
                    </g>
                </g>
            </g>
        </g>
    </g>
</svg>