<?xml version="1.0" encoding="UTF-8"?>
<svg width="236px" height="236px" viewBox="0 0 236 236" version="1.1" xmlns="http://www.w3.org/2000/svg" xmlns:xlink="http://www.w3.org/1999/xlink">
    <title>Artwork</title>
    <defs>
        <circle id="path-1" cx="118" cy="118" r="118"></circle>
        <linearGradient x1="139.178011%" y1="25.8080182%" x2="-48.7411208%" y2="25.8080184%" id="linearGradient-3">
            <stop stop-color="#D1DBF9" offset="0%"></stop>
            <stop stop-color="#AF8DFF" offset="100%"></stop>
        </linearGradient>
        <polygon id="path-4" points="0 0 56 0 56 83 0 83"></polygon>
        <linearGradient x1="32.2194527%" y1="50%" x2="47.0319916%" y2="-33.704468%" id="linearGradient-6">
            <stop stop-color="#FFF2CA" offset="0%"></stop>
            <stop stop-color="#FFC8A8" offset="100%"></stop>
        </linearGradient>
        <path d="M4.56807053,0.0884588829 L35.124497,0.0884588829 C37.333636,0.0884588829 39.124497,1.87931988 39.124497,4.08845888 L39.124497,53.2084589 C39.124497,55.4175979 37.333636,57.2084589 35.124497,57.2084589 L4.56807053,57.2084589 C2.35893153,57.2084589 0.568070529,55.4175979 0.568070529,53.2084589 L0.568070529,4.08845888 C0.568070529,1.87931988 2.35893153,0.0884588829 4.56807053,0.0884588829 Z" id="path-7"></path>
        <linearGradient x1="50%" y1="50%" x2="50%" y2="0%" id="linearGradient-9">
            <stop stop-color="#FFF2CA" offset="0%"></stop>
            <stop stop-color="#FFC8A8" offset="100%"></stop>
        </linearGradient>
        <path d="M6.71357355,0.0284179664 L51.1195735,0.0284179664 C54.433282,0.0284179664 57.1195735,2.71470947 57.1195735,6.02841797 L57.1195735,51.148418 C57.1195735,54.4621265 54.433282,57.148418 51.1195735,57.148418 L6.71357355,57.148418 C3.39986505,57.148418 0.713573546,54.4621265 0.713573546,51.148418 L0.713573546,6.02841797 C0.713573546,2.71470947 3.39986505,0.0284179664 6.71357355,0.0284179664 Z" id="path-10"></path>
        <linearGradient x1="50%" y1="100%" x2="50%" y2="0%" id="linearGradient-12">
            <stop stop-color="#FFC8E6" offset="0%"></stop>
            <stop stop-color="#FF8EC0" offset="100%"></stop>
        </linearGradient>
        <rect id="path-13" x="0" y="0" width="48" height="39"></rect>
        <path d="M2.34557462,2.35074108 C3.64099971,2.35074108 4.69114924,1.29827845 4.69114924,0 C2.89335552,0 0.961239651,0 0,0 C0,1.29827845 1.05014953,2.35074108 2.34557462,2.35074108 Z" id="path-15"></path>
        <path d="M1.98471699,1.98908861 C3.08084591,1.98908861 3.96943397,1.0985433 3.96943397,0 C2.4482239,0 0.813356627,0 0,0 C0,1.0985433 0.888588062,1.98908861 1.98471699,1.98908861 Z" id="path-17"></path>
        <path d="M24.1611081,9.99671229 C24.1611081,6.23418018 21.5455213,4.07610847 17.7084225,2.43490557 C16.0277616,1.71605372 14.1127576,0.200076432 12.080554,0.200076432 C9.63266707,0.200076432 7.35482938,1.89955051 5.45177492,2.91436495 C2.16790685,4.66550598 0,6.57127552 0,9.99671229 C0,15.4072449 24.1611081,15.4072449 24.1611081,9.99671229 Z" id="path-19"></path>
        <path d="M3.13541097,3.14231716 C4.86705064,3.14231716 6.27082194,1.73545385 6.27082194,0 C3.8676487,0 1.28492239,0 0,0 C0,1.73545385 1.40377131,3.14231716 3.13541097,3.14231716 Z" id="path-21"></path>
        <polygon id="path-23" points="0 0 109 0 109 57 0 57"></polygon>
        <linearGradient x1="50%" y1="35.6730229%" x2="50%" y2="100%" id="linearGradient-25">
            <stop stop-color="#FFFFFF" offset="0%"></stop>
            <stop stop-color="#FFFFFF" stop-opacity="0.158486187" offset="100%"></stop>
        </linearGradient>
        <polygon id="path-26" points="0 0.0498938429 48 0.0498938429 48 39.0498938 0 39.0498938"></polygon>
    </defs>
    <g id="Empty-States" stroke="none" stroke-width="1" fill="none" fill-rule="evenodd">
        <g id="5.4_No-Photos" transform="translate(-70.000000, -149.000000)">
            <g id="Artwork" transform="translate(70.000000, 149.000000)">
                <mask id="mask-2" fill="white">
                    <use xlink:href="#path-1"></use>
                </mask>
                <use id="clip" fill="#FFFFFF" xlink:href="#path-1"></use>
                <path d="M76,48 L160,48 C176.568542,48 190,61.4314575 190,78 L190,238 L190,238 L46,238 L46,78 C46,61.4314575 59.4314575,48 76,48 Z" id="device" fill="#354659" mask="url(#mask-2)"></path>
                <rect id="screen" fill="#FFFFFF" mask="url(#mask-2)" x="53" y="86" width="129" height="152"></rect>
                <g id="1" mask="url(#mask-2)">
                    <g transform="translate(63.000000, 96.000000)">
                        <mask id="mask-5" fill="white">
                            <use xlink:href="#path-4"></use>
                        </mask>
                        <use id="Mask" stroke="none" fill="url(#linearGradient-3)" fill-rule="evenodd" xlink:href="#path-4"></use>
                        <g id="Group-4" stroke="none" stroke-width="1" fill="none" fill-rule="evenodd" mask="url(#mask-5)">
                            <g transform="translate(-10.250000, 34.040009)">
                                <g id="Group-3" transform="translate(9.282000, 0.000000)">
                                    <g id="Group-2" transform="translate(13.668000, 0.534649)">
                                        <polygon id="Rectangle-7" fill="#FFFFFF" points="2.04 10.2 3.468 10.2 3.468 19.482 2.04 19.482"></polygon>
                                        <path d="M2.14732205,7.94101471 C3.33031598,7.94101471 4.28932205,6.98200865 4.28932205,5.79901471 C4.28932205,4.61602078 4.1757287,2.86812192 2.31326381,0.48679843 C2.41099816,2.66231735 1.31664993,3.78380363 0.981067189,4.00204785 C0.393718037,4.38402684 0.00532204773,5.0461634 0.00532204773,5.79901471 C0.00532204773,6.98200865 0.964328114,7.94101471 2.14732205,7.94101471 Z" id="Oval-2" fill="#F9FF68"></path>
                                    </g>
                                    <g id="Group-2-Copy-3" transform="translate(6.386884, 0.074454)">
                                        <polygon id="Rectangle-7" fill="#FFFFFF" points="2.04 10.2 3.468 10.2 3.468 19.482 2.04 19.482"></polygon>
                                        <path d="M2.14732205,7.94101471 C3.33031598,7.94101471 4.28932205,6.98200865 4.28932205,5.79901471 C4.28932205,4.61602078 4.1757287,2.86812192 2.31326381,0.48679843 C2.41099816,2.66231735 1.31664993,3.78380363 0.981067189,4.00204785 C0.393718037,4.38402684 0.00532204773,5.0461634 0.00532204773,5.79901471 C0.00532204773,6.98200865 0.964328114,7.94101471 2.14732205,7.94101471 Z" id="Oval-2" fill="#F9FF68"></path>
                                    </g>
                                    <g id="Group-2-Copy" transform="translate(27.948000, 0.211710)">
                                        <polygon id="Rectangle-7" fill="#FFFFFF" points="2.04 10.2 3.468 10.2 3.468 19.482 2.04 19.482"></polygon>
                                        <path d="M2.14732205,7.94101471 C3.33031598,7.94101471 4.28932205,6.98200865 4.28932205,5.79901471 C4.28932205,4.61602078 4.1757287,2.86812192 2.31326381,0.48679843 C2.41099816,2.66231735 1.31664993,3.78380363 0.981067189,4.00204785 C0.393718037,4.38402684 0.00532204773,5.0461634 0.00532204773,5.79901471 C0.00532204773,6.98200865 0.964328114,7.94101471 2.14732205,7.94101471 Z" id="Oval-2" fill="#F9FF68"></path>
                                    </g>
                                    <g id="Group-2-Copy-2" transform="translate(21.828000, 0.460194)">
                                        <polygon id="Rectangle-7" fill="#FFFFFF" points="2.04 10.2 3.468 10.2 3.468 19.482 2.04 19.482"></polygon>
                                        <path d="M2.14732205,7.94101471 C3.33031598,7.94101471 4.28932205,6.98200865 4.28932205,5.79901471 C4.28932205,4.61602078 4.1757287,2.86812192 2.31326381,0.48679843 C2.41099816,2.66231735 1.31664993,3.78380363 0.981067189,4.00204785 C0.393718037,4.38402684 0.00532204773,5.0461634 0.00532204773,5.79901471 C0.00532204773,6.98200865 0.964328114,7.94101471 2.14732205,7.94101471 Z" id="Oval-2" fill="#F9FF68"></path>
                                    </g>
                                    <g id="Rectangle-4" transform="translate(0.000000, 15.320000)">
                                        <mask id="mask-8" fill="white">
                                            <use xlink:href="#path-7"></use>
                                        </mask>
                                        <use id="Mask" fill="url(#linearGradient-6)" xlink:href="#path-7"></use>
                                        <polygon fill="#BE8F7C" mask="url(#mask-8)" points="0.071048568 10.24 39.3410486 10.24 39.3410486 14.7676338 0.071048568 14.7676338"></polygon>
                                    </g>
                                </g>
                                <g id="Oval" transform="translate(-0.000000, 30.232000)">
                                    <mask id="mask-11" fill="white">
                                        <use xlink:href="#path-10"></use>
                                    </mask>
                                    <use id="Mask" fill="url(#linearGradient-9)" xlink:href="#path-10"></use>
                                    <polygon id="Rectangle-5" fill="#BE8F7C" mask="url(#mask-11)" points="1.62698529 14.713322 58.0329853 14.713322 58.0329853 18.283322 1.62698529 18.283322"></polygon>
                                    <polygon id="Rectangle-5-Copy" fill="#6A4E4E" mask="url(#mask-11)" points="0.527410315 20.7610824 57.6474103 20.7610824 57.6474103 24.3310824 0.527410315 24.3310824"></polygon>
                                    <circle fill="#FFFFFF" mask="url(#mask-11)" cx="3.71741918" cy="4.55228235" r="9.282"></circle>
                                    <circle id="Oval-Copy-4" fill="#FFFFFF" mask="url(#mask-11)" cx="54.0209935" cy="4.13067618" r="9.282"></circle>
                                    <circle id="Oval-Copy" fill="#FFFFFF" mask="url(#mask-11)" cx="14.7082076" cy="0.32533516" r="9.282"></circle>
                                    <circle id="Oval-Copy-2" fill="#FFFFFF" mask="url(#mask-11)" cx="29.055796" cy="0.00239684116" r="9.282"></circle>
                                    <circle id="Oval-Copy-3" fill="#FFFFFF" mask="url(#mask-11)" cx="43.4903992" cy="0.388136474" r="9.282"></circle>
                                    <circle id="Oval-3" fill="#FF8585" mask="url(#mask-11)" cx="5.27330734" cy="8.30333676" r="1.785"></circle>
                                    <circle id="Oval-3-Copy" fill="#FF8585" mask="url(#mask-11)" cx="16.065" cy="4.641" r="1.785"></circle>
                                    <circle id="Oval-3-Copy-2" fill="#FF8585" mask="url(#mask-11)" cx="28.917" cy="3.927" r="1.785"></circle>
                                    <circle id="Oval-3-Copy-3" fill="#FF8585" mask="url(#mask-11)" cx="42.483" cy="3.927" r="1.785"></circle>
                                    <circle id="Oval-3-Copy-4" fill="#FF8585" mask="url(#mask-11)" cx="52.3919853" cy="7.50232205" r="1.785"></circle>
                                </g>
                            </g>
                        </g>
                        <g id="Group-5" stroke="none" stroke-width="1" fill="none" fill-rule="evenodd" mask="url(#mask-5)">
                            <g transform="translate(35.500000, 15.500000) rotate(24.000000) translate(-35.500000, -15.500000) translate(9.000000, -2.000000)">
                                <polygon id="Triangle-2" stroke="none" fill="#C8FFE6" fill-rule="evenodd" transform="translate(9.586707, 16.292376) rotate(220.000000) translate(-9.586707, -16.292376) " points="9.58670659 9.10059509 15.5551751 23.4841567 3.61823812 23.4841567"></polygon>
                                <polygon id="Triangle-2-Copy" stroke="none" fill="#FFC9EC" fill-rule="evenodd" transform="translate(26.720117, 25.650097) rotate(195.000000) translate(-26.720117, -25.650097) " points="26.7201169 18.4583162 32.6885854 32.8418778 20.7516484 32.8418778"></polygon>
                                <polygon id="Triangle-2-Copy-2" stroke="none" fill="#FFF8BE" fill-rule="evenodd" transform="translate(46.084327, 26.644007) rotate(172.000000) translate(-46.084327, -26.644007) " points="46.0843274 19.4522262 52.0527958 33.8357878 40.1158589 33.8357878"></polygon>
                                <path d="M5.32501264,0.0565270134 C15.8357058,16.4497612 31.1191506,22.4558445 51.1753472,18.074777" id="Path-4" stroke="#FFFFFF" stroke-width="1.44" fill="none"></path>
                            </g>
                        </g>
                    </g>
                </g>
                <g id="3" mask="url(#mask-2)">
                    <g transform="translate(124.000000, 140.000000)">
                        <mask id="mask-14" fill="white">
                            <use xlink:href="#path-13"></use>
                        </mask>
                        <use id="Mask" stroke="none" fill="url(#linearGradient-12)" fill-rule="evenodd" xlink:href="#path-13"></use>
                        <g id="Group-5-Copy" stroke="none" stroke-width="1" fill="none" fill-rule="evenodd" mask="url(#mask-14)">
                            <g transform="translate(-3.000000, 2.000000)">
                                <g id="Group-Copy" transform="translate(0.000000, 8.133056)">
                                    <path d="M18.0747221,29.0865406 C18.0747221,26.271822 16.1180235,24.6573866 13.2475221,23.4296165 C11.9902338,22.8918495 10.5576355,21.7577596 9.03736104,21.7577596 C7.20611735,21.7577596 5.5020861,23.0291219 4.07842704,23.7882961 C1.62179291,25.09831 0,26.5240002 0,29.0865406 C0,33.1341146 18.0747221,33.1341146 18.0747221,29.0865406 Z" id="Oval-11" fill="#D0DAEC"></path>
                                    <path d="M8.83039857,16.9179986 C10.0226654,16.9179986 10.9891887,17.8845218 10.9891887,19.0767887 C10.9891887,19.0928761 10.9890089,19.1089631 10.9886493,19.1250466 L10.9261366,21.9208201 C10.9006646,23.0600093 9.96987255,23.9702218 8.83039857,23.9702218 C7.69092459,23.9702218 6.76013253,23.0600093 6.73466058,21.9208201 L6.67214789,19.1250466 C6.6454958,17.9330776 7.59017176,16.9451901 8.7821407,16.918538 C8.79822415,16.9181784 8.81431111,16.9179986 8.83039857,16.9179986 Z" id="Rectangle-Copy" fill="#C4A588"></path>
                                    <path d="M8.83039857,3.14231716 C11.9578047,3.14231716 14.4930683,5.67758076 14.4930683,8.8049869 C14.4930683,8.8485695 14.4925652,8.89215064 14.491559,8.93572162 L14.335655,15.6867753 C14.2665843,18.6777221 11.8221428,21.0663652 8.83039857,21.0663652 C5.83865434,21.0663652 3.39421285,18.6777221 3.3251421,15.6867753 L3.16923818,8.93572162 C3.09703539,5.80914907 5.5730913,3.2160293 8.69966385,3.14382651 C8.74323483,3.14282031 8.78681597,3.14231716 8.83039857,3.14231716 Z" id="Rectangle" fill="#A08165"></path>
                                    <path d="M3.21988545,12.9976803 C3.59406488,15.455748 4.03880298,17.0097255 4.55409976,17.659613 C5.50956923,18.8646422 7.09390883,20.2065256 8.78799315,20.2065256 C10.4597718,20.2065256 12.1197247,18.8331185 13.089037,17.659613 C13.6273963,17.0078442 14.0780212,15.4538666 14.4409117,12.9976803 L14.313165,19.7528311 C14.2566658,22.7404717 11.8185734,25.1328933 8.83039857,25.1328933 C5.84222378,25.1328933 3.40413136,22.7404717 3.34763209,19.7528311 L3.21988545,12.9976803 L3.21988545,12.9976803 Z" id="Rectangle-Copy-2" fill="#343434"></path>
                                    <ellipse id="Oval-4" fill="#343434" cx="8.8529251" cy="21.811378" rx="2.76653909" ry="2.77263279"></ellipse>
                                    <ellipse id="Oval-3" fill="#A08165" cx="3.104437" cy="12.0090981" rx="1.17278731" ry="1.31364943"></ellipse>
                                    <ellipse id="Oval-3-Copy" fill="#A08165" cx="14.5563601" cy="12.0090981" rx="1.17278731" ry="1.31364943"></ellipse>
                                    <g id="Group-2" transform="translate(5.656974, 10.878880)">
                                        <path d="M0.836434372,1.83958686e-05 C0.836434372,1.83958686e-05 0.836434372,1.83958686e-05 0.836434372,1.83958686e-05 C0.836434372,1.83958686e-05 0.836434372,1.83958686e-05 0.836434372,1.83958686e-05 C1.2889204,1.83958686e-05 1.6557328,0.366830798 1.65569973,0.819316828 L1.65569973,0.87048324 C1.65569973,0.981192478 1.56595216,1.07094005 1.45524292,1.07094005 C1.41610551,1.07094005 1.37782415,1.05948325 1.34513617,1.03796037 C1.17530954,0.92630895 1.00435123,0.87048324 0.832261264,0.87048324 C0.659155662,0.87048324 0.48605006,0.926969833 0.312944457,1.03994302 C0.219354026,1.10101714 0.0939725625,1.07466255 0.0328946458,0.981074591 C0.0114295879,0.948184293 2.22513666e-17,0.909758174 0,0.87048324 L0,0.836489125 C-3.6356558e-05,0.374519098 0.374464345,1.83958686e-05 0.836434372,1.83958686e-05 Z" id="Rectangle-3-Copy" fill="#56433B"></path>
                                        <g id="Oval-2-Copy" transform="translate(0.827850, 5.625693)">
                                            <mask id="mask-16" fill="white">
                                                <use xlink:href="#path-15"></use>
                                            </mask>
                                            <use id="Mask" fill="#372C28" xlink:href="#path-15"></use>
                                            <path d="M2.34557462,3.73352996 C3.64099971,3.73352996 4.69114924,2.68106732 4.69114924,1.38278887 C2.89335552,1.38278887 0.961239651,1.38278887 0,1.38278887 C0,2.68106732 1.05014953,3.73352996 2.34557462,3.73352996 Z" fill="#D96B70" mask="url(#mask-16)" transform="translate(2.345575, 2.558159) scale(1, -1) translate(-2.345575, -2.558159) "></path>
                                            <path d="M2.34557462,0.414836662 C3.18379086,0.414836662 3.86329937,-0.266168571 3.86329937,-1.1062311 C2.70002108,-1.1062311 1.44982846,-1.1062311 0.827849866,-1.1062311 C0.827849866,-0.266168571 1.50735838,0.414836662 2.34557462,0.414836662 Z" id="Oval-2-Copy-2" fill="#FFFFFF" mask="url(#mask-16)" transform="translate(2.345575, -0.345697) scale(1, -1) translate(-2.345575, 0.345697) "></path>
                                        </g>
                                        <path d="M3.104437,0.967952211 C3.30305825,0.967952211 3.47214535,1.11248565 3.5030564,1.30868684 L3.74519906,2.84563489 C3.80095253,3.199518 3.55927071,3.53159407 3.2053876,3.58734754 C3.17199475,3.59260851 3.13824173,3.59525107 3.104437,3.59525107 C2.74618889,3.59525107 2.45577141,3.30483359 2.45577141,2.94658548 C2.45577141,2.91278075 2.45841397,2.87902774 2.46367494,2.84563489 L2.70581759,1.30868684 C2.73672864,1.11248565 2.90581574,0.967952211 3.104437,0.967952211 Z" id="Rectangle-4" fill="#29211D" opacity="0.200000003"></path>
                                        <path d="M5.52758361,1.83958686e-05 C5.52758361,1.83958686e-05 5.52758361,1.83958686e-05 5.52758361,1.83958686e-05 C5.52758361,1.83958686e-05 5.52758361,1.83958686e-05 5.52758361,1.83958686e-05 C5.98006964,1.83958686e-05 6.34688204,0.366830798 6.34684897,0.819316828 L6.34684897,0.87048324 C6.34684897,0.981192478 6.2571014,1.07094005 6.14639216,1.07094005 C6.10725475,1.07094005 6.06897339,1.05948325 6.03628541,1.03796037 C5.86645878,0.92630895 5.69550047,0.87048324 5.5234105,0.87048324 C5.3503049,0.87048324 5.1771993,0.926969833 5.0040937,1.03994302 C4.91050327,1.10101714 4.7851218,1.07466255 4.72404389,0.981074591 C4.70257883,0.948184293 4.69114924,0.909758174 4.69114924,0.87048324 L4.69114924,0.836489125 C4.69111288,0.374519098 5.06561358,1.83958686e-05 5.52758361,1.83958686e-05 Z" id="Rectangle-3-Copy-2" fill="#56433B"></path>
                                    </g>
                                    <path d="M7.64093117,5.03299594 C7.15250902,4.43902833 7.12858992,3.39788331 8.12935332,2.55235991 C9.13011673,1.70683651 8.58972221,0.245741295 7.64093117,0.229464156 C6.69214013,0.213187016 10.203228,-0.44026614 10.5859337,2.71557522 C10.9686393,5.87141659 8.12935332,5.62696355 7.64093117,5.03299594 Z" id="Path-2" fill="#343434"></path>
                                    <path d="M9.06593449,14.8759328 C9.57487073,14.4880691 10.4669672,14.4690745 11.191447,15.2637966 C11.9159267,16.0585186 13.1678541,15.6293828 13.181801,14.8759328 C13.195748,14.1224829 13.7556539,16.9106933 11.0515973,17.2146058 C8.34754068,17.5185184 8.55699825,15.2637966 9.06593449,14.8759328 Z" id="Path-2-Copy" fill="#343434"></path>
                                    <path d="M8.49991433,14.8759328 C7.99097809,14.4880691 7.09888157,14.4690745 6.37440183,15.2637966 C5.64992209,16.0585186 4.39799472,15.6293828 4.38404779,14.8759328 C4.37010086,14.1224829 3.81019492,16.9106933 6.51425153,17.2146058 C9.21830813,17.5185184 9.00885057,15.2637966 8.49991433,14.8759328 Z" id="Path-2-Copy-2" fill="#343434"></path>
                                </g>
                                <g id="Group-Copy-2" transform="translate(35.965008, 9.981478)">
                                    <polygon id="Rectangle-20" fill="#AEA7FF" points="1.65992346 9.79663586 15.6770549 9.79663586 15.6770549 25.5082217 1.65992346 25.5082217"></polygon>
                                    <path d="M18.0747221,27.2381188 C18.0747221,24.4234001 16.1180235,22.8089648 13.2475221,21.5811947 C12.5545709,21.2848057 12.3616746,21.17696 11.5768893,20.8079919 C10.9377629,20.5075056 12.4053194,22.9989777 9.03736104,22.9989777 C5.66940264,22.9989777 6.61651434,20.6830157 5.91103444,20.9936754 C4.917304,21.4312667 4.91100987,21.4958947 4.07842704,21.9398742 C1.62179291,23.2498881 0,24.6755783 0,27.2381188 C0,31.2856928 18.0747221,31.2856928 18.0747221,27.2381188 Z" id="Oval-11" fill="#A7F888"></path>
                                    <ellipse id="Oval-6" fill="#87EA5F" cx="8.76070713" cy="23.1976944" rx="3.9653727" ry="3.974107"></ellipse>
                                    <path d="M8.83039857,15.0695767 C10.0226654,15.0695767 10.9891887,16.0361 10.9891887,17.2283668 C10.9891887,17.2444543 10.9890089,17.2605412 10.9886493,17.2766247 L10.9261366,20.0723982 C10.9006646,21.2115875 9.96987255,22.1217999 8.83039857,22.1217999 C7.69092459,22.1217999 6.76013253,21.2115875 6.73466058,20.0723982 L6.67214789,17.2766247 C6.6454958,16.0846558 7.59017176,15.0967682 8.7821407,15.0701161 C8.79822415,15.0697565 8.81431111,15.0695767 8.83039857,15.0695767 Z" id="Rectangle-Copy" fill="#F2DDCA"></path>
                                    <path d="M8.81972119,4.56923775 L8.84107595,4.56923775 C11.8263197,4.56923775 14.2463379,6.98925596 14.2463379,9.97449972 C14.2463379,10.0965221 14.242206,10.2185094 14.2339492,10.3402521 L13.8425508,16.1112664 C12.2947907,18.1823843 10.6240733,19.2179433 8.83039857,19.2179433 C7.03672386,19.2179433 5.36600644,18.1823843 3.81824632,16.1112664 L3.81824632,16.1112664 L3.42684791,10.3402521 C3.22484847,7.36185039 5.47556718,4.78362588 8.45396885,4.58162644 C8.57571151,4.57336968 8.69769886,4.56923775 8.81972119,4.56923775 Z" id="Rectangle" fill="#FFEBD8"></path>
                                    <path d="M8.76122638,11.4771476 C8.9027995,11.4771476 9.02282984,11.5812463 9.0428555,11.7213959 L9.22725014,13.0118824 C9.26402626,13.2692602 9.08519326,13.5077191 8.82781544,13.5444952 C8.80575907,13.5476468 8.78350678,13.5492286 8.76122638,13.5492286 C8.50123441,13.5492286 8.29046928,13.3384634 8.29046928,13.0784715 C8.29046928,13.0561911 8.29205104,13.0339388 8.29520262,13.0118824 L8.47959726,11.7213959 C8.49962292,11.5812463 8.61965326,11.4771476 8.76122638,11.4771476 Z" id="Rectangle-4" fill="#A5725C" opacity="0.200000003"></path>
                                    <path d="M11.1845577,9.21531853 C11.1845577,9.21531853 11.1845577,9.21531853 11.1845577,9.21531853 C11.1845577,9.21531853 11.1845577,9.21531853 11.1845577,9.21531853 C11.6370437,9.21531853 12.0038561,9.58213093 12.0038231,10.034617 L12.0038231,10.0857834 C12.0038231,10.1964926 11.9140755,10.2862402 11.8033662,10.2862402 C11.7642288,10.2862402 11.7259475,10.2747834 11.6932595,10.2532605 C11.5234329,10.1416091 11.3524746,10.0857834 11.1803846,10.0857834 C11.007279,10.0857834 10.8341734,10.14227 10.6610678,10.2552431 C10.5674773,10.3163173 10.4420959,10.2899627 10.381018,10.1963747 C10.3595529,10.1634844 10.3481233,10.1250583 10.3481233,10.0857834 L10.3481233,10.0517893 C10.348087,9.58981923 10.7225877,9.21531853 11.1845577,9.21531853 Z" id="Rectangle-3-Copy-2" fill="#81685D"></path>
                                    <g id="Group-4" transform="translate(4.795334, 10.536005)" fill="#81685D">
                                        <path d="M0.475118629,0.501406732 C0.924680768,0.175616962 1.32014212,0.0127220763 1.66150269,0.0127220763 C2.00286325,0.0127220763 2.34422382,0.194068919 2.68558439,0.556762604 C2.68558439,0.720194854 2.55309637,0.852682869 2.38966412,0.852682869 C2.33634997,0.852682869 2.28402607,0.838279575 2.23822941,0.810983717 C2.04541254,0.69612635 1.8514315,0.638697667 1.6562863,0.638697667 C1.48623519,0.638697667 1.30489469,0.704783996 1.11226481,0.836956654 C0.926941945,0.964074281 0.673651729,0.916928028 0.546505997,0.731624445 C0.50000654,0.663855627 0.475118629,0.583594398 0.475118629,0.501406732 L0.475118629,0.501406732 L0.475118629,0.501406732 Z" id="Rectangle-3-Copy"></path>
                                        <path d="M0.054986319,0.0854941262 C0.199587883,0.556447944 0.468394846,0.829164927 0.861407208,0.903645076 C1.09389988,0.740744227 1.00487497,0.203021228 0.691059609,0.35881437 C0.529225091,0.439156863 0.317200661,0.348050115 0.054986319,0.0854941262 Z" id="Path-5"></path>
                                    </g>
                                    <g id="Group-4-Copy" transform="translate(11.158374, 10.998110) scale(-1, 1) translate(-11.158374, -10.998110) translate(9.775105, 10.536005)" fill="#81685D">
                                        <path d="M0.475118629,0.501406732 C0.924680768,0.175616962 1.32014212,0.0127220763 1.66150269,0.0127220763 C2.00286325,0.0127220763 2.34422382,0.194068919 2.68558439,0.556762604 C2.68558439,0.720194854 2.55309637,0.852682869 2.38966412,0.852682869 C2.33634997,0.852682869 2.28402607,0.838279575 2.23822941,0.810983717 C2.04541254,0.69612635 1.8514315,0.638697667 1.6562863,0.638697667 C1.48623519,0.638697667 1.30489469,0.704783996 1.11226481,0.836956654 C0.926941945,0.964074281 0.673651729,0.916928028 0.546505997,0.731624445 C0.50000654,0.663855627 0.475118629,0.583594398 0.475118629,0.501406732 L0.475118629,0.501406732 L0.475118629,0.501406732 Z" id="Rectangle-3-Copy"></path>
                                        <path d="M0.054986319,0.0854941262 C0.199587883,0.556447944 0.468394846,0.829164927 0.861407208,0.903645076 C1.09389988,0.740744227 1.00487497,0.203021228 0.691059609,0.35881437 C0.529225091,0.439156863 0.317200661,0.348050115 0.054986319,0.0854941262 Z" id="Path-5"></path>
                                    </g>
                                    <path d="M11.857989,10.4332233 C14.5573097,10.4332233 17.1709439,9.46019156 17.2982757,8.50459534 C17.4256075,7.54899912 13.1941156,2.88380777 10.494795,2.88380777 C7.79547434,2.88380777 5.77708014,3.83235219 5.41044786,5.8080837 C5.04381559,7.78381522 9.15866839,10.4332233 11.857989,10.4332233 Z" id="Oval-5" fill="#AEA7FF" transform="translate(11.344308, 6.658516) rotate(35.000000) translate(-11.344308, -6.658516) "></path>
                                    <g id="Oval-2-Copy" transform="translate(6.839833, 14.643778)">
                                        <mask id="mask-18" fill="white">
                                            <use xlink:href="#path-17"></use>
                                        </mask>
                                        <use id="Mask" fill="#372C28" xlink:href="#path-17"></use>
                                        <path d="M1.98471699,3.15914073 C3.08084591,3.15914073 3.96943397,2.26859543 3.96943397,1.17005212 C2.4482239,1.17005212 0.813356627,1.17005212 0,1.17005212 C0,2.26859543 0.888588062,3.15914073 1.98471699,3.15914073 Z" fill="#D96B70" mask="url(#mask-18)" transform="translate(1.984717, 2.164596) scale(1, -1) translate(-1.984717, -2.164596) "></path>
                                        <path d="M1.98471699,0.351015637 C2.69397688,0.351015637 3.26894562,-0.22521956 3.26894562,-0.936041699 C2.28463322,-0.936041699 1.22677793,-0.936041699 0.700488348,-0.936041699 C0.700488348,-0.22521956 1.27545709,0.351015637 1.98471699,0.351015637 Z" id="Oval-2-Copy-2" fill="#FFFFFF" mask="url(#mask-18)" transform="translate(1.984717, -0.292513) scale(1, -1) translate(-1.984717, 0.292513) "></path>
                                    </g>
                                    <path d="M14.0461003,9.93819289 L14.0461003,16.9696915 C16.0227401,13.4377986 16.3120137,9.82892564 14.913921,6.14307256 C13.175193,2.19471989 12.8859195,3.45976 14.0461003,9.93819289 Z" id="Path-3" fill="#AEA7FF"></path>
                                    <path d="M7.59833376,5.65099025 C4.95420226,7.99203339 3.61874366,9.7096976 3.59195795,10.8039829 C3.56517225,11.8982681 3.5785651,13.7820257 3.63213651,16.4552555 C2.0744559,14.0321108 1.40434179,11.5948067 1.6217942,9.14334327 C1.9479728,5.46614806 4.74328134,2.16184019 7.88849021,1.83097593 C9.98529613,1.61039976 9.88857731,2.88373786 7.59833376,5.65099025 Z" id="Path-4" fill="#AEA7FF"></path>
                                </g>
                                <g id="Group" transform="translate(14.939311, 0.000000)">
                                    <g id="Rectangle-6" transform="translate(0.000000, 27.895936)">
                                        <mask id="mask-20" fill="white">
                                            <use xlink:href="#path-19"></use>
                                        </mask>
                                        <use id="Mask" fill="#69C2DC" xlink:href="#path-19"></use>
                                        <path d="M17.069758,10.3745216 L17.069758,10.3745216 L17.069758,10.3745216 L17.2119124,10.3507481 C18.4346434,10.1462624 19.5916311,10.9717132 19.7961169,12.1944441 C19.8165794,12.3168006 19.8268635,12.4406427 19.8268635,12.5646984 C19.8268635,14.0289525 18.639851,15.215965 17.1755969,15.215965 C15.7113427,15.215965 14.5243302,14.0289525 14.5243302,12.5646984 L14.5243302,12.5002843 C14.5243302,11.3071516 15.4915554,10.3399265 16.6846881,10.3399265 C16.8138207,10.3399265 16.9426932,10.3515045 17.069758,10.3745216 Z" fill="#62D186" mask="url(#mask-20)"></path>
                                    </g>
                                    <path d="M11.8039001,21.6265358 C13.3976446,21.6265358 14.6896298,22.9185209 14.6896298,24.5122654 C14.6896298,24.5337701 14.6893894,24.5552741 14.6889087,24.5767734 L14.6053458,28.3139809 C14.5712966,29.8367747 13.3270745,31.0534873 11.8039001,31.0534873 C10.2807257,31.0534873 9.03650368,29.8367747 9.00245445,28.3139809 L8.91889156,24.5767734 C8.8832648,22.9834272 10.1460459,21.6628836 11.7393922,21.6272569 C11.7608915,21.6267762 11.7823955,21.6265358 11.8039001,21.6265358 Z" id="Rectangle-Copy" fill="#E5C5A9"></path>
                                    <path d="M4.05759067,8.31789837 L19.5502096,8.31789837 L19.2079048,19.9818952 C19.090383,23.9864383 15.8101673,27.1718014 11.8039001,27.1718014 C7.79763292,27.1718014 4.51741725,23.9864383 4.39989542,19.9818952 L4.05759067,8.31789837 L4.05759067,8.31789837 Z" id="Rectangle" fill="#F8D9BC"></path>
                                    <ellipse id="Oval-3" fill="#F8D9BC" cx="4.14980864" cy="15.0646382" rx="1.56770549" ry="1.75600077"></ellipse>
                                    <ellipse id="Oval-3-Copy" fill="#F8D9BC" cx="19.4579916" cy="15.0646382" rx="1.56770549" ry="1.75600077"></ellipse>
                                    <g id="Group-2" transform="translate(7.561874, 14.048006)">
                                        <path d="M1.11809084,2.45903958e-05 C1.11809084,2.45903958e-05 1.11809084,2.45903958e-05 1.11809084,2.45903958e-05 C1.11809084,2.45903958e-05 1.11809084,2.45903958e-05 1.11809084,2.45903958e-05 C1.72294462,2.45903958e-05 2.21327548,0.490355455 2.21323127,1.09520923 L2.21323127,1.16360515 C2.21323127,1.31159403 2.09326258,1.43156272 1.94527371,1.43156272 C1.89295736,1.43156272 1.84178534,1.41624801 1.79809019,1.38747764 C1.57107703,1.23822931 1.34255114,1.16360515 1.11251251,1.16360515 C0.881116242,1.16360515 0.649719977,1.23911274 0.418323713,1.39012791 C0.293218137,1.47176781 0.125616385,1.43653871 0.0439714142,1.31143644 C0.0152783267,1.26747084 -4.90817351e-17,1.21610531 0,1.16360515 L0,1.11816403 C-4.85990724e-05,0.500632671 0.500559482,2.45903958e-05 1.11809084,2.45903958e-05 Z" id="Rectangle-3-Copy" fill="#5A4840"></path>
                                        <g id="Oval-2-Copy" transform="translate(1.106616, 6.284634)">
                                            <mask id="mask-22" fill="white">
                                                <use xlink:href="#path-21"></use>
                                            </mask>
                                            <use id="Mask" fill="#372C28" xlink:href="#path-21"></use>
                                            <path d="M3.13541097,4.99073902 C4.86705064,4.99073902 6.27082194,3.58387571 6.27082194,1.84842186 C3.8676487,1.84842186 1.28492239,1.84842186 0,1.84842186 C0,3.58387571 1.40377131,4.99073902 3.13541097,4.99073902 Z" fill="#D96B70" mask="url(#mask-22)" transform="translate(3.135411, 3.419580) scale(1, -1) translate(-3.135411, -3.419580) "></path>
                                            <path d="M3.13541097,0.554526558 C4.2558837,0.554526558 5.16420631,-0.355796763 5.16420631,-1.47873749 C3.60921186,-1.47873749 1.93803601,-1.47873749 1.10661564,-1.47873749 C1.10661564,-0.355796763 2.01493825,0.554526558 3.13541097,0.554526558 Z" id="Oval-2-Copy-2" fill="#FFFFFF" mask="url(#mask-22)" transform="translate(3.135411, -0.462105) scale(1, -1) translate(-3.135411, 0.462105) "></path>
                                        </g>
                                        <path d="M4.14980864,1.2938953 C4.41531256,1.2938953 4.64133716,1.48709816 4.68265703,1.7493671 L5.00633751,3.80385888 C5.08086512,4.27690671 4.75780064,4.72080432 4.28475281,4.79533192 C4.24011543,4.80236444 4.1949966,4.80589684 4.14980864,4.80589684 C3.67092596,4.80589684 3.28271485,4.41768572 3.28271485,3.93880305 C3.28271485,3.89361508 3.28624725,3.84849626 3.29327976,3.80385888 L3.61696025,1.7493671 C3.65828012,1.48709816 3.88430472,1.2938953 4.14980864,1.2938953 Z" id="Rectangle-4" fill="#AA8282" opacity="0.200000003"></path>
                                        <path d="M7.38891279,2.45903958e-05 C7.38891279,2.45903958e-05 7.38891279,2.45903958e-05 7.38891279,2.45903958e-05 C7.38891279,2.45903958e-05 7.38891279,2.45903958e-05 7.38891279,2.45903958e-05 C7.99376656,2.45903958e-05 8.48409743,0.490355455 8.48405322,1.09520923 L8.48405322,1.16360515 C8.48405322,1.31159403 8.36408453,1.43156272 8.21609565,1.43156272 C8.1637793,1.43156272 8.11260729,1.41624801 8.06891213,1.38747764 C7.84189898,1.23822931 7.61337308,1.16360515 7.38333445,1.16360515 C7.15193818,1.16360515 6.92054192,1.23911274 6.68914566,1.39012791 C6.56404008,1.47176781 6.39643833,1.43653871 6.31479336,1.31143644 C6.28610027,1.26747084 6.27082194,1.21610531 6.27082194,1.16360515 L6.27082194,1.11816403 C6.27077334,0.500632671 6.77138142,2.45903958e-05 7.38891279,2.45903958e-05 Z" id="Rectangle-3-Copy-2" fill="#5A4840"></path>
                                    </g>
                                    <ellipse id="Oval-2" fill="#FFFAB6" cx="4.51868052" cy="8.96484602" rx="1.56770549" ry="1.57115858"></ellipse>
                                    <ellipse id="Oval-2-Copy-18" fill="#FFFAB6" cx="4.51868052" cy="6.93158198" rx="1.56770549" ry="1.57115858"></ellipse>
                                    <ellipse id="Oval-2-Copy-10" fill="#FFFAB6" cx="5.80973209" cy="4.71347574" rx="2.85875706" ry="2.86505388"></ellipse>
                                    <ellipse id="Oval-2-Copy-11" fill="#FFFAB6" cx="8.39183525" cy="3.23473826" rx="2.85875706" ry="2.86505388"></ellipse>
                                    <ellipse id="Oval-2-Copy-12" fill="#FFFAB6" cx="8.94514307" cy="5.2680023" rx="2.85875706" ry="2.86505388"></ellipse>
                                    <ellipse id="Oval-2-Copy-13" fill="#FFFAB6" cx="11.7116822" cy="2.86505388" rx="2.85875706" ry="2.86505388"></ellipse>
                                    <ellipse id="Oval-2-Copy-14" fill="#FFFAB6" cx="13.7404775" cy="4.52863356" rx="2.85875706" ry="2.86505388"></ellipse>
                                    <ellipse id="Oval-2-Copy-15" fill="#FFFAB6" cx="15.5848369" cy="3.04989607" rx="2.85875706" ry="2.86505388"></ellipse>
                                    <ellipse id="Oval-2-Copy-16" fill="#FFFAB6" cx="17.7980682" cy="4.89831793" rx="2.85875706" ry="2.86505388"></ellipse>
                                    <polygon id="Rectangle-5" fill="#FFFAB6" points="3.68871879 8.68758274 4.61089849 8.68758274 4.61089849 14.9722171 3.87315473 13.4934796"></polygon>
                                    <polygon id="Rectangle-5-Copy" fill="#FFFAB6" points="19.1813377 8.68758274 20.1035174 8.68758274 19.9190815 13.4934796 19.1813377 14.9722171"></polygon>
                                    <ellipse id="Oval-2-Copy-3" fill="#FFFAB6" cx="6.17860397" cy="7.67095072" rx="1.56770549" ry="1.57115858"></ellipse>
                                    <ellipse id="Oval-2-Copy-4" fill="#FFFAB6" cx="7.83852743" cy="8.41031947" rx="1.56770549" ry="1.57115858"></ellipse>
                                    <ellipse id="Oval-2-Copy-5" fill="#FFFAB6" cx="10.2361946" cy="8.04063509" rx="1.56770549" ry="1.57115858"></ellipse>
                                    <ellipse id="Oval-2-Copy-6" fill="#FFFAB6" cx="12.6338619" cy="7.48610854" rx="1.56770549" ry="1.57115858"></ellipse>
                                    <ellipse id="Oval-2-Copy-7" fill="#FFFAB6" cx="14.6626572" cy="8.41031947" rx="1.56770549" ry="1.57115858"></ellipse>
                                    <ellipse id="Oval-2-Copy-8" fill="#FFFAB6" cx="16.6914525" cy="7.67095072" rx="1.56770549" ry="1.57115858"></ellipse>
                                    <ellipse id="Oval-2-Copy-9" fill="#FFFAB6" cx="18.9046838" cy="8.59516165" rx="1.56770549" ry="1.57115858"></ellipse>
                                    <ellipse id="Oval-2-Copy-17" fill="#FFFAB6" cx="19.2735557" cy="6.93158198" rx="1.56770549" ry="1.57115858"></ellipse>
                                </g>
                            </g>
                        </g>
                    </g>
                </g>
                <g id="4" mask="url(#mask-2)">
                    <g transform="translate(63.000000, 184.000000)">
                        <mask id="mask-24" fill="white">
                            <use xlink:href="#path-23"></use>
                        </mask>
                        <use id="Mask" stroke="none" fill="#FFDDC1" fill-rule="evenodd" xlink:href="#path-23"></use>
                        <path d="M48.9585826,-33 C58.5714335,-33 66.3641889,-25.3851336 66.3641889,-15.9917197 C66.3641889,-15.5380402 66.3460111,-15.0885095 66.3103283,-14.643785 C72.2844034,-11.9499332 76.4300818,-6.04476163 76.4300818,0.806581741 C76.4300818,10.1999955 68.6373264,17.814862 59.0244754,17.814862 C53.7565236,17.814862 49.0351764,15.5279921 45.8433956,11.9147752 C42.7976328,15.8932228 37.2555677,17.814862 30.9238579,17.814862 C22.8356613,17.814862 16.0359907,14.6791712 14.0825208,8.12610593 C13.7574935,8.14564489 13.429407,8.15583864 13.0988393,8.15583864 C4.7599806,8.15583864 -2,1.66910055 -2,-6.33269639 C-2,-14.3344933 4.7599806,-20.8212314 13.0988393,-20.8212314 L13.1599492,-20.8211153 L13.1599492,-20.8211153 C13.8126808,-27.6521278 19.7328499,-33 26.9394419,-33 C31.0218729,-33 34.691483,-31.2838358 37.2247764,-28.5539914 C40.3191201,-31.3156513 44.4375559,-33 48.9585826,-33 Z" id="cloud" stroke="none" fill="url(#linearGradient-25)" fill-rule="evenodd" mask="url(#mask-24)" transform="translate(37.215041, -7.592569) scale(-1, 1) translate(-37.215041, 7.592569) "></path>
                        <g id="Group-6" stroke="none" stroke-width="1" fill="none" fill-rule="evenodd" mask="url(#mask-24)">
                            <g transform="translate(67.500000, 42.000000) scale(-1, 1) translate(-67.500000, -42.000000) translate(-46.000000, 9.000000)">
                                <path d="M166.824794,24.6112536 L226.928603,57.4731397 L72.5236454,65.5651606 L128.863196,26.6007367 C140.123096,18.8133923 154.812579,18.0435491 166.824794,24.6112536 Z" id="Triangle" fill="#F5B280"></path>
                                <path d="M114.376676,14.2554896 L176.608042,57.0693717 L176.608042,57.0693717 L0,57.0693717 L62.231366,14.2554896 C77.9344595,3.45208871 98.6735823,3.45208871 114.376676,14.2554896 Z" id="Triangle-Copy" fill="#FDBE8C"></path>
                            </g>
                        </g>
                    </g>
                </g>
                <g id="2" mask="url(#mask-2)">
                    <g transform="translate(124.000000, 96.000000)">
                        <mask id="mask-27" fill="white">
                            <use xlink:href="#path-26"></use>
                        </mask>
                        <use id="Rectangle" stroke="none" fill="#C4EBFF" fill-rule="evenodd" xlink:href="#path-26"></use>
                        <path d="M67.1544828,-29.3575372 C76.7673338,-29.3575372 84.5600892,-21.7426707 84.5600892,-12.3492569 C84.5600892,-11.8955774 84.5419114,-11.4460466 84.5062286,-11.0013221 C90.4803037,-8.30747037 94.6259821,-2.40229878 94.6259821,4.44904459 C94.6259821,13.8424584 86.8332267,21.4573248 77.2203757,21.4573248 C71.9524239,21.4573248 67.2310767,19.1704549 64.0392958,15.5572381 C60.993533,19.5356857 55.451468,21.4573248 49.1197582,21.4573248 C41.0315616,21.4573248 34.231891,18.3216341 32.2784211,11.7685688 C31.9533938,11.7881077 31.6253073,11.7983015 31.2947396,11.7983015 C22.9558809,11.7983015 16.1959003,5.3115634 16.1959003,-2.69023355 C16.1959003,-10.6920305 22.9558809,-17.1787686 31.2947396,-17.1787686 L31.3558495,-17.1786524 L31.3558495,-17.1786524 C32.0085811,-24.0096649 37.9287501,-29.3575372 45.1353422,-29.3575372 C49.2177732,-29.3575372 52.8873832,-27.641373 55.4206767,-24.9115285 C58.5150204,-27.6731885 62.6334562,-29.3575372 67.1544828,-29.3575372 Z" id="cloud" stroke="none" fill="url(#linearGradient-25)" fill-rule="evenodd" mask="url(#mask-27)"></path>
                        <path d="M-21.0414174,-35 C-11.4285665,-35 -3.63581105,-27.3851336 -3.63581105,-17.9917197 C-3.63581105,-17.5380402 -3.6539889,-17.0885095 -3.6896717,-16.643785 C2.28440345,-13.9499332 6.4300818,-8.04476163 6.4300818,-1.19341826 C6.4300818,8.19999555 -1.36267362,15.814862 -10.9755246,15.814862 C-16.2434764,15.814862 -20.9648236,13.5279921 -24.1566044,9.91477523 C-27.2023672,13.8932228 -32.7444323,15.814862 -39.0761421,15.814862 C-47.1643387,15.814862 -53.9640093,12.6791712 -55.9174792,6.12610593 C-56.2425065,6.14564489 -56.570593,6.15583864 -56.9011607,6.15583864 C-65.2400194,6.15583864 -72,-0.330899446 -72,-8.33269639 C-72,-16.3344933 -65.2400194,-22.8212314 -56.9011607,-22.8212314 L-56.8400508,-22.8211153 L-56.8400508,-22.8211153 C-56.1873192,-29.6521278 -50.2671501,-35 -43.0605581,-35 C-38.9781271,-35 -35.308517,-33.2838358 -32.7752236,-30.5539914 C-29.6808799,-33.3156513 -25.5624441,-35 -21.0414174,-35 Z" id="cloud-copy" stroke="none" fill="url(#linearGradient-25)" fill-rule="evenodd" mask="url(#mask-27)"></path>
                        <path d="M62.5971915,31.0623117 L100.078341,54.1819868 L100.078341,54.1819868 L0.677648809,54.1819868 L38.1587981,31.0623117 C45.6496984,26.4416641 55.1062911,26.4416641 62.5971915,31.0623117 Z" id="Triangle" stroke="none" fill="#86E074" fill-rule="evenodd" mask="url(#mask-27)" transform="translate(50.377995, 40.649167) rotate(-3.000000) translate(-50.377995, -40.649167) "></path>
                        <path d="M25.1549509,19.7268659 L60.6535937,49.3740977 L60.6535937,49.3740977 L-32.8753274,49.3740977 L2.62331542,19.7268659 C9.14605161,14.2793035 18.6322147,14.2793035 25.1549509,19.7268659 Z" id="Triangle-Copy" stroke="none" fill="#8EE57D" fill-rule="evenodd" mask="url(#mask-27)"></path>
                    </g>
                </g>
            </g>
        </g>
    </g>
</svg>