<?xml version="1.0" encoding="UTF-8"?>
<svg width="263px" height="238px" viewBox="0 0 263 238" version="1.1" xmlns="http://www.w3.org/2000/svg" xmlns:xlink="http://www.w3.org/1999/xlink">
    <title>Artwork 2</title>
    <defs>
        <circle id="path-1" cx="117.161765" cy="120.161765" r="117.161765"></circle>
        <linearGradient x1="97.608216%" y1="27.0430873%" x2="69.4593766%" y2="55.0906267%" id="linearGradient-3">
            <stop stop-color="#F6F9FA" offset="0%"></stop>
            <stop stop-color="#DFEAF0" offset="100%"></stop>
        </linearGradient>
        <rect id="path-4" x="0" y="73.9084967" width="314.95098" height="156.215686"></rect>
        <filter x="-0.8%" y="-4.8%" width="101.6%" height="106.4%" filterUnits="objectBoundingBox" id="filter-5">
            <feOffset dx="0" dy="-5" in="SourceAlpha" result="shadowOffsetOuter1"></feOffset>
            <feColorMatrix values="0 0 0 0 0   0 0 0 0 0   0 0 0 0 0  0 0 0 0.0924196105 0" type="matrix" in="shadowOffsetOuter1"></feColorMatrix>
        </filter>
        <filter x="-14.7%" y="-22.5%" width="129.4%" height="145.1%" filterUnits="objectBoundingBox" id="filter-6">
            <feOffset dx="3" dy="4" in="SourceAlpha" result="shadowOffsetOuter1"></feOffset>
            <feGaussianBlur stdDeviation="2" in="shadowOffsetOuter1" result="shadowBlurOuter1"></feGaussianBlur>
            <feColorMatrix values="0 0 0 0 0.901432387   0 0 0 0 0.932263543   0 0 0 0 0.951318027  0 0 0 1 0" type="matrix" in="shadowBlurOuter1" result="shadowMatrixOuter1"></feColorMatrix>
            <feMerge>
                <feMergeNode in="shadowMatrixOuter1"></feMergeNode>
                <feMergeNode in="SourceGraphic"></feMergeNode>
            </feMerge>
        </filter>
    </defs>
    <g id="Empty-States" stroke="none" stroke-width="1" fill="none" fill-rule="evenodd">
        <g id="7.3_No-Tasks" transform="translate(-70.000000, -224.000000)">
            <g id="Artwork" transform="translate(70.000000, 224.000000)">
                <mask id="mask-2" fill="white">
                    <use xlink:href="#path-1"></use>
                </mask>
                <use id="clip" fill="#FFFFFF" xlink:href="#path-1"></use>
                <g id="person" mask="url(#mask-2)">
                    <g transform="translate(-41.153595, 41.032680)">
                        <ellipse id="Oval-23" fill="#A1CCE1" fill-rule="evenodd" cx="157.895425" cy="124.300654" rx="95.745098" ry="97.4248366"></ellipse>
                        <g id="Rectangle-3" fill="none">
                            <use fill="black" fill-opacity="1" filter="url(#filter-5)" xlink:href="#path-4"></use>
                            <use fill="url(#linearGradient-3)" fill-rule="evenodd" xlink:href="#path-4"></use>
                        </g>
                        <ellipse id="Oval-2" fill="#000000" fill-rule="evenodd" opacity="0.118829257" cx="158.5" cy="81.5" rx="20.5" ry="9.5"></ellipse>
                        <path d="M157.895425,87.3464052 C183.428495,87.3464052 198.20915,63.6338938 198.20915,39.51385 C198.20915,15.3938062 180.160081,2.84217094e-13 157.895425,2.84217094e-13 C135.630769,2.84217094e-13 117.581699,15.3938062 117.581699,39.51385 C117.581699,63.6338938 132.362355,87.3464052 157.895425,87.3464052 Z" id="Oval-22" fill="#454545" fill-rule="evenodd"></path>
                        <path d="M170.895282,94.8830396 C166.851176,79.7713663 178.902214,69.8105625 178.902214,45.6905187 C178.902214,21.5704749 187.24923,8.7076993 164.984574,8.7076993 C142.719919,8.7076993 124.670849,24.1015055 124.670849,48.2215493 C124.670849,72.3415931 135.825162,91.5362367 170.895282,94.8830396 Z" id="Oval-22-Copy" fill="#454545" fill-rule="evenodd" transform="translate(152.552860, 51.795369) rotate(-27.000000) translate(-152.552860, -51.795369) "></path>
                        <g id="Group-8-Copy" opacity="0.583333333" stroke-width="1" fill="none" fill-rule="evenodd" transform="translate(156.590166, 141.597344) rotate(-4.000000) translate(-156.590166, -141.597344) translate(84.090166, 99.097344)">
                            <path d="M54.6757047,10 L125.667433,10 C127.523853,10 129.136299,11.2772692 129.561233,13.084402 L143.187271,71.0323986 C143.692942,73.1828851 142.359555,75.336126 140.209069,75.8417968 C139.908982,75.9123601 139.601743,75.9479966 139.293471,75.9479966 L41.0496664,75.9479966 C38.8405274,75.9479966 37.0496664,74.1571356 37.0496664,71.9479966 C37.0496664,71.6397246 37.0853028,71.3324859 37.1558661,71.0323986 L50.7819045,13.084402 C51.2068383,11.2772692 52.8192841,10 54.6757047,10 Z" id="Rectangle-40" fill="#FFFFFF"></path>
                            <path d="M23.6117062,9.83267741 L94.603434,9.83267741 C96.4598547,9.83267741 98.0723005,11.1099466 98.4972343,12.9170794 L112.123273,70.865076 C112.628943,73.0155625 111.295557,75.1688034 109.14507,75.6744742 C108.844983,75.7450375 108.537744,75.780674 108.229472,75.780674 L9.98566787,75.780674 C7.77652887,75.780674 5.98566787,73.989813 5.98566787,71.780674 C5.98566787,71.472402 6.02130433,71.1651634 6.09186764,70.865076 L19.717906,12.9170794 C20.1428398,11.1099466 21.7552855,9.83267741 23.6117062,9.83267741 Z" id="Rectangle-40-Copy" fill="#FFFFFF" opacity="0.421082428" transform="translate(59.107570, 42.806676) rotate(10.000000) translate(-59.107570, -42.806676) "></path>
                            <path d="M118.21537,60.0070114 C118.404491,60.1961329 118.651655,60.2904518 118.899303,60.2904518 C119.146951,60.2904518 119.394115,60.1961329 119.583236,60.0070114 L124.420104,55.1701433 C124.797864,54.7923839 124.797864,54.1800363 124.420104,53.8022769 C124.042345,53.4245175 123.429997,53.4245175 123.052238,53.8022769 L118.899303,57.9547282 L116.681115,55.7370242 C116.303356,55.3592648 115.691008,55.3592648 115.313249,55.7370242 C114.93549,56.1147836 114.93549,56.7271311 115.313249,57.1048905 L118.21537,60.0070114 Z" id="Shape" fill="#1B3554" fill-rule="nonzero" opacity="0.200000003" transform="translate(119.866677, 56.904705) scale(1, -1) rotate(-4.000000) translate(-119.866677, -56.904705) "></path>
                            <path d="M116.970433,45.3032999 C117.159555,45.4924214 117.406719,45.5867404 117.654366,45.5867404 C117.902014,45.5867404 118.149178,45.4924214 118.338299,45.3032999 L123.175168,40.4664318 C123.552927,40.0886724 123.552927,39.4763249 123.175168,39.0985655 C122.797408,38.7208061 122.185061,38.7208061 121.807301,39.0985655 L117.654366,43.2510167 L115.436179,41.0333127 C115.058419,40.6555533 114.446072,40.6555533 114.068312,41.0333127 C113.690553,41.4110721 113.690553,42.0234196 114.068312,42.401179 L116.970433,45.3032999 Z" id="Shape-Copy" fill="#1B3554" fill-rule="nonzero" opacity="0.200000003" transform="translate(118.621740, 42.200993) scale(1, -1) rotate(-4.000000) translate(-118.621740, -42.200993) "></path>
                            <path d="M114.951617,29.8257089 C115.140738,30.0148304 115.387902,30.1091493 115.63555,30.1091493 C115.883198,30.1091493 116.130362,30.0148304 116.319483,29.8257089 L121.156351,24.9888407 C121.534111,24.6110813 121.534111,23.9987338 121.156351,23.6209744 C120.778592,23.243215 120.166244,23.243215 119.788485,23.6209744 L115.63555,27.7734257 L113.417362,25.5557217 C113.039603,25.1779623 112.427255,25.1779623 112.049496,25.5557217 C111.671737,25.9334811 111.671737,26.5458286 112.049496,26.923588 L114.951617,29.8257089 Z" id="Shape-Copy-2" fill="#1B3554" fill-rule="nonzero" opacity="0.200000003" transform="translate(116.602924, 26.723402) scale(1, -1) rotate(-4.000000) translate(-116.602924, -26.723402) "></path>
                            <path d="M55.5404587,54.885014 L102.592335,54.885014 C103.126587,54.885014 103.559684,55.3181111 103.559684,55.8523634 C103.559684,56.3866158 103.126587,56.8197129 102.592335,56.8197129 L55.5404587,56.8197129 C55.0062063,56.8197129 54.5731092,56.3866158 54.5731092,55.8523634 C54.5731092,55.3181111 55.0062063,54.885014 55.5404587,54.885014 Z" id="Rectangle-4" fill="#1B3554" opacity="0.200000003"></path>
                            <path d="M58.6359769,38.6335434 L102.058359,38.6335434 C102.592611,38.6335434 103.025708,39.0666405 103.025708,39.6008929 C103.025708,40.1351452 102.592611,40.5682423 102.058359,40.5682423 L58.6359769,40.5682423 C58.1017245,40.5682423 57.6686275,40.1351452 57.6686275,39.6008929 C57.6686275,39.0666405 58.1017245,38.6335434 58.6359769,38.6335434 Z" id="Rectangle-4-Copy" fill="#1B3554" opacity="0.200000003"></path>
                            <path d="M60.9576155,23.9298319 L102.763935,23.9298319 C103.298187,23.9298319 103.731284,24.362929 103.731284,24.8971814 C103.731284,25.4314337 103.298187,25.8645308 102.763935,25.8645308 L60.9576155,25.8645308 C60.4233632,25.8645308 59.9902661,25.4314337 59.9902661,24.8971814 C59.9902661,24.362929 60.4233632,23.9298319 60.9576155,23.9298319 Z" id="Rectangle-4-Copy-2" fill="#1B3554" opacity="0.200000003"></path>
                        </g>
                        <g id="Group-8" filter="url(#filter-6)" stroke-width="1" fill="none" fill-rule="evenodd" transform="translate(102.104575, 92.745098)">
                            <path d="M17.1217191,0 L94.3668941,0 C96.3208416,1.4174225e-15 97.9888329,1.41166655 98.3118554,3.33872845 L108.800357,65.9101976 C109.165567,68.0889396 107.695409,70.1512203 105.516667,70.5164305 C105.298148,70.5530596 105.076963,70.5714692 104.855395,70.5714692 L4.85993819,70.5714692 C2.6507992,70.5714692 0.859938195,68.7806082 0.859938195,66.5714692 C0.859938195,66.3132514 0.884941706,66.0556404 0.934598707,65.8022423 L13.1963796,3.23077317 C13.5641788,1.35390572 15.2091533,-5.36845793e-16 17.1217191,0 Z" id="Rectangle-40" fill="#FFFFFF"></path>
                            <path d="M86.2259828,54.2711751 C86.4312309,54.4764233 86.6994709,54.5787849 86.9682358,54.5787849 C87.2370007,54.5787849 87.5052406,54.4764233 87.7104888,54.2711751 L92.9598031,49.0218609 C93.3697745,48.6118895 93.3697745,47.9473263 92.9598031,47.5373548 C92.5498316,47.1273834 91.8852684,47.1273834 91.475297,47.5373548 L86.9682358,52.0438911 L84.5609003,49.6370805 C84.1509288,49.2271091 83.4863657,49.2271091 83.0763942,49.6370805 C82.6664228,50.047052 82.6664228,50.7116151 83.0763942,51.1215866 L86.2259828,54.2711751 Z" id="Shape" fill="#1B3554" fill-rule="nonzero" opacity="0.200000003" transform="translate(88.018099, 50.904331) scale(-1, -1) rotate(-4.000000) translate(-88.018099, -50.904331) "></path>
                            <path d="M84.8748887,38.3136588 C85.0801369,38.518907 85.3483768,38.6212686 85.6171417,38.6212686 C85.8859066,38.6212686 86.1541466,38.518907 86.3593948,38.3136588 L91.608709,33.0643446 C92.0186804,32.6543731 92.0186804,31.9898099 91.608709,31.5798385 C91.1987376,31.169867 90.5341744,31.169867 90.1242029,31.5798385 L85.6171417,36.0863748 L83.2098062,33.6795642 C82.7998348,33.2695927 82.1352716,33.2695927 81.7253002,33.6795642 C81.3153287,34.0895356 81.3153287,34.7540988 81.7253002,35.1640703 L84.8748887,38.3136588 Z" id="Shape-Copy" fill="#1B3554" fill-rule="nonzero" opacity="0.200000003" transform="translate(86.667005, 34.946814) scale(-1, -1) rotate(-4.000000) translate(-86.667005, -34.946814) "></path>
                            <path d="M82.6839254,21.5162732 C82.8891735,21.7215214 83.1574135,21.823883 83.4261784,21.823883 C83.6949433,21.823883 83.9631832,21.7215214 84.1684314,21.5162732 L89.4177457,16.2669589 C89.8277171,15.8569875 89.8277171,15.1924243 89.4177457,14.7824529 C89.0077742,14.3724814 88.343211,14.3724814 87.9332396,14.7824529 L83.4261784,19.2889891 L81.0188429,16.8821786 C80.6088714,16.4722071 79.9443083,16.4722071 79.5343368,16.8821786 C79.1243654,17.29215 79.1243654,17.9567132 79.5343368,18.3666846 L82.6839254,21.5162732 Z" id="Shape-Copy-2" fill="#1B3554" fill-rule="nonzero" opacity="0.200000003" transform="translate(84.476041, 18.149429) scale(-1, -1) rotate(-4.000000) translate(-84.476041, -18.149429) "></path>
                            <path d="M19.2066993,52.7124183 L70.270751,52.7124183 C70.8505597,52.7124183 71.3205876,53.1824462 71.3205876,53.7622549 C71.3205876,54.3420636 70.8505597,54.8120915 70.270751,54.8120915 L19.2066993,54.8120915 C18.6268906,54.8120915 18.1568627,54.3420636 18.1568627,53.7622549 C18.1568627,53.1824462 18.6268906,52.7124183 19.2066993,52.7124183 Z" id="Rectangle-4" fill="#1B3554" opacity="0.200000003"></path>
                            <path d="M22.5661765,35.0751634 L69.6912423,35.0751634 C70.2710511,35.0751634 70.7410789,35.5451913 70.7410789,36.125 C70.7410789,36.7048087 70.2710511,37.1748366 69.6912423,37.1748366 L22.5661765,37.1748366 C21.9863677,37.1748366 21.5163399,36.7048087 21.5163399,36.125 C21.5163399,35.5451913 21.9863677,35.0751634 22.5661765,35.0751634 Z" id="Rectangle-4-Copy" fill="#1B3554" opacity="0.200000003"></path>
                            <path d="M25.0857843,19.1176471 L70.4569835,19.1176471 C71.0367923,19.1176471 71.5068201,19.5876749 71.5068201,20.1674837 C71.5068201,20.7472924 71.0367923,21.2173203 70.4569835,21.2173203 L25.0857843,21.2173203 C24.5059756,21.2173203 24.0359477,20.7472924 24.0359477,20.1674837 C24.0359477,19.5876749 24.5059756,19.1176471 25.0857843,19.1176471 Z" id="Rectangle-4-Copy-2" fill="#1B3554" opacity="0.200000003"></path>
                            <path d="M35.2681277,47.7124183 L70.3268178,47.7124183 C70.9066265,47.7124183 71.3766544,48.1824462 71.3766544,48.7622549 C71.3766544,49.3420636 70.9066265,49.8120915 70.3268178,49.8120915 L35.2681277,49.8120915 C34.688319,49.8120915 34.2182911,49.3420636 34.2182911,48.7622549 C34.2182911,48.1824462 34.688319,47.7124183 35.2681277,47.7124183 Z" id="Rectangle-4-Copy-5" fill="#1B3554" opacity="0.200000003"></path>
                            <path d="M37.6162076,30.0751634 L69.9217748,30.0751634 C70.5015835,30.0751634 70.9716114,30.5451913 70.9716114,31.125 C70.9716114,31.7048087 70.5015835,32.1748366 69.9217748,32.1748366 L37.6162076,32.1748366 C37.0363988,32.1748366 36.566371,31.7048087 36.566371,31.125 C36.566371,30.5451913 37.0363988,30.0751634 37.6162076,30.0751634 Z" id="Rectangle-4-Copy-4" fill="#1B3554" opacity="0.200000003"></path>
                            <path d="M39.3772675,14.1176471 L70.4569835,14.1176471 C71.0367923,14.1176471 71.5068201,14.5876749 71.5068201,15.1674837 C71.5068201,15.7472924 71.0367923,16.2173203 70.4569835,16.2173203 L39.3772675,16.2173203 C38.7974587,16.2173203 38.3274309,15.7472924 38.3274309,15.1674837 C38.3274309,14.5876749 38.7974587,14.1176471 39.3772675,14.1176471 Z" id="Rectangle-4-Copy-3" fill="#1B3554" opacity="0.200000003"></path>
                        </g>
                    </g>
                </g>
                <g id="ZZZ" opacity="0.200000003" transform="translate(158.735294, 0.078431)" fill="#1B3554">
                    <polygon id="z" transform="translate(8.784015, 47.547547) rotate(38.000000) translate(-8.784015, -47.547547) " points="3.68180977 53.9403108 13.8862212 53.9403108 13.8862212 51.2031275 7.97966776 51.2031275 7.97966776 51.0470601 13.7301537 43.3157177 13.7301537 41.1547836 3.7658461 41.1547836 3.7658461 43.8919669 9.64838917 43.8919669 9.64838917 44.0480343 3.68180977 52.0074753"></polygon>
                    <polygon id="z-copy" transform="translate(38.081567, 45.564749) rotate(21.000000) translate(-38.081567, -45.564749) " points="29.1999493 56.6928937 46.9631843 56.6928937 46.9631843 51.9281671 36.681406 51.9281671 36.681406 51.6564941 46.6915113 38.1982314 46.6915113 34.4366051 29.3462348 34.4366051 29.3462348 39.2013317 39.5862173 39.2013317 39.5862173 39.4730047 29.1999493 53.328328"></polygon>
                    <polygon id="z-copy-2" transform="translate(78.454530, 27.363426) rotate(-32.000000) translate(-78.454530, -27.363426) " points="61.594154 48.4884864 95.3149069 48.4884864 95.3149069 39.4433903 75.7965417 39.4433903 75.7965417 38.9276612 94.7991777 13.3792319 94.7991777 6.23836658 61.8718543 6.23836658 61.8718543 15.2834627 81.3108766 15.2834627 81.3108766 15.7991918 61.594154 42.1013791"></polygon>
                </g>
            </g>
        </g>
    </g>
</svg>