<?xml version="1.0" encoding="UTF-8"?>
<svg width="192px" height="284px" viewBox="0 0 192 284" version="1.1" xmlns="http://www.w3.org/2000/svg" xmlns:xlink="http://www.w3.org/1999/xlink">
    <title>Artwork 3</title>
    <defs>
        <path d="M73.0339946,16.4018692 L132.078223,16.4018692 L132.078223,16.4018692 C141.973712,16.4018692 146.511792,22.8690395 148.588823,34.6261682 L165.159542,129.392523 L52.0092781,129.392523 C40.1935948,129.392523 29.8636618,121.425328 26.8621551,109.997234 L0.844060894,10.9345794 L0.844060894,10.9345794 C0.377898935,4.89557797 4.89557797,0 10.9345794,0 L40.1483747,0 C43.0330638,2.55852983e-16 45.8023141,1.13316664 47.8595242,3.1553729 L52.992423,8.20093458 C58.3391904,13.4567258 65.5365776,16.4018692 73.0339946,16.4018692 Z" id="path-1"></path>
        <filter x="-2.4%" y="-5.4%" width="109.7%" height="108.5%" filterUnits="objectBoundingBox" id="filter-2">
            <feOffset dx="8" dy="-3" in="SourceAlpha" result="shadowOffsetOuter1"></feOffset>
            <feColorMatrix values="0 0 0 0 0.893149447   0 0 0 0 0.893149447   0 0 0 0 0.893149447  0 0 0 1 0" type="matrix" in="shadowOffsetOuter1"></feColorMatrix>
        </filter>
        <path d="M0,49.2453057 C19.0387776,36.2394464 29.0196322,20.0355531 29.9425636,0.633625687 C34.9417799,-0.112516197 44.5985473,0.818472772 68.8275159,5.03384935 C71.083867,5.42641124 71.2833768,9.0078692 69.4260454,15.7782233 C77.5948782,18.7755927 81.3378526,21.6307571 80.6549685,24.3437164 C74.7343742,47.8650311 66.9016481,58.5890372 55.0802675,63.6284371 C41.5201163,65.3509757 23.1600272,60.5565985 0,49.2453057 Z" id="path-3"></path>
        <filter x="-21.1%" y="-26.7%" width="142.1%" height="207.0%" filterUnits="objectBoundingBox" id="filter-4">
            <feOffset dx="0" dy="34" in="SourceAlpha" result="shadowOffsetOuter1"></feOffset>
            <feColorMatrix values="0 0 0 0 0.105882353   0 0 0 0 0.207843137   0 0 0 0 0.329411765  0 0 0 0.272192029 0" type="matrix" in="shadowOffsetOuter1"></feColorMatrix>
        </filter>
        <circle id="path-5" cx="16.0373832" cy="16.0373832" r="16.0373832"></circle>
        <filter x="-40.5%" y="-34.3%" width="181.1%" height="181.1%" filterUnits="objectBoundingBox" id="filter-6">
            <feOffset dx="0" dy="2" in="SourceAlpha" result="shadowOffsetOuter1"></feOffset>
            <feGaussianBlur stdDeviation="4" in="shadowOffsetOuter1" result="shadowBlurOuter1"></feGaussianBlur>
            <feColorMatrix values="0 0 0 0 0.266236585   0 0 0 0 0.807960356   0 0 0 0 1  0 0 0 0.527853261 0" type="matrix" in="shadowBlurOuter1"></feColorMatrix>
        </filter>
    </defs>
    <g id="Empty-States" stroke="none" stroke-width="1" fill="none" fill-rule="evenodd">
        <g id="7.2_No-Tasks" transform="translate(-90.000000, -85.000000)">
            <g id="Artwork" transform="translate(90.000000, 85.000000)">
                <g id="folder" transform="translate(0.000000, 134.859813)">
                    <path d="M117.69066,36.1419368 L172.302652,36.1419368 C178.377785,36.1419368 183.302652,41.0668045 183.302652,47.1419368 C183.302652,47.8074505 183.242256,48.4715912 183.122206,49.1261878 L168.40177,129.392523 L168.40177,129.392523 L102.600576,129.392523 C91.5548814,129.392523 82.6005763,120.438218 82.6005763,109.392523 C82.6005763,107.548666 82.8555562,105.713666 83.358271,103.939663 L98.4483551,50.6890765 C100.887318,42.08235 108.745031,36.1419368 117.69066,36.1419368 Z" id="Combined-Shape-Copy" fill="#A0B8D1"></path>
                    <g id="Combined-Shape">
                        <use fill="black" fill-opacity="1" filter="url(#filter-2)" xlink:href="#path-1"></use>
                        <use fill="#CAECFF" fill-rule="evenodd" xlink:href="#path-1"></use>
                    </g>
                    <g id="Group-2" opacity="0.800000012" transform="translate(51.228506, 59.258649)" fill="#1B3554">
                        <path d="M2.69014085,1.24206802 C4.60175377,0.414120376 6.48680079,0.000146553258 8.3452819,0.000146553258 C10.1641913,0.000146553258 11.9831008,0.396678998 13.8020102,1.18974389 C15.4523048,1.90929714 16.519265,3.5384715 16.519265,5.33881291 C16.519265,6.20031679 15.8208781,6.89870368 14.9593742,6.89870368 C14.7280755,6.89870368 14.4996714,6.84726632 14.290697,6.74812616 C12.310505,5.80858399 10.3148213,5.33881291 8.30364592,5.33881291 C6.28256042,5.33881291 4.26147492,5.81322502 2.24038942,6.76204924 C1.4543605,7.13101912 0.518034404,6.79296634 0.14903063,6.00695334 C0.0508828354,5.79788924 2.50328588e-16,5.56976916 0,5.33881291 C-2.17951846e-16,3.55910102 1.0570216,1.94938401 2.69014085,1.24206802 Z" id="Rectangle-3-Copy" opacity="0.390738225"></path>
                        <path d="M44.2762024,1.24206802 C46.1878153,0.414120376 48.0728624,0.000146553258 49.9313435,0.000146553258 C51.7502529,0.000146553258 53.5691624,0.396678998 55.3880718,1.18974389 C57.0383664,1.90929714 58.1053265,3.5384715 58.1053265,5.33881291 C58.1053265,6.20031679 57.4069396,6.89870368 56.5454358,6.89870368 C56.3141371,6.89870368 56.085733,6.84726632 55.8767586,6.74812616 C53.8965666,5.80858399 51.9008829,5.33881291 49.8897075,5.33881291 C47.868622,5.33881291 45.8475365,5.81322502 43.826451,6.76204924 C43.0404221,7.13101912 42.104096,6.79296634 41.7350922,6.00695334 C41.6369444,5.79788924 41.5860616,5.56976916 41.5860616,5.33881291 C41.5860616,3.55910102 42.6430832,1.94938401 44.2762024,1.24206802 Z" id="Rectangle-3-Copy-2" opacity="0.390738225"></path>
                        <path d="M29.9638782,30.8519861 C37.601057,30.8519861 43.7922137,25.1638428 43.7922137,15.429333 C29.9638782,15.3719698 26.9893193,15.710875 16.1355427,15.429333 C16.1355427,25.1638428 22.3266994,30.8519861 29.9638782,30.8519861 Z" id="Oval-10" opacity="0.390738225"></path>
                    </g>
                </g>
                <g id="pink" transform="translate(93.049891, 108.431247) rotate(-3.000000) translate(-93.049891, -108.431247) translate(47.489143, 70.160219)">
                    <path d="M27.1737215,8.87617915 C29.5080256,23.2322513 19.342371,37.9038197 6.66663888,48.3618623 C17.3167703,54.1205072 36.6518686,62.144374 52.2838371,67.0120094 C53.027469,67.2435688 55.3618983,66.957539 56.0876112,67.0842255 C60.4750109,67.8501268 62.9536335,64.6670464 64.6250901,63.7090652 C71.5124782,56.4776717 78.2886032,51.255339 81.735499,41.112594 C83.5027881,35.9122155 84.5024374,31.4838763 84.545473,29.5823612 C78.9675924,24.4036258 65.6383847,24.5503683 27.1737215,8.87617915 Z" id="Path-10" fill="#FF96BC" transform="translate(45.606056, 38.039102) rotate(-14.000000) translate(-45.606056, -38.039102) "></path>
                    <path d="M63.2970743,54.3477446 C66.1621726,57.1567562 63.5084379,64.6531016 57.8782208,64.5218134 C63.8597389,64.6022304 67.0861915,62.4272201 69.4100609,60.2450281 C71.7339304,58.0628362 82.6438694,47.9332364 81.3064172,20.4569823 C81.4814817,43.6849227 75.7719587,55.0241632 63.2970743,54.3477446 Z" id="Path-11" fill="#F46DA0"></path>
                </g>
                <g id="yellow" transform="translate(142.276753, 45.117681) rotate(21.000000) translate(-142.276753, -45.117681) translate(101.727688, 12.769550)">
                    <path d="M69.4122618,5.30157071 C72.0149505,7.8629364 74.2335918,10.3466484 76.0681859,12.7527068 C79.8873239,17.7614819 81.0276066,24.6846926 80.762057,24.8595439 C79.3133356,25.8134555 71.0303228,20.3106666 69.4122618,15.8413101 C68.4422336,13.1619292 68.4422336,9.6486827 69.4122618,5.30157071 Z" id="Path-12" fill="#FFB883"></path>
                    <g id="Path-9">
                        <use fill="black" fill-opacity="1" filter="url(#filter-4)" xlink:href="#path-3"></use>
                        <use fill="#FFDF87" fill-rule="evenodd" xlink:href="#path-3"></use>
                    </g>
                </g>
                <g id="mark" transform="translate(147.616822, 241.471963)">
                    <g id="Oval-2">
                        <use fill="black" fill-opacity="1" filter="url(#filter-6)" xlink:href="#path-5"></use>
                        <use fill="#44CEFF" fill-rule="evenodd" xlink:href="#path-5"></use>
                    </g>
                    <path d="M13.6130375,21.0131308 C13.8802579,21.2803512 14.2294898,21.4136197 14.5794051,21.4136197 C14.9293204,21.4136197 15.2785522,21.2803512 15.5457727,21.0131308 L22.3800557,14.1788478 C22.9138132,13.6450903 22.9138132,12.77987 22.3800557,12.2461125 C21.8462982,11.712355 20.981078,11.712355 20.4473205,12.2461125 L14.5794051,18.1133445 L11.4452029,14.9798257 C10.9114454,14.4460682 10.0462252,14.4460682 9.51246766,14.9798257 C8.97871016,15.5135832 8.97871016,16.3788035 9.51246766,16.912561 L13.6130375,21.0131308 Z" id="Shape" fill="#FFFFFF" fill-rule="nonzero"></path>
                </g>
            </g>
        </g>
    </g>
</svg>