<?xml version="1.0" encoding="UTF-8"?>
<svg width="217px" height="206px" viewBox="0 0 217 206" version="1.1" xmlns="http://www.w3.org/2000/svg" xmlns:xlink="http://www.w3.org/1999/xlink">
    <title>Artwork 4</title>
    <defs>
        <linearGradient x1="110.348279%" y1="12.7674341%" x2="26.8194653%" y2="79.2738814%" id="linearGradient-1">
            <stop stop-color="#E3E6EA" offset="0%"></stop>
            <stop stop-color="#90A8C4" offset="100%"></stop>
        </linearGradient>
        <linearGradient x1="27.5691986%" y1="92.7420651%" x2="79.3092014%" y2="40.65934%" id="linearGradient-2">
            <stop stop-color="#FFECEC" offset="0%"></stop>
            <stop stop-color="#FFD4D4" offset="100%"></stop>
        </linearGradient>
        <path d="M0,0 L84.8102679,0 L71.5420936,87.0406917 C70.7571348,92.1935814 66.9701974,96.3793251 61.9213846,97.6746709 C55.4159677,99.3439379 48.9105508,100.178571 42.4051339,100.178571 C35.899717,100.178571 29.3943002,99.3439379 22.8888833,97.6746709 C17.8400704,96.3793251 14.053133,92.1935814 13.2681743,87.0406917 L0,0 L0,0 Z" id="path-3"></path>
        <linearGradient x1="75.9968868%" y1="20.8795014%" x2="124.641767%" y2="92.4463253%" id="linearGradient-5">
            <stop stop-color="#FFE8C7" offset="0%"></stop>
            <stop stop-color="#FFB552" offset="100%"></stop>
        </linearGradient>
        <path d="M11.732906,33.2916667 C13.6308663,33.2916667 15.366158,34.006462 16.6971504,35.1880633 C17.5151803,34.8777788 18.4007026,34.7083333 19.3247863,34.7083333 C23.5176661,34.7083333 26.9166667,38.1967813 26.9166667,42.5 C26.9166667,46.8032187 23.5176661,50.2916667 19.3247863,50.2916667 C18.7018483,50.2916667 18.0964337,50.2146655 17.5170858,50.0694314 C16.648313,52.2764003 14.5403107,53.8333333 12.0779915,53.8333333 C9.67597071,53.8333333 7.61112611,52.3517206 6.70374978,50.2303738 C6.43084589,50.2708727 6.15101552,50.2916667 5.86645299,50.2916667 C2.62650047,50.2916667 0,47.5960478 0,44.2708333 C0,41.3888839 1.97292634,38.9798625 4.60822688,38.3888095 C5.67575938,35.4134676 8.4628996,33.2916667 11.732906,33.2916667 Z" id="path-6"></path>
        <filter x="-7.4%" y="-9.7%" width="114.9%" height="138.9%" filterUnits="objectBoundingBox" id="filter-7">
            <feOffset dx="0" dy="4" in="SourceAlpha" result="shadowOffsetOuter1"></feOffset>
            <feColorMatrix values="0 0 0 0 0.876647534   0 0 0 0 0.695974941   0 0 0 0 0.263506191  0 0 0 0.363337862 0" type="matrix" in="shadowOffsetOuter1"></feColorMatrix>
        </filter>
        <path d="M30.1495726,37.5416667 C32.047533,37.5416667 33.7828247,38.256462 35.113817,39.4380633 C35.931847,39.1277788 36.8173693,38.9583333 37.741453,38.9583333 C41.9343327,38.9583333 45.3333333,42.4467813 45.3333333,46.75 C45.3333333,51.0532187 41.9343327,54.5416667 37.741453,54.5416667 C37.1185149,54.5416667 36.5131003,54.4646655 35.9337524,54.3194314 C35.0649796,56.5264003 32.9569774,58.0833333 30.4946581,58.0833333 C28.0926374,58.0833333 26.0277928,56.6017206 25.1204164,54.4803738 C24.8475126,54.5208727 24.5676822,54.5416667 24.2831197,54.5416667 C21.0431671,54.5416667 18.4166667,51.8460478 18.4166667,48.5208333 C18.4166667,45.6388839 20.389593,43.2298625 23.0248935,42.6388095 C24.0924261,39.6634676 26.8795663,37.5416667 30.1495726,37.5416667 Z" id="path-8"></path>
        <filter x="-7.4%" y="-9.7%" width="114.9%" height="138.9%" filterUnits="objectBoundingBox" id="filter-9">
            <feOffset dx="0" dy="4" in="SourceAlpha" result="shadowOffsetOuter1"></feOffset>
            <feColorMatrix values="0 0 0 0 0.876647534   0 0 0 0 0.695974941   0 0 0 0 0.263506191  0 0 0 0.363337862 0" type="matrix" in="shadowOffsetOuter1"></feColorMatrix>
        </filter>
        <linearGradient x1="75.9968868%" y1="23.1111111%" x2="124.641767%" y2="89.193509%" id="linearGradient-10">
            <stop stop-color="#FFE8C7" offset="0%"></stop>
            <stop stop-color="#FFB552" offset="100%"></stop>
        </linearGradient>
        <linearGradient x1="75.9968868%" y1="22.967128%" x2="124.641767%" y2="89.4033801%" id="linearGradient-11">
            <stop stop-color="#FFE8C7" offset="0%"></stop>
            <stop stop-color="#FFB552" offset="100%"></stop>
        </linearGradient>
        <path d="M48.5714286,41.7916667 C50.339922,41.7916667 51.9525903,42.4520406 53.1714743,43.5372517 C53.8843203,43.2889704 54.6524084,43.1538462 55.452381,43.1538462 C59.252626,43.1538462 62.3333333,46.2031888 62.3333333,49.9647436 C62.3333333,53.7262984 59.252626,56.775641 55.452381,56.775641 C54.8120747,56.775641 54.1921955,56.6890728 53.6040375,56.5271156 C52.7885165,58.2816936 50.9957351,59.5 48.9154762,59.5 C46.6544894,59.5 44.7331007,58.0608111 44.0353336,56.0574567 C43.8311999,56.0819303 43.6224461,56.0945513 43.4107143,56.0945513 C40.5605305,56.0945513 38.25,53.8075443 38.25,50.9863782 C38.25,48.5768981 39.9353926,46.5570549 42.2029314,46.0188627 C43.2309887,43.5385217 45.6951104,41.7916667 48.5714286,41.7916667 Z" id="path-12"></path>
        <filter x="-8.3%" y="-11.3%" width="116.6%" height="145.2%" filterUnits="objectBoundingBox" id="filter-13">
            <feOffset dx="0" dy="4" in="SourceAlpha" result="shadowOffsetOuter1"></feOffset>
            <feColorMatrix values="0 0 0 0 0.876647534   0 0 0 0 0.695974941   0 0 0 0 0.263506191  0 0 0 0.363337862 0" type="matrix" in="shadowOffsetOuter1"></feColorMatrix>
        </filter>
        <path d="M67.6912393,37.5416667 C69.5891997,37.5416667 71.3244914,38.256462 72.6554837,39.4380633 C73.4735136,39.1277788 74.359036,38.9583333 75.2831197,38.9583333 C79.4759994,38.9583333 82.875,42.4467813 82.875,46.75 C82.875,51.0532187 79.4759994,54.5416667 75.2831197,54.5416667 C74.6601816,54.5416667 74.054767,54.4646655 73.4754191,54.3194314 C72.6066463,56.5264003 70.4986441,58.0833333 68.0363248,58.0833333 C65.634304,58.0833333 63.5694594,56.6017206 62.6620831,54.4803738 C62.3891792,54.5208727 62.1093488,54.5416667 61.8247863,54.5416667 C58.5848338,54.5416667 55.9583333,51.8460478 55.9583333,48.5208333 C55.9583333,45.6388839 57.9312597,43.2298625 60.5665602,42.6388095 C61.6340927,39.6634676 64.4212329,37.5416667 67.6912393,37.5416667 Z" id="path-14"></path>
        <filter x="-9.3%" y="-36.5%" width="118.6%" height="148.7%" filterUnits="objectBoundingBox" id="filter-15">
            <feOffset dx="0" dy="-5" in="SourceAlpha" result="shadowOffsetOuter1"></feOffset>
            <feColorMatrix values="0 0 0 0 0.876647534   0 0 0 0 0.695974941   0 0 0 0 0.263506191  0 0 0 0.363337862 0" type="matrix" in="shadowOffsetOuter1"></feColorMatrix>
        </filter>
        <path d="M84.6912393,39.6666667 C86.5891997,39.6666667 88.3244914,40.381462 89.6554837,41.5630633 C90.4735136,41.2527788 91.359036,41.0833333 92.2831197,41.0833333 C96.4759994,41.0833333 99.875,44.5717813 99.875,48.875 C99.875,53.1782187 96.4759994,56.6666667 92.2831197,56.6666667 C91.6601816,56.6666667 91.054767,56.5896655 90.4754191,56.4444314 C89.6066463,58.6514003 87.4986441,60.2083333 85.0363248,60.2083333 C82.634304,60.2083333 80.5694594,58.7267206 79.6620831,56.6053738 C79.3891792,56.6458727 79.1093488,56.6666667 78.8247863,56.6666667 C75.5848338,56.6666667 72.9583333,53.9710478 72.9583333,50.6458333 C72.9583333,47.7638839 74.9312597,45.3548625 77.5665602,44.7638095 C78.6340927,41.7884676 81.4212329,39.6666667 84.6912393,39.6666667 Z" id="path-16"></path>
        <filter x="-7.4%" y="-9.7%" width="114.9%" height="138.9%" filterUnits="objectBoundingBox" id="filter-17">
            <feOffset dx="0" dy="4" in="SourceAlpha" result="shadowOffsetOuter1"></feOffset>
            <feColorMatrix values="0 0 0 0 0.876647534   0 0 0 0 0.695974941   0 0 0 0 0.263506191  0 0 0 0.363337862 0" type="matrix" in="shadowOffsetOuter1"></feColorMatrix>
        </filter>
        <linearGradient x1="75.9968868%" y1="22.3093564%" x2="124.641767%" y2="90.3621545%" id="linearGradient-18">
            <stop stop-color="#FFE8C7" offset="0%"></stop>
            <stop stop-color="#FFB552" offset="100%"></stop>
        </linearGradient>
        <linearGradient x1="75.9968868%" y1="22.3093564%" x2="124.641767%" y2="90.3621545%" id="linearGradient-19">
            <stop stop-color="#FFE8C7" offset="0%"></stop>
            <stop stop-color="#FFB552" offset="100%"></stop>
        </linearGradient>
        <linearGradient x1="77.0229689%" y1="59.7969557%" x2="24.8597431%" y2="27.5539215%" id="linearGradient-20">
            <stop stop-color="#4AEBB0" offset="0%"></stop>
            <stop stop-color="#24D18D" offset="100%"></stop>
        </linearGradient>
        <path d="M4.45790086,20 L41,20 L41,20 L34.6380493,78.5836792 C34.4708824,80.1129256 33.4417383,81.4109636 31.990836,81.9222578 C28.0597624,83.3074193 24.1872245,84 20.3732224,84 C16.5751645,84 12.7771065,83.3131977 8.9790486,81.9395932 C7.54242831,81.4187483 6.52743542,80.1254156 6.36437661,78.6060181 L0.481280438,24.4318449 C0.242779085,22.2356181 1.82982914,20.2618809 4.02605596,20.0233796 C4.16947733,20.0078046 4.31363628,20 4.45790086,20 Z" id="path-21"></path>
        <ellipse id="path-23" cx="19.2579365" cy="19.1952235" rx="19.2579365" ry="19.1952235"></ellipse>
        <filter x="-105.2%" y="-74.2%" width="310.3%" height="311.0%" filterUnits="objectBoundingBox" id="filter-24">
            <feOffset dx="0" dy="12" in="SourceAlpha" result="shadowOffsetOuter1"></feOffset>
            <feGaussianBlur stdDeviation="11.5" in="shadowOffsetOuter1" result="shadowBlurOuter1"></feGaussianBlur>
            <feColorMatrix values="0 0 0 0 0.815686275   0 0 0 0 0.670588235   0 0 0 0 1  0 0 0 0.618404665 0" type="matrix" in="shadowBlurOuter1"></feColorMatrix>
        </filter>
    </defs>
    <g id="Empty-States" stroke="none" stroke-width="1" fill="none" fill-rule="evenodd">
        <g id="6.1_No-Videos" transform="translate(-81.000000, -139.000000)">
            <g id="Artwork" transform="translate(81.000000, 144.000000)">
                <g id="reel" transform="translate(45.000000, 0.000000)">
                    <ellipse id="Oval-20-Copy-4" fill="#ACACAC" opacity="0.172554348" cx="75.6619154" cy="142.867494" rx="36.1819196" ry="12.9270833"></ellipse>
                    <circle id="Oval" fill="#334356" cx="75" cy="74" r="40"></circle>
                    <path d="M74.5,2.5 C94.6583934,2.5 112.908393,10.6708033 126.118795,23.881205 C139.329197,37.0916066 147.5,55.3416066 147.5,75.5 C147.5,95.6583934 139.329197,113.908393 126.118795,127.118795 C112.908393,140.329197 94.6583934,148.5 74.5,148.5 C54.3416066,148.5 36.0916066,140.329197 22.881205,127.118795 C9.67080332,113.908393 1.5,95.6583934 1.5,75.5 C1.5,55.3416066 9.67080332,37.0916066 22.881205,23.881205 C36.0916066,10.6708033 54.3416066,2.5 74.5,2.5 Z M74.5,102.5 L74.5,102.5 L74.1461837,102.505116 C70.9730625,102.596996 68.1087353,103.920702 66.0147186,106.014719 C63.8431458,108.186292 62.5,111.186292 62.5,114.5 C62.5,117.813708 63.8431458,120.813708 66.0147186,122.985281 C68.1862915,125.156854 71.1862915,126.5 74.5,126.5 C77.8137085,126.5 80.8137085,125.156854 82.9852814,122.985281 C85.1568542,120.813708 86.5,117.813708 86.5,114.5 C86.5,111.186292 85.1568542,108.186292 82.9852814,106.014719 C80.8137085,103.843146 77.8137085,102.5 74.5,102.5 L74.5,102.5 Z M103.5,90.5 C100.186292,90.5 97.1862915,91.8431458 95.0147186,94.0147186 C92.8431458,96.1862915 91.5,99.1862915 91.5,102.5 C91.5,105.813708 92.8431458,108.813708 95.0147186,110.985281 C97.1862915,113.156854 100.186292,114.5 103.5,114.5 C106.813708,114.5 109.813708,113.156854 111.985281,110.985281 C114.156854,108.813708 115.5,105.813708 115.5,102.5 C115.5,99.1862915 114.156854,96.1862915 111.985281,94.0147186 C109.813708,91.8431458 106.813708,90.5 103.5,90.5 Z M46.5,90.5 L46.5,90.5 L46.1461837,90.5051161 C42.9730625,90.5969956 40.1087353,91.9207019 38.0147186,94.0147186 C35.8431458,96.1862915 34.5,99.1862915 34.5,102.5 C34.5,105.813708 35.8431458,108.813708 38.0147186,110.985281 C40.1862915,113.156854 43.1862915,114.5 46.5,114.5 C49.8137085,114.5 52.8137085,113.156854 54.9852814,110.985281 C57.1568542,108.813708 58.5,105.813708 58.5,102.5 C58.5,99.1862915 57.1568542,96.1862915 54.9852814,94.0147186 C52.8137085,91.8431458 49.8137085,90.5 46.5,90.5 L46.5,90.5 Z M74.5,62.5 C71.1862915,62.5 68.1862915,63.8431458 66.0147186,66.0147186 C63.8431458,68.1862915 62.5,71.1862915 62.5,74.5 C62.5,77.8137085 63.8431458,80.8137085 66.0147186,82.9852814 C68.1862915,85.1568542 71.1862915,86.5 74.5,86.5 C77.8137085,86.5 80.8137085,85.1568542 82.9852814,82.9852814 C85.1568542,80.8137085 86.5,77.8137085 86.5,74.5 C86.5,71.1862915 85.1568542,68.1862915 82.9852814,66.0147186 C80.8137085,63.8431458 77.8137085,62.5 74.5,62.5 Z M35.5,61.5 C32.1862915,61.5 29.1862915,62.8431458 27.0147186,65.0147186 C24.8431458,67.1862915 23.5,70.1862915 23.5,73.5 C23.5,76.8137085 24.8431458,79.8137085 27.0147186,81.9852814 C29.1862915,84.1568542 32.1862915,85.5 35.5,85.5 C38.8137085,85.5 41.8137085,84.1568542 43.9852814,81.9852814 C46.1568542,79.8137085 47.5,76.8137085 47.5,73.5 C47.5,70.1862915 46.1568542,67.1862915 43.9852814,65.0147186 C41.8137085,62.8431458 38.8137085,61.5 35.5,61.5 Z M113.5,61.5 C110.186292,61.5 107.186292,62.8431458 105.014719,65.0147186 C102.843146,67.1862915 101.5,70.1862915 101.5,73.5 C101.5,76.8137085 102.843146,79.8137085 105.014719,81.9852814 C107.186292,84.1568542 110.186292,85.5 113.5,85.5 C116.813708,85.5 119.813708,84.1568542 121.985281,81.9852814 C124.156854,79.8137085 125.5,76.8137085 125.5,73.5 C125.5,70.1862915 124.156854,67.1862915 121.985281,65.0147186 C119.813708,62.8431458 116.813708,61.5 113.5,61.5 Z M103.5,33.5 C100.186292,33.5 97.1862915,34.8431458 95.0147186,37.0147186 C92.8431458,39.1862915 91.5,42.1862915 91.5,45.5 C91.5,48.8137085 92.8431458,51.8137085 95.0147186,53.9852814 C97.1862915,56.1568542 100.186292,57.5 103.5,57.5 C106.813708,57.5 109.813708,56.1568542 111.985281,53.9852814 C114.156854,51.8137085 115.5,48.8137085 115.5,45.5 C115.5,42.1862915 114.156854,39.1862915 111.985281,37.0147186 C109.813708,34.8431458 106.813708,33.5 103.5,33.5 Z M46.5,33.5 C43.1862915,33.5 40.1862915,34.8431458 38.0147186,37.0147186 C35.8431458,39.1862915 34.5,42.1862915 34.5,45.5 C34.5,48.8137085 35.8431458,51.8137085 38.0147186,53.9852814 C40.1862915,56.1568542 43.1862915,57.5 46.5,57.5 C49.8137085,57.5 52.8137085,56.1568542 54.9852814,53.9852814 C57.1568542,51.8137085 58.5,48.8137085 58.5,45.5 C58.5,42.1862915 57.1568542,39.1862915 54.9852814,37.0147186 C52.8137085,34.8431458 49.8137085,33.5 46.5,33.5 Z M74.5,24.5 C71.1862915,24.5 68.1862915,25.8431458 66.0147186,28.0147186 C63.8431458,30.1862915 62.5,33.1862915 62.5,36.5 C62.5,39.8137085 63.8431458,42.8137085 66.0147186,44.9852814 C68.1862915,47.1568542 71.1862915,48.5 74.5,48.5 C77.8137085,48.5 80.8137085,47.1568542 82.9852814,44.9852814 C85.1568542,42.8137085 86.5,39.8137085 86.5,36.5 C86.5,33.1862915 85.1568542,30.1862915 82.9852814,28.0147186 C80.8137085,25.8431458 77.8137085,24.5 74.5,24.5 Z" id="Combined-Shape" stroke-opacity="0.160382699" stroke="#FFFFFF" stroke-width="3" fill="url(#linearGradient-1)"></path>
                </g>
                <g id="pop-corn" transform="translate(0.000000, 24.000000)">
                    <ellipse id="Oval-20-Copy" fill="#ACACAC" opacity="0.172554348" cx="65.6662946" cy="139.867494" rx="36.1819196" ry="12.9270833"></ellipse>
                    <ellipse id="Oval-20-Copy-2" fill="#ACACAC" opacity="0.172554348" cx="39.0983333" cy="170.78125" rx="12.0983333" ry="4.78125"></ellipse>
                    <ellipse id="Oval-20-Copy-3" fill="#ACACAC" opacity="0.172554348" cx="8.28750189" cy="139.159161" rx="6.43166661" ry="3.01041667"></ellipse>
                    <g id="Rectangle-5-+-Rectangle-5-Copy-+-Rectangle-5-Copy-2-Mask" transform="translate(22.666667, 46.041667)">
                        <mask id="mask-4" fill="white">
                            <use xlink:href="#path-3"></use>
                        </mask>
                        <use id="Mask" fill="url(#linearGradient-2)" xlink:href="#path-3"></use>
                        <polygon id="Rectangle-5" fill="#FF6363" mask="url(#mask-4)" points="9.07544941 4.13580213 17.5105783 3.24334371 23.4893219 102.873126 19.0158677 103.765585"></polygon>
                        <polygon id="Rectangle-5-Copy-2" fill="#FF6363" mask="url(#mask-4)" transform="translate(68.646000, 53.504464) scale(-1, 1) translate(-68.646000, -53.504464) " points="61.4390639 4.13580213 69.8741928 3.24334371 75.8529363 102.873126 71.3794822 103.765585"></polygon>
                        <polygon id="Rectangle-5-Copy-5" fill="#FF6363" mask="url(#mask-4)" transform="translate(4.838170, 47.812500) rotate(-8.000000) translate(-4.838170, -47.812500) " points="0.569196429 -2.27678571 9.10714286 -2.27678571 9.10714286 97.9017857 0.569196429 97.9017857"></polygon>
                        <polygon id="Rectangle-5-Copy-6" fill="#FF6363" mask="url(#mask-4)" transform="translate(80.543711, 47.812500) rotate(8.000000) translate(-80.543711, -47.812500) " points="76.2747378 -2.27678571 84.8126842 -2.27678571 84.8126842 97.9017857 76.2747378 97.9017857"></polygon>
                        <polygon id="Rectangle-5-Copy" fill="#FF6363" mask="url(#mask-4)" points="38.7053571 3.41517857 47.2433036 3.41517857 47.2433036 103.59375 38.7053571 103.59375"></polygon>
                        <polygon id="Rectangle-5-Copy-3" fill="#FF6363" mask="url(#mask-4)" points="52.9824773 3.29670659 61.4948207 3.59467663 57.0957718 103.712222 51.6709561 103.414252"></polygon>
                        <polygon id="Rectangle-5-Copy-4" fill="#FF6363" mask="url(#mask-4)" transform="translate(28.692958, 53.504464) scale(-1, 1) translate(-28.692958, -53.504464) " points="25.0925473 3.29670659 33.6048907 3.59467663 29.2058418 103.712222 23.7810261 103.414252"></polygon>
                    </g>
                    <ellipse id="Oval-20" fill="#FFB3B3" cx="65.6662946" cy="45.6622024" rx="42.4051339" ry="7.96875"></ellipse>
                    <g id="Group-4" transform="translate(12.041667, 0.000000)">
                        <g id="Combined-Shape">
                            <use fill="black" fill-opacity="1" filter="url(#filter-7)" xlink:href="#path-6"></use>
                            <use fill="url(#linearGradient-5)" fill-rule="evenodd" xlink:href="#path-6"></use>
                        </g>
                        <g id="Combined-Shape-Copy">
                            <use fill="black" fill-opacity="1" filter="url(#filter-9)" xlink:href="#path-8"></use>
                            <use fill="url(#linearGradient-5)" fill-rule="evenodd" xlink:href="#path-8"></use>
                        </g>
                        <path d="M94.2540323,34.7083333 C95.8759887,34.7083333 97.3431559,35.3633816 98.3995131,36.420426 C99.0287196,36.1897252 99.7111286,36.0634058 100.423387,36.0634058 C103.641337,36.0634058 106.25,38.6418239 106.25,41.8224638 C106.25,45.0031037 103.641337,47.5815217 100.423387,47.5815217 C99.9654192,47.5815217 99.5197918,47.5292984 99.0922681,47.430548 C98.4120311,49.1012964 96.655865,50.2916667 94.5967742,50.2916667 C92.5950768,50.2916667 90.8796525,49.1667303 90.1600695,47.5681031 L90.01803,47.5769899 L90.01803,47.5769899 L89.7983871,47.5815217 C87.1483111,47.5815217 85,45.6097903 85,43.1775362 C85,41.1097907 86.5526497,39.3748789 88.6462802,38.9013157 C89.3351242,36.4821204 91.5850033,34.7083333 94.2540323,34.7083333 Z" id="Combined-Shape-Copy-7" fill="url(#linearGradient-10)"></path>
                        <path d="M85.0456989,22.6666667 C86.6676554,22.6666667 88.1348225,23.3217149 89.1911797,24.3787593 C89.8203863,24.1480586 90.5027952,24.0217391 91.2150538,24.0217391 C94.4330032,24.0217391 97.0416667,26.6001572 97.0416667,29.7807971 C97.0416667,32.961437 94.4330032,35.5398551 91.2150538,35.5398551 C90.7570859,35.5398551 90.3114585,35.4876317 89.8839348,35.3888813 C89.2036977,37.0596297 87.4475316,38.25 85.3884409,38.25 C83.3867435,38.25 81.6713191,37.1250636 80.9517361,35.5264365 L80.8096966,35.5353233 L80.8096966,35.5353233 L80.5900538,35.5398551 C77.9399777,35.5398551 75.7916667,33.5681236 75.7916667,31.1358696 C75.7916667,29.0681241 77.3443163,27.3332122 79.4379468,26.8596491 C80.1267908,24.4404537 82.3766699,22.6666667 85.0456989,22.6666667 Z" id="Combined-Shape-Copy-12" fill="url(#linearGradient-10)" transform="translate(86.416667, 30.458333) rotate(10.000000) translate(-86.416667, -30.458333) "></path>
                        <path d="M85.0456989,33.2916667 C86.6676554,33.2916667 88.1348225,33.9467149 89.1911797,35.0037593 C89.8203863,34.7730586 90.5027952,34.6467391 91.2150538,34.6467391 C94.4330032,34.6467391 97.0416667,37.2251572 97.0416667,40.4057971 C97.0416667,43.586437 94.4330032,46.1648551 91.2150538,46.1648551 C90.7570859,46.1648551 90.3114585,46.1126317 89.8839348,46.0138813 C89.2036977,47.6846297 87.4475316,48.875 85.3884409,48.875 C83.3867435,48.875 81.6713191,47.7500636 80.9517361,46.1514365 L80.8096966,46.1603233 L80.8096966,46.1603233 L80.5900538,46.1648551 C77.9399777,46.1648551 75.7916667,44.1931236 75.7916667,41.7608696 C75.7916667,39.6931241 77.3443163,37.9582122 79.4379468,37.4846491 C80.1267908,35.0654537 82.3766699,33.2916667 85.0456989,33.2916667 Z" id="Combined-Shape-Copy-15" fill="url(#linearGradient-10)" transform="translate(86.416667, 41.083333) rotate(10.000000) translate(-86.416667, -41.083333) "></path>
                        <path d="M71.36229,27.226639 C72.9842465,27.226639 74.4514136,27.8816872 75.5077708,28.9387316 C76.1369774,28.7080309 76.8193863,28.5817114 77.5316449,28.5817114 C80.7495943,28.5817114 83.3582578,31.1601295 83.3582578,34.3407694 C83.3582578,37.5214093 80.7495943,40.0998274 77.5316449,40.0998274 C77.073677,40.0998274 76.6280496,40.047604 76.2005259,39.9488536 C75.5202888,41.619602 73.7641227,42.8099723 71.705032,42.8099723 C69.7033345,42.8099723 67.9879102,41.6850359 67.2683272,40.0864088 L67.1262877,40.0952956 L67.1262877,40.0952956 L66.9066449,40.0998274 C64.2565688,40.0998274 62.1082578,38.1280959 62.1082578,35.6958419 C62.1082578,33.6280964 63.6609074,31.8931845 65.7545379,31.4196214 C66.4433819,29.000426 68.693261,27.226639 71.36229,27.226639 Z" id="Combined-Shape-Copy-8" fill="url(#linearGradient-10)" transform="translate(72.733258, 35.018306) rotate(10.000000) translate(-72.733258, -35.018306) "></path>
                        <path d="M65.2123656,15.5833333 C66.8343221,15.5833333 68.3014892,16.2383816 69.3578464,17.295426 C69.9870529,17.0647252 70.6694619,16.9384058 71.3817204,16.9384058 C74.5996699,16.9384058 77.2083333,19.5168239 77.2083333,22.6974638 C77.2083333,25.8781037 74.5996699,28.4565217 71.3817204,28.4565217 C70.9237525,28.4565217 70.4781252,28.4042984 70.0506015,28.305548 C69.3703644,29.9762964 67.6141983,31.1666667 65.5551075,31.1666667 C63.5534101,31.1666667 61.8379858,30.0417303 61.1184028,28.4431031 L60.9763633,28.4519899 L60.9763633,28.4519899 L60.7567204,28.4565217 C58.1066444,28.4565217 55.9583333,26.4847903 55.9583333,24.0525362 C55.9583333,21.9847907 57.510983,20.2498789 59.6046135,19.7763157 C60.2934575,17.3571204 62.5433366,15.5833333 65.2123656,15.5833333 Z" id="Combined-Shape-Copy-9" fill="url(#linearGradient-10)" transform="translate(66.583333, 23.375000) rotate(25.000000) translate(-66.583333, -23.375000) "></path>
                        <path d="M30.1041667,24.0833333 C32.0159428,24.0833333 33.7592475,24.838993 35.0767769,26.0807558 C35.9453995,25.7060015 36.8976528,25.5 37.8958333,25.5 C42.0034512,25.5 45.3333333,28.988448 45.3333333,33.2916667 C45.3333333,37.5948853 42.0034512,41.0833333 37.8958333,41.0833333 C37.3735552,41.0833333 36.8638506,41.0269364 36.3719657,40.9196384 C35.4651611,43.095225 33.3174796,44.625 30.8125,44.625 C28.3472682,44.625 26.2280856,43.1433872 25.2968309,41.0220405 C25.0172052,41.0625061 24.7297848,41.0833333 24.4375,41.0833333 C21.1122856,41.0833333 18.4166667,38.3877144 18.4166667,35.0625 C18.4166667,32.1889582 20.4297151,29.785589 23.1225091,29.1856954 C24.1669577,26.2076482 26.8987584,24.0833333 30.1041667,24.0833333 Z" id="Combined-Shape-Copy-2" fill="url(#linearGradient-5)" transform="translate(31.875000, 34.354167) rotate(28.000000) translate(-31.875000, -34.354167) "></path>
                        <path d="M38.6495726,11.3333333 C40.547533,11.3333333 42.2828247,12.0481287 43.613817,13.2297299 C44.431847,12.9194455 45.3173693,12.75 46.241453,12.75 C50.4343327,12.75 53.8333333,16.238448 53.8333333,20.5416667 C53.8333333,24.8448853 50.4343327,28.3333333 46.241453,28.3333333 C45.6185149,28.3333333 45.0131003,28.2563322 44.4337524,28.111098 C43.5649796,30.318067 41.4569774,31.875 38.9946581,31.875 C36.5926374,31.875 34.5277928,30.3933872 33.6204164,28.2720405 C33.3475126,28.3125394 33.0676822,28.3333333 32.7831197,28.3333333 C29.5431671,28.3333333 26.9166667,25.6377144 26.9166667,22.3125 C26.9166667,19.4305506 28.889593,17.0215292 31.5248935,16.4304761 C32.5924261,13.4551343 35.3795663,11.3333333 38.6495726,11.3333333 Z" id="Combined-Shape-Copy-10" fill="url(#linearGradient-5)" transform="translate(40.375000, 21.604167) rotate(-1.000000) translate(-40.375000, -21.604167) "></path>
                        <path d="M49.982906,26.2083333 C51.8808663,26.2083333 53.616158,26.9231287 54.9471504,28.1047299 C55.7651803,27.7944455 56.6507026,27.625 57.5747863,27.625 C61.7676661,27.625 65.1666667,31.113448 65.1666667,35.4166667 C65.1666667,39.7198853 61.7676661,43.2083333 57.5747863,43.2083333 C56.9518483,43.2083333 56.3464337,43.1313322 55.7670858,42.986098 C54.898313,45.193067 52.7903107,46.75 50.3279915,46.75 C47.9259707,46.75 45.8611261,45.2683872 44.9537498,43.1470405 C44.6808459,43.1875394 44.4010155,43.2083333 44.116453,43.2083333 C40.8765005,43.2083333 38.25,40.5127144 38.25,37.1875 C38.25,34.3055506 40.2229263,31.8965292 42.8582269,31.3054761 C43.9257594,28.3301343 46.7128996,26.2083333 49.982906,26.2083333 Z" id="Combined-Shape-Copy-4" fill="url(#linearGradient-5)"></path>
                        <path d="M52.107906,7.08333333 C54.0058663,7.08333333 55.741158,7.79812868 57.0721504,8.97972992 C57.8901803,8.6694455 58.7757026,8.5 59.6997863,8.5 C63.8926661,8.5 67.2916667,11.988448 67.2916667,16.2916667 C67.2916667,20.5948853 63.8926661,24.0833333 59.6997863,24.0833333 C59.0768483,24.0833333 58.4714337,24.0063322 57.8920858,23.861098 C57.023313,26.068067 54.9153107,27.625 52.4529915,27.625 C50.0509707,27.625 47.9861261,26.1433872 47.0787498,24.0220405 C46.8058459,24.0625394 46.5260155,24.0833333 46.241453,24.0833333 C43.0015005,24.0833333 40.375,21.3877144 40.375,18.0625 C40.375,15.1805506 42.3479263,12.7715292 44.9832269,12.1804761 C46.0507594,9.20513429 48.8378996,7.08333333 52.107906,7.08333333 Z" id="Combined-Shape-Copy-11" fill="url(#linearGradient-5)" transform="translate(53.833333, 17.354167) rotate(58.000000) translate(-53.833333, -17.354167) "></path>
                        <g id="Combined-Shape-Copy-3">
                            <use fill="black" fill-opacity="1" filter="url(#filter-13)" xlink:href="#path-12"></use>
                            <use fill="url(#linearGradient-11)" fill-rule="evenodd" xlink:href="#path-12"></use>
                        </g>
                        <path d="M59.1964286,38.25 C60.964922,38.25 62.5775903,38.9103739 63.7964743,39.9955851 C64.5093203,39.7473037 65.2774084,39.6121795 66.077381,39.6121795 C69.877626,39.6121795 72.9583333,42.6615221 72.9583333,46.4230769 C72.9583333,50.1846317 69.877626,53.2339744 66.077381,53.2339744 C65.4370747,53.2339744 64.8171955,53.1474061 64.2290375,52.9854489 C63.4135165,54.7400269 61.6207351,55.9583333 59.5404762,55.9583333 C57.2794894,55.9583333 55.3581007,54.5191444 54.6603336,52.5157901 C54.4561999,52.5402636 54.2474461,52.5528846 54.0357143,52.5528846 C51.1855305,52.5528846 48.875,50.2658776 48.875,47.4447115 C48.875,45.0352315 50.5603926,43.0153882 52.8279314,42.477196 C53.8559887,39.9968551 56.3201104,38.25 59.1964286,38.25 Z" id="Combined-Shape-Copy-16" fill="url(#linearGradient-11)"></path>
                        <g id="Combined-Shape-Copy-5" transform="translate(69.416667, 47.812500) rotate(150.000000) translate(-69.416667, -47.812500) ">
                            <use fill="black" fill-opacity="1" filter="url(#filter-15)" xlink:href="#path-14"></use>
                            <use fill="url(#linearGradient-5)" fill-rule="evenodd" xlink:href="#path-14"></use>
                        </g>
                        <g id="Combined-Shape-Copy-6" transform="translate(86.416667, 49.937500) rotate(386.000000) translate(-86.416667, -49.937500) ">
                            <use fill="black" fill-opacity="1" filter="url(#filter-17)" xlink:href="#path-16"></use>
                            <use fill="url(#linearGradient-5)" fill-rule="evenodd" xlink:href="#path-16"></use>
                        </g>
                    </g>
                    <path d="M37.3135222,159.413852 C38.6399877,159.413852 39.8527322,159.90114 40.7827829,160.706607 C41.35414,160.494376 41.9725372,160.379049 42.617849,160.379049 C45.5473477,160.379049 47.9221757,162.755781 47.9221757,165.687629 C47.9221757,168.619477 45.5473477,170.99621 42.617849,170.99621 C42.1827112,170.99621 41.7598112,170.943771 41.355114,170.844865 C40.7475313,172.34866 39.2748316,173.409201 37.5546279,173.409201 C35.8761311,173.409201 34.433282,172.399463 33.799455,170.953822 C33.6092095,170.982031 33.4136213,170.99621 33.2147242,170.99621 C30.9510206,170.99621 29.1159263,169.159644 29.1159263,166.894125 C29.1159263,164.93096 30.4938865,163.289892 32.3346353,162.886829 C33.0810932,160.859762 35.0285879,159.413852 37.3135222,159.413852 Z" id="Combined-Shape-Copy-13" fill="url(#linearGradient-18)" transform="translate(38.519051, 166.411526) rotate(386.000000) translate(-38.519051, -166.411526) "></path>
                    <path d="M6.74261558,129.625 C7.71863923,129.625 8.61104732,129.983288 9.2956902,130.575614 C9.71625438,130.420949 10.1724009,130.335719 10.6484381,130.335719 C12.8055643,130.335719 14.5542606,132.085818 14.5542606,134.244674 C14.5542606,136.40353 12.8055643,138.153628 10.6484381,138.153628 C10.3277938,138.153628 10.0161739,138.11496 9.71798004,138.042028 C9.2715283,139.149291 8.18698952,139.930426 6.92015296,139.930426 C5.68400759,139.930426 4.62143407,139.186681 4.15482919,138.121925 C4.0151696,138.143173 3.87104483,138.153628 3.72448001,138.153628 C2.05760977,138.153628 0.706344445,136.801279 0.706344445,135.133072 C0.706344445,133.687931 1.72039879,132.479825 3.07522352,132.182578 C3.62528633,130.690281 5.05964582,129.625 6.74261558,129.625 Z" id="Combined-Shape-Copy-14" fill="url(#linearGradient-19)" transform="translate(7.630303, 134.777713) rotate(8.000000) translate(-7.630303, -134.777713) "></path>
                </g>
                <g id="drink" transform="translate(105.000000, 86.000000)">
                    <ellipse id="Oval-20-Copy" fill="#ACACAC" opacity="0.172554348" cx="23.659996" cy="80.8654108" rx="22.1800003" ry="7.92500019"></ellipse>
                    <g id="Group-7" transform="translate(3.000000, 0.000000)">
                        <g id="Group-8" transform="translate(25.000000, 21.500000) rotate(-12.000000) translate(-25.000000, -21.500000) translate(16.000000, 2.000000)" stroke="#FF7171" stroke-linecap="square" stroke-width="3">
                            <line x1="0.5" y1="38.5" x2="7.5" y2="0.5" id="Line"></line>
                            <line x1="7.5" y1="0.5" x2="17.5909206" y2="2.66234013" id="Line-2"></line>
                        </g>
                        <mask id="mask-22" fill="white">
                            <use xlink:href="#path-21"></use>
                        </mask>
                        <use id="Rectangle-4" fill="url(#linearGradient-20)" xlink:href="#path-21"></use>
                        <rect id="Rectangle-6-Copy" fill="#FFFFFF" mask="url(#mask-22)" x="-3" y="41" width="48" height="21"></rect>
                    </g>
                    <rect id="Rectangle-17" fill="#FFFFFF" x="0" y="18" width="47" height="5"></rect>
                </g>
                <g id="play" transform="translate(155.000000, 6.000000)">
                    <g id="Oval-9">
                        <use fill="black" fill-opacity="1" filter="url(#filter-24)" xlink:href="#path-23"></use>
                        <use fill="#D0ABFF" fill-rule="evenodd" xlink:href="#path-23"></use>
                    </g>
                    <path d="M23.8552657,15.2874646 L27.8394814,21.9278242 C28.6919259,23.348565 28.2312307,25.1913458 26.8104899,26.0437903 C26.3442437,26.323538 25.8107345,26.4713115 25.2670026,26.4713115 L17.2985711,26.4713115 C15.6417169,26.4713115 14.2985711,25.1281657 14.2985711,23.4713115 C14.2985711,22.9275796 14.4463446,22.3940704 14.7260924,21.9278242 L18.7103081,15.2874646 C19.5627526,13.8667238 21.4055334,13.4060286 22.8262742,14.2584731 C23.248523,14.5118224 23.6019164,14.8652158 23.8552657,15.2874646 Z" id="Triangle-3" fill="#FFFFFF" transform="translate(21.282787, 18.735656) rotate(90.000000) translate(-21.282787, -18.735656) "></path>
                </g>
            </g>
        </g>
    </g>
</svg>