<?xml version="1.0" encoding="UTF-8"?>
<svg width="249px" height="249px" viewBox="0 0 249 249" version="1.1" xmlns="http://www.w3.org/2000/svg" xmlns:xlink="http://www.w3.org/1999/xlink">
    <title>Artwork 2</title>
    <defs>
        <circle id="path-1" cx="124.5" cy="124.5" r="124.5"></circle>
    </defs>
    <g id="Empty-States" stroke="none" stroke-width="1" fill="none" fill-rule="evenodd">
        <g id="6.3_No-Videos" transform="translate(-63.000000, -209.000000)">
            <g id="Artwork" transform="translate(63.000000, 209.000000)">
                <mask id="mask-2" fill="white">
                    <use xlink:href="#path-1"></use>
                </mask>
                <use id="clip" fill="#FFFFFF" xlink:href="#path-1"></use>
                <path d="M78.5338983,50.6440678 L170.466102,50.6440678 C187.034644,50.6440678 200.466102,64.0755253 200.466102,80.6440678 L200.466102,251.110169 L200.466102,251.110169 L48.5338983,251.110169 L48.5338983,80.6440678 C48.5338983,64.0755253 61.9653558,50.6440678 78.5338983,50.6440678 Z" id="device" stroke="#C6D8FF" stroke-width="2" fill="#FFFFFF" mask="url(#mask-2)"></path>
                <rect id="screen" stroke-opacity="0.1" stroke="#3766BC" fill="#FFFFFF" mask="url(#mask-2)" x="56.4194915" y="91.2372881" width="135.105932" height="159.372881"></rect>
                <g id="1" mask="url(#mask-2)">
                    <g transform="translate(66.470339, 101.288136)">
                        <path d="M3,0 L39.2033898,0 C40.8602441,4.55447659e-15 42.2033898,1.34314575 42.2033898,3 L42.2033898,39.2033898 C42.2033898,40.8602441 40.8602441,42.2033898 39.2033898,42.2033898 L3,42.2033898 C1.34314575,42.2033898 3.43777239e-15,40.8602441 0,39.2033898 L0,3 C2.41183085e-16,1.34314575 1.34314575,-1.39730022e-16 3,0 Z" id="Rectangle" fill="#CDFAB8"></path>
                        <g id="Group-2" stroke-width="1" fill="none" transform="translate(6.330508, 6.330508)">
                            <circle id="Oval" fill="#FFFFFF" cx="14.8547861" cy="14.6270492" r="14.3647194"></circle>
                            <path d="M17.2358098,10.6150225 L21.9990373,18.553735 C22.2831855,19.0273153 22.1296204,19.6415755 21.6560402,19.9257237 C21.5006248,20.0189729 21.3227884,20.0682308 21.1415444,20.0682308 L11.6150894,20.0682308 C11.0628046,20.0682308 10.6150894,19.6205155 10.6150894,19.0682308 C10.6150894,18.8869868 10.6643472,18.7091504 10.7575965,18.553735 L15.520824,10.6150225 C15.8049721,10.1414422 16.4192324,9.98787715 16.8928126,10.2720253 C17.0335623,10.3564751 17.1513601,10.4742729 17.2358098,10.6150225 Z" id="Triangle-3" fill="#B2C5D6" transform="translate(16.378317, 14.627049) rotate(90.000000) translate(-16.378317, -14.627049) "></path>
                        </g>
                        <path d="M54.8644068,10.5508475 L112.894068,10.5508475 C114.059482,10.5508475 115.004237,11.4956025 115.004237,12.6610169 C115.004237,13.8264314 114.059482,14.7711864 112.894068,14.7711864 L54.8644068,14.7711864 C53.6989923,14.7711864 52.7542373,13.8264314 52.7542373,12.6610169 C52.7542373,11.4956025 53.6989923,10.5508475 54.8644068,10.5508475 Z" id="Rectangle-2" fill="#B2C5D6"></path>
                        <path d="M54.8644068,18.9915254 L96.0127119,18.9915254 C97.1781263,18.9915254 98.1228814,19.9362805 98.1228814,21.1016949 C98.1228814,22.2671093 97.1781263,23.2118644 96.0127119,23.2118644 L54.8644068,23.2118644 C53.6989923,23.2118644 52.7542373,22.2671093 52.7542373,21.1016949 C52.7542373,19.9362805 53.6989923,18.9915254 54.8644068,18.9915254 Z" id="Rectangle-2-Copy" fill="#B2C5D6"></path>
                        <rect id="Rectangle-2-Copy-2" fill="#B2C5D6" opacity="0.550000012" x="52.7542373" y="29.5423729" width="17.9364407" height="4.22033898" rx="2.11016949"></rect>
                    </g>
                </g>
                <g id="2" mask="url(#mask-2)">
                    <g transform="translate(66.470339, 154.042373)">
                        <path d="M3,0 L39.2033898,0 C40.8602441,-3.04359188e-16 42.2033898,1.34314575 42.2033898,3 L42.2033898,39.2033898 C42.2033898,40.8602441 40.8602441,42.2033898 39.2033898,42.2033898 L3,42.2033898 C1.34314575,42.2033898 2.02906125e-16,40.8602441 0,39.2033898 L0,3 C2.41183085e-16,1.34314575 1.34314575,3.04359188e-16 3,0 Z" id="Rectangle" fill="#B8EAFA"></path>
                        <g id="Group-2" stroke-width="1" fill="none" transform="translate(6.330508, 6.330508)">
                            <circle id="Oval" fill="#FFFFFF" cx="14.8547861" cy="14.6270492" r="14.3647194"></circle>
                            <path d="M17.2358098,10.6150225 L21.9990373,18.553735 C22.2831855,19.0273153 22.1296204,19.6415755 21.6560402,19.9257237 C21.5006248,20.0189729 21.3227884,20.0682308 21.1415444,20.0682308 L11.6150894,20.0682308 C11.0628046,20.0682308 10.6150894,19.6205155 10.6150894,19.0682308 C10.6150894,18.8869868 10.6643472,18.7091504 10.7575965,18.553735 L15.520824,10.6150225 C15.8049721,10.1414422 16.4192324,9.98787715 16.8928126,10.2720253 C17.0335623,10.3564751 17.1513601,10.4742729 17.2358098,10.6150225 Z" id="Triangle-3" fill="#B2C5D6" transform="translate(16.378317, 14.627049) rotate(90.000000) translate(-16.378317, -14.627049) "></path>
                        </g>
                        <path d="M54.8644068,10.5508475 L112.894068,10.5508475 C114.059482,10.5508475 115.004237,11.4956025 115.004237,12.6610169 C115.004237,13.8264314 114.059482,14.7711864 112.894068,14.7711864 L54.8644068,14.7711864 C53.6989923,14.7711864 52.7542373,13.8264314 52.7542373,12.6610169 C52.7542373,11.4956025 53.6989923,10.5508475 54.8644068,10.5508475 Z" id="Rectangle-2" fill="#B2C5D6"></path>
                        <path d="M54.8644068,18.9915254 L96.0127119,18.9915254 C97.1781263,18.9915254 98.1228814,19.9362805 98.1228814,21.1016949 C98.1228814,22.2671093 97.1781263,23.2118644 96.0127119,23.2118644 L54.8644068,23.2118644 C53.6989923,23.2118644 52.7542373,22.2671093 52.7542373,21.1016949 C52.7542373,19.9362805 53.6989923,18.9915254 54.8644068,18.9915254 Z" id="Rectangle-2-Copy" fill="#B2C5D6"></path>
                        <rect id="Rectangle-2-Copy-2" fill="#B2C5D6" opacity="0.550000012" x="52.7542373" y="29.5423729" width="17.9364407" height="4.22033898" rx="2.11016949"></rect>
                    </g>
                </g>
                <g id="3" mask="url(#mask-2)">
                    <g transform="translate(66.470339, 206.796610)">
                        <path d="M3,0 L39.2033898,0 C40.8602441,4.55447659e-15 42.2033898,1.34314575 42.2033898,3 L42.2033898,39.2033898 C42.2033898,40.8602441 40.8602441,42.2033898 39.2033898,42.2033898 L3,42.2033898 C1.34314575,42.2033898 3.43777239e-15,40.8602441 0,39.2033898 L0,3 C2.41183085e-16,1.34314575 1.34314575,-1.39730022e-16 3,0 Z" id="Rectangle" fill="#FAB8F7"></path>
                        <g id="Group-2" stroke-width="1" fill="none" transform="translate(6.330508, 6.330508)">
                            <circle id="Oval" fill="#FFFFFF" cx="14.8547861" cy="14.6270492" r="14.3647194"></circle>
                            <path d="M17.2358098,10.6150225 L21.9990373,18.553735 C22.2831855,19.0273153 22.1296204,19.6415755 21.6560402,19.9257237 C21.5006248,20.0189729 21.3227884,20.0682308 21.1415444,20.0682308 L11.6150894,20.0682308 C11.0628046,20.0682308 10.6150894,19.6205155 10.6150894,19.0682308 C10.6150894,18.8869868 10.6643472,18.7091504 10.7575965,18.553735 L15.520824,10.6150225 C15.8049721,10.1414422 16.4192324,9.98787715 16.8928126,10.2720253 C17.0335623,10.3564751 17.1513601,10.4742729 17.2358098,10.6150225 Z" id="Triangle-3" fill="#B2C5D6" transform="translate(16.378317, 14.627049) rotate(90.000000) translate(-16.378317, -14.627049) "></path>
                        </g>
                        <rect id="Rectangle-2" fill="#B2C5D6" x="52.7542373" y="10.5508475" width="62.25" height="4.22033898" rx="2.11016949"></rect>
                        <path d="M54.8644068,18.9915254 L96.0127119,18.9915254 C97.1781263,18.9915254 98.1228814,19.9362805 98.1228814,21.1016949 C98.1228814,22.2671093 97.1781263,23.2118644 96.0127119,23.2118644 L54.8644068,23.2118644 C53.6989923,23.2118644 52.7542373,22.2671093 52.7542373,21.1016949 C52.7542373,19.9362805 53.6989923,18.9915254 54.8644068,18.9915254 Z" id="Rectangle-2-Copy" fill="#B2C5D6"></path>
                        <rect id="Rectangle-2-Copy-2" fill="#B2C5D6" opacity="0.550000012" x="52.7542373" y="29.5423729" width="17.9364407" height="4.22033898" rx="2.11016949"></rect>
                    </g>
                </g>
            </g>
        </g>
    </g>
</svg>