<?xml version="1.0" encoding="UTF-8"?>
<svg width="254px" height="254px" viewBox="0 0 254 254" version="1.1" xmlns="http://www.w3.org/2000/svg" xmlns:xlink="http://www.w3.org/1999/xlink">
    <title>Artwork</title>
    <defs>
        <circle id="path-1" cx="102" cy="114" r="102"></circle>
        <filter x="-21.6%" y="-15.2%" width="143.1%" height="143.1%" filterUnits="objectBoundingBox" id="filter-2">
            <feOffset dx="0" dy="13" in="SourceAlpha" result="shadowOffsetOuter1"></feOffset>
            <feGaussianBlur stdDeviation="12.5" in="shadowOffsetOuter1" result="shadowBlurOuter1"></feGaussianBlur>
            <feColorMatrix values="0 0 0 0 0.226735433   0 0 0 0 0.687818878   0 0 0 0 0.602227131  0 0 0 0.0769927536 0" type="matrix" in="shadowBlurOuter1"></feColorMatrix>
        </filter>
        <path d="M17.8157675,17.8550093 C27.6551443,17.8550093 35.6315351,9.86104936 35.6315351,0 C21.976427,0 7.30107754,0 0,0 C0,9.86104936 7.97639082,17.8550093 17.8157675,17.8550093 Z" id="path-3"></path>
    </defs>
    <g id="Empty-States" stroke="none" stroke-width="1" fill="none" fill-rule="evenodd">
        <g id="6.4_No-Videos" transform="translate(-61.000000, -152.000000)">
            <g id="Artwork" transform="translate(86.000000, 152.000000)">
                <g id="clip">
                    <use fill="black" fill-opacity="1" filter="url(#filter-2)" xlink:href="#path-1"></use>
                    <use fill="#FFFFFF" fill-rule="evenodd" xlink:href="#path-1"></use>
                </g>
                <g id="person" transform="translate(33.000000, 0.000000)">
                    <g>
                        <path d="M137.286209,219.736613 C137.286209,198.35747 122.424142,186.095057 100.621303,176.769553 C91.0715937,172.684953 80.1903202,164.070995 68.6431044,164.070995 C54.7339277,164.070995 41.7909907,173.727603 30.9776152,179.493896 C12.3182973,189.444082 0,200.272885 0,219.736613 C0,250.479884 137.286209,250.479884 137.286209,219.736613 Z" id="Oval-11" fill="#EC6767"></path>
                        <path d="M67.0711249,127.310682 C76.1269652,127.310682 83.4681744,134.651891 83.4681744,143.707732 C83.4681744,143.829924 83.4668085,143.952112 83.464077,144.074273 L82.8685502,170.708193 C82.7421785,176.359953 78.1243214,180.87571 72.471149,180.87571 L61.6711007,180.87571 C56.0179284,180.87571 51.4000713,176.359953 51.2736995,170.708193 L50.6781727,144.074273 C50.4757373,135.020696 57.6510057,127.517215 66.7045832,127.314779 C66.8267446,127.312048 66.9489328,127.310682 67.0711249,127.310682 Z" id="Rectangle-Copy" fill="#C4A588"></path>
                        <path d="M67.0711249,22.6777552 C90.8252789,22.6777552 110.081825,41.9343018 110.081825,65.6884558 C110.081825,66.0194866 110.078004,66.3505064 110.070361,66.6814489 L108.886196,117.958949 C108.36157,140.676629 89.7948614,158.819522 67.0711249,158.819522 C44.3473883,158.819522 25.7806794,140.676629 25.2560538,117.958949 L24.0718885,66.6814489 C23.5234735,42.9336264 42.3303093,23.2376344 66.0781318,22.6892194 C66.4090743,22.6815769 66.7400941,22.6777552 67.0711249,22.6777552 Z" id="Rectangle" fill="#EBCFB6"></path>
                        <path d="M24.4565789,97.5339793 C27.2986516,116.204185 30.6766515,128.007393 34.5905784,132.943601 C41.8478286,142.096377 53.88165,152.288627 66.7490353,152.288627 C79.4469987,152.288627 92.0551388,141.856939 99.4175321,132.943601 C103.50663,127.993103 106.929343,116.189895 109.685671,97.5339793 L108.715374,148.842599 C108.286235,171.535166 89.7677498,189.706759 67.0711249,189.706759 C44.3744999,189.706759 25.8560152,171.535166 25.4268761,148.842599 L24.4565789,97.5339793 L24.4565789,97.5339793 Z" id="Rectangle-Copy-2" fill="#7F5959"></path>
                        <ellipse id="Oval-4" fill="#7F5959" cx="67.2422247" cy="164.478252" rx="21.0131952" ry="21.0594798"></ellipse>
                        <ellipse id="Oval-3" fill="#EBCFB6" cx="23.5796923" cy="90.0252214" rx="8.90788377" ry="9.97779933"></ellipse>
                        <ellipse id="Oval-3-Copy" fill="#EBCFB6" cx="110.562557" cy="90.0252214" rx="8.90788377" ry="9.97779933"></ellipse>
                        <g id="Group-2" transform="translate(42.967439, 81.440670)">
                            <path d="M6.35312141,0.000139725469 C6.35312141,0.000139725469 6.35312141,0.000139725469 6.35312141,0.000139725469 C6.35312141,0.000139725469 6.35312141,0.000139725469 6.35312141,0.000139725469 C9.78983657,0.000139725469 12.5758447,2.78614783 12.5758359,6.22286298 L12.5758359,6.61173894 C12.5758359,7.4525498 11.894224,8.13416167 11.0534132,8.13416167 C10.7561682,8.13416167 10.4654252,8.04714678 10.217043,7.8838653 C8.92709948,7.03578106 7.62856004,6.61173894 6.32142465,6.61173894 C5.00661414,6.61173894 3.69180363,7.04077538 2.37699312,7.89884827 C1.66614565,8.36281021 0.713783918,8.16262486 0.24985563,7.45175542 C0.0868149035,7.20193088 3.65336131e-17,6.91005853 0,6.61173894 L0,6.35329244 C-3.12997916e-05,2.84454308 2.84437206,0.000139725469 6.35312141,0.000139725469 Z" id="Rectangle-3-Copy" fill="#81685D"></path>
                            <g id="Oval-2-Copy" transform="translate(6.287918, 42.729845)">
                                <mask id="mask-4" fill="white">
                                    <use xlink:href="#path-3"></use>
                                </mask>
                                <use id="Mask" fill="#372C28" xlink:href="#path-3"></use>
                                <path d="M17.8157675,28.357956 C27.6551443,28.357956 35.6315351,20.363996 35.6315351,10.5029467 C21.976427,10.5029467 7.30107754,10.5029467 0,10.5029467 C0,20.363996 7.97639082,28.357956 17.8157675,28.357956 Z" fill="#D96B70" mask="url(#mask-4)" transform="translate(17.815768, 19.430451) scale(1, -1) translate(-17.815768, -19.430451) "></path>
                                <path d="M17.8157675,3.150884 C24.1824231,3.150884 29.3436171,-2.02167833 29.3436171,-8.40235733 C20.5079589,-8.40235733 11.0121446,-8.40235733 6.28791796,-8.40235733 C6.28791796,-2.02167833 11.449112,3.150884 17.8157675,3.150884 Z" id="Oval-2-Copy-2" fill="#FFFFFF" mask="url(#mask-4)" transform="translate(17.815768, -2.625737) scale(1, -1) translate(-17.815768, 2.625737) "></path>
                            </g>
                            <path d="M23.5796923,7.35206266 C25.0883163,7.35206266 26.3726142,8.44986362 26.6073985,9.94010607 L28.4465884,21.6139658 C28.8700629,24.3018783 27.0343732,26.8241558 24.3464607,27.2476302 C24.0928259,27.2875898 23.8364556,27.3076613 23.5796923,27.3076613 C20.8586256,27.3076613 18.6527652,25.1018009 18.6527652,22.3807342 C18.6527652,22.1239709 18.6728367,21.8676006 18.7127963,21.6139658 L20.5519862,9.94010607 C20.7867705,8.44986362 22.0710684,7.35206266 23.5796923,7.35206266 Z" id="Rectangle-4" fill="#A5725C" opacity="0.200000003"></path>
                            <path d="M41.9846565,0.000139725469 C41.9846565,0.000139725469 41.9846565,0.000139725469 41.9846565,0.000139725469 C41.9846565,0.000139725469 41.9846565,0.000139725469 41.9846565,0.000139725469 C45.4213717,0.000139725469 48.2073798,2.78614783 48.207371,6.22286298 L48.207371,6.61173894 C48.207371,7.4525498 47.5257591,8.13416167 46.6849483,8.13416167 C46.3877033,8.13416167 46.0969603,8.04714678 45.8485781,7.8838653 C44.5586346,7.03578106 43.2600951,6.61173894 41.9529597,6.61173894 C40.6381492,6.61173894 39.3233387,7.04077538 38.0085282,7.89884827 C37.2976807,8.36281021 36.345319,8.16262486 35.8813907,7.45175542 C35.71835,7.20193088 35.6315351,6.91005853 35.6315351,6.61173894 L35.6315351,6.35329244 C35.6315038,2.84454308 38.4759071,0.000139725469 41.9846565,0.000139725469 Z" id="Rectangle-3-Copy-2" fill="#81685D"></path>
                        </g>
                        <path d="M58.0365478,37.03837 C54.3267466,32.5269003 54.1450695,24.6189031 61.746349,18.1967461 C69.3476284,11.7745892 65.2430721,0.676868173 58.0365478,0.55323547 C50.8300235,0.429602767 77.498425,-4.53368829 80.4052584,19.4364449 C83.3120917,43.4065782 61.746349,41.5498398 58.0365478,37.03837 Z" id="Path-2" fill="#7F5959"></path>
                        <path d="M68.8601335,111.80021 C72.725749,108.854199 79.5016512,108.709926 85.0044233,114.746222 C90.5071955,120.782518 100.016186,117.523025 100.12212,111.80021 C100.228053,106.077396 104.480808,127.255195 83.9421976,129.563557 C63.4035869,131.871919 64.9945179,114.746222 68.8601335,111.80021 Z" id="Path-2-Copy" fill="#7F5959"></path>
                        <path d="M64.5609381,111.80021 C60.6953225,108.854199 53.9194204,108.709926 48.4166482,114.746222 C42.9138761,120.782518 33.4048855,117.523025 33.2989519,111.80021 C33.1930182,106.077396 28.9402633,127.255195 49.4788739,129.563557 C70.0174846,131.871919 68.4265536,114.746222 64.5609381,111.80021 Z" id="Path-2-Copy-2" fill="#7F5959"></path>
                    </g>
                    <g id="3d-glass" transform="translate(24.000000, 74.000000)">
                        <path d="M80,0 C80.5522847,7.63596298e-15 81,0.44771525 81,1 L81,19.0555556 C81,19.6078403 80.5522847,20.0555556 80,20.0555556 L76.5197473,20.0555556 C76.2493407,20.0555556 75.9904606,20.1650639 75.8021373,20.3591103 L72.8828505,23.3671134 C72.3178805,23.9492527 71.5412402,24.2777778 70.7300206,24.2777778 L49.9121038,24.2777778 C48.8746267,24.2777778 47.9107878,23.7417366 47.3634901,22.8603604 L44.5712715,18.3637315 C43.9885806,17.4253578 42.7555142,17.1370199 41.8171405,17.7197107 C41.5966096,17.8566512 41.4048466,18.0352138 41.2525519,18.2454349 L37.7807168,23.0378053 C37.2164727,23.8166635 36.313016,24.2777778 35.3512512,24.2777778 L14.7348877,24.2777778 C13.9837428,24.2777778 13.2599269,23.9959958 12.7064968,23.488124 L9.25284215,20.3187735 C9.06836546,20.1494829 8.82709347,20.0555556 8.57671184,20.0555556 L6,20.0555556 C5.44771525,20.0555556 5,19.6078403 5,19.0555556 L5,1 C5,0.44771525 5.44771525,-9.5692398e-18 6,0 L80,0 Z M71.5555556,5.27777778 L51.3888889,5.27777778 C50.8366041,5.27777778 50.3888889,5.72549303 50.3888889,6.27777778 L50.3888889,6.27777778 L50.3888889,18 C50.3888889,18.5522847 50.8366041,19 51.3888889,19 L51.3888889,19 L71.5555556,19 C72.1078403,19 72.5555556,18.5522847 72.5555556,18 L72.5555556,18 L72.5555556,6.27777778 C72.5555556,5.72549303 72.1078403,5.27777778 71.5555556,5.27777778 L71.5555556,5.27777778 Z M34.6111111,5.27777778 L14.4444444,5.27777778 C13.8921597,5.27777778 13.4444444,5.72549303 13.4444444,6.27777778 L13.4444444,6.27777778 L13.4444444,18 C13.4444444,18.5522847 13.8921597,19 14.4444444,19 L14.4444444,19 L34.6111111,19 C35.1633959,19 35.6111111,18.5522847 35.6111111,18 L35.6111111,18 L35.6111111,6.27777778 C35.6111111,5.72549303 35.1633959,5.27777778 34.6111111,5.27777778 L34.6111111,5.27777778 Z" id="Combined-Shape" fill="#FFFFFF"></path>
                        <rect id="Rectangle-8" fill="#FFFFFF" x="0" y="0" width="8" height="6"></rect>
                        <rect id="Rectangle-8-Copy" fill="#FFFFFF" x="78" y="0" width="8" height="6"></rect>
                        <rect id="Rectangle-7-Copy-3" fill="#44CEFF" opacity="0.59301404" x="13.4444444" y="5.27777778" width="22.1666667" height="13.7222222" rx="1"></rect>
                        <path d="M51.3888889,5.27777778 L71.5555556,5.27777778 C72.1078403,5.27777778 72.5555556,5.72549303 72.5555556,6.27777778 L72.5555556,18 C72.5555556,18.5522847 72.1078403,19 71.5555556,19 L51.3888889,19 C50.8366041,19 50.3888889,18.5522847 50.3888889,18 L50.3888889,6.27777778 C50.3888889,5.72549303 50.8366041,5.27777778 51.3888889,5.27777778 Z" id="Rectangle-7-Copy-2" fill="#FF6363" opacity="0.59301404"></path>
                    </g>
                </g>
            </g>
        </g>
    </g>
</svg>