<?xml version="1.0" encoding="UTF-8"?>
<svg width="338px" height="323px" viewBox="0 0 338 323" version="1.1" xmlns="http://www.w3.org/2000/svg" xmlns:xlink="http://www.w3.org/1999/xlink">
    <title>Artwork 3</title>
    <defs>
        <path d="M13,0 L119,0 C126.179702,-5.91938913e-15 132,5.82029825 132,13 L132,83 C132,90.1797017 126.179702,96 119,96 L13,96 C5.82029825,96 2.65561672e-15,90.1797017 0,83 L0,13 C8.97096963e-16,5.82029825 5.82029825,3.09524665e-15 13,0 Z" id="path-1"></path>
        <ellipse id="path-3" cx="19.2579365" cy="19.1952235" rx="19.2579365" ry="19.1952235"></ellipse>
        <filter x="-105.2%" y="-74.2%" width="310.3%" height="311.0%" filterUnits="objectBoundingBox" id="filter-4">
            <feOffset dx="0" dy="12" in="SourceAlpha" result="shadowOffsetOuter1"></feOffset>
            <feGaussianBlur stdDeviation="11.5" in="shadowOffsetOuter1" result="shadowBlurOuter1"></feGaussianBlur>
            <feColorMatrix values="0 0 0 0 1   0 0 0 0 0.386284722   0 0 0 0 0.386284722  0 0 0 0.328662817 0" type="matrix" in="shadowBlurOuter1"></feColorMatrix>
        </filter>
        <ellipse id="path-5" cx="15.8013838" cy="15.749927" rx="15.8013838" ry="15.749927"></ellipse>
        <filter x="-128.2%" y="-90.5%" width="356.3%" height="357.1%" filterUnits="objectBoundingBox" id="filter-6">
            <feOffset dx="0" dy="12" in="SourceAlpha" result="shadowOffsetOuter1"></feOffset>
            <feGaussianBlur stdDeviation="11.5" in="shadowOffsetOuter1" result="shadowBlurOuter1"></feGaussianBlur>
            <feColorMatrix values="0 0 0 0 0.917647059   0 0 0 0 0.388235294   0 0 0 0 1  0 0 0 0.331012228 0" type="matrix" in="shadowBlurOuter1"></feColorMatrix>
        </filter>
        <ellipse id="path-7" cx="23.7399998" cy="23.662691" rx="23.7399998" ry="23.662691"></ellipse>
        <filter x="-85.3%" y="-60.2%" width="270.6%" height="271.2%" filterUnits="objectBoundingBox" id="filter-8">
            <feOffset dx="0" dy="12" in="SourceAlpha" result="shadowOffsetOuter1"></feOffset>
            <feGaussianBlur stdDeviation="11.5" in="shadowOffsetOuter1" result="shadowBlurOuter1"></feGaussianBlur>
            <feColorMatrix values="0 0 0 0 0.388235294   0 0 0 0 0.70326087   0 0 0 0 1  0 0 0 0.330276268 0" type="matrix" in="shadowBlurOuter1"></feColorMatrix>
        </filter>
        <ellipse id="path-9" cx="24.1958689" cy="24.1170757" rx="24.1958689" ry="24.1170757"></ellipse>
        <filter x="-83.7%" y="-59.1%" width="267.4%" height="267.9%" filterUnits="objectBoundingBox" id="filter-10">
            <feOffset dx="0" dy="12" in="SourceAlpha" result="shadowOffsetOuter1"></feOffset>
            <feGaussianBlur stdDeviation="11.5" in="shadowOffsetOuter1" result="shadowBlurOuter1"></feGaussianBlur>
            <feColorMatrix values="0 0 0 0 1   0 0 0 0 0.78461477   0 0 0 0 0.388235294  0 0 0 0.70666327 0" type="matrix" in="shadowBlurOuter1"></feColorMatrix>
        </filter>
    </defs>
    <g id="Empty-States" stroke="none" stroke-width="1" fill="none" fill-rule="evenodd">
        <g id="6.2_No-Videos" transform="translate(-23.000000, -90.000000)">
            <g id="Artwork" transform="translate(46.000000, 101.000000)">
                <path d="M141.5,275 C213.57316,275 272,216.57316 272,144.5 C272,72.4268402 213.57316,14 141.5,14 C69.4268402,14 11,72.4268402 11,144.5 C11,216.57316 69.4268402,275 141.5,275 Z" id="clip" stroke="#1B3554" stroke-width="2" opacity="0.341881793" stroke-linecap="round" stroke-linejoin="round" stroke-dasharray="1,12"></path>
                <g id="video" transform="translate(76.000000, 96.000000)">
                    <mask id="mask-2" fill="white">
                        <use xlink:href="#path-1"></use>
                    </mask>
                    <use id="Rectangle-35" fill="#393F46" xlink:href="#path-1"></use>
                    <rect id="Rectangle" fill="#FFFFFF" mask="url(#mask-2)" x="22.7991803" y="6.95081967" width="9.28278689" height="9.28278689"></rect>
                    <rect id="Rectangle-Copy-6" fill="#FFFFFF" mask="url(#mask-2)" x="22.7991803" y="79.3565574" width="9.28278689" height="9.28278689"></rect>
                    <path d="M14.3278689,6.95081967 L16.6106557,6.95081967 L16.6106557,6.95081967 L16.6106557,16.2336066 L7.32786885,16.2336066 L7.32786885,13.9508197 C7.32786885,10.0848264 10.4618756,6.95081967 14.3278689,6.95081967 Z" id="Rectangle-Copy-13" fill="#FFFFFF" mask="url(#mask-2)"></path>
                    <path d="M7.32786885,79.3565574 L16.6106557,79.3565574 L16.6106557,88.6393443 L14.3278689,88.6393443 C10.4618756,88.6393443 7.32786885,85.5053375 7.32786885,81.6393443 L7.32786885,79.3565574 L7.32786885,79.3565574 Z" id="Rectangle-Copy-12" fill="#FFFFFF" mask="url(#mask-2)"></path>
                    <rect id="Rectangle-Copy-2" fill="#FFFFFF" mask="url(#mask-2)" x="53.7418033" y="6.95081967" width="9.28278689" height="9.28278689"></rect>
                    <rect id="Rectangle-Copy-7" fill="#FFFFFF" mask="url(#mask-2)" x="53.7418033" y="79.3565574" width="9.28278689" height="9.28278689"></rect>
                    <rect id="Rectangle-Copy-4" fill="#FFFFFF" mask="url(#mask-2)" x="84.6844262" y="6.95081967" width="9.28278689" height="9.28278689"></rect>
                    <rect id="Rectangle-Copy-8" fill="#FFFFFF" mask="url(#mask-2)" x="84.6844262" y="79.3565574" width="9.28278689" height="9.28278689"></rect>
                    <rect id="Rectangle-Copy" fill="#FFFFFF" mask="url(#mask-2)" x="38.2704918" y="6.95081967" width="9.28278689" height="9.28278689"></rect>
                    <rect id="Rectangle-Copy-9" fill="#FFFFFF" mask="url(#mask-2)" x="38.2704918" y="79.3565574" width="9.28278689" height="9.28278689"></rect>
                    <rect id="Rectangle-Copy-3" fill="#FFFFFF" mask="url(#mask-2)" x="69.2131148" y="6.95081967" width="9.28278689" height="9.28278689"></rect>
                    <rect id="Rectangle-Copy-10" fill="#FFFFFF" mask="url(#mask-2)" x="69.2131148" y="79.3565574" width="9.28278689" height="9.28278689"></rect>
                    <rect id="Rectangle-Copy-5" fill="#FFFFFF" mask="url(#mask-2)" x="100.155738" y="6.95081967" width="9.28278689" height="9.28278689"></rect>
                    <rect id="Rectangle-Copy-11" fill="#FFFFFF" mask="url(#mask-2)" x="100.155738" y="79.3565574" width="9.28278689" height="9.28278689"></rect>
                    <path d="M115.627049,6.95081967 L117.909836,6.95081967 C121.775829,6.95081967 124.909836,10.0848264 124.909836,13.9508197 L124.909836,16.2336066 L124.909836,16.2336066 L115.627049,16.2336066 L115.627049,6.95081967 Z" id="Rectangle-Copy-15" fill="#FFFFFF" mask="url(#mask-2)"></path>
                    <path d="M115.627049,79.3565574 L124.909836,79.3565574 L124.909836,81.6393443 C124.909836,85.5053375 121.775829,88.6393443 117.909836,88.6393443 L115.627049,88.6393443 L115.627049,88.6393443 L115.627049,79.3565574 Z" id="Rectangle-Copy-14" fill="#FFFFFF" mask="url(#mask-2)"></path>
                    <rect id="Rectangle-35-Copy" fill="#565D66" mask="url(#mask-2)" x="7.32786885" y="20.5655738" width="117.581967" height="54.4590164"></rect>
                    <g id="Group-2" mask="url(#mask-2)">
                        <g transform="translate(45.000000, 27.000000)">
                            <circle id="Oval" fill="#FFFFFF" cx="21.1188525" cy="20.795082" r="20.4221311"></circle>
                            <path d="M25.8573148,17.3468909 L29.8415306,23.9872504 C30.6939751,25.4079912 30.2332799,27.250772 28.8125391,28.1032165 C28.3462929,28.3829642 27.8127837,28.5307377 27.2690518,28.5307377 L19.3006203,28.5307377 C17.6437661,28.5307377 16.3006203,27.187592 16.3006203,25.5307377 C16.3006203,24.9870059 16.4483938,24.4534966 16.7281415,23.9872504 L20.7123573,17.3468909 C21.5648018,15.9261501 23.4075825,15.4654549 24.8283233,16.3178993 C25.2505721,16.5712486 25.6039656,16.924642 25.8573148,17.3468909 Z" id="Triangle-3" fill="#A0BCDC" transform="translate(23.284836, 20.795082) rotate(90.000000) translate(-23.284836, -20.795082) "></path>
                        </g>
                    </g>
                </g>
                <g id="heart" transform="translate(253.000000, 96.000000)">
                    <g id="Oval-9">
                        <use fill="black" fill-opacity="1" filter="url(#filter-4)" xlink:href="#path-3"></use>
                        <use fill="#FF6363" fill-rule="evenodd" xlink:href="#path-3"></use>
                    </g>
                    <path d="M19.2574819,28.298281 C1.2892265,18.528468 14.2844159,6.38223535 19.2574819,14.5624965 C24.2313413,6.38223535 37.2273241,18.528468 19.2574819,28.298281 Z" id="Shape" fill="#FFFFFF" fill-rule="nonzero"></path>
                </g>
                <g id="balloon" transform="translate(189.000000, 245.000000)">
                    <g id="Oval-9">
                        <use fill="black" fill-opacity="1" filter="url(#filter-6)" xlink:href="#path-5"></use>
                        <use fill="#EA63FF" fill-rule="evenodd" xlink:href="#path-5"></use>
                    </g>
                    <path d="M16.5893779,10.1807422 C16.5635615,10.3973484 16.4274957,10.4243097 16.372371,10.426027 C16.366933,10.426027 16.360207,10.426027 16.3539961,10.4267712 C16.3515061,10.426027 16.3487584,10.426027 16.3487584,10.426027 L16.3487584,10.4262846 C16.1377334,10.4367028 15.9247335,10.4644082 15.7114474,10.5134365 C14.0048149,10.9073232 12.8678327,12.4563095 12.9316296,14.1437084 C12.931372,14.1469426 12.9297692,14.148803 12.9297692,14.1521517 C12.9305134,14.4173283 12.8445921,14.5973278 12.5319041,14.6762654 C12.3208505,14.7296442 12.1993243,14.5611791 12.1414806,14.4449765 C12.1090813,14.3450594 12.0767964,14.2451138 12.0524683,14.1405887 C11.6070632,12.2083915 12.8120783,10.2811459 14.7441324,9.83599836 C15.3302971,9.70093432 15.9129987,9.72228583 16.4562315,9.86542108 C16.5416948,9.89919425 16.6131909,10.0121626 16.5893779,10.1807422 L16.5893779,10.1807422 Z M22.0952381,13.7140737 C22.0952381,10.3476904 19.3670777,7.61904762 16.0009521,7.61904762 C12.634483,7.61904762 9.90592603,10.3476904 9.90592603,13.7140737 C9.88918255,14.5126659 10.0538983,15.2625733 10.3454924,15.9801958 C10.36215,16.0211816 10.3755448,16.0626253 10.3928034,16.1028382 C10.4619525,16.2647205 10.5407757,16.423855 10.6229475,16.5815299 C10.6300456,16.5949533 10.6353692,16.6083481 10.6428107,16.6217429 C11.5603246,18.3623775 13.2209054,19.917088 14.956474,21.4824742 L14.9562164,21.4824742 C14.9562164,21.4824742 15.1712198,21.6642196 14.9562164,22.0674083 L14.3566282,23.1936002 C14.3496732,23.2065085 14.1026426,23.7358313 14.5805615,23.8050949 L17.6402958,23.8050949 C17.8287386,23.7733252 18.1207048,23.6593551 17.8756776,23.2397664 C17.8756776,23.2397664 17.8756776,23.2387933 17.8744183,23.2387933 L17.1566813,22.0071031 C17.1566813,22.0071031 16.9516095,21.6811062 17.1556795,21.5073175 C17.7026331,21.0460276 18.561416,20.3130927 18.8779679,20.0000326 C20.0185564,18.8291913 21.2276643,17.3040467 21.7827749,15.6734611 C21.8200399,15.5410016 21.8537845,15.4125204 21.8825775,15.2902501 C21.9813783,14.9178294 22.0466636,14.532386 22.0742259,14.1355227 C22.0980961,13.8683712 22.0952381,13.7140737 22.0952381,13.7140737 L22.0952381,13.7140737 Z" id="Shape" fill="#FFFFFF" fill-rule="nonzero"></path>
                </g>
                <g id="music" transform="translate(80.000000, 0.000000)">
                    <g id="Oval-9">
                        <use fill="black" fill-opacity="1" filter="url(#filter-8)" xlink:href="#path-7"></use>
                        <use fill="#63CAFF" fill-rule="evenodd" xlink:href="#path-7"></use>
                    </g>
                    <path d="M30.8464863,11.6602523 C30.3326517,11.3031012 29.6750109,11.2188316 29.0872328,11.4346343 L19.4232489,14.9830665 C18.6729458,15.2585565 18.1688255,15.9791812 18.1688255,16.7761172 L18.1688255,27.6189564 C17.6174203,27.2288226 16.9098776,27.074962 16.1340247,27.1854498 C15.2586785,27.3100857 14.3927803,27.7613217 13.6958833,28.4559935 C12.998942,29.1506652 12.5462318,30.0137436 12.4211887,30.8861951 C12.2882499,31.8138684 12.535586,32.6444061 13.1177308,33.2246109 C13.597011,33.7023303 14.2464013,33.9537686 14.9804253,33.9537686 C15.1378936,33.9537686 15.2993984,33.9421849 15.4637421,33.9187963 C16.3390883,33.7941604 17.2049865,33.3429244 17.9019278,32.6482526 C18.5988248,31.9535809 19.0515794,31.0905025 19.1766225,30.2180068 C19.1964058,30.0797091 19.2067854,29.9438873 19.2098904,29.8103204 C19.2102453,29.8022737 19.2110881,20.4081558 19.2110881,20.4081558 L30.6249661,16.2171788 L30.6249661,23.0451849 C30.0736053,22.6551395 29.3660626,22.5012347 28.5901654,22.6116783 C27.7148191,22.73627 26.848921,23.1875502 26.1519796,23.8822219 C25.4550383,24.5768937 25.0023281,25.4399721 24.8772849,26.3124678 C24.7443019,27.240141 24.9916823,28.0706788 25.5737827,28.6508836 C26.0530629,29.128603 26.7024533,29.3801297 27.4365216,29.3801297 C27.5939899,29.3801297 27.7554947,29.368546 27.9198384,29.3451132 C28.7951846,29.2204773 29.6610828,28.7692413 30.3580241,28.0745695 C31.0549211,27.3798978 31.5076757,26.5168194 31.6327188,25.6443237 C31.6524578,25.5061586 31.6670957,13.2276409 31.6670957,13.2276409 C31.6670957,12.6033117 31.3602765,12.0174035 30.8464863,11.6602523 Z" id="Shape" fill="#FFFFFF" fill-rule="nonzero"></path>
                </g>
                <g id="star" transform="translate(0.000000, 174.000000)">
                    <g id="Oval-9">
                        <use fill="black" fill-opacity="1" filter="url(#filter-10)" xlink:href="#path-9"></use>
                        <use fill="#FFCF63" fill-rule="evenodd" xlink:href="#path-9"></use>
                    </g>
                    <polygon id="Star" fill="#FFFFFF" points="23.9166667 30.0416667 16.7162973 33.8271248 18.0914455 25.8093958 12.2662243 20.1312085 20.316482 18.9614376 23.9166667 11.6666667 27.5168513 18.9614376 35.567109 20.1312085 29.7418878 25.8093958 31.117036 33.8271248"></polygon>
                </g>
            </g>
        </g>
    </g>
</svg>