<svg fill="#000000" xmlns="http://www.w3.org/2000/svg"  viewBox="0 0 24 24" width="48px" height="48px"><path d="M 2 4 A 1.0001 1.0001 0 0 0 1 5 L 1 17 A 1.0001 1.0001 0 0 0 2 18 L 3.0507812 18 C 3.2981765 19.685411 4.7500665 21 6.5 21 C 8.2499335 21 9.7018235 19.685411 9.9492188 18 L 15.050781 18 C 15.298177 19.685411 16.750067 21 18.5 21 C 20.249933 21 21.701823 19.685411 21.949219 18 L 23 18 A 1.0001 1.0001 0 0 0 24 17 L 24 13.306641 C 24 12.751055 23.844767 12.206877 23.554688 11.734375 A 1.0001 1.0001 0 0 0 23.554688 11.732422 L 21.517578 8.4257812 C 20.972047 7.5400432 20.002712 7 18.962891 7 L 15 7 L 15 5 A 1.0001 1.0001 0 0 0 14 4 L 2 4 z M 3 6 L 13 6 L 13 8 L 13 9.5 L 13 12 L 13 16 L 9.6445312 16 C 9.0777003 14.824694 7.8831519 14 6.5 14 C 5.1168481 14 3.9222997 14.824694 3.3554688 16 L 3 16 L 3 6 z M 5 8 L 5 13 L 7 13 L 7 8 L 5 8 z M 9 8 L 9 13 L 11 13 L 11 8 L 9 8 z M 15 9 L 18.962891 9 C 19.311069 9 19.631984 9.1783475 19.814453 9.4746094 L 21.851562 12.78125 C 21.948828 12.940353 22 13.122859 22 13.306641 L 22 16 L 21.644531 16 C 21.0777 14.824694 19.883152 14 18.5 14 C 17.116848 14 15.9223 14.824694 15.355469 16 L 15 16 L 15 12 L 15 9.5 L 15 9 z M 6.5 16 C 7.3402718 16 8 16.659728 8 17.5 C 8 18.340272 7.3402718 19 6.5 19 C 5.6597282 19 5 18.340272 5 17.5 C 5 16.659728 5.6597282 16 6.5 16 z M 18.5 16 C 19.340272 16 20 16.659728 20 17.5 C 20 18.340272 19.340272 19 18.5 19 C 17.659728 19 17 18.340272 17 17.5 C 17 16.659728 17.659728 16 18.5 16 z"/></svg>